<?xml version="1.0" encoding="UTF-8"?>
<!DOCTYPE svg PUBLIC "-//W3C//DTD SVG 1.0//EN" "http://www.w3.org/TR/2001/REC-SVG-20010904/DTD/svg10.dtd">
<!-- Creator: CorelDRAW 2021 (64-Bit) -->
<svg xmlns="http://www.w3.org/2000/svg" xml:space="preserve" width="1.02778in" height="1.02778in" version="1.0" style="shape-rendering:geometricPrecision; text-rendering:geometricPrecision; image-rendering:optimizeQuality; fill-rule:evenodd; clip-rule:evenodd"
viewBox="0 0 144.43 144.43"
 xmlns:xlink="http://www.w3.org/1999/xlink"
 xmlns:xodm="http://www.corel.com/coreldraw/odm/2003">
 <defs>
  <style type="text/css">
   <![CDATA[
    .str2 {stroke:#712C2C;stroke-width:3.9;stroke-miterlimit:2.61313}
    .str3 {stroke:#273E54;stroke-width:3.9;stroke-miterlimit:2.61313}
    .str0 {stroke:#373435;stroke-width:0.98;stroke-miterlimit:2.61313}
    .str1 {stroke:#24394B;stroke-width:0.98;stroke-miterlimit:2.61313}
    .fil19 {fill:none}
    .fil12 {fill:#FEFEFE}
    .fil0 {fill:#E6E7E8}
    .fil13 {fill:#96989A}
    .fil16 {fill:#F06D6F}
    .fil17 {fill:#D65A5C}
    .fil2 {fill:#727B86}
    .fil5 {fill:#5F7395}
    .fil11 {fill:#373C45}
    .fil18 {fill:#285379}
    .fil14 {fill:#24394B}
    .fil7 {fill:#273B52}
    .fil8 {fill:#2B425C}
    .fil15 {fill:url(#id14)}
    .fil10 {fill:url(#id15)}
    .fil6 {fill:url(#id16)}
    .fil9 {fill:url(#id17)}
    .fil3 {fill:url(#id18)}
    .fil4 {fill:url(#id19)}
    .fil1 {fill:url(#id20)}
   ]]>
  </style>
    <mask id="id0">
  <linearGradient id="id1" gradientUnits="userSpaceOnUse" x1="110.61" y1="84" x2="112.03" y2="85.85">
   <stop offset="0" style="stop-opacity:1; stop-color:white"/>
   <stop offset="1" style="stop-opacity:0; stop-color:white"/>
  </linearGradient>
     <rect style="fill:url(#id1)" x="108.19" y="82.52" width="5.88" height="9.56"/>
    </mask>
    <mask id="id2">
  <linearGradient id="id3" gradientUnits="userSpaceOnUse" x1="30.23" y1="84.36" x2="28.81" y2="86.2">
   <stop offset="0" style="stop-opacity:1; stop-color:white"/>
   <stop offset="1" style="stop-opacity:0; stop-color:white"/>
  </linearGradient>
     <rect style="fill:url(#id3)" x="26.77" y="82.88" width="5.88" height="9.56"/>
    </mask>
    <mask id="id4">
  <linearGradient id="id5" gradientUnits="userSpaceOnUse" x1="71.64" y1="25.53" x2="66.71" y2="21.77">
   <stop offset="0" style="stop-opacity:1; stop-color:white"/>
   <stop offset="1" style="stop-opacity:0; stop-color:white"/>
  </linearGradient>
     <rect style="fill:url(#id5)" x="60.91" y="10.32" width="26.04" height="34.37"/>
    </mask>
    <mask id="id6">
  <linearGradient id="id7" gradientUnits="userSpaceOnUse" x1="102.29" y1="41.29" x2="97.68" y2="40.71">
   <stop offset="0" style="stop-opacity:1; stop-color:white"/>
   <stop offset="1" style="stop-opacity:0; stop-color:white"/>
  </linearGradient>
     <rect style="fill:url(#id7)" x="96.06" y="18.69" width="8.47" height="33.5"/>
    </mask>
    <mask id="id8">
  <linearGradient id="id9" gradientUnits="userSpaceOnUse" x1="47.26" y1="40.34" x2="54.47" y2="16.32">
   <stop offset="0" style="stop-opacity:1; stop-color:white"/>
   <stop offset="1" style="stop-opacity:0; stop-color:white"/>
  </linearGradient>
     <rect style="fill:url(#id9)" x="40.68" y="11.06" width="32.39" height="42.87"/>
    </mask>
    <mask id="id10">
  <linearGradient id="id11" gradientUnits="userSpaceOnUse" x1="75.68" y1="110.71" x2="75.68" y2="109.75">
   <stop offset="0" style="stop-opacity:1; stop-color:white"/>
   <stop offset="1" style="stop-opacity:0; stop-color:white"/>
  </linearGradient>
     <rect style="fill:url(#id11)" x="61.46" y="108" width="29.43" height="3.39"/>
    </mask>
    <mask id="id12">
  <linearGradient id="id13" gradientUnits="userSpaceOnUse" x1="45.91" y1="42.79" x2="53.32" y2="18.5">
   <stop offset="0" style="stop-opacity:1; stop-color:white"/>
   <stop offset="1" style="stop-opacity:0; stop-color:white"/>
  </linearGradient>
     <rect style="fill:url(#id13)" x="39.46" y="13.13" width="32.3" height="43.48"/>
    </mask>
  <linearGradient id="id14" gradientUnits="userSpaceOnUse" x1="75.63" y1="110.33" x2="75.76" y2="112.6">
   <stop offset="0" style="stop-opacity:1; stop-color:#712C2C"/>
   <stop offset="1" style="stop-opacity:1; stop-color:#F06D6F"/>
  </linearGradient>
  <linearGradient id="id15" gradientUnits="userSpaceOnUse" x1="74.42" y1="44.7" x2="92.14" y2="12.16">
   <stop offset="0" style="stop-opacity:1; stop-color:#27384E"/>
   <stop offset="1" style="stop-opacity:1; stop-color:#1B638B"/>
  </linearGradient>
  <linearGradient id="id16" gradientUnits="userSpaceOnUse" xlink:href="#id15" x1="67.34" y1="82.04" x2="97.04" y2="10.78">
  </linearGradient>
  <linearGradient id="id17" gradientUnits="userSpaceOnUse" xlink:href="#id15" x1="50.07" y1="49.97" x2="72.17" y2="14.6">
  </linearGradient>
  <radialGradient id="id18" gradientUnits="userSpaceOnUse" gradientTransform="matrix(0.522328 -0.0260807 0.0147845 1.40745 14 -36)" cx="32.28" cy="90.05" r="30.09" fx="32.28" fy="90.05">
   <stop offset="0" style="stop-opacity:1; stop-color:#FEFEFE"/>
   <stop offset="0.639216" style="stop-opacity:1; stop-color:#FEFEFE"/>
   <stop offset="0.8" style="stop-opacity:1; stop-color:#C0C6D4"/>
   <stop offset="1" style="stop-opacity:1; stop-color:#828EAB"/>
  </radialGradient>
  <radialGradient id="id19" gradientUnits="userSpaceOnUse" gradientTransform="matrix(1.07209 -0.0234729 0.0303452 1.26671 -8 -22)" xlink:href="#id18" cx="69.21" cy="87.71" r="153.98" fx="69.21" fy="87.71">
  </radialGradient>
  <radialGradient id="id20" gradientUnits="userSpaceOnUse" gradientTransform="matrix(-0.522328 -0.0260807 -0.0147845 1.40745 171 -34)" xlink:href="#id18" cx="111.33" cy="89.69" r="30.09" fx="111.33" fy="89.69">
  </radialGradient>
 </defs>
 <g id="Layer_x0020_1">
  <metadata id="CorelCorpID_0Corel-Layer"/>
  <circle class="fil0" cx="72.32" cy="71.77" r="70.27"/>
  <g id="_2053140270912">
   <path class="fil1" d="M107.86 82.05c0,0 1.07,-1.8 3.22,-1.76 2.14,0.04 3.3,2.74 1.89,9.01 -1.42,6.26 -1.97,9.44 -3.99,10.25 -2.02,0.81 -2.66,-0.13 -2.66,-0.13l1.54 -17.37z"/>
   <path class="fil2" style="mask:url(#id0)" d="M108.86 91.59c0,0 -0.94,-5.19 1.46,-7.63 2.4,-2.44 3.26,0.6 3.26,0.6 0,0 0.07,1.32 -0.31,3.19 -0.38,1.86 -0.16,-1.98 -0.85,-2.54 -0.69,-0.56 -1.42,-0.86 -2.23,0.86 -0.81,1.72 -1.33,5.53 -1.33,5.53z"/>
   <path class="fil3" d="M32.99 82.4c0,0 -1.07,-1.8 -3.22,-1.76 -2.14,0.04 -3.3,2.74 -1.89,9.01 1.42,6.26 1.97,9.44 3.99,10.25 2.02,0.81 2.66,-0.13 2.66,-0.13l-1.54 -17.37z"/>
   <path class="fil2" style="mask:url(#id2)" d="M31.98 91.95c0,0 0.94,-5.19 -1.46,-7.63 -2.4,-2.44 -3.26,0.6 -3.26,0.6 0,0 -0.07,1.32 0.31,3.19 0.38,1.86 0.16,-1.98 0.85,-2.54 0.69,-0.56 1.42,-0.86 2.23,0.86 0.81,1.72 1.33,5.53 1.33,5.53z"/>
   <path class="fil4 str0" d="M109.3 64.38c0,0 -0.64,19.04 0.04,24.45 0.69,5.4 0.39,14.24 -1.59,19.64 -1.97,5.4 -10.98,18.7 -21.1,20.76 -10.12,2.06 -27.36,4.72 -39.03,-7.2 -11.67,-11.92 -13.55,-19.47 -14.15,-27.88 -0.6,-8.41 0.69,-16.73 0.69,-16.73 0,0 1.54,-20.16 5.58,-25.39 4.03,-5.23 7.72,-9.43 12.09,-9.95 4.37,-0.51 23.33,-1.29 23.33,-1.29l18.27 2.74c0,0 4.63,0.26 5.75,1.54 1.12,1.29 6.35,6.35 8.06,10.29 1.72,3.95 2.06,9.01 2.06,9.01z"/>
   <path class="fil5" d="M37.24 57.96c0.7,-2.52 1.53,-4.66 2.5,-5.93 4.03,-5.23 7.72,-9.43 12.09,-9.95 4.37,-0.51 23.33,-1.29 23.33,-1.29l18.27 2.74c0,0 4.63,0.26 5.75,1.54 0.9,1.03 4.45,4.51 6.71,7.88 -0.67,0.64 -1.24,0.91 -1.62,0.57 -1.88,-1.68 -6.78,-7.24 -18.28,-5.52 -11.49,1.72 -9.92,-2.65 -24.53,-2.32 -14.57,0.34 -24.17,12.19 -24.22,12.26z"/>
   <path class="fil6" d="M34.04 81.99c0,0 1.8,-7.03 3,-12.95 1.2,-5.92 1.2,-13.55 5.92,-18.1 4.72,-4.55 4.03,-3.26 7.98,-4.46 3.95,-1.2 8.32,-1.03 10.29,-1.72 1.97,-0.69 6.78,0.69 14.84,0.6 8.06,-0.09 13.12,-0.69 13.12,-0.69 0,0 5.7,-0.39 10.98,3.95 5.28,4.33 6.39,10.89 6.39,10.89 0,0 1.54,10.94 2.06,15.91 0.52,4.98 0.52,7.63 0.52,7.63 0,0 1.63,-4.55 2.66,-17.84 1.19,-15.32 2,-15.16 -3.35,-29.81 -1.33,-3.65 -2.14,-4.85 -2.14,-4.85l-1.8 5.1c0,0 -3.73,-10.16 -5.06,-13.21 -1.33,-3.05 -1.72,-3.77 -1.72,-3.77l-2.49 4.93c0,0 -10.04,-4.8 -10.04,-6.43 0,-1.63 0.6,-4.72 0.6,-4.72 0,0 0.64,-1.87 -0.36,-1.8 -1.01,0.06 -9.54,5.47 -9.54,5.47 0,0 0.39,-4.61 0.26,-5.66 -0.14,-1.05 -10.42,3.65 -10.42,3.65 0,0 -7.33,2.7 -14.32,7.68 -6.99,4.98 -9.05,10.89 -9.05,10.89 0,0 -0.6,-4.33 -0.94,-5.45 -0.34,-1.11 -0.39,-1.2 -0.39,-1.2 0,0 -4.72,3.09 -9.26,14.67 -4.55,11.58 1.46,42.51 1.46,42.51l0.82 -1.23z"/>
   <path class="fil7" style="mask:url(#id4)" d="M64.31 44.64c0.16,0.01 0.33,0.03 0.5,0.04 2.55,-2.45 19.88,-19.09 20.36,-19.49 0.2,-0.17 0.95,-2.92 1.78,-6.19 -1.04,-0.73 -1.75,-1.39 -1.75,-1.82 0,-1.63 0.6,-4.72 0.6,-4.72 0,0 0.64,-1.87 -0.36,-1.8 -1.01,0.06 -9.54,5.47 -9.54,5.47 0,0 0.39,-4.61 0.26,-5.66 -0.03,-0.26 -0.66,-0.17 -1.6,0.1 -5.02,6.49 -11.3,14.92 -12.88,18.48 -2.44,5.49 1.69,13.81 2.64,15.59z"/>
   <path class="fil8" style="mask:url(#id6)" d="M96.18 45.76c1.08,0.97 6.51,5.37 7.24,6.43 0.61,-5.64 1.23,-12.57 1.08,-16.52 0,0 -5.14,-12.84 -6.78,-16.98 0,0 -0.94,16.55 -1.4,21.78 -0.47,5.22 -0.19,3.58 -0.14,5.29z"/>
   <path class="fil9" style="mask:url(#id8)" d="M40.68 53.93c0.61,-1.09 1.35,-2.1 2.28,-3 4.72,-4.55 5.88,-3.82 7.98,-4.46 2.1,-0.64 15.08,-1.58 15.34,-1.65 -4.99,-2.92 -9.37,-16.49 -6.49,-22.16 2.88,-5.67 7.47,-8.19 13.28,-11.6 -3.07,1.11 -7.34,3.06 -7.34,3.06 0,0 -7.33,2.7 -14.32,7.68 -6.99,4.98 -9.05,10.89 -9.05,10.89 -1.5,8.88 -1.7,17.08 -1.67,21.24z"/>
   <path class="fil10" d="M93.61 11.12c0,0 1.8,14.24 1.37,20.33 -0.42,6.02 -1.77,10.99 -5.65,13.15 -1.19,0.18 -1.56,2.06 -7.38,2.37 -5.81,0.31 -17,-2.27 -17.04,-2.27 -1.68,-2.97 -2.24,-7.9 -1.33,-12.82 1.29,-6.95 14.32,-12.18 19.9,-14.92 5.58,-2.75 9.52,-6.52 9.52,-6.52 0,0 0.56,-0.77 0.6,0.69z"/>
   <path class="fil11" d="M86.57 69.53c0,0 3.56,-2.4 8.53,-1.76 4.98,0.64 8.02,3.52 8.02,3.52 0,0 1.33,1.03 1.93,-0.34 0.6,-1.37 -1.24,-3.09 -3.77,-4.76 -2.53,-1.67 -6.6,-2.96 -10.76,-2.4 -4.16,0.56 -6.39,2.4 -6.39,2.4 0,0 -1.29,1.5 0.04,2.83 1.33,1.33 2.4,0.51 2.4,0.51z"/>
   <path class="fil11" d="M62.86 69.83c0,0 -4.01,-2.4 -9.62,-1.76 -5.61,0.64 -9.04,3.52 -9.04,3.52 0,0 -1.5,1.03 -2.18,-0.34 -0.68,-1.37 1.4,-3.09 4.26,-4.76 2.85,-1.67 7.45,-2.96 12.14,-2.4 4.69,0.56 7.21,2.4 7.21,2.4 0,0 1.45,1.5 -0.05,2.83 -1.5,1.33 -2.71,0.52 -2.71,0.52z"/>
   <path class="fil12 str1" d="M66.03 87.63c0,0 1.33,-2.66 -0.6,-6.56 -1.93,-3.9 -5.96,-5.28 -9.61,-5.53 -3.64,-0.26 -7.33,1.93 -9.01,3.73 -1.67,1.8 -1.8,4.63 -1.76,5.23 0.04,0.6 1.54,3.13 4.63,4.76 3.09,1.63 8.06,1.42 11.28,0.69 3.22,-0.73 5.06,-2.32 5.06,-2.32z"/>
   <path class="fil13" d="M52.58 90.21c1.8,0.34 3.79,0.35 5.61,0.17 2.19,-1 3.71,-3.21 3.71,-5.77 0,-3.5 -2.84,-6.34 -6.34,-6.34 -3.5,0 -6.34,2.84 -6.34,6.34 0,2.42 1.36,4.53 3.36,5.59z"/>
   <path class="fil14" d="M66.46 84.79c-0.06,-1.03 -0.33,-2.29 -1.03,-3.73 -1.93,-3.9 -5.96,-5.28 -9.61,-5.53 -4.95,-0.35 -11.16,3.48 -10.76,8.96 0.01,0.16 0.13,0.47 0.36,0.86 0,-0 0.5,-6.52 6.85,-8.23 6.35,-1.72 9.91,1.59 10.81,2.14 0.69,0.42 2.39,3.04 3.39,5.53z"/>
   <path class="fil14" d="M55.55 80.12c2.48,0 4.49,2.01 4.49,4.49 0,2.48 -2.01,4.49 -4.49,4.49 -2.48,0 -4.49,-2.01 -4.49,-4.49 0,-2.48 2.01,-4.49 4.49,-4.49z"/>
   <path class="fil12" d="M53.16 80.55c0.82,0 1.48,0.66 1.48,1.48 0,0.82 -0.67,1.48 -1.48,1.48 -0.82,0 -1.48,-0.66 -1.48,-1.48 0,-0.82 0.66,-1.48 1.48,-1.48z"/>
   <path class="fil12 str1" d="M83.54 87.63c0,0 -1.27,-2.66 0.57,-6.56 1.85,-3.9 5.7,-5.28 9.19,-5.53 3.49,-0.26 7.01,1.93 8.61,3.73 1.6,1.8 1.72,4.63 1.68,5.23 -0.04,0.6 -1.48,3.13 -4.43,4.76 -2.95,1.63 -7.71,1.42 -10.79,0.69 -3.08,-0.73 -4.84,-2.32 -4.84,-2.32z"/>
   <path class="fil13" d="M92.75 90.49c-1.58,-0.04 -3.11,-0.25 -4.37,-0.54 -0.64,-0.15 -1.22,-0.34 -1.74,-0.54 -1.26,-1.2 -2.06,-2.92 -2.06,-4.84 0,-3.61 2.8,-6.54 6.25,-6.54 3.45,0 6.25,2.93 6.25,6.54 0,2.5 -1.34,4.67 -3.31,5.77 -0.34,0.07 -0.68,0.12 -1.03,0.16z"/>
   <path class="fil14" d="M83.12 84.79c0.05,-1.03 0.31,-2.29 0.99,-3.73 1.85,-3.9 5.7,-5.28 9.19,-5.53 4.73,-0.35 10.67,3.48 10.3,8.96 -0.01,0.16 -0.13,0.47 -0.34,0.86 0,-0 -0.48,-6.52 -6.55,-8.23 -6.07,-1.72 -9.48,1.59 -10.34,2.14 -0.66,0.42 -2.29,3.04 -3.25,5.53z"/>
   <path class="fil14" d="M90.74 79.9c-2.42,0 -4.38,2.05 -4.38,4.58 0,2.53 1.96,4.58 4.38,4.58 2.42,0 4.38,-2.05 4.38,-4.58 0,-2.53 -1.96,-4.58 -4.38,-4.58z"/>
   <path class="fil12" d="M93.07 80.34c-0.8,0 -1.45,0.68 -1.45,1.51 0,0.84 0.65,1.51 1.45,1.51 0.8,0 1.45,-0.68 1.45,-1.51 0,-0.83 -0.65,-1.51 -1.45,-1.51z"/>
   <path class="fil14" d="M34.53 78.15c0,0 -0,0.09 -0.01,0.26 -0.04,2.13 -0.12,16.95 4.49,22.99 4.98,6.52 7.38,7.72 10.12,8.32 2.74,0.6 4.12,0.09 6.78,-1.37 2.66,-1.46 5.49,-4.12 13.25,-4.29 7.76,-0.17 4.12,0.69 9.74,0.17 5.62,-0.51 7.2,-0.69 9.56,-0.17 2.36,0.51 4.5,1.5 6.39,2.66 1.89,1.16 3.47,2.23 6.52,1.46 3.05,-0.77 4.5,-1.5 5.79,-5.27 1.29,-3.77 2.14,-10.79 1.76,-14.11 -0.39,-3.32 0.16,-7.53 0.16,-7.53 0,0 1.06,10.18 1.06,12.87 0,2.68 0.45,12.84 -5.64,21.38 -6.09,8.53 -7.25,9.91 -16.3,14.88 -9.05,4.98 -24.4,1.59 -24.4,1.59 0,0 -11.67,-4.16 -17.16,-9.99 -5.49,-5.83 -7.85,-8.71 -10.89,-14.54 -3.04,-5.83 -4.42,-21.14 -1.22,-29.29zm41.54 37.7c0,0 -2.74,-0.17 -3.82,0.86 -1.07,1.03 -2.49,3.05 -6.48,2.87 -3.99,-0.17 -5.15,-3.99 -5.7,-5.92 -0.56,-1.93 0.04,-4.72 4.33,-4.98 4.29,-0.26 5.7,-0.13 7.63,-0.69 1.93,-0.56 6.6,-0.43 9.05,-0.09 2.44,0.34 7.42,0.26 7.42,0.26 0,0 2.19,-0.6 2.74,2.32 0.56,2.92 -0.51,6.6 -3.39,7.85 -2.87,1.24 -5.15,0.34 -5.88,-0.69 -0.73,-1.03 -2.79,-2.32 -5.92,-1.8z"/>
   <path class="fil15" d="M75.08 113.96c8.23,-0.09 12.18,-2.7 12.18,-2.7 0,0 1.41,-0.83 2.36,-1.61 0.95,-0.78 0.77,-0.97 0.77,-0.97 0,0 -1.11,-0.32 -3.96,-0.08 -2.85,0.24 -5.94,-0.11 -7.27,-0.11 -1.33,0 -5,-0.04 -7.83,0.34 -2.83,0.39 -8.45,0.41 -8.45,0.41l-0.93 0c0.04,3.22 10.92,4.74 13.13,4.71z"/>
   <path class="fil16" d="M90.32 108.93c0.12,-0.19 0.06,-0.26 0.06,-0.26 0,0 -1.11,-0.32 -3.96,-0.08 -2.85,0.24 -5.94,-0.11 -7.27,-0.11 -1.33,0 -5,-0.04 -7.83,0.34 -2.83,0.39 -8.45,0.41 -8.45,0.41l-0.93 0c0,0.08 0.01,0.16 0.02,0.24 2.42,0.75 6.3,1.49 12.14,1.42 8.78,-0.1 14.16,-1.37 16.21,-1.97z"/>
   <path class="fil17" style="mask:url(#id10)" d="M90.32 108.93c0.12,-0.19 0.06,-0.26 0.06,-0.26 0,0 -1.11,-0.32 -3.96,-0.08 -2.85,0.24 -5.94,-0.11 -7.27,-0.11 -1.33,0 -5,-0.04 -7.83,0.34 -2.83,0.39 -8.45,0.41 -8.45,0.41l-0.93 0c0,0.08 0.01,0.16 0.02,0.24 2.42,0.75 6.3,1.49 12.14,1.42 8.78,-0.1 14.16,-1.37 16.21,-1.97z"/>
   <path class="fil18" d="M74.56 102.18c0,0 -2.84,-1.83 -3.25,-2.38 -0.42,-0.54 -1.95,-0.39 -1.43,0.2 0.51,0.59 4.68,2.18 4.68,2.18z"/>
   <path class="fil18" d="M69.84 95.76c0,0 -1.72,2.57 -1,3.75 0.72,1.18 4.01,2.98 4.01,2.98 0,0 -2.91,-0.95 -4.43,-2.57 -1.52,-1.62 1.42,-4.17 1.42,-4.17z"/>
   <path class="fil18" d="M77.37 102.12c0,0 2.76,-1.94 3.16,-2.5 0.4,-0.56 1.93,-0.47 1.44,0.14 -0.49,0.61 -4.59,2.36 -4.59,2.36z"/>
   <path class="fil18" d="M81.83 95.53c0,0 1.82,2.5 1.15,3.71 -0.67,1.21 -3.89,3.14 -3.89,3.14 0,0 2.87,-1.06 4.32,-2.74 1.45,-1.68 -1.59,-4.11 -1.59,-4.11z"/>
   <path class="fil14" style="mask:url(#id12)" d="M39.5 56.61c0.39,-0.71 0.72,-1.99 1.24,-2.62l-0.05 -0.06c-0.02,-4.17 0.17,-12.36 1.67,-21.24 0,0 0.29,-0.84 1.03,-2.15 -4.47,6.34 -3.93,18.45 -3.89,26.07zm20.28 -33.92c2.59,-3.42 7.13,-6.71 11.98,-9.56 -1.52,0.55 -3.33,1.3 -4.78,1.92 -3.23,2.41 -5.86,4.99 -7.19,7.61l-0.01 0.03z"/>
  </g>
  <path class="fil19 str2" d="M72.22 142.48c-38.81,0 -70.27,-31.46 -70.27,-70.27 0,-38.81 31.46,-70.27 70.27,-70.27"/>
  <path class="fil19 str3" d="M72.22 1.95c38.81,0 70.27,31.46 70.27,70.27 0,38.81 -31.46,70.27 -70.27,70.27"/>
 </g>
</svg>
