<?xml version="1.0" encoding="UTF-8"?>
<!DOCTYPE svg PUBLIC "-//W3C//DTD SVG 1.0//EN" "http://www.w3.org/TR/2001/REC-SVG-20010904/DTD/svg10.dtd">
<!-- Creator: CorelDRAW 2021 (64-Bit) -->
<svg xmlns="http://www.w3.org/2000/svg" xml:space="preserve" width="1.02778in" height="1.02778in" version="1.0" style="shape-rendering:geometricPrecision; text-rendering:geometricPrecision; image-rendering:optimizeQuality; fill-rule:evenodd; clip-rule:evenodd"
viewBox="0 0 144.43 144.43"
 xmlns:xlink="http://www.w3.org/1999/xlink"
 xmlns:xodm="http://www.corel.com/coreldraw/odm/2003">
 <defs>
  <style type="text/css">
   <![CDATA[
    .str1 {stroke:#712C2C;stroke-width:3.9;stroke-miterlimit:2.61313}
    .str2 {stroke:#273E54;stroke-width:3.9;stroke-miterlimit:2.61313}
    .str0 {stroke:#24394B;stroke-width:0.98;stroke-miterlimit:2.61313}
    .fil19 {fill:none}
    .fil12 {fill:#FEFEFE}
    .fil0 {fill:#E6E7E8}
    .fil16 {fill:#D65A5C}
    .fil17 {fill:#AD4141}
    .fil15 {fill:#712C2C}
    .fil5 {fill:#727B86}
    .fil11 {fill:#373C45}
    .fil18 {fill:#285379}
    .fil2 {fill:#24394B}
    .fil3 {fill:#223140}
    .fil14 {fill:url(#id5)}
    .fil8 {fill:url(#id6)}
    .fil10 {fill:url(#id7)}
    .fil7 {fill:url(#id8)}
    .fil13 {fill:url(#id9)}
    .fil9 {fill:url(#id10)}
    .fil6 {fill:url(#id11)}
    .fil1 {fill:url(#id12)}
    .fil4 {fill:url(#id13)}
   ]]>
  </style>
    <mask id="id0">
  <linearGradient id="id1" gradientUnits="userSpaceOnUse" x1="114.64" y1="77.16" x2="116.54" y2="79.7">
   <stop offset="0" style="stop-opacity:1; stop-color:white"/>
   <stop offset="1" style="stop-opacity:0; stop-color:white"/>
  </linearGradient>
     <rect style="fill:url(#id1)" x="110.9" y="75.19" width="8.43" height="13.28"/>
    </mask>
    <mask id="id2">
  <linearGradient id="id3" gradientUnits="userSpaceOnUse" x1="31.16" y1="77.16" x2="29.25" y2="79.7">
   <stop offset="0" style="stop-opacity:1; stop-color:white"/>
   <stop offset="1" style="stop-opacity:0; stop-color:white"/>
  </linearGradient>
     <rect style="fill:url(#id3)" x="26.46" y="75.19" width="8.43" height="13.28"/>
    </mask>
    <clipPath id="id4">
     <path d="M34.57 68.72l76.83 0 -0.16 32.54 -76.83 0 0.16 -32.54z"/>
    </clipPath>
  <linearGradient id="id5" gradientUnits="userSpaceOnUse" x1="93.76" y1="79.19" x2="86.41" y2="85.2">
   <stop offset="0" style="stop-opacity:1; stop-color:#285379"/>
   <stop offset="1" style="stop-opacity:1; stop-color:#1376AA"/>
  </linearGradient>
  <linearGradient id="id6" gradientUnits="userSpaceOnUse" x1="108.73" y1="35.2" x2="101.03" y2="38.65">
   <stop offset="0" style="stop-opacity:1; stop-color:#285379"/>
   <stop offset="1" style="stop-opacity:1; stop-color:#24394B"/>
  </linearGradient>
  <linearGradient id="id7" gradientUnits="userSpaceOnUse" xlink:href="#id6" x1="50.32" y1="29.82" x2="41.25" y2="44.29">
  </linearGradient>
  <linearGradient id="id8" gradientUnits="userSpaceOnUse" xlink:href="#id6" x1="77.34" y1="27.66" x2="65.77" y2="32.01">
  </linearGradient>
  <linearGradient id="id9" gradientUnits="userSpaceOnUse" xlink:href="#id5" x1="57.03" y1="79.19" x2="49.68" y2="85.2">
  </linearGradient>
  <linearGradient id="id10" gradientUnits="userSpaceOnUse" xlink:href="#id6" x1="63.21" y1="25.09" x2="47.84" y2="36.69">
  </linearGradient>
  <radialGradient id="id11" gradientUnits="userSpaceOnUse" gradientTransform="matrix(0.477082 -0.0128648 0.0968447 1.28743 10 -24)" cx="34.56" cy="85.27" r="13.7" fx="34.56" fy="85.27">
   <stop offset="0" style="stop-opacity:1; stop-color:#FEFEFE"/>
   <stop offset="0.639216" style="stop-opacity:1; stop-color:#FEFEFE"/>
   <stop offset="0.8" style="stop-opacity:1; stop-color:#C0C6D4"/>
   <stop offset="1" style="stop-opacity:1; stop-color:#828EAB"/>
  </radialGradient>
  <radialGradient id="id12" gradientUnits="userSpaceOnUse" gradientTransform="matrix(1.05243 -0.0234729 0.0297887 1.2667 -6 -22)" xlink:href="#id11" cx="70.69" cy="88.28" r="279.84" fx="70.69" fy="88.28">
  </radialGradient>
  <radialGradient id="id13" gradientUnits="userSpaceOnUse" gradientTransform="matrix(-0.477082 -0.0128648 -0.0968447 1.28743 173 -23)" xlink:href="#id11" cx="111.24" cy="85.27" r="13.7" fx="111.24" fy="85.27">
  </radialGradient>
 </defs>
 <g id="Layer_x0020_1">
  <metadata id="CorelCorpID_0Corel-Layer"/>
  <circle class="fil0" cx="72.32" cy="71.77" r="70.27"/>
  <g id="_2053643330608">
   <path class="fil1" d="M85.09 128.06c0,0 -5.75,3.45 -11.22,4.12 -5.46,0.67 -11.5,-3.36 -15.62,-5.85 -4.12,-2.49 -11.79,-10.64 -14.47,-14.38 -2.68,-3.74 -4.79,-10.74 -5.85,-14.09 -1.05,-3.36 -3.36,-21.86 -2.97,-27.32 0.38,-5.46 1.92,-7.38 2.3,-11.5 0.38,-4.12 1.82,-11.6 5.56,-14.57 3.74,-2.97 6.33,-4.22 12.75,-3.74 6.42,0.48 8.91,1.63 13.42,1.53 4.51,-0.1 11.84,0.34 15.62,-0.81 3.79,-1.15 13.23,-0.34 16.63,1.77 3.4,2.11 6.76,9.06 7.33,14.81 0.57,5.75 2.68,14 2.44,17.35 -0.24,3.36 -3.78,23.02 -3.78,23.02 0,0 -3.89,12.5 -9.16,18.63 -5.27,6.13 -12.99,11.02 -12.99,11.02z"/>
   <path class="fil2" d="M85.09 128.06c0,0 -5.75,3.45 -11.22,4.12 -5.46,0.67 -11.5,-3.36 -15.62,-5.85 -1.09,-0.66 -2.43,-1.72 -3.86,-2.98 0.81,-0.75 2.16,-1.32 3.43,-0.85 1.98,0.73 9.01,1.76 10.03,0.15 1.45,-2.28 -0.34,-7.12 0.35,-6.68 0.84,0.53 4.12,1.12 4.12,1.12 0,0 3.53,-0.68 4.12,-1.12 0.43,-0.32 -0.9,4.72 0.35,6.68 1.03,1.61 8.06,0.59 10.03,-0.15 1.59,-0.59 3.32,0.48 3.94,1.45 -3.14,2.51 -5.66,4.11 -5.66,4.11z"/>
   <path class="fil3" d="M36.07 78.53c0,0 -0.73,-3.76 1.52,-14.21 2.25,-10.45 1.85,-14.33 4.96,-17.49 3.12,-3.16 5.68,-4.67 7.96,-4.79 2.28,-0.12 4.77,-0.19 7.88,0.26 3.12,0.46 6.78,2.06 16.85,1.58 10.07,-0.48 10.11,-1.15 15.58,-1.2 5.46,-0.05 8.77,0.77 11.84,3.79 3.07,3.02 4.74,13.08 4.74,13.08l1.49 8.91 0.29 10.98 0.65 2.14 3.18 -18.38 -9.11 -24.92c0,0 -23.11,-4.97 -25.5,-5.66 -2.39,-0.68 -28.28,-0.77 -28.28,-0.77l-13.32 14.57c0,0 -5.46,11.5 -5.27,12.08 0.19,0.58 4.54,20.03 4.54,20.03z"/>
   <path class="fil4" d="M110.92 74.46c0,0 1.69,-2.6 4.74,-2.6 3.05,-0.01 4.45,3.79 1.86,12.74 -2.59,8.95 -3.68,13.48 -6.62,14.7 -2.95,1.22 -3.78,-0.1 -3.78,-0.1l3.8 -24.74z"/>
   <path class="fil5" style="mask:url(#id0)" d="M111.48 87.99c0,0 -0.87,-7.35 2.78,-10.9 3.65,-3.55 4.59,0.75 4.59,0.75 0,0 -0.02,1.88 -0.73,4.54 -0.72,2.66 -0.05,-2.82 -0.97,-3.59 -0.93,-0.77 -1.94,-1.17 -3.26,1.29 -1.32,2.47 -2.4,7.91 -2.4,7.91z"/>
   <path class="fil6" d="M34.87 74.46c0,0 -1.69,-2.6 -4.74,-2.6 -3.05,-0.01 -4.45,3.79 -1.86,12.74 2.59,8.95 3.68,13.48 6.62,14.7 2.95,1.22 3.78,-0.1 3.78,-0.1l-3.8 -24.74z"/>
   <path class="fil5" style="mask:url(#id2)" d="M34.32 87.99c0,0 0.87,-7.35 -2.78,-10.9 -3.65,-3.55 -4.59,0.75 -4.59,0.75 0,0 0.02,1.88 0.73,4.54 0.72,2.66 0.05,-2.82 0.97,-3.59 0.93,-0.77 1.94,-1.17 3.26,1.29 1.32,2.47 2.4,7.91 2.4,7.91z"/>
   <path class="fil2" d="M36.06 78.12l0.01 0.41 0.09 4.26c0,0 0.31,1.66 0.22,2.88 -0.1,1.22 -1.29,-1.1 -1.51,-3.86 -0.22,-2.76 -0.48,-6.73 -0.48,-6.73 0,0 -1.97,-7.33 -3.02,-11.36 -1.05,-4.03 -1.87,-11.84 -0.1,-16.63 1.77,-4.79 2.97,-5.37 2.97,-5.37 0,0 -3.79,-5.51 -0.38,-11.93 3.4,-6.42 11.55,-8.53 11.55,-8.53 0,0 6.04,-6.9 13.56,-7.29 7.53,-0.38 7.33,-0.53 7.33,-0.53 0,0 7.14,-1.82 19.03,0.67 11.89,2.49 18.41,10.07 18.41,10.07 0,0 0.14,1.01 1.92,2.11 1.77,1.1 3.36,3.16 3.83,5.13 0.48,1.97 -0.48,3.88 0.53,5.03 1.01,1.15 1.39,0.53 1.39,3.02 0,2.49 -0.38,3.31 1.49,5.22 1.87,1.92 2.54,7.19 2.25,12.7 -0.29,5.51 -3.64,17.54 -3.64,17.54 0,0 -0.34,4.65 -0.53,7.14 -0.19,2.49 -0.43,3.52 -1.01,3.79 -0.58,0.27 -0.72,-2.68 -0.34,-6.04 0.38,-3.36 0.86,-7.91 0.38,-9.59 -0.48,-1.68 -1.63,-14.14 -3.36,-17.93 -1.73,-3.79 -2.68,-6.52 -5.03,-7.96 -2.35,-1.44 -3.57,-2.28 -7.69,-2.44 -4.12,-0.17 -8.48,-0.1 -11.17,0.53 -2.68,0.62 -10.14,0.48 -10.14,0.48 0,0 -4.39,-0.05 -10.78,-0.84 -6.4,-0.79 -10.59,-1.29 -14.81,0.55 -4.22,1.85 -6.64,6.25 -7.09,7.4 -0.46,1.15 -1.82,6.83 -2.3,10.09 -0.48,3.26 -1.92,9.59 -1.97,10.59 -0.05,1.01 0.38,7.41 0.38,7.41z"/>
   <path class="fil7" d="M66.08 13.49c0.25,-0.03 0.23,-0.05 0.23,-0.05 0,0 2.18,-0.56 6.14,-0.63 2.8,3.98 5.66,9.09 6.75,14.49 1.1,5.45 -0.38,11.09 -2.3,15.61 -0.73,0.02 -1.43,0.02 -2.05,0.02 1.26,-5.15 1.98,-11.68 -0.05,-17.36 -1.87,-5.23 -5.41,-9.25 -8.71,-12.08z"/>
   <path class="fil8" d="M106.52 26.92c1.4,1.16 2.56,2.86 2.96,4.5 0.48,1.97 -0.48,3.88 0.53,5.03 0.18,0.21 0.34,0.36 0.48,0.48 -1.99,2.56 -5.4,5.4 -8.47,7.7 -0.13,-0.09 -0.26,-0.18 -0.4,-0.27 -0.2,-0.12 -0.4,-0.24 -0.58,-0.36 2.28,-2.42 4.53,-5.33 5.18,-7.89 0.72,-2.84 0.6,-6.38 0.3,-9.2z"/>
   <path class="fil9" d="M45.52 21.12c0.63,-0.68 3.69,-3.86 7.91,-5.75 4.06,1.44 8,3.75 10.9,7.41 5.19,6.57 6.05,14.37 5.78,20.03 -0.69,-0.04 -1.5,-0.09 -2.43,-0.16 -1.34,-5.85 -4.02,-13.4 -9.29,-17.1 -3.82,-2.68 -8.58,-3.92 -12.87,-4.45z"/>
   <path class="fil10" d="M34.15 41.59c-0.54,-0.88 -3.39,-5.96 -0.3,-11.8 0.48,-0.9 1.05,-1.72 1.68,-2.45 4.28,-0.19 9.17,0.14 13.85,1.69 12.46,4.12 15.93,13.44 15.93,13.44l-0 0c-0.01,-0 -1.35,-0.22 -3.24,-0.35l-0.23 -0.03c-6.4,-0.79 -10.59,-1.29 -14.81,0.55 -1.14,0.5 -2.15,1.18 -3.02,1.94 -2.46,-0.87 -6.06,-2.06 -9.86,-2.99z"/>
   <path class="fil11" d="M59.01 69.37c0,0 -2.35,-1.63 -5.75,-1.58 -3.4,0.05 -7.12,0.29 -8.12,0.89 -1.01,0.6 -1.99,1.05 -1.99,1.05 0,0 -0.77,-0.46 0.17,-1.27 0.93,-0.81 4.29,-2.92 8.96,-3.36 4.67,-0.43 9.92,2.13 9.92,2.13 0,0 1.99,0.93 1.08,1.85 -0.91,0.91 -2.68,0.77 -3.47,0.53 -0.79,-0.24 -0.79,-0.24 -0.79,-0.24z"/>
   <path class="fil11" d="M87.87 68.73c-2.61,0.89 -2.68,1.01 -4.31,0.86 -1.63,-0.14 -1.41,-1.89 0.07,-2.44 1.49,-0.55 6.4,-1.68 7.98,-1.89 1.58,-0.22 5.73,0.26 7.55,1.2 1.82,0.93 3.47,2.35 3.47,2.35 0,0 0.55,0.62 0.1,0.86 -0.46,0.24 -1.7,-0.96 -4.27,-1.49 -2.78,-0.57 -7.77,-0.41 -10.59,0.55z"/>
   <path class="fil12 str0" d="M64.5 84.16c0,0 -3.21,4.89 -9.44,5.22 -6.23,0.34 -9.54,-3.93 -10.16,-4.7 -0.62,-0.77 -1.63,-3.5 -1.63,-3.5 0,0 -0.29,-4.07 4.07,-6.47 6.95,-3.82 17.82,0.63 17.16,9.44z"/>
   <path class="fil2" d="M64.5 84.16c0,0 -0.02,0.03 -0.07,0.1 -0.37,-1.69 -0.94,-3.89 -1.61,-5.13 -1.2,-2.2 -5.7,-5.75 -11.07,-4.75 -5.37,1.01 -7.05,5.37 -7.05,5.37 0,0 -1.44,1.44 1.05,4.98 1.38,1.96 4.2,3.49 6.45,4.48 -4.4,-0.8 -6.8,-3.88 -7.32,-4.52 -0.62,-0.77 -1.63,-3.5 -1.63,-3.5 0,0 -0.29,-4.07 4.07,-6.47 6.95,-3.82 17.82,0.63 17.16,9.44z"/>
   <ellipse class="fil13" cx="54.56" cy="81.38" rx="6.4" ry="6.23"/>
   <ellipse class="fil2" cx="54.56" cy="81.38" rx="4.04" ry="3.93"/>
   <ellipse class="fil12" cx="52.28" cy="78.78" rx="1.56" ry="1.52"/>
   <path class="fil12 str0" d="M81.34 84.16c0,0 3.21,4.89 9.44,5.22 6.23,0.34 9.54,-3.93 10.16,-4.7 0.62,-0.77 1.63,-3.5 1.63,-3.5 0,0 0.29,-4.07 -4.07,-6.47 -6.95,-3.82 -17.82,0.63 -17.16,9.44z"/>
   <path class="fil2" d="M81.34 84.16c0,0 0.02,0.03 0.07,0.1 0.37,-1.69 0.94,-3.89 1.61,-5.13 1.2,-2.2 5.7,-5.75 11.07,-4.75 5.37,1.01 7.05,5.37 7.05,5.37 0,0 1.44,1.44 -1.05,4.98 -1.38,1.96 -4.2,3.49 -6.45,4.48 4.4,-0.8 6.8,-3.88 7.32,-4.52 0.62,-0.77 1.63,-3.5 1.63,-3.5 0,0 0.29,-4.07 -4.07,-6.47 -6.95,-3.82 -17.82,0.63 -17.16,9.44z"/>
   <ellipse class="fil14" cx="91.29" cy="81.38" rx="6.4" ry="6.23"/>
   <ellipse class="fil2" cx="91.29" cy="81.38" rx="4.04" ry="3.93"/>
   <ellipse class="fil12" cx="88.75" cy="78.76" rx="1.56" ry="1.52"/>
   <g style="clip-path:url(#id4)">
    <image x="34.41" y="68.72" width="76.99" height="32.54" xlink:href="front_Images\front_ImgID1.png"/>
   </g>
   <path class="fil15" d="M35.55 73.35c0,0 0.21,-0.03 0.56,-0.1 0.74,-0.15 2.11,-0.46 3.4,-0.95 1.89,-0.72 4.34,-1.15 8.89,-1.25 4.55,-0.1 10.57,0.84 13.04,1.34 2.47,0.5 4.65,2.47 4.65,2.47l0.96 1.41c4.72,-2.84 6.91,-3 11.74,0l0.96 -1.41c0,0 2.18,-1.97 4.65,-2.47 2.47,-0.5 8.48,-1.44 13.04,-1.34 4.55,0.1 7,0.53 8.89,1.25 1.89,0.72 3.95,1.05 3.95,1.05l0.23 4.01c0,0 -1.45,0.09 -1.67,0.88 -0.22,0.79 -0.5,6.23 -0.5,6.23 0,0 -0.96,6.76 -4.55,9.15 -3.59,2.4 -10.88,2.54 -10.88,2.54 0,0 -5.8,0.53 -9.63,-4.12 -3.83,-4.65 -4.51,-13.8 -4.51,-13.8 0,0 -1.1,-0.41 -2.61,-1.47 -1.81,-1.26 -4.81,-1.26 -6.61,0 -1.51,1.05 -2.47,1.47 -2.47,1.47 0,0 -0.67,9.15 -4.51,13.8 -3.83,4.65 -9.63,4.12 -9.63,4.12 0,0 -7.29,-0.14 -10.88,-2.54 -3.6,-2.4 -4.55,-9.15 -4.55,-9.15 0,0 -0.29,-5.44 -0.5,-6.23 -0.22,-0.79 -1.67,-0.88 -1.67,-0.88l0.23 -4.01zm71.63 3.86c0,0 -0.14,-3 -1.85,-3.98 -1.7,-0.98 -7.14,-1.22 -9.97,-1.1 -2.83,0.12 -8,0.81 -10.47,1.51 -2.47,0.69 -3.79,1.53 -4.22,2.3 -0.43,0.77 -0.77,2.13 -0.6,3.81 0.17,1.68 1.01,5.56 2.11,7.91 1.1,2.35 2.61,4.98 4.77,5.92 2.16,0.93 3.56,1.61 9.9,1.01 6.33,-0.6 8.48,-4.36 9.3,-6.85 0.81,-2.49 1.2,-8.53 1.03,-10.52zm-68.54 0c0,0 0.14,-3 1.85,-3.98 1.7,-0.98 7.14,-1.22 9.97,-1.1 2.83,0.12 8,0.81 10.47,1.51 2.47,0.69 3.79,1.53 4.22,2.3 0.43,0.77 0.77,2.13 0.6,3.81 -0.17,1.68 -1.01,5.56 -2.11,7.91 -1.1,2.35 -2.61,4.98 -4.77,5.92 -2.16,0.93 -3.56,1.61 -9.9,1.01 -6.33,-0.6 -8.48,-4.36 -9.3,-6.85 -0.81,-2.49 -1.2,-8.53 -1.03,-10.52z"/>
   <path class="fil16" d="M60.04 109.16c0,0 7.67,-0.96 12.99,-0.72 5.32,0.24 12.27,0.77 12.27,0.77 0,0 -2.3,4.94 -10.26,5.99 -7.96,1.05 -12.13,-2.88 -12.84,-3.5 -0.72,-0.62 -2.16,-2.54 -2.16,-2.54z"/>
   <path class="fil17" d="M60.11 109.15l0.13 -0.02c1.82,0.42 6.71,1.41 13.13,1.49 5.47,0.06 9.67,-0.82 11.86,-1.42l0.07 0.01c0,0 -0.03,0.07 -0.1,0.2 -1.97,0.71 -5.62,1.7 -10.8,1.79 -6.67,0.12 -12.42,-1.47 -14.29,-2.04z"/>
   <path class="fil12" d="M74.2 101.86c0,0 0.5,-0.41 1.31,-0.52 0.81,-0.11 1.61,-0.09 1.53,0.27 -0.08,0.36 -0.38,0.58 -1.06,0.63 -0.69,0.05 -1.78,-0.38 -1.78,-0.38z"/>
   <path class="fil12" d="M70.53 101.86c0,0 -0.5,-0.41 -1.31,-0.52 -0.81,-0.11 -1.61,-0.09 -1.53,0.27 0.08,0.36 0.38,0.58 1.06,0.63 0.69,0.05 1.78,-0.38 1.78,-0.38z"/>
   <path class="fil18" d="M71.37 103.78c0,0 -2.86,-1.85 -3.28,-2.39 -0.42,-0.55 -1.96,-0.4 -1.44,0.2 0.52,0.59 4.72,2.2 4.72,2.2z"/>
   <path class="fil18" d="M66.62 97.32c0,0 -1.73,2.59 -1.01,3.78 0.72,1.19 4.04,3.01 4.04,3.01 0,0 -2.94,-0.95 -4.46,-2.59 -1.53,-1.63 1.44,-4.2 1.44,-4.2z"/>
   <path class="fil18" d="M74.21 103.72c0,0 2.78,-1.96 3.18,-2.52 0.4,-0.56 1.94,-0.47 1.45,0.14 -0.49,0.61 -4.63,2.38 -4.63,2.38z"/>
   <path class="fil18" d="M78.7 97.08c0,0 1.83,2.52 1.16,3.74 -0.67,1.22 -3.92,3.16 -3.92,3.16 0,0 2.9,-1.07 4.36,-2.76 1.46,-1.69 -1.6,-4.14 -1.6,-4.14z"/>
  </g>
  <path class="fil19 str1" d="M72.22 142.48c-38.81,0 -70.27,-31.46 -70.27,-70.27 0,-38.81 31.46,-70.27 70.27,-70.27"/>
  <path class="fil19 str2" d="M72.22 1.95c38.81,0 70.27,31.46 70.27,70.27 0,38.81 -31.46,70.27 -70.27,70.27"/>
 </g>
</svg>
