<?xml version="1.0" encoding="UTF-8"?>
<!DOCTYPE svg PUBLIC "-//W3C//DTD SVG 1.0//EN" "http://www.w3.org/TR/2001/REC-SVG-20010904/DTD/svg10.dtd">
<!-- Creator: CorelDRAW 2021 (64-Bit) -->
<svg xmlns="http://www.w3.org/2000/svg" xml:space="preserve" width="1.02778in" height="1.02778in" version="1.0" style="shape-rendering:geometricPrecision; text-rendering:geometricPrecision; image-rendering:optimizeQuality; fill-rule:evenodd; clip-rule:evenodd"
viewBox="0 0 94.07 94.07"
 xmlns:xlink="http://www.w3.org/1999/xlink"
 xmlns:xodm="http://www.corel.com/coreldraw/odm/2003">
 <defs>
  <style type="text/css">
   <![CDATA[
    .str1 {stroke:#006189;stroke-width:2.54;stroke-miterlimit:2.61313}
    .str0 {stroke:#8E0429;stroke-width:2.54;stroke-miterlimit:2.61313}
    .str2 {stroke:#006189;stroke-width:0.64;stroke-miterlimit:2.61313}
    .fil3 {fill:none}
    .fil0 {fill:#006189}
    .fil1 {fill:#8E0429}
    .fil2 {fill:#A53B56}
   ]]>
  </style>
 </defs>
 <g id="Layer_x0020_1">
  <metadata id="CorelCorpID_0Corel-Layer"/>
  <g id="_2053573342944">
   <path class="fil0" d="M37.31 48.08c-1.42,2.4 -13.12,12.98 -16.4,16.52 -1.69,1.82 -2.7,2.24 -3.37,4.91 -0.55,2.22 -0.24,4.86 0.96,6.64 2.7,3.99 7.21,3.73 12.85,3.72 11.11,-0.01 22.22,-0.03 33.33,0 5.54,0.02 9.87,-0.72 11.49,-5.09 2.76,-7.43 -4.43,-10.39 -8.25,-15.44 -2.17,-2.87 -4.67,-0.88 -4.44,1.07 0.24,2.12 6.32,6.68 7.9,8.72 1.51,1.95 0.91,4.81 -0.95,5.75 -1.63,0.82 -5.77,0.54 -7.83,0.54l-33.33 0.01c-2.7,0.03 -5.7,0.25 -6.92,-1.45 -1.66,-2.32 -0.11,-4.42 1.32,-5.81 5.23,-5.06 11.15,-11.23 16.64,-16.58 4.26,-4.16 3.44,-3.43 -1.91,-8.84 -2.81,-2.84 -5.01,-5.11 -8.26,-8.34 -2.25,-2.23 -7.06,-5.88 -5.46,-10.31 1.7,-4.69 5.74,-5.09 11.68,-5.09 5.42,0.01 11.16,0.13 16.39,-0.08 4.8,-0.19 11.2,-0.76 14.38,1.91 3.72,3.12 2.7,7.79 -0.59,10.88 -1.18,1.11 -3.81,2.89 -2.88,4.94 1.91,4.19 11.32,-4.74 10.41,-11.98 -0.59,-4.74 -3.42,-7.96 -7.22,-9.35 -4.25,-1.55 -26.12,-1.11 -32.18,-0.94 -5.32,0.15 -9.87,1.05 -12.23,4.15 -9.81,12.91 10.46,22.18 14.88,29.54z"/>
   <path class="fil1" d="M66.65 73.51c0.43,-2.38 -1.82,-3 -3.72,-4.13 -3.57,-2.13 -11.93,-6.12 -13.36,-8.3 -1.5,-2.27 0.45,0.1 -0.03,-2.65 -3.89,0.55 2.17,0 -4.77,4.11 -6.7,3.96 -21.22,8.55 -16.46,11.37 0.93,0.55 36.41,0.17 38.35,-0.39z"/>
   <path class="fil1" d="M32.18 26.26l8.95 9.05c4.71,4.63 5.23,3.48 5.98,12.36 1.02,0.79 1.67,1.42 2.67,1.59 0.09,-4.69 0.41,-9.5 3.75,-12.49 1.51,-1.35 7.7,-6.95 8.35,-8.08 -2,-0.8 -5.27,-0.67 -7.53,-1.55 -2.33,-0.9 -4.13,-2.11 -6.69,-2.84 -4.56,-1.29 -11.82,-0.11 -15.48,1.96z"/>
   <path class="fil1" d="M46.6 56.83c1.65,-0.21 1.38,0.5 1.13,-1.6l-1.43 -0.06c-0.17,1.61 -0.3,0.74 0.3,1.66z"/>
   <path class="fil1" d="M46.61 49.16l-0.29 1.29 1.38 -0.03c0.13,-1.28 0,-1.4 -1.09,-1.26z"/>
   <path class="fil1" d="M46.29 53.87c0.39,1.22 -0.2,0.6 1.03,0.99l0.46 -0.98c-0.15,-0.07 -0.28,-0.28 -0.32,-0.18l-1.17 0.16z"/>
   <path class="fil2" d="M46.51 56.77c1.77,1.38 0.7,0.16 1.01,0 -0.68,-0.32 0.84,-1.02 -1.01,0z"/>
   <path class="fil2" d="M46.51 53.46l0.81 0.2c0.04,-0.01 0.15,-0.14 0.24,-0.2 -1.75,-1.28 -0.62,-0.2 -1.05,0z"/>
   <path class="fil2" d="M46.57 51.39c0.53,0.36 0.39,0.44 0.92,0 -1.5,-1.1 -0.49,-0.2 -0.92,0z"/>
  </g>
  <path class="fil3 str0" d="M45.63 1.27l41.88 0c2.91,0 5.29,2.36 5.29,5.25l0 81.03c0,2.89 -2.38,5.25 -5.29,5.25l-41.88 0"/>
  <path class="fil3 str1" d="M45.63 92.8l-39.07 0c-2.91,0 -5.29,-2.36 -5.29,-5.25l0 -81.03c0,-2.89 2.38,-5.25 5.29,-5.25l39.07 0"/>
  <path class="fil3 str2" d="M43.46 92.8l2.17 0m0 -91.52l-2.17 0"/>
 </g>
</svg>
