<?xml version="1.0" encoding="UTF-8"?>
<!DOCTYPE svg PUBLIC "-//W3C//DTD SVG 1.0//EN" "http://www.w3.org/TR/2001/REC-SVG-20010904/DTD/svg10.dtd">
<!-- Creator: CorelDRAW 2021 (64-Bit) -->
<svg xmlns="http://www.w3.org/2000/svg" xml:space="preserve" width="1.02778in" height="1.02778in" version="1.0" style="shape-rendering:geometricPrecision; text-rendering:geometricPrecision; image-rendering:optimizeQuality; fill-rule:evenodd; clip-rule:evenodd"
viewBox="0 0 144.43 144.43"
 xmlns:xlink="http://www.w3.org/1999/xlink"
 xmlns:xodm="http://www.corel.com/coreldraw/odm/2003">
 <defs>
  <style type="text/css">
   <![CDATA[
    .str3 {stroke:#2C4D71;stroke-width:1.46;stroke-miterlimit:2.61313}
    .str0 {stroke:#712C2C;stroke-width:3.9;stroke-miterlimit:2.61313}
    .str1 {stroke:#273E54;stroke-width:3.9;stroke-miterlimit:2.61313}
    .str2 {stroke:#24394B;stroke-width:0.98;stroke-miterlimit:2.61313}
    .fil1 {fill:none}
    .fil18 {fill:#FEFEFE}
    .fil0 {fill:#E6E7E8}
    .fil16 {fill:#96989A}
    .fil6 {fill:#848688}
    .fil13 {fill:#712C2C}
    .fil5 {fill:#662B2B}
    .fil3 {fill:#727B86}
    .fil17 {fill:#1B638B}
    .fil14 {fill:#24394B}
    .fil9 {fill:#2B425C}
    .fil15 {fill:#848688;fill-opacity:0.501961}
    .fil8 {fill:#285379;fill-opacity:0.501961}
    .fil12 {fill:url(#id12)}
    .fil11 {fill:url(#id13)}
    .fil10 {fill:url(#id14)}
    .fil4 {fill:url(#id15)}
    .fil7 {fill:url(#id16)}
    .fil2 {fill:url(#id17);fill-rule:nonzero}
   ]]>
  </style>
    <mask id="id0">
  <linearGradient id="id1" gradientUnits="userSpaceOnUse" x1="108.76" y1="78.02" x2="109" y2="81.51">
   <stop offset="0" style="stop-opacity:1; stop-color:white"/>
   <stop offset="1" style="stop-opacity:0; stop-color:white"/>
  </linearGradient>
     <rect style="fill:url(#id1)" x="105.61" y="76.68" width="5.69" height="9.01"/>
    </mask>
    <mask id="id2">
  <linearGradient id="id3" gradientUnits="userSpaceOnUse" x1="35.48" y1="77.95" x2="35.23" y2="81.44">
   <stop offset="0" style="stop-opacity:1; stop-color:white"/>
   <stop offset="1" style="stop-opacity:0; stop-color:white"/>
  </linearGradient>
     <rect style="fill:url(#id3)" x="32.93" y="76.6" width="5.69" height="9.01"/>
    </mask>
    <mask id="id4">
  <linearGradient id="id5" gradientUnits="userSpaceOnUse" x1="79.31" y1="38.32" x2="74.46" y2="45.15">
   <stop offset="0" style="stop-opacity:1; stop-color:white"/>
   <stop offset="1" style="stop-opacity:0; stop-color:white"/>
  </linearGradient>
     <rect style="fill:url(#id5)" x="59.6" y="33.86" width="36.44" height="33.18"/>
    </mask>
    <mask id="id6">
  <linearGradient id="id7" gradientUnits="userSpaceOnUse" x1="43.4" y1="44.53" x2="39.56" y2="48.31">
   <stop offset="0" style="stop-opacity:1; stop-color:white"/>
   <stop offset="1" style="stop-opacity:0; stop-color:white"/>
  </linearGradient>
     <rect style="fill:url(#id7)" x="33.76" y="34.54" width="16.05" height="20.1"/>
    </mask>
    <mask id="id8">
  <linearGradient id="id9" gradientUnits="userSpaceOnUse" x1="45.19" y1="41.88" x2="56.2" y2="36.31">
   <stop offset="0" style="stop-opacity:1; stop-color:white"/>
   <stop offset="1" style="stop-opacity:0; stop-color:white"/>
  </linearGradient>
     <rect style="fill:url(#id9)" x="38.7" y="22.87" width="22.42" height="27.25"/>
    </mask>
     <clipPath id="id10">
      <path d="M64.01 113.06c-0.09,-0.08 -0.18,-0.15 -0.26,-0.23 -0.01,-0.01 -0.02,-0.02 -0.04,-0.03 -0.52,-0.47 -1.04,-1.05 -1.48,-1.62 0,0 0,0 0,0 0,0 0,0 0,0 -0.91,-1.16 -1.57,-2.26 -1.57,-2.26 0.02,-0 0.04,-0 0.06,-0 0,0 0,0 0,0 0.46,-0.03 3.48,-0.21 5.31,-0.83 1.99,-0.66 6,0.2 6.73,0.53 0.1,0.04 0.2,0.08 0.31,0.11 0.67,0.19 1.49,0.11 2.08,-0.21 0.66,-0.36 2.22,-0.93 5.27,-0.5 2.22,0.31 4.16,0.94 5.05,1.26 0,0 0.01,0 0.03,0.01 0.1,0.03 0.43,0.16 0.49,0.19 0,0 -0.52,0.8 -1.36,1.82 -0.31,0.37 -0.65,0.78 -1.03,1.19 -0.29,0.31 -0.6,0.63 -0.93,0.93 -0.66,0.62 -1.38,1.19 -2.12,1.6 -2.45,1.37 -4.72,1.85 -7.23,1.94 0,0 0,0 0,0 -3.72,0.13 -6.56,-1.55 -9.32,-3.91z"/>
     </clipPath>
     <clipPath id="id11">
      <path d="M61.57 109.29c-0.2,-0.08 -0.4,-0.17 -0.6,-0.26 -0.08,-0.04 -0.17,-0.07 -0.25,-0.11 0.02,-0 0.04,-0 0.06,-0 0,0 0,0 0,0 0.61,-0.04 3.48,-0.23 5.25,-0.82 1.99,-0.66 6,0.2 6.73,0.53 0.11,0.05 0.23,0.09 0.35,0.12 0.66,0.18 1.46,0.09 2.03,-0.22 0.66,-0.36 2.22,-0.93 5.27,-0.5 2.22,0.31 4.16,0.94 5.05,1.26 0,0 0,0 0,0 0.33,0.12 0.52,0.19 0.52,0.19 -0.01,0 -0.02,0.01 -0.03,0.01 -0.15,0.05 -0.31,0.09 -0.46,0.14 0,0 0,0 0,0 -1.45,0.42 -5.97,1.57 -12.15,1.7 0,0 0,0 0,0 -0.65,0.01 -1.33,0.02 -2.02,0.01 -3.93,-0.06 -7.28,-1.02 -9.77,-2.05z"/>
     </clipPath>
  <linearGradient id="id12" gradientUnits="userSpaceOnUse" x1="88.31" y1="19.72" x2="81.04" y2="68.86">
   <stop offset="0" style="stop-opacity:1; stop-color:#27384E"/>
   <stop offset="1" style="stop-opacity:1; stop-color:#1B638B"/>
  </linearGradient>
  <linearGradient id="id13" gradientUnits="userSpaceOnUse" xlink:href="#id12" x1="35.64" y1="54.87" x2="47.35" y2="52.42">
  </linearGradient>
  <linearGradient id="id14" gradientUnits="userSpaceOnUse" xlink:href="#id12" x1="108.13" y1="23.18" x2="88.23" y2="71.15">
  </linearGradient>
  <radialGradient id="id15" gradientUnits="userSpaceOnUse" gradientTransform="matrix(-0.442976 -0.026081 -0.0125383 1.40746 158 -33)" cx="108.8" cy="87.1" r="82.28" fx="108.8" fy="87.1">
   <stop offset="0" style="stop-opacity:1; stop-color:#FEFEFE"/>
   <stop offset="0.639216" style="stop-opacity:1; stop-color:#FEFEFE"/>
   <stop offset="0.8" style="stop-opacity:1; stop-color:#C0C6D4"/>
   <stop offset="1" style="stop-opacity:1; stop-color:#828EAB"/>
  </radialGradient>
  <radialGradient id="id16" gradientUnits="userSpaceOnUse" gradientTransform="matrix(0.442976 -0.0260803 0.0125383 1.40742 20 -34)" xlink:href="#id15" cx="37.91" cy="87.03" r="82.28" fx="37.91" fy="87.03">
  </radialGradient>
  <radialGradient id="id17" gradientUnits="userSpaceOnUse" gradientTransform="matrix(0.966893 -0.0234728 0.0273676 1.2667 0 -23)" cx="66.31" cy="92.28" r="400.47" fx="66.31" fy="92.28">
   <stop offset="0" style="stop-opacity:1; stop-color:#FEFEFE"/>
   <stop offset="0.439216" style="stop-opacity:1; stop-color:#FEFEFE"/>
   <stop offset="0.439216" style="stop-opacity:1; stop-color:#FEFEFE"/>
   <stop offset="0.956863" style="stop-opacity:1; stop-color:#C0C6D4"/>
   <stop offset="1" style="stop-opacity:1; stop-color:#828EAB"/>
  </radialGradient>
 </defs>
 <g id="Layer_x0020_1">
  <metadata id="CorelCorpID_0Corel-Layer"/>
  <circle class="fil0" cx="72.32" cy="71.77" r="70.27"/>
  <path class="fil1 str0" d="M72.22 142.48c-38.81,0 -70.27,-31.46 -70.27,-70.27 0,-38.81 31.46,-70.27 70.27,-70.27"/>
  <path class="fil1 str1" d="M72.22 1.95c38.81,0 70.27,31.46 70.27,70.27 0,38.81 -31.46,70.27 -70.27,70.27"/>
  <g id="_2053643183728">
   <path class="fil2" d="M39.52 55.97c-2.39,14.85 -1.86,31.3 0,40.58 1.86,9.28 5.17,20.03 18.7,28.38 13.53,8.36 22.95,3.05 28.38,0.66 5.44,-2.39 12.73,-9.81 16.45,-18.44 3.71,-8.62 4.11,-35.41 4.11,-35.41l-1.59 -22.55 -14.06 -9.81c-14.7,-0.9 -48.76,-3.55 -51.99,16.58z"/>
   <g>
    <path class="fil3" d="M76.69 82.7c0,0.11 0.07,0.01 0.03,0 -0,0 -0.03,-0.12 -0.03,0zm-1.04 5.1c0,1.43 0.12,3.49 0.35,4.89 0.13,0.78 0.43,1.74 0.76,2.44 0.26,0.54 0.63,1.14 1,1.59l0.49 0.54c1.18,1.34 2.3,3.01 1.14,4.75 -0.15,0.22 -0.27,0.35 -0.42,0.54 -0.14,0.19 -0.35,0.34 -0.48,0.52 0.57,-0.13 2.03,-1.46 2.03,-2.55 0,-0.81 -0.06,-1.12 -0.49,-1.84 -0.4,-0.67 -0.7,-0.87 -1.09,-1.38 -0.09,-0.11 -0.14,-0.19 -0.22,-0.3l-0.41 -0.58c-1.32,-2.11 -2.15,-4.85 -2.15,-7.79 0,-2 0.01,-2.84 0.33,-4.81 0.05,-0.32 0.19,-0.77 0.19,-1.07 -0.01,0.01 -0.01,0.01 -0.02,0.03l-0.04 0.09c-0.36,0.96 -0.98,3.92 -0.98,4.94zm2.81 15.26c-0,0 0.01,0.01 0.01,0.01l-0.01 -0.01z"/>
    <path class="fil3" d="M69.47 102.24c0,0.96 2.06,0.56 2.25,0.57 0.37,0.02 1.08,1.33 2.03,1.33 1.45,0 1.62,-1.34 2.25,-1.34 0.11,-0 0.17,0.02 0.23,0.03 0.1,0.01 0.18,0.01 0.28,0.02 0.5,0.05 1.78,0.1 1.78,-0.53 0,-0.86 -1.47,-0.44 -1.87,-0.23 -1.42,0.72 -1.4,1.32 -2.02,1.62 -0.57,0.27 -1.11,0.07 -1.53,-0.34 -0.07,-0.07 -0.1,-0.11 -0.17,-0.17 -0.55,-0.46 -0.66,-0.71 -1.34,-1.08 -0.39,-0.21 -1.2,-0.5 -1.67,-0.19 -0.07,0.05 -0.22,0.23 -0.22,0.3z"/>
    <path class="fil3" d="M67.05 100.38c0,1.19 0.61,1.95 1.39,2.63 0.11,0.1 0.21,0.19 0.34,0.27l-0.39 -0.86c-0.55,-1.23 -0.97,-2.59 -0.65,-3.98 -0.19,0.13 -0.38,0.59 -0.47,0.83 -0.1,0.28 -0.22,0.75 -0.22,1.12z"/>
   </g>
   <path class="fil4" d="M107.38 79.37c0,0 0.85,-2.59 1.84,-2.15 0.86,0.37 1.92,1.5 1.5,6.4 -0.07,0.76 -0.17,1.61 -0.31,2.57 -1.06,7.1 -2.45,10.08 -2.85,10.74 -0.4,0.66 -1.84,1.38 -3.04,0.62 -1.2,-0.76 2.86,-18.18 2.86,-18.18z"/>
   <path class="fil5" d="M105.98 94.29c0.93,0 1.69,0.76 1.69,1.69 0,0.93 -0.76,1.69 -1.69,1.69 -0.93,0 -1.69,-0.76 -1.69,-1.69 0,-0.93 0.76,-1.69 1.69,-1.69z"/>
   <path class="fil6" style="mask:url(#id0)" d="M107.38 79.37c0,0 0.85,-2.59 1.84,-2.15 0.79,0.34 1.76,1.33 1.57,5.33 -0.24,-0.75 -0.6,-1.46 -1.11,-1.35 -1.04,0.22 -2.72,2.16 -3.58,4.01 0.67,-3.23 1.28,-5.83 1.28,-5.83z"/>
   <path class="fil7" d="M36.85 79.29c0,0 -0.85,-2.59 -1.84,-2.15 -0.86,0.37 -1.92,1.5 -1.5,6.4 0.07,0.76 0.17,1.61 0.31,2.57 1.06,7.1 2.45,10.08 2.85,10.74 0.4,0.66 1.84,1.38 3.04,0.62 1.2,-0.76 -2.86,-18.18 -2.86,-18.18z"/>
   <path class="fil6" style="mask:url(#id2)" d="M36.85 79.29c0,0 -0.85,-2.59 -1.84,-2.15 -0.79,0.34 -1.76,1.33 -1.57,5.33 0.24,-0.75 0.6,-1.46 1.11,-1.35 1.04,0.22 2.72,2.16 3.58,4.01 -0.67,-3.23 -1.28,-5.83 -1.28,-5.83z"/>
   <path class="fil8" d="M43.1 70.36c0,0 -0.86,-8.16 0.99,-14.46 1.86,-6.3 7.56,-9.28 10.28,-9.62 2.72,-0.33 11.41,0.86 15.65,6.76 4.24,5.9 9.02,12.53 9.02,12.53 0,0 0.07,-9.35 -1.33,-13.13 -1.39,-3.78 -1.59,-4.04 -1.59,-4.04 0,0 10.81,5.5 14.59,12.93 3.78,7.43 3.38,11.67 3.38,11.67 0,0 1.13,-6.23 1.06,-11.07 -0.07,-4.84 -1.06,-12.4 -1.06,-12.4 0,0 6.23,3.71 6.83,9.95 0.6,6.23 -0.33,14.39 0.53,14.99 0.86,0.6 3.98,-1.86 4.97,-5.84 0.99,-3.98 -2.52,-24.87 -2.52,-24.87l-12.47 -6.04c0,0 -12.47,-5.24 -18.04,-5.57 -5.57,-0.33 -19.89,-0.66 -20.89,-0.2 -0.99,0.46 -8.22,0.86 -10.48,4.24 -2.25,3.38 -5.9,19.96 -5.9,19.96l3.58 17.18 3.38 -2.98z"/>
   <path class="fil9" d="M31.83 60.34c0,0 1.59,10.21 2.79,13.93 1.19,3.71 1.99,6.5 2.06,9.28 0.07,2.79 -0.53,5.44 0.4,5.9 0.93,0.46 2.19,-2.92 2.79,-4.97 0.6,-2.06 1.06,-13.66 1.06,-13.66 0,0 0.93,1.23 1.46,1.56 0.53,0.33 -0.03,-0.6 -0.2,-5.5 -0.17,-4.91 -0.5,-8.85 3.65,-13.79 4.15,-4.94 7.43,-5.93 10.94,-6.27 3.51,-0.33 9.62,1.89 13.66,5.14 4.04,3.25 8.55,10.48 8.55,10.48 0,0 0.33,-3.88 -0.83,-8.49 -1.16,-4.61 -2.45,-5.27 -2.45,-5.27 0,0 7.43,-0.07 11.8,4.74 4.38,4.81 8.09,12.96 8.09,12.96 0,0 0.5,1.82 1.13,1.96 0.63,0.13 1.19,-2.69 0.46,-7.79 -0.73,-5.11 -2.06,-10.91 -2.06,-10.91 0,0 5.77,4.51 6.57,9.62 0.8,5.11 0.86,13.13 0.86,13.13 0,0 0.23,1.99 1.39,1.46 1.16,-0.53 2.49,-3.51 2.49,-3.51l-0.73 15.65c0,0 0.86,6.9 1.59,5.97 0.73,-0.93 2.12,-14.46 3.98,-19.83 1.86,-5.37 1.72,-12.67 1.06,-15.72 -0.66,-3.05 0.13,-7.23 -2.32,-12.33 -1.44,-2.99 -3.39,-5.34 -4.77,-6.78 3.25,-0.34 4.51,-1.24 4.51,-1.24 0,0 -0.2,-0.07 -2.59,-0.46 -1.71,-0.29 -2.81,-0.88 -5.46,-2.31 -1.34,-1.85 -3.06,-4.47 -3.95,-6.85 -1.59,-4.24 -5.64,-8.69 -7.16,-9.81 -1.53,-1.13 -3.51,-0.99 -3.51,-0.99 -0.66,1.91 -3.99,6.74 -6.03,5.31 0,0 -0.6,-0.46 -0.2,-1.99 0.4,-1.53 1.92,-3.75 1.92,-3.75 0,0 -0.23,-0.63 -4.31,0.27 -4.08,0.9 -9.48,1.82 -14.99,2.49 -5.5,0.66 -11.01,4.31 -12.73,6.1 -1.72,1.79 -3.78,4.44 -3.78,4.44 0,0 -0.41,0 -0.41,-1.53 0,-1.53 1.26,-3.37 1.26,-3.37 0,0 -2.5,0.78 -3.63,3.08 -1.13,2.3 -1.64,6.83 -1.64,6.83 0,0 0.13,1.49 -0.96,1.53 -1.09,0.03 -3.98,-0.33 -5.57,1.03 -1.59,1.36 -1.26,2.52 -1.26,2.52 0,0 0.96,-1.13 2.82,-0.93 1.86,0.2 2.15,1.72 2.15,1.72 0,0 -4.51,1.72 -6.63,6.76 -2.12,5.04 -1.24,14.21 -1.24,14.21z"/>
   <path class="fil10" d="M96.19 54.7c-0.56,-2.88 -1.06,-5.07 -1.06,-5.07 0,0 5.77,4.51 6.57,9.62 0.8,5.11 0.86,13.13 0.86,13.13 0,0 0.23,1.99 1.39,1.46 0.49,-0.22 1,-0.88 1.44,-1.57l1.05 -1.95c0,0 3.81,-11.87 0.23,-23.41 -3.58,-11.54 -25.63,-26 -25.63,-26 0,0 5.18,12.19 6.27,15.78 1.09,3.6 5.6,11.89 8.88,18z"/>
   <path class="fil11" d="M40.92 70.82c0,0 0.93,1.23 1.46,1.56 0.53,0.33 -0.03,-0.6 -0.2,-5.5 -0.11,-3.17 -0.28,-5.94 0.72,-8.83 -0.88,-3.77 -1.5,-7.73 -1.35,-10.99 0.44,-9.33 3.22,-11.82 3.22,-11.82 -1.29,-0.05 -8.72,8.51 -8.85,18.78 -0.13,10.28 5.01,16.81 5.01,16.81z"/>
   <path class="fil12" d="M77.54 48.8c2.49,0.3 6.95,1.3 9.96,4.61 4.38,4.81 8.09,12.96 8.09,12.96 0,0 0.02,0.09 0.07,0.24 0.55,0.61 0.99,1.14 1.33,1.59 0.5,-0.62 0.81,-3.31 0.19,-7.66 -0.73,-5.11 -2.06,-10.91 -2.06,-10.91 0,0 0.29,0.23 0.75,0.64 -0.56,-2.76 -1.28,-5.29 -2.38,-7.13 -2.25,-3.78 -6.96,-9.42 -5.57,-8.75 1.39,0.66 8.89,2.77 13,2.98 4.11,0.21 7.65,-1.2 8.82,-1.33 -0.2,-0.21 -9.7,-3.68 -12.07,-4.91 -5.9,-3.05 -10.28,-8.95 -24.74,-10.21 -14.46,-1.26 -27.98,13.93 -27.98,13.93l-3.18 5.9c0,0 10.01,-5.84 18.24,-5.97 7.48,-0.12 12.32,8.26 17.53,14.01z"/>
   <path class="fil13" style="mask:url(#id4)" d="M77.54 48.8l0.12 0.01 0 0c0.12,0.01 0.23,0.03 0.36,0.05l0.01 0 0.11 0.02 0.04 0.01 0.1 0.02 0.06 0.01c0.06,0.01 0.13,0.02 0.19,0.03l0.04 0.01 0.12 0.02 0.03 0.01 0.12 0.02 0 0c0.08,0.01 0.16,0.03 0.25,0.05l0.05 0.01 0.11 0.02 0.05 0.01 0.12 0.02 0.04 0.01c0.08,0.02 0.17,0.04 0.25,0.06l0.03 0.01 0.11 0.03 0.07 0.02 0.1 0.02 0.08 0.02c0.07,0.02 0.14,0.04 0.21,0.05l0.06 0.01 0.1 0.03 0.08 0.02 0.1 0.03 0.08 0.02c0.09,0.03 0.18,0.05 0.27,0.08l0 0 0.12 0.04 0.07 0.02 0.11 0.03 0.09 0.03 0.1 0.03c0.06,0.02 0.11,0.04 0.17,0.06l0 0 0.11 0.04 0.09 0.03 0.1 0.04 0.11 0.04 0.08 0.03c0.06,0.02 0.13,0.05 0.19,0.07l0.07 0.03c0.04,0.02 0.09,0.03 0.13,0.05l0.08 0.03c0.04,0.02 0.08,0.04 0.13,0.05l0.08 0.03c0.06,0.03 0.12,0.05 0.19,0.08l0.08 0.04 0.12 0.05 0.09 0.04c0.04,0.02 0.08,0.04 0.13,0.06l0.07 0.03c0.06,0.03 0.13,0.06 0.19,0.09l0.07 0.03c0.04,0.02 0.09,0.05 0.13,0.07l0.08 0.04c0.04,0.02 0.09,0.05 0.13,0.07l0.07 0.04c0.06,0.03 0.13,0.07 0.19,0.11l0.06 0.04c0.05,0.03 0.09,0.05 0.14,0.08l0.08 0.05c0.04,0.03 0.09,0.05 0.13,0.08l0.07 0.04c0.06,0.04 0.13,0.08 0.19,0.12l0.04 0.02c0.05,0.03 0.1,0.07 0.16,0.1l0.07 0.05c0.05,0.03 0.09,0.06 0.14,0.1l0.06 0.04c0.06,0.04 0.13,0.09 0.19,0.14l0.04 0.03c0.05,0.04 0.1,0.07 0.15,0.11l0.07 0.05c0.04,0.03 0.09,0.07 0.13,0.1l0.06 0.05c0.06,0.05 0.12,0.1 0.18,0.15l0.03 0.02c0.05,0.04 0.1,0.09 0.16,0.13l0.06 0.05c0.04,0.04 0.09,0.08 0.13,0.12l0.06 0.05c0.06,0.05 0.12,0.11 0.18,0.16l0 0 0.01 0.01c0.05,0.05 0.11,0.11 0.16,0.16l0.05 0.05c0.04,0.04 0.09,0.09 0.13,0.13l0.05 0.05c0.06,0.06 0.12,0.12 0.17,0.18 4.38,4.81 8.09,12.96 8.09,12.96l0 0 0 0 0 0 0 0 0 0 0 0 0 0 0 0 0 0 0 0 0 0 0 0 0 0 0 0 0 0 0 0 0 0 0 0 0 0 0 0 0 0 0 0 0 0 0 0 0 0 0 0 0 0 0 0 0 0 0 0 0 0 0 0 0 0 0 0 0 0 0 0 0 0 0 0 0 0 0 0 0 0 0 0 0 0 0 0 0 0 0 0 0 0 0 0 0 0 0 0 0 0 0 0 0 0 0 0 0 0 0 0 0 0 0 0 0 0 0 0 0 0 0 0 0 0.01 0 0 0 0 0 0.01 0 0.01 0 0.01 0 0 0 0.01 0 0.01 0 0.01 0 0 0 0 0 0.01 0 0.01 0 0 0 0 0 0.01 0 0.01 0 0.01 0 0 0 0.01c0.13,0.15 0.26,0.29 0.38,0.43 -1.07,-4.2 -6.05,-21.79 -15.95,-28.23 -11.28,-7.33 -20.5,-4.35 -20.5,-4.35 0,0 0.17,0.11 0.48,0.32 7.44,-0.08 12.28,8.27 17.47,14.01z"/>
   <path class="fil14 str2" style="mask:url(#id6)" d="M44.98 54.16c0.26,-0.35 0.54,-0.71 0.84,-1.07 1.23,-1.47 2.39,-2.59 3.5,-3.45l-10.13 -14.6c-1.12,0.06 -2.34,0.3 -3.2,1.03 -1.59,1.36 -1.26,2.52 -1.26,2.52 0,0 0.96,-1.13 2.82,-0.93 1.86,0.2 2.15,1.72 2.15,1.72 0,0 -3.18,1.22 -5.46,4.59 3.17,2.98 7.68,7.24 10.73,10.19z"/>
   <path class="fil14" style="mask:url(#id8)" d="M49.32 49.64c2.62,-2.03 4.97,-2.59 7.44,-2.82 1.09,-0.1 2.42,0.04 3.86,0.38l-3.41 -12.86 -5.75 -10.98c-0.29,0.25 -0.54,0.48 -0.74,0.68 -1.72,1.79 -3.78,4.44 -3.78,4.44 0,0 -0.41,0 -0.41,-1.53 0,-1.53 1.26,-3.37 1.26,-3.37 0,0 -2.5,0.78 -3.63,3.08 -1.13,2.3 -1.64,6.83 -1.64,6.83 0,0 0.13,1.49 -0.96,1.53 -0.51,0.02 -1.4,-0.05 -2.38,0l10.13 14.6z"/>
   <path class="fil3" d="M63.41 73.13c0,0 -3.65,-1.43 -7.56,-1.09 -3.91,0.33 -7.73,1.59 -7.73,1.59 0,0 -1.06,-0.1 -0.76,-1.29 0.3,-1.19 3.75,-2.45 7.73,-2.95 3.98,-0.5 10.64,1.13 10.64,1.13 0,0 1.36,0.3 1.49,1.36 0.13,1.06 -1.13,1.76 -1.86,1.82 -0.73,0.07 -1.96,-0.56 -1.96,-0.56z"/>
   <path class="fil15" d="M37.99 75.3l-0.1 4.17c0,0 1.69,1.24 1.76,2.51 0.07,1.27 -0.03,8 1.4,9.79 1.43,1.79 5.24,2.47 5.24,2.47 0,0 7.16,1.37 14.22,1.14 7.06,-0.23 7.55,-1.76 7.55,-1.76 0,0 1.46,-1.53 1.98,-3.74 0.52,-2.21 0.62,-4.03 0.85,-4.95 0.23,-0.91 2.02,-1.3 2.67,-1.3 0.08,0 0.14,-0.07 0.2,-0.2 0.06,0.14 0.13,0.23 0.21,0.23 0.65,0.04 2.44,0.54 2.67,1.47 0.23,0.93 0.33,2.75 0.85,5 0.52,2.24 1.98,3.86 1.98,3.86 0,0 0.49,1.56 7.55,2.22 7.06,0.66 14.22,-0.27 14.22,-0.27 0,0 3.81,-0.45 5.24,-2.15 1.43,-1.7 1.33,-8.44 1.4,-9.71 0.07,-1.26 1.76,-2.4 1.76,-2.4l-0.1 -4.17c0,0 -6.59,-1.41 -10.36,-1.61 -3.77,-0.2 -10.8,-0.37 -15.52,-0.04 -4.72,0.33 -6.02,2.35 -7.06,2.61 -0.7,0.17 -1.85,0.15 -2.54,0.12l-0 -0.04c0,0 -2.07,0.05 -3.11,-0.28 -1.04,-0.33 -2.34,-2.42 -7.06,-3.04 -4.72,-0.62 -11.75,-0.88 -15.52,-0.91 -3.77,-0.03 -10.36,0.98 -10.36,0.98zm66.61 6.2c0,0 -0.26,-2.26 -2.25,-2.81 -1.98,-0.54 -14.97,-0.85 -17.99,-0.52 -4.64,0.51 -4.33,3.74 -4.26,7.48 0.04,2.23 -0.16,5.43 1.33,6.5 1.5,1.07 2.7,1.34 6.08,1.77 3.38,0.44 11.91,-0.08 14.12,-0.4 2.21,-0.32 2.73,-2.21 3.06,-2.97 0.33,-0.76 0.49,-6.67 -0.1,-9.05zm-61.68 -1.91c0,0 0.26,-2.25 2.25,-2.67 1.98,-0.42 14.97,0.06 17.99,0.59 3.03,0.52 4.03,1.4 4.43,1.92 0.39,0.52 0.65,3.64 0.49,5.86 -0.16,2.21 -0.49,5.4 -1.98,6.38 -1.5,0.98 -2.7,1.17 -6.08,1.4 -3.38,0.23 -11.91,-0.81 -14.12,-1.27 -2.21,-0.46 -2.73,-2.38 -3.06,-3.16 -0.33,-0.78 -0.49,-6.7 0.1,-9.05z"/>
   <path class="fil3" d="M85.61 73.66c0,0 3.36,-1.24 6.97,-0.71 3.61,0.53 7.12,1.99 7.12,1.99 0,0 0.98,-0.05 0.7,-1.25 -0.27,-1.21 -3.45,-2.65 -7.12,-3.35 -3.67,-0.7 -9.81,0.58 -9.81,0.58 0,0 -1.25,0.23 -1.37,1.28 -0.12,1.05 1.04,1.81 1.71,1.92 0.67,0.1 1.8,-0.46 1.8,-0.46z"/>
   <path class="fil1 str3" d="M66.4 86.75c0,0 0,-3.15 -3.28,-4.97 -3.28,-1.82 -6,-2.65 -9.75,-2.19 -3.75,0.46 -6.17,3.51 -6.17,3.51 0,0 -0.13,0.96 3.15,1.66 3.28,0.7 7.1,0.4 9.42,0.86 2.32,0.46 5.04,1.59 5.84,1.36 0.8,-0.23 0.8,-0.23 0.8,-0.23z"/>
   <path class="fil16" d="M62.81 81.61c-3.15,-1.71 -5.81,-2.47 -9.45,-2.02 -0.26,0.03 -0.52,0.08 -0.77,0.13 -0.88,1.15 -1.42,2.65 -1.42,4.28 0,0.31 0.02,0.62 0.06,0.93 3.06,0.49 6.41,0.28 8.53,0.7 1,0.2 2.07,0.52 3.03,0.81 0.27,-0.75 0.42,-1.57 0.42,-2.43 0,-0.84 -0.14,-1.65 -0.4,-2.39z"/>
   <path class="fil17" d="M53.29 85.16c2.43,0.19 4.83,0.13 6.47,0.46 0.35,0.07 0.72,0.16 1.08,0.25 0.29,-0.53 0.46,-1.14 0.46,-1.78 0,-2.13 -1.83,-3.85 -4.09,-3.85 -2.26,0 -4.09,1.72 -4.09,3.85 0,0.37 0.06,0.73 0.16,1.06z"/>
   <path class="fil13" d="M66.4 86.75c0,0 0,-3.15 -3.28,-4.97 -3.28,-1.82 -6,-2.65 -9.75,-2.19 -3.75,0.46 -6.17,3.51 -6.17,3.51 0,0 -0.04,0.28 0.43,0.64 1.89,-1.68 6.4,-3.16 8.79,-3.16 2.52,0 6.1,1.23 8.22,3.42 1.03,1.06 1.48,2.04 1.67,2.78l0.08 -0.02z"/>
   <path class="fil18" d="M55.4 80.54c0.76,0 1.37,0.58 1.37,1.29 0,0.71 -0.61,1.29 -1.37,1.29 -0.76,0 -1.37,-0.58 -1.37,-1.29 0,-0.71 0.61,-1.29 1.37,-1.29z"/>
   <path class="fil1 str3" d="M81.61 86.85c0,0 0.18,-3.14 3.45,-4.78 3.26,-1.64 5.93,-2.31 9.5,-1.64 3.58,0.67 5.73,3.86 5.73,3.86 0,0 0.07,0.97 -3.13,1.48 -3.2,0.51 -6.85,-0 -9.11,0.33 -2.26,0.33 -4.94,1.31 -5.69,1.03 -0.75,-0.28 -0.75,-0.28 -0.75,-0.28z"/>
   <path class="fil16" d="M85.36 81.92c3.13,-1.53 5.73,-2.14 9.2,-1.49 0.25,0.05 0.5,0.11 0.73,0.18 0.78,1.2 1.21,2.72 1.11,4.35 -0.02,0.31 -0.06,0.62 -0.11,0.92 -2.97,0.31 -6.18,-0.08 -8.24,0.22 -0.97,0.14 -2.02,0.4 -2.96,0.63 -0.22,-0.77 -0.31,-1.59 -0.26,-2.45 0.05,-0.84 0.23,-1.64 0.53,-2.36z"/>
   <path class="fil17" d="M94.31 85.99c-2.34,0.05 -4.65,-0.14 -6.25,0.1 -0.34,0.05 -0.7,0.12 -1.05,0.19 -0.25,-0.55 -0.38,-1.16 -0.34,-1.8 0.12,-2.12 1.98,-3.74 4.15,-3.61 2.17,0.13 3.83,1.95 3.71,4.07 -0.02,0.37 -0.1,0.72 -0.21,1.05z"/>
   <path class="fil13" d="M81.61 86.85c0,0 0.18,-3.14 3.45,-4.78 3.26,-1.64 5.93,-2.31 9.5,-1.64 3.58,0.67 5.73,3.86 5.73,3.86 0,0 0.02,0.28 -0.45,0.61 -1.72,-1.78 -5.97,-3.51 -8.27,-3.65 -2.42,-0.14 -5.94,0.88 -8.11,2.95 -1.05,1 -1.54,1.96 -1.77,2.68l-0.08 -0.03z"/>
   <path class="fil18" d="M92.55 81.26c-0.73,-0.04 -1.35,0.5 -1.39,1.21 -0.04,0.71 0.52,1.32 1.24,1.37 0.73,0.04 1.35,-0.5 1.39,-1.21 0.04,-0.71 -0.52,-1.32 -1.24,-1.37z"/>
   <path class="fil13" d="M37.57 74.17l-0.1 4.24c0,0 1.72,1.26 1.79,2.55 0.07,1.29 -0.03,8.16 1.43,9.98 1.46,1.82 5.34,2.52 5.34,2.52 0,0 7.29,1.39 14.49,1.16 7.2,-0.23 7.69,-1.79 7.69,-1.79 0,0 1.49,-1.56 2.02,-3.81 0.53,-2.25 0.63,-4.11 0.86,-5.04 0.23,-0.93 2.06,-1.33 2.72,-1.33 0.08,0 0.15,-0.07 0.2,-0.21 0.06,0.15 0.13,0.23 0.21,0.24 0.66,0.04 2.49,0.55 2.72,1.49 0.23,0.94 0.33,2.81 0.86,5.09 0.53,2.29 2.02,3.94 2.02,3.94 0,0 0.5,1.59 7.69,2.26 7.19,0.67 14.49,-0.27 14.49,-0.27 0,0 3.88,-0.46 5.34,-2.19 1.46,-1.73 1.36,-8.6 1.43,-9.89 0.07,-1.29 1.79,-2.44 1.79,-2.44l-0.1 -4.25c0,0 -6.71,-1.44 -10.56,-1.64 -3.85,-0.2 -11.01,-0.38 -15.82,-0.04 -4.81,0.34 -6.13,2.39 -7.2,2.66 -0.71,0.18 -1.89,0.16 -2.59,0.12l-0 -0.04c0,0 -2.11,0.05 -3.17,-0.28 -1.06,-0.33 -2.39,-2.47 -7.19,-3.1 -4.81,-0.63 -11.97,-0.9 -15.82,-0.93 -3.85,-0.03 -10.56,0.99 -10.56,0.99zm67.88 6.32c0,0 -0.27,-2.3 -2.29,-2.86 -2.02,-0.56 -15.25,-0.87 -18.34,-0.53 -4.73,0.52 -4.41,3.81 -4.34,7.62 0.04,2.27 -0.17,5.53 1.36,6.62 1.53,1.09 2.75,1.36 6.2,1.81 3.45,0.44 12.14,-0.09 14.39,-0.41 2.26,-0.33 2.79,-2.25 3.12,-3.03 0.33,-0.78 0.5,-6.8 -0.1,-9.22zm-62.85 -1.95c0,0 0.27,-2.29 2.29,-2.72 2.02,-0.43 15.25,0.07 18.34,0.6 3.08,0.53 4.11,1.43 4.51,1.96 0.4,0.53 0.66,3.71 0.5,5.97 -0.17,2.25 -0.5,5.5 -2.02,6.5 -1.53,0.99 -2.75,1.19 -6.2,1.43 -3.45,0.23 -12.14,-0.83 -14.39,-1.29 -2.25,-0.46 -2.79,-2.42 -3.12,-3.22 -0.33,-0.8 -0.5,-6.83 0.1,-9.22z"/>
   <g>
    <g style="clip-path:url(#id10)">
     <image x="58.34" y="105.52" width="29.98" height="13.77" xlink:href="pm_SVG_Images\pm_SVG_ImgID1.png"/>
    </g>
   </g>
   <path class="fil13" d="M60.77 109.1c-0.07,-0.12 -0.11,-0.18 -0.11,-0.18l0.06 -0c0.46,-0.03 3.48,-0.21 5.31,-0.83 1.99,-0.66 6,0.2 6.73,0.53 0.71,0.32 1.71,0.27 2.39,-0.1 0.66,-0.36 2.22,-0.93 5.27,-0.5 2.22,0.31 4.16,0.94 5.05,1.26 0,0 0.01,0 0.03,0.01 0.1,0.03 0.43,0.16 0.49,0.19 0,0 -0.09,0.14 -0.25,0.37 -1.96,0.89 -6.02,1.74 -13.23,1.81 -7.22,0.07 -9.83,-1.5 -11.74,-2.57z"/>
   <g>
    <g style="clip-path:url(#id11)">
     <image x="58.39" y="105.52" width="29.92" height="8.15" xlink:href="pm_SVG_Images\pm_SVG_ImgID2.png"/>
    </g>
   </g>
   <path class="fil18" d="M72.29 104.08c0,0 -0.37,-0.3 -0.98,-0.39 -0.61,-0.08 -1.2,-0.07 -1.15,0.2 0.06,0.27 0.28,0.43 0.8,0.47 0.51,0.03 1.33,-0.28 1.33,-0.28z"/>
   <path class="fil5" d="M38.21 93.92c0.93,0 1.69,0.76 1.69,1.69 0,0.93 -0.76,1.69 -1.69,1.69 -0.93,0 -1.69,-0.76 -1.69,-1.69 0,-0.93 0.76,-1.69 1.69,-1.69z"/>
  </g>
 </g>
</svg>
