<?xml version="1.0" encoding="UTF-8"?>
<!DOCTYPE svg PUBLIC "-//W3C//DTD SVG 1.0//EN" "http://www.w3.org/TR/2001/REC-SVG-20010904/DTD/svg10.dtd">
<!-- Creator: CorelDRAW 2021 (64-Bit) -->
<svg xmlns="http://www.w3.org/2000/svg" xml:space="preserve" width="1.0279in" height="1.0279in" version="1.0" style="shape-rendering:geometricPrecision; text-rendering:geometricPrecision; image-rendering:optimizeQuality; fill-rule:evenodd; clip-rule:evenodd"
viewBox="0 0 144.47 144.47"
 xmlns:xlink="http://www.w3.org/1999/xlink"
 xmlns:xodm="http://www.corel.com/coreldraw/odm/2003">
 <defs>
  <style type="text/css">
   <![CDATA[
    .str3 {stroke:#712C2C;stroke-width:3.9;stroke-miterlimit:2.61313}
    .str4 {stroke:#273E54;stroke-width:3.9;stroke-miterlimit:2.61313}
    .str1 {stroke:#373C45;stroke-width:1.95;stroke-miterlimit:2.61313}
    .str0 {stroke:#373435;stroke-width:0.98;stroke-miterlimit:2.61313}
    .str2 {stroke:#284D70;stroke-width:2.93;stroke-linecap:round;stroke-linejoin:round;stroke-miterlimit:2.61313}
    .fil22 {fill:none}
    .fil17 {fill:#FEFEFE}
    .fil0 {fill:#E6E7E8}
    .fil18 {fill:#96989A}
    .fil14 {fill:#D65A5C}
    .fil21 {fill:#D7DFE4}
    .fil16 {fill:#9A3234}
    .fil2 {fill:#727B86}
    .fil19 {fill:#373C45}
    .fil6 {fill:#1B638B}
    .fil9 {fill:#285379}
    .fil10 {fill:#24394B}
    .fil5 {fill:#24394B;fill-opacity:0.301961}
    .fil7 {fill:url(#id10)}
    .fil15 {fill:url(#id11)}
    .fil13 {fill:url(#id12)}
    .fil20 {fill:url(#id13)}
    .fil11 {fill:url(#id14)}
    .fil12 {fill:url(#id15)}
    .fil8 {fill:url(#id16)}
    .fil1 {fill:url(#id17)}
    .fil3 {fill:url(#id18)}
    .fil4 {fill:url(#id19)}
   ]]>
  </style>
    <mask id="id0">
  <linearGradient id="id1" gradientUnits="userSpaceOnUse" x1="35.02" y1="81.68" x2="33.38" y2="83.83">
   <stop offset="0" style="stop-opacity:1; stop-color:white"/>
   <stop offset="1" style="stop-opacity:0; stop-color:white"/>
  </linearGradient>
     <rect style="fill:url(#id1)" x="31.08" y="80.04" width="6.68" height="10.95"/>
    </mask>
    <mask id="id2">
  <linearGradient id="id3" gradientUnits="userSpaceOnUse" x1="43.28" y1="41.52" x2="54.75" y2="35.29">
   <stop offset="0" style="stop-opacity:1; stop-color:white"/>
   <stop offset="1" style="stop-opacity:0; stop-color:white"/>
  </linearGradient>
     <rect style="fill:url(#id3)" x="36.31" y="20.49" width="23.67" height="27.12"/>
    </mask>
    <mask id="id4">
  <linearGradient id="id5" gradientUnits="userSpaceOnUse" x1="114.43" y1="81.17" x2="116.08" y2="83.32">
   <stop offset="0" style="stop-opacity:1; stop-color:white"/>
   <stop offset="1" style="stop-opacity:0; stop-color:white"/>
  </linearGradient>
     <rect style="fill:url(#id5)" x="111.7" y="79.53" width="6.68" height="10.95"/>
    </mask>
    <mask id="id6">
  <linearGradient id="id7" gradientUnits="userSpaceOnUse" x1="36.48" y1="86.1" x2="64.95" y2="86.1">
   <stop offset="0" style="stop-opacity:0.619608; stop-color:white"/>
   <stop offset="1" style="stop-opacity:0; stop-color:white"/>
  </linearGradient>
     <rect style="fill:url(#id7)" x="35.99" y="78.73" width="29.45" height="14.75"/>
    </mask>
    <mask id="id8">
  <linearGradient id="id9" gradientUnits="userSpaceOnUse" x1="104.12" y1="85.5" x2="72.79" y2="85.5">
   <stop offset="0" style="stop-opacity:0.529412; stop-color:white"/>
   <stop offset="1" style="stop-opacity:0; stop-color:white"/>
  </linearGradient>
     <rect style="fill:url(#id9)" x="72.3" y="78.28" width="32.31" height="14.45"/>
    </mask>
  <linearGradient id="id10" gradientUnits="userSpaceOnUse" x1="115.68" y1="46.28" x2="107.41" y2="49.55">
   <stop offset="0" style="stop-opacity:1; stop-color:#24394B"/>
   <stop offset="1" style="stop-opacity:1; stop-color:#285379"/>
  </linearGradient>
  <linearGradient id="id11" gradientUnits="userSpaceOnUse" x1="68.87" y1="115.49" x2="68.85" y2="112.4">
   <stop offset="0" style="stop-opacity:1; stop-color:#9A3838"/>
   <stop offset="0.2" style="stop-opacity:1; stop-color:#AE4141"/>
   <stop offset="1" style="stop-opacity:1; stop-color:#C34A4A"/>
  </linearGradient>
  <linearGradient id="id12" gradientUnits="userSpaceOnUse" xlink:href="#id10" x1="111.38" y1="75.51" x2="108.91" y2="75.95">
  </linearGradient>
  <linearGradient id="id13" gradientUnits="userSpaceOnUse" xlink:href="#id10" x1="41.87" y1="49.87" x2="34.85" y2="53.24">
  </linearGradient>
  <linearGradient id="id14" gradientUnits="userSpaceOnUse" x1="73.85" y1="34.06" x2="67.36" y2="46.23">
   <stop offset="0" style="stop-opacity:1; stop-color:#662B2B"/>
   <stop offset="1" style="stop-opacity:1; stop-color:#B63739"/>
  </linearGradient>
  <linearGradient id="id15" gradientUnits="userSpaceOnUse" xlink:href="#id10" x1="41.84" y1="57.65" x2="31.97" y2="61.62">
  </linearGradient>
  <linearGradient id="id16" gradientUnits="userSpaceOnUse" xlink:href="#id10" x1="101.5" y1="36.62" x2="89.51" y2="48.57">
  </linearGradient>
  <radialGradient id="id17" gradientUnits="userSpaceOnUse" gradientTransform="matrix(0.522315 -0.0260809 0.0147841 1.40746 17 -35)" cx="37.4" cy="88.29" r="30.09" fx="37.4" fy="88.29">
   <stop offset="0" style="stop-opacity:1; stop-color:#FEFEFE"/>
   <stop offset="0.639216" style="stop-opacity:1; stop-color:#FEFEFE"/>
   <stop offset="0.8" style="stop-opacity:1; stop-color:#C0C6D4"/>
   <stop offset="1" style="stop-opacity:1; stop-color:#828EAB"/>
  </radialGradient>
  <radialGradient id="id18" gradientUnits="userSpaceOnUse" gradientTransform="matrix(-0.522315 -0.0260803 -0.0147841 1.40742 177 -33)" xlink:href="#id17" cx="115.26" cy="87.78" r="30.09" fx="115.26" fy="87.78">
  </radialGradient>
  <radialGradient id="id19" gradientUnits="userSpaceOnUse" gradientTransform="matrix(0.956916 -0.0234728 0.0270852 1.2667 1 -21)" xlink:href="#id17" cx="71.11" cy="84.36" r="354.66" fx="71.11" fy="84.36">
  </radialGradient>
 </defs>
 <g id="Layer_x0020_1">
  <metadata id="CorelCorpID_0Corel-Layer"/>
  <circle class="fil0" cx="72.34" cy="71.79" r="70.27"/>
  <g id="_2053542514960">
   <path class="fil1" d="M38.23 79.41c0,0 -1.25,-2.09 -3.74,-2.04 -2.49,0.05 -3.84,3.19 -2.19,10.47 1.64,7.28 2.29,10.97 4.64,11.91 2.34,0.95 3.09,-0.15 3.09,-0.15l-1.79 -20.19z"/>
   <path class="fil2" style="mask:url(#id0)" d="M37.05 90.5c0,0 1.1,-6.03 -1.69,-8.87 -2.79,-2.84 -3.79,0.7 -3.79,0.7 0,0 -0.08,1.53 0.36,3.7 0.44,2.17 0.19,-2.31 0.99,-2.95 0.8,-0.65 1.65,-1 2.59,1 0.95,1.99 1.54,6.43 1.54,6.43z"/>
   <path class="fil3" d="M111.23 78.9c0,0 1.25,-2.09 3.74,-2.04 2.49,0.05 3.84,3.19 2.19,10.47 -1.64,7.28 -2.29,10.97 -4.64,11.91 -2.34,0.95 -3.09,-0.15 -3.09,-0.15l1.79 -20.19z"/>
   <path class="fil4" d="M35.72 83.08c0,0 0.93,4.81 0.93,11.4 0,6.59 0.76,16.72 6.09,23.36 5.33,6.64 10.1,12.58 19.64,14.78 9.54,2.2 18.74,-0.35 23.64,-2.46 4.9,-2.11 9.63,-6.92 15.46,-11.99 5.83,-5.07 7.89,-18.03 8.82,-21.4 0.93,-3.38 0.38,-10.3 0.38,-10.3l1.39 -25.6c0,0 -10.9,-22.72 -13.85,-22.8 -2.96,-0.08 -24.81,-6.79 -30.27,-6.9 -5.46,-0.11 -16.02,1.91 -17.88,3.1 -1.86,1.18 -12.33,13.77 -12.33,13.77l-2.96 20.61 0.93 14.44z"/>
   <path class="fil5" d="M36.61 92.04c0.03,0.78 0.04,1.59 0.04,2.44 0,5.97 0.63,14.85 4.71,21.4 0.14,0.21 0.29,0.42 0.44,0.63 0.33,0.46 0.65,0.9 0.95,1.33l0 0c2.72,3.39 5.3,6.6 8.44,9.22 1.6,1.12 3.56,2.26 6.25,3.73 0.61,0.33 1.22,0.64 1.83,0.91 0.98,0.35 2.01,0.65 3.11,0.9 9.54,2.2 18.74,-0.35 23.64,-2.46 0.21,-0.09 0.43,-0.19 0.64,-0.29 1.04,-0.55 2.04,-1.13 3.02,-1.76 2.35,-1.58 4.73,-3.65 7.28,-5.93 5.19,-5.36 7.54,-7.01 10.15,-13.51 0.88,-2.47 1.55,-4.97 2.06,-7.1 1.44,-6.81 1.98,-15.35 -0.2,-20.92 0,0 0,0.09 0,0.25 0.04,2.05 0.12,16.27 -4.31,22.07 -4.78,6.26 -7.08,7.41 -9.72,7.99 -2.63,0.58 -3.95,0.08 -6.51,-1.32 -2.55,-1.4 -5.27,-3.95 -12.72,-4.12 -7.45,-0.16 -3.95,0.66 -9.35,0.16 -5.39,-0.49 -6.92,-0.66 -9.18,-0.16 -2.26,0.49 -4.32,1.44 -6.13,2.55 -1.81,1.11 -3.34,2.14 -6.26,1.4 -2.92,-0.74 -4.32,-1.44 -5.56,-5.06 -1.24,-3.62 -2.06,-10.35 -1.69,-13.55 0.37,-3.19 -0.15,-7.22 -0.15,-7.22 0,0 -0.49,4.67 -0.79,8.41zm32.48 24.8c0,0 2.64,-0.16 3.66,0.82 1.03,0.99 2.39,2.92 6.22,2.76 3.83,-0.16 4.94,-3.83 5.48,-5.68 0.54,-1.85 -0.04,-4.53 -4.16,-4.78 -4.12,-0.25 -5.48,-0.12 -7.33,-0.66 -1.85,-0.54 -6.34,-0.41 -8.69,-0.08 -2.35,0.33 -7.12,0.25 -7.12,0.25 0,0 -2.1,-0.58 -2.64,2.22 -0.54,2.8 0.49,6.34 3.25,7.53 2.76,1.19 4.94,0.33 5.64,-0.66 0.7,-0.99 2.68,-2.22 5.68,-1.73z"/>
   <path class="fil6" d="M37.94 38.63c0,0 -0.34,-14.78 17.57,-21.79 17.91,-7.01 21.37,-6.42 25.08,-8.11 3.72,-1.69 3.72,-2.53 3.72,-2.53 0,0 -2.91,4.29 -3.04,6.93 -0.13,2.64 0.64,3.02 0.64,3.02 0,0 2.23,-1.24 2.82,-4.12 0.59,-2.87 0.34,-3.72 0.34,-3.72 0,0 9.21,3.55 15.29,12.08 6.08,8.53 3.21,7.94 10.47,15.12 7.26,7.18 7.69,21.11 7.01,27.7 -0.68,6.59 -4.98,13.94 -5.32,18.16 -0.34,4.22 -1.35,10.64 -1.35,10.64 0,0 -2.79,-9.54 -2.79,-13.09 0,-3.55 0.08,-5.66 0.08,-5.66 0,0 -0.84,1.52 -2.28,1.77 -1.44,0.25 0,-3.38 0,-6.33 0,-2.96 -1.27,-6.93 -1.27,-6.93l-2.53 5.07c0,0 -0.84,2.96 -2.45,2.62 -1.6,-0.34 -1.1,-10.39 -1.69,-14.27 -0.59,-3.89 -1.69,-8.02 -5.32,-9.54 -3.63,-1.52 -6.25,-2.62 -6.25,-2.62 0,0 -10.73,-5.07 -17.99,-4.64 -7.26,0.42 -19.92,3.21 -22.97,4.98 -3.05,1.77 -3.08,3.76 -3.08,3.76l-4.69 -8.49z"/>
   <path class="fil7" d="M113.42 38.77c1.26,2 2.2,4.25 2.89,6.58 0.22,4.41 -3.57,15.8 -4.52,20.55 -0.45,2.28 -2.45,6.39 -4.03,8.25 -0.39,0.38 -0.92,0.77 -1.58,0.89 -0.25,-0.18 -0.46,-0.62 -0.62,-1.25 0.1,-1.27 0.62,-3.3 0.62,-5.08 0,-2.96 -1.27,-6.93 -1.27,-6.93 0,0 4.7,-10.51 5.15,-16.98 0.46,-6.47 -5.07,-14.36 -5.07,-14.36 0,0 5.07,3.8 8.42,8.33z"/>
   <path class="fil8" d="M104.09 63.41l-1.71 3.43c0,0 -0.11,0.37 -0.31,0.83 -0.31,0.58 -0.51,0.91 -0.51,0.91 -0.4,0.56 -0.94,1.01 -1.63,0.87 -1.6,-0.34 -1.1,-10.39 -1.69,-14.27 -0.59,-3.89 -1.69,-8.02 -5.32,-9.54 -3.63,-1.52 -6.25,-2.62 -6.25,-2.62l-7.73 -17.76 5.91 0.68c0,0 19.72,7.29 22.13,18.41 1.46,6.74 -0.84,14.22 -2.88,19.07z"/>
   <path class="fil9" d="M36.8 39.35c7.3,-24.34 31.08,-29.9 51.6,-19.76 6.94,3.43 7.26,4.56 11.74,5.74 4.48,1.18 4.56,1.27 4.56,1.27 0,0 -5.24,2.53 -11.23,2.45 -6,-0.08 -10.05,-1.94 -10.05,-1.94 0,0 4.48,9.8 5.49,18.67 1.01,8.87 1.18,15.12 1.18,15.12 0,0 0.17,2.62 -1.39,1.31 -1.56,-1.31 -3.76,-9.33 -8.57,-13.98 -4.81,-4.65 -12.29,-4.05 -12.29,-4.05 0,0 1.98,6.93 2.32,9.97 0.34,3.04 0.08,3.55 0.08,3.55 0,0 -6.59,-10.81 -14.95,-13.6 -8.36,-2.79 -12.67,3.04 -12.67,3.04l-5.83 -7.77z"/>
   <path class="fil10" style="mask:url(#id2)" d="M36.8 39.35c0,0 3.22,-13.13 11.72,-18.37l10.97 25.2c-1.33,-0.88 -2.73,-1.61 -4.2,-2.1 -8.36,-2.79 -12.67,3.04 -12.67,3.04l-5.83 -7.77z"/>
   <path class="fil11" d="M85.19 55.57c-1.28,-2.52 -2.91,-5.28 -5.06,-7.35 -4.81,-4.65 -12.29,-4.05 -12.29,-4.05 0,0 1.98,6.93 2.32,9.97 0.34,3.04 0.08,3.55 0.08,3.55 0,0 -0.25,-7.69 -4.73,-14.95 -4.48,-7.26 -15.2,-13.68 -15.2,-13.68l1.77 -0.17c0,0 17.48,-1.01 25.76,8.7 8.28,9.71 7.34,17.99 7.34,17.99l0 0z"/>
   <path class="fil12 str0" d="M35.49 39.31c0,0 -4.56,0.59 -6,8.61 -1.44,8.02 0.34,17.23 1.27,21.62 0.93,4.39 2.53,9.46 3.04,13.18 0.51,3.72 0.51,7.77 0.51,7.77 0,0 0.34,2.58 1.69,-0.08 1.35,-2.66 0.89,-10.77 0.89,-10.77l-0.46 -11.15c0,0 -0.9,-10.57 2.66,-15.97 3.55,-5.4 3.55,-5.4 3.55,-5.4l-5.74 -8.09 -1.39 0.28z"/>
   <path class="fil13" d="M111.16 92.01c0,0 -2.79,-9.54 -2.79,-13.09 0,-3.55 0.08,-5.66 0.08,-5.66 0,0 1.77,-0.59 2.96,-8.02 0,0 -0.52,11.74 -0.76,17.91 -0.24,6.17 0.51,8.87 0.51,8.87z"/>
   <path class="fil2" d="M45.33 64.98c0,0 1.65,-0.89 5.79,-0.17 4.14,0.72 7.14,1.98 7.14,1.98 0,0 1.27,0.72 1.01,2.28 -0.25,1.56 -0.89,1.9 -1.82,1.86 -0.93,-0.04 -5.7,-2.11 -9.37,-1.94 -3.67,0.17 -5.24,2.11 -5.24,2.11 0,0 -1.69,1.06 -1.86,-0.25 -0.17,-1.31 0.89,-3.84 4.35,-5.87z"/>
   <path class="fil2" d="M75.84 66.97c0,0 0.08,-0.51 6.33,-2.15 6.25,-1.65 9.46,-0.59 11.02,-0.08 1.56,0.51 4.18,3.84 4.18,3.84 0,0 0.59,1.22 -0.38,2.07 -0.97,0.84 -3.51,-1.35 -4.27,-1.69 -0.76,-0.34 -2.15,-1.01 -4.73,-0.59 -2.58,0.42 -9.84,2.24 -9.84,2.24 0,0 -1.56,0.25 -2.41,-0.72 -0.84,-0.97 0.08,-2.91 0.08,-2.91z"/>
   <path class="fil14" d="M56.65 110.86c0,0 2.97,3.84 10.45,3.8 7.47,-0.04 9.8,-0.93 11.65,-1.48 1.85,-0.55 3.25,-2.45 3.25,-2.45l-0.2 -0.59c0,0 -4.3,0.34 -7.83,0.21 -3.54,-0.13 -5.34,-0.34 -10.16,-0.13 -4.82,0.21 -6.95,0.23 -6.95,0.23 0,0 -0.36,0 -0.2,0.4z"/>
   <path class="fil15" d="M56.65 110.86c0,0 3.13,4.73 10.61,4.69 3.98,-0.02 11.99,-1.09 14.74,-4.81l-0.16 -0.48c-1.83,0.49 -6.61,1.57 -13.52,1.57 -4.97,0 -8.8,-0.73 -11.23,-1.38 -0.16,0 -0.24,0 -0.24,0 0,0 -0.36,0 -0.2,0.4z"/>
   <path class="fil16" d="M81.87 110.9c0.04,-0.05 0.08,-0.11 0.12,-0.16l-0.16 -0.48c-1.83,0.49 -6.61,1.57 -13.52,1.57 -4.97,0 -8.8,-0.73 -11.23,-1.38 -0.16,0 -0.24,0 -0.24,0 0,0 -0.14,0 -0.21,0.1 2.07,0.88 5.87,1.82 12.66,1.84 6.58,0.02 10.41,-0.75 12.57,-1.5z"/>
   <path class="fil17 str1" d="M41.34 82.72c0,0 0.76,-4.86 6.59,-6.12 5.83,-1.27 10.05,3.12 11.44,4.73 1.39,1.6 1.18,4.01 1.18,4.01 0,0 -1.9,2.36 -6.42,3.12 -4.52,0.76 -8.78,-0.97 -10.18,-1.98 -1.39,-1.01 -2.62,-3.76 -2.62,-3.76z"/>
   <path class="fil17 str1" d="M97.13 82.49c0,0 -0.79,-4.98 -6.88,-6.28 -6.09,-1.3 -10.5,3.21 -11.96,4.85 -1.46,1.65 -1.24,4.12 -1.24,4.12 0,0 1.98,2.43 6.71,3.21 4.72,0.78 9.18,-1 10.63,-2.04 1.46,-1.04 2.74,-3.86 2.74,-3.86z"/>
   <path class="fil18" d="M84.33 88.46c3.44,0.43 6.67,-0.45 8.64,-1.33 0.92,-1.26 1.39,-2.84 1.24,-4.51 -0.34,-3.69 -3.66,-6.4 -7.42,-6.05 -0.97,0.09 -1.87,0.38 -2.68,0.81 -0.86,0.62 -1.6,1.3 -2.23,1.94 -0.94,1.27 -1.44,2.87 -1.28,4.56 0.15,1.59 0.84,2.99 1.89,4.05 0.54,0.2 1.16,0.38 1.84,0.53z"/>
   <path class="fil2" style="mask:url(#id4)" d="M112.4 89.99c0,0 -1.1,-6.03 1.69,-8.87 2.79,-2.84 3.79,0.7 3.79,0.7 0,0 0.08,1.53 -0.36,3.7 -0.44,2.17 -0.19,-2.31 -0.99,-2.95 -0.8,-0.65 -1.65,-1 -2.59,1 -0.95,1.99 -1.54,6.43 -1.54,6.43z"/>
   <path class="fil18" d="M55.46 77.97c0.81,0.49 1.53,1.03 2.13,1.56 0.94,1.07 1.51,2.47 1.51,4 0,1.44 -0.5,2.76 -1.34,3.81 -0.94,0.45 -2.14,0.87 -3.62,1.12 -1.62,0.27 -3.21,0.22 -4.65,0 -1.53,-1.1 -2.53,-2.9 -2.53,-4.93 0,-3.35 2.72,-6.07 6.07,-6.07 0.87,0 1.69,0.18 2.43,0.51z"/>
   <path class="fil19 str0" d="M41.34 82.72c0,0 0.76,-4.86 6.59,-6.12 4.95,-1.08 13.12,3.16 12.63,8.74 0,0 -0.05,-1.27 -0.84,-2.96 -2.29,-4.87 -10.43,-6.76 -14.95,-3.5 -1.85,1.33 -2.76,3.08 -3.2,4.3 -0.14,-0.28 -0.22,-0.46 -0.22,-0.46z"/>
   <circle class="fil19" cx="53.06" cy="83.26" r="3.81"/>
   <circle class="fil17" cx="50.75" cy="80.94" r="1.49"/>
   <path class="fil19" d="M97.13 82.49c0,0 -0.79,-4.98 -6.88,-6.28 -5.17,-1.1 -13.7,3.25 -13.19,8.97 0,0 0.05,-1.3 0.88,-3.03 2.4,-5 10.89,-6.94 15.62,-3.6 1.93,1.36 2.88,3.16 3.34,4.41 0.15,-0.29 0.23,-0.47 0.23,-0.47z"/>
   <circle class="fil19" transform="matrix(-0.0989082 0.00913635 0.00897391 0.0971496 87.3271 82.9569)" r="43.19"/>
   <circle class="fil17" transform="matrix(-0.038772 0.00358145 0.00351777 0.0380826 89.6887 80.1659)" r="43.19"/>
   <path class="fil20" d="M42.67 44.21l-0.04 2.91c0,0 -4.6,4.86 -5.28,11.36 -0.68,6.5 0.42,13.26 0.42,13.26 0,0 -4.39,-5.41 -5.15,-11.99 -0.76,-6.59 0.42,-12.25 1.18,-14.61 0.76,-2.36 3.22,-6.59 3.22,-6.59l5.65 5.67z"/>
   <path class="fil21" d="M66.05 82.52c0,0 1.07,8.99 0.89,10.36 -0.18,1.37 -2.62,4.94 -1.79,6.97 0.83,2.02 1.85,2.74 5.36,2.2 3.51,-0.54 4.23,-1.49 4.23,-1.49 0,0 1.91,3.16 -1.13,3.93 -3.04,0.77 -7.68,0.6 -9.83,0.06 -2.14,-0.54 -3.1,-2.5 -2.44,-4.47 0.66,-1.97 3.55,-6.78 4.41,-9.59 0.86,-2.81 0.3,-7.98 0.3,-7.98z"/>
   <path class="fil9" d="M74.44 100.83c0.23,-0.16 0.3,-0.26 0.3,-0.26 0,0 1.91,3.16 -1.13,3.93 -0.16,0.04 -0.32,0.08 -0.49,0.11 0.8,-0.51 1.51,-1.14 1.59,-1.75 0.07,-0.52 -0.07,-1.28 -0.27,-2.03z"/>
   <path class="fil9" d="M63.95 104.6l-0.17 -0.04c-2.14,-0.54 -3.1,-2.5 -2.44,-4.47 0.08,-0.24 0.19,-0.52 0.33,-0.83 -0.03,1.23 0.04,2.42 0.39,3.12 0.44,0.9 1.21,1.67 1.9,2.21z"/>
   <path class="fil17" d="M70.29 103.71c0,0 0.48,-0.39 1.25,-0.49 0.77,-0.1 1.53,-0.09 1.46,0.25 -0.07,0.34 -0.36,0.55 -1.01,0.6 -0.66,0.04 -1.7,-0.36 -1.7,-0.36z"/>
   <path class="fil17" d="M66.8 103.71c0,0 -0.48,-0.39 -1.25,-0.49 -0.77,-0.1 -1.53,-0.09 -1.46,0.25 0.07,0.34 0.36,0.55 1.01,0.6 0.66,0.04 1.7,-0.36 1.7,-0.36z"/>
   <path class="fil18" style="mask:url(#id6)" d="M39.48 79.22l25.48 0.96c0,0 -3.11,10.96 -5.07,12.29 -1.96,1.34 -13.77,-0.31 -13.77,-0.31 0,0 -5.74,0.24 -6.94,-3.84 -1.21,-4.09 -2.7,-9.07 -2.7,-9.07l3 -0.03z"/>
   <path class="fil18" style="mask:url(#id8)" d="M101.17 78.77l-28.38 1.48c0,0 0.62,9.62 2.89,10.95 2.27,1.34 17.78,1 17.78,1 0,0 6.86,-0.06 8.26,-4.15 1.4,-4.09 2.41,-9.25 2.41,-9.25l-2.95 -0.03z"/>
   <path class="fil22 str2" d="M36.94 81.08c0,0 1.77,7.6 3.59,9.69 1.81,2.09 15.28,2.16 18.35,2.16 2.67,0 5,-9.55 5.44,-9.56l8.58 -0.14c0.14,-0 0,7.05 2.79,8.37 2.79,1.33 16.25,0.56 19.88,0.56 3.63,0 5.72,-2.51 7.05,-6.14 1.33,-3.63 1.06,-4.8 1.19,-4.81l8.86 -0.85"/>
  </g>
  <path class="fil22 str3" d="M141.62 83.41c-6.17,38.32 -42.24,64.38 -80.55,58.21 -38.32,-6.17 -64.38,-42.24 -58.21,-80.55"/>
  <path class="fil22 str4" d="M2.85 61.06c6.17,-38.32 42.24,-64.38 80.55,-58.21 38.32,6.17 64.38,42.24 58.21,80.55"/>
 </g>
</svg>
