<?xml version="1.0" encoding="UTF-8"?>
<!DOCTYPE svg PUBLIC "-//W3C//DTD SVG 1.0//EN" "http://www.w3.org/TR/2001/REC-SVG-20010904/DTD/svg10.dtd">
<!-- Creator: CorelDRAW 2021 (64-Bit) -->
<svg xmlns="http://www.w3.org/2000/svg" xml:space="preserve" width="1.02778in" height="1.02778in" version="1.0" style="shape-rendering:geometricPrecision; text-rendering:geometricPrecision; image-rendering:optimizeQuality; fill-rule:evenodd; clip-rule:evenodd"
viewBox="0 0 144.43 144.43"
 xmlns:xlink="http://www.w3.org/1999/xlink"
 xmlns:xodm="http://www.corel.com/coreldraw/odm/2003">
 <defs>
  <style type="text/css">
   <![CDATA[
    .str1 {stroke:#373435;stroke-width:0.98;stroke-miterlimit:2.61313;stroke-opacity:0.501961}
    .str2 {stroke:#156189;stroke-width:1.46;stroke-miterlimit:2.61313}
    .str3 {stroke:#712C2C;stroke-width:3.9;stroke-miterlimit:2.61313}
    .str4 {stroke:#273E54;stroke-width:3.9;stroke-miterlimit:2.61313}
    .str0 {stroke:#373435;stroke-width:0.98;stroke-miterlimit:2.61313}
    .fil10 {fill:none}
    .fil4 {fill:#FEFEFE}
    .fil0 {fill:#E6E7E8}
    .fil11 {fill:#D2D3D5}
    .fil12 {fill:#A9ABAE}
    .fil19 {fill:#ED3237}
    .fil18 {fill:#872F30}
    .fil7 {fill:#727B86}
    .fil17 {fill:#40454F}
    .fil1 {fill:#373C45}
    .fil9 {fill:#2A2E33}
    .fil13 {fill:#156189}
    .fil15 {fill:#285379}
    .fil16 {fill:#284D70}
    .fil14 {fill:#274A6B}
    .fil8 {fill:#24394B}
    .fil3 {fill:#285379;fill-opacity:0.501961}
    .fil5 {fill:url(#id6)}
    .fil6 {fill:url(#id7)}
    .fil2 {fill:url(#id8)}
   ]]>
  </style>
    <mask id="id0">
  <linearGradient id="id1" gradientUnits="userSpaceOnUse" x1="49.39" y1="34.33" x2="44.05" y2="40.53">
   <stop offset="0" style="stop-opacity:1; stop-color:white"/>
   <stop offset="1" style="stop-opacity:0; stop-color:white"/>
  </linearGradient>
     <rect style="fill:url(#id1)" x="39.29" y="28.94" width="18.51" height="17.01"/>
    </mask>
    <mask id="id2">
  <linearGradient id="id3" gradientUnits="userSpaceOnUse" x1="56.59" y1="33.6" x2="61.43" y2="28.34">
   <stop offset="0" style="stop-opacity:1; stop-color:white"/>
   <stop offset="1" style="stop-opacity:0; stop-color:white"/>
  </linearGradient>
     <rect style="fill:url(#id3)" x="49.14" y="21.34" width="21.11" height="19.45"/>
    </mask>
     <clipPath id="id4">
      <path d="M64.86 90.94c-0.16,-0.08 -0.32,-0.15 -0.48,-0.23 -0.14,-0.07 -0.29,-0.14 -0.43,-0.22 -0.03,0 -0.05,0 -0.08,0 0,0 0,0 0,0 0.73,-0.04 1.47,-0.06 2.21,-0.06 1.19,-0.01 2.71,0.01 4.17,0.15 1.42,0.13 2.55,0.33 3.45,0.39 0.05,0 0.1,0.01 0.16,0.01 2.3,0.11 4.18,-0.57 6.66,-0.41 1.29,0.09 2.54,0.4 2.98,0.48 0.05,0.01 0.08,0.01 0.11,0.02 0,0 0,0 0,0 -0.01,-0 -0.01,-0 -0.02,-0 -0.08,0.04 -0.17,0.09 -0.26,0.13 -0.16,0.08 -0.32,0.16 -0.48,0.23 -0.67,0.31 -1.4,0.6 -2.11,0.77 -2.46,0.59 -4.76,0.89 -7,0.85 -3.01,-0.05 -5.9,-0.71 -8.87,-2.11z"/>
     </clipPath>
     <clipPath id="id5">
      <path d="M66.72 94.72c-0.01,-0.01 -0.02,-0.02 -0.03,-0.02 -0.51,-0.45 -0.98,-0.94 -1.4,-1.46 -0.59,-0.75 -1.06,-1.59 -1.36,-2.52 0,0 0,0 0,0 0,0.01 0.01,0.02 0.01,0.03 1.58,1.12 4.99,3.04 9.75,3.01 0.69,-0 1.41,-0.05 2.15,-0.14 3.92,-0.5 6.23,-1.34 7.57,-2.06 -0.22,0.38 -0.58,0.97 -1.07,1.63 -0.05,0.06 -0.1,0.13 -0.14,0.19 -0.45,0.59 -0.96,1.16 -1.5,1.69 -0.94,0.9 -2.02,1.67 -3.22,2.17 -1.29,0.54 -2.54,0.71 -3.71,0.65 -0.03,-0 -0.06,-0 -0.09,-0.01 -2.03,-0.13 -4.03,-0.98 -5.68,-2.16 -0.43,-0.31 -0.86,-0.64 -1.28,-1z"/>
     </clipPath>
  <radialGradient id="id6" gradientUnits="userSpaceOnUse" gradientTransform="matrix(0.999979 -0 -0 0.818366 0 13)" cx="59.37" cy="69.88" r="49.52" fx="59.37" fy="69.88">
   <stop offset="0" style="stop-opacity:1; stop-color:#00B3FF"/>
   <stop offset="1" style="stop-opacity:1; stop-color:#285379"/>
  </radialGradient>
  <radialGradient id="id7" gradientUnits="userSpaceOnUse" gradientTransform="matrix(-0.999979 -0 -0 0.818366 179 13)" xlink:href="#id6" cx="89.43" cy="70.82" r="49.52" fx="89.43" fy="70.82">
  </radialGradient>
  <radialGradient id="id8" gradientUnits="userSpaceOnUse" gradientTransform="matrix(1.02171 -0.0234727 0.0289191 1.2667 -4 -18)" cx="71.55" cy="72.63" r="342.55" fx="71.55" fy="72.63">
   <stop offset="0" style="stop-opacity:1; stop-color:#FEFEFE"/>
   <stop offset="0.639216" style="stop-opacity:1; stop-color:#FEFEFE"/>
   <stop offset="0.8" style="stop-opacity:1; stop-color:#C0C6D4"/>
   <stop offset="1" style="stop-opacity:1; stop-color:#828EAB"/>
  </radialGradient>
 </defs>
 <g id="Layer_x0020_1">
  <metadata id="CorelCorpID_0Corel-Layer"/>
  <circle class="fil0" cx="72.32" cy="71.77" r="70.27"/>
  <g id="_2053573388880">
   <path class="fil1 str0" d="M48.45 82.7l0.73 34.35c0,0 4.23,4.05 5.99,4.23 1.75,0.18 3.99,-1.51 3.99,-1.51 0,0 0.67,0.36 4.11,-0.06 3.45,-0.42 3.87,-0.6 4.17,-1.57 0.3,-0.97 0.48,-2.84 0.48,-2.84 0,0 0,3.51 2.3,3.87 2.3,0.36 4.23,-0.79 7.32,-0.48 3.08,0.3 4.72,1.15 5.93,0.6 1.21,-0.54 1.39,-2.12 1.39,-3.14 0,-1.03 0.24,-2.54 0.6,-1.81 0.36,0.73 -0.24,4.17 2.96,5.32 3.21,1.15 10.1,1.33 10.1,1.33l5.71 -33.8 -55.79 -4.48z"/>
   <path class="fil2" d="M51.64 41.08c0,0 1.63,-2.48 4.42,-3.39 2.78,-0.91 8.16,-2.24 18.63,-1.75 10.46,0.48 15.06,0.91 17.36,2.66 2.3,1.75 8.29,9.19 9.19,21.23 0.91,12.04 0.67,17.72 -0.3,23.28 -0.97,5.56 -2.42,8.47 -5.44,11.61 -3.02,3.14 -7.38,6.59 -13.73,9.98 -9.27,4.94 -19.51,-0.69 -26.61,-6.59 -10.7,-8.89 -11.08,-23.74 -10.04,-36.89 0.73,-9.19 4.6,-19.05 6.53,-20.14z"/>
   <path class="fil3 str1" d="M51.64 41.08c0,0 1.63,-2.48 4.42,-3.39 1.1,-0.36 2.6,-0.78 4.65,-1.13l1.08 1.1c0,0 -6.55,-0.71 -10.7,6.77 -4.16,7.49 -4.2,13.78 -4.84,18.63 -0.56,4.27 2.03,19.89 3.56,28.92 -5.45,-8.76 -5.53,-20.3 -4.7,-30.76 0.73,-9.19 4.6,-19.05 6.53,-20.14z"/>
   <path class="fil4 str2" d="M51.3 70.16c0,0 2.18,3.33 7.26,3.81 5.08,0.48 7.14,-0.91 8.35,-1.57 0.33,-0.18 0.53,-0.44 0.62,-0.75 0.25,-0.84 -0.28,-2.04 -1.16,-3.06 -1.21,-1.39 -6.59,-3.21 -9.31,-2.84 -2.72,0.36 -4.72,2.48 -5.38,3.08 -0.67,0.6 -0.36,1.33 -0.36,1.33z"/>
   <path class="fil5" d="M63.28 66.86c0.76,0.86 1.21,1.98 1.21,3.2 0,1.58 -0.77,2.99 -1.97,3.9 -1.07,0.14 -2.37,0.17 -3.97,0.02 -1.18,-0.11 -2.21,-0.38 -3.08,-0.72 -0.76,-0.86 -1.21,-1.98 -1.21,-3.19 0,-1.82 1.02,-3.41 2.54,-4.27 0.08,-0.01 0.16,-0.03 0.24,-0.04 1.62,-0.22 4.17,0.34 6.23,1.11z"/>
   <path class="fil6" d="M85.53 67.79c-0.76,0.86 -1.21,1.98 -1.21,3.2 0,1.58 0.77,2.99 1.97,3.9 1.07,0.14 2.37,0.17 3.97,0.02 1.18,-0.11 2.21,-0.38 3.08,-0.72 0.76,-0.86 1.21,-1.98 1.21,-3.19 0,-1.82 -1.02,-3.41 -2.54,-4.27 -0.08,-0.01 -0.16,-0.03 -0.24,-0.04 -1.62,-0.22 -4.17,0.34 -6.23,1.11z"/>
   <path class="fil7" d="M50.73 56.95c4.62,-3.27 10.96,-2.13 15.85,-0.03 0.85,0.36 1.12,1.09 0.67,1.48 -0.45,0.39 -1.66,-0.27 -2.69,-0.57 -1.03,-0.3 -5.05,-1.6 -8.62,-1.39 -3.57,0.21 -4.48,1.43 -4.65,1.57 -0.18,0.13 -1.76,0.2 -0.55,-1.05z"/>
   <path class="fil7" d="M98.53 58.74c-4.38,-3.54 -10.38,-2.76 -15.02,-0.95 -0.8,0.31 -1.06,1.02 -0.63,1.44 0.43,0.42 1.58,-0.17 2.55,-0.42 0.97,-0.24 4.79,-1.31 8.17,-0.89 3.38,0.42 4.24,1.69 4.41,1.84 0.17,0.14 1.67,0.31 0.52,-1.02z"/>
   <path class="fil8" d="M67.52 71.33c-1.02,-3.81 -5.75,-5.46 -9.24,-5.44 -3.56,0.03 -7.05,3.81 -7.05,3.81 0,0 -0.81,-0.63 -1.96,-1.09 -1.15,-0.45 -1.39,-1.03 -1.39,-1.03 0,0 0.73,0.24 2.45,-0.18 1.72,-0.42 2.81,-2.66 7.74,-2.6 3.83,0.05 9.16,1.94 9.57,6.35l-0.11 0.17z"/>
   <ellipse class="fil9 str0" cx="59.59" cy="69.78" rx="3.17" ry="3.07"/>
   <ellipse class="fil4" cx="57.64" cy="67.6" rx="1.32" ry="1.28"/>
   <path class="fil10 str2" d="M97.51 71.09c0,0 -2.18,3.33 -7.26,3.81 -5.08,0.48 -7.14,-0.91 -8.35,-1.57 -0.33,-0.18 -0.53,-0.44 -0.62,-0.75 -0.25,-0.84 0.28,-2.04 1.16,-3.06 1.21,-1.39 6.59,-3.21 9.31,-2.84 2.72,0.36 4.72,2.48 5.38,3.08 0.67,0.6 0.36,1.33 0.36,1.33z"/>
   <path class="fil8" d="M81.29 72.37c0,0 0.71,-2.79 2.91,-3.69 2.21,-0.91 2.78,-1.45 6.32,-1.84 3.54,-0.39 7.05,3.81 7.05,3.81 0,0 0.49,0 1.64,-0.45 1.15,-0.45 1.39,-1.03 1.39,-1.03 0,0 -0.86,0.54 -2.46,-0.28 -1.61,-0.82 -3.49,-2.91 -7.38,-2.85 -3.7,0.06 -9.03,1.93 -9.61,6.06l0.14 0.28z"/>
   <ellipse class="fil9 str0" cx="89.22" cy="70.71" rx="3.17" ry="3.07"/>
   <ellipse class="fil4" cx="91.16" cy="68.54" rx="1.32" ry="1.28"/>
   <path class="fil11" d="M72.27 69.3c0,0 0.77,6.44 0.64,7.42 -0.13,0.98 -1.88,3.54 -1.28,4.99 0.6,1.45 1.32,1.96 3.84,1.58 2.52,-0.38 3.03,-1.07 3.03,-1.07 0,0 1.36,2.26 -0.81,2.82 -2.18,0.55 -5.5,0.43 -7.04,0.04 -1.54,-0.38 -2.22,-1.79 -1.75,-3.2 0.47,-1.41 2.54,-4.86 3.16,-6.87 0.62,-2.01 0.21,-5.72 0.21,-5.72z"/>
   <path class="fil12" d="M78.28 82.4c0.16,-0.11 0.22,-0.19 0.22,-0.19 0,0 1.36,2.26 -0.81,2.82 -0.11,0.03 -0.23,0.06 -0.35,0.08 0.57,-0.37 1.08,-0.81 1.14,-1.25 0.05,-0.37 -0.05,-0.92 -0.2,-1.46z"/>
   <path class="fil12" d="M70.77 85.11l-0.12 -0.03c-1.54,-0.38 -2.22,-1.79 -1.75,-3.2 0.06,-0.17 0.14,-0.37 0.23,-0.59 -0.03,0.88 0.03,1.73 0.28,2.24 0.32,0.65 0.87,1.19 1.36,1.59z"/>
   <path class="fil4" d="M75.31 84.47c0,0 0.34,-0.28 0.9,-0.35 0.55,-0.07 1.1,-0.06 1.04,0.18 -0.05,0.25 -0.26,0.39 -0.72,0.43 -0.47,0.03 -1.22,-0.26 -1.22,-0.26z"/>
   <path class="fil4" d="M72.8 84.47c0,0 -0.34,-0.28 -0.9,-0.35 -0.55,-0.07 -1.1,-0.06 -1.05,0.18 0.05,0.25 0.26,0.39 0.72,0.43 0.47,0.03 1.22,-0.26 1.22,-0.26z"/>
   <path class="fil13" d="M57.31 38.31c-7.15,-0.23 -10.46,12.92 -11.25,18.14 -1.39,9.19 0.91,25.04 3.45,38.59 2.54,13.55 4.41,35.38 4.41,35.38 0,0 0.12,1.09 -2,0.24 -2.12,-0.85 -5.68,-2.48 -7.5,-5.08 -1.81,-2.6 -2.36,-4.41 -2.36,-4.41l0.24 2.3c0,0 -2.72,-2.42 -5.32,-6.35 -2.6,-3.93 -4.17,-9.86 -4.29,-25.34 -0.12,-15.48 1.94,-17.3 2.9,-37.62 0.97,-20.32 7.98,-22.68 9.98,-23.95 2,-1.27 4.05,-0.6 4.05,-0.6l7.68 8.71z"/>
   <path class="fil14" style="mask:url(#id0)" d="M57.31 38.31c-4.25,-0.13 -6.31,3.88 -8.03,7.16l-2.66 -2.07 -6.84 -7.67c2.24,-3.86 4.73,-4.85 5.8,-5.52 2,-1.27 4.05,-0.6 4.05,-0.6l7.68 8.71z"/>
   <path class="fil15" d="M46.02 127.32c-0.61,-0.52 -1.15,-1.1 -1.6,-1.74 -1.81,-2.6 -2.36,-4.41 -2.36,-4.41l0.24 2.3c0,0 -1.23,-1.09 -2.83,-3.01 -0.64,-3.6 -1.35,-8.71 -2.01,-15.92 -1.94,-21.05 1.39,-48.99 2,-58.06 0.6,-9.07 4.78,-14.39 7.62,-14.76 2.84,-0.36 4.48,1.51 4.48,1.51 0,0 -2.12,-1.27 -4.35,-0.67 -2.24,0.6 -4.05,3.75 -5.26,7.38 -1.21,3.63 -2.78,20.56 -2.3,31.57 0.48,11.01 6.37,55.79 6.37,55.8z"/>
   <path class="fil16" d="M42.39 122.02c-0.13,-0.31 -0.22,-0.54 -0.27,-0.68l0.27 0.68zm-0.32 -0.81l0.24 2.26c0,0 -0.28,-0.25 -0.75,-0.72 -0.91,-2.27 -1.77,-5.34 -2.21,-9.38 -1.21,-11.01 -1.21,-16.81 -1.21,-16.81l1.03 7.86c0,0 1.04,12.06 2.06,14.64 0.22,0.56 0.52,1.32 0.85,2.15z"/>
   <path class="fil13" d="M50.35 28.58c0,0 3.08,-8.23 11.67,-11.31 8.59,-3.08 16.51,-2.78 26.61,2.6 10.1,5.38 11.67,9.43 15.85,15.48 4.17,6.05 6.41,19.41 7.26,25.95 0.85,6.53 0.6,19.11 0.6,22.86 0,3.75 0.85,17.12 1.15,19.84 0.3,2.72 0.79,6.23 -1.81,11.55 -2.6,5.32 -3.08,5.56 -3.08,5.56l-1.69 5.5c0,0 -5.2,1.75 -8.53,2.6 -3.33,0.85 -3.51,-0.85 -3.51,-0.85l3.63 -32.78c0,0 3.08,-20.08 3.02,-30.3 -0.06,-10.22 -2.42,-15.6 -4.23,-19.23 -1.81,-3.63 -5.44,-6.77 -5.44,-6.77 0,0 -8.16,1.87 -15.48,1.63 -7.32,-0.24 -19.05,-2.6 -19.05,-2.6l-7.68 -8.71 0.73 -1.03z"/>
   <path class="fil15" d="M111.26 57.95l0 0.01 1.1 22.74c-0.01,1.45 -0.02,2.65 -0.02,3.45 0,3.72 0.83,16.9 1.14,19.77l0.22 4.5c-0.03,0.54 -0.1,1.1 -0.2,1.7 -1.14,-10.36 -3.85,-35.32 -4.22,-41.46 -0.46,-7.81 -4.62,-24.42 -9.19,-32.37 -4.58,-7.95 -13.79,-13.43 -26.13,-14.76 -12.34,-1.33 -20.53,9.84 -20.53,9.84l-0.87 1.56 -1.28 -1.45c0,0 5.87,-9.11 12.52,-11.04 6.65,-1.94 19.54,-3.01 31.57,5.93 11.93,8.87 15.83,31.24 15.89,31.58z"/>
   <path class="fil14" style="mask:url(#id2)" d="M50.35 28.58c0,0 1.3,-3.47 4.56,-6.74l14.84 11.27 -0.25 7.21c-6.13,-0.78 -12.21,-2 -12.21,-2l-7.68 -8.71 0.73 -1.03z"/>
   <path class="fil14" d="M91.91 39.34c-0.04,-0.04 -0.07,-0.06 -0.07,-0.06 0,0 -8.16,1.87 -15.48,1.63 -7.32,-0.24 -19.05,-2.6 -19.05,-2.6l-0.03 -0.04c2.27,-2.34 6.91,-5.85 15.18,-7.28 12.94,-2.24 20.02,6.53 20.02,6.53l-0.57 1.81z"/>
   <path class="fil17" d="M85.6 115.06c0.13,1.29 0.26,3.68 2.82,4.6 3.21,1.15 10.1,1.33 10.1,1.33l0.45 -2.64 0 0 0.82 -19.5c0,0 -3.69,3.93 -6.59,8.41 -2.9,4.48 -7.6,7.8 -7.6,7.8l0 0z"/>
   <path class="fil8" d="M108.72 120.98c-0.09,0.12 -0.13,0.13 -0.13,0.13l-1.69 5.5c0,0 2.87,-44.15 0.09,-66.89 -2.78,-22.74 -8.47,-28.3 -8.47,-28.3 15.18,22.76 11.13,62.44 10.2,89.56z"/>
   <path class="fil15" d="M95.93 129.36c-0.99,-0.26 -1.07,-0.99 -1.07,-0.99l3.63 -32.78c0,0 3.08,-20.08 3.02,-30.3 -0.06,-10.22 -2.42,-15.6 -4.23,-19.23 -1.81,-3.63 -5.44,-6.77 -5.44,-6.77 0,0 -3.11,-4.23 -12.37,-5.87 -9.25,-1.63 -13.79,0.36 -20.74,3.57 0,0 5.93,-12.58 23.35,-7.14 17.42,5.44 21.05,25.4 21.05,25.4 0,0 1.94,23.71 0.85,37.01 -0.78,9.49 -5.43,27.53 -8.03,37.1z"/>
   <path class="fil17" d="M59.48 119.86c0.47,0.07 1.53,0.13 3.78,-0.14 3.45,-0.42 3.87,-0.6 4.17,-1.57 0.25,-0.79 0.41,-2.19 0.47,-2.67 -0.29,-0.33 -3.26,-3.65 -5.73,-6.46 -2.6,-2.96 -5.02,-2.9 -5.02,-2.9l2.32 13.75z"/>
   <path class="fil3" d="M82.85 34.19c0,0 1.86,5.89 6.28,9.27 4.42,3.39 10.7,9.5 11.43,19.66 0.73,10.16 0.97,16.69 0.97,16.69 0,0 1.33,-19.35 -0.48,-26.01 -1.81,-6.65 -5.56,-11.22 -8.1,-14.15 -2.54,-2.93 -10.09,-5.46 -10.09,-5.46z"/>
   <path class="fil18" d="M63.85 90.5l0.08 -0c5.51,2.86 10.68,3.16 16.78,1.71 0.98,-0.23 2.02,-0.7 2.84,-1.14l0.08 0.01c0,0 -0.09,0.18 -0.25,0.47 -1.34,0.72 -3.64,1.56 -7.57,2.06 -5.89,0.75 -10.09,-1.58 -11.9,-2.87 -0.03,-0.08 -0.05,-0.16 -0.07,-0.24z"/>
   <g>
    <g style="clip-path:url(#id4)">
     <image x="61.55" y="88.11" width="24.38" height="7.27" xlink:href="UiUx_Images\UiUx_ImgID1.png"/>
    </g>
   </g>
   <path class="fil19" d="M66.69 94.69c-1.24,-1.1 -2.26,-2.4 -2.76,-3.99l0.01 0.03c1.81,1.29 6.02,3.62 11.9,2.87 3.92,-0.5 6.23,-1.34 7.57,-2.06 -0.22,0.38 -0.58,0.97 -1.07,1.63 -1.26,1.69 -2.9,3.23 -4.86,4.05 -1.29,0.54 -2.54,0.71 -3.71,0.65 -2.07,-0.11 -4.1,-0.97 -5.77,-2.16 -0.44,-0.31 -0.88,-0.66 -1.3,-1.03z"/>
   <g>
    <g style="clip-path:url(#id5)">
     <image x="61.61" y="88.39" width="24.12" height="11.84" xlink:href="UiUx_Images\UiUx_ImgID2.png"/>
    </g>
   </g>
  </g>
  <path class="fil10 str3" d="M72.22 142.48c-38.81,0 -70.27,-31.46 -70.27,-70.27 0,-38.81 31.46,-70.27 70.27,-70.27"/>
  <path class="fil10 str4" d="M72.22 1.95c38.81,0 70.27,31.46 70.27,70.27 0,38.81 -31.46,70.27 -70.27,70.27"/>
 </g>
</svg>
