<?xml version="1.0" encoding="UTF-8"?>
<!DOCTYPE svg PUBLIC "-//W3C//DTD SVG 1.0//EN" "http://www.w3.org/TR/2001/REC-SVG-20010904/DTD/svg10.dtd">
<!-- Creator: CorelDRAW 2018 (64-Bit) -->
<svg xmlns="http://www.w3.org/2000/svg" xml:space="preserve" width="1.87581in" height="1.94715in" version="1.0" style="shape-rendering:geometricPrecision; text-rendering:geometricPrecision; image-rendering:optimizeQuality; fill-rule:evenodd; clip-rule:evenodd"
viewBox="0 0 237.8 246.84"
 xmlns:xlink="http://www.w3.org/1999/xlink">
 <defs>
  <style type="text/css">
   <![CDATA[
    .str6 {stroke:#156189;stroke-width:1.76;stroke-miterlimit:2.61313}
    .str7 {stroke:#822E2F;stroke-width:0.88;stroke-linecap:round;stroke-linejoin:round;stroke-miterlimit:2.61313}
    .str2 {stroke:#156189;stroke-width:0.9;stroke-miterlimit:2.61313}
    .str4 {stroke:#156189;stroke-width:0.9;stroke-miterlimit:2.61313}
    .str1 {stroke:#156189;stroke-width:0.9;stroke-miterlimit:2.61313}
    .str5 {stroke:#156189;stroke-width:0.9;stroke-miterlimit:2.61313}
    .str0 {stroke:#156189;stroke-width:0.08;stroke-miterlimit:2.61313}
    .str3 {stroke:#156189;stroke-width:0.08;stroke-miterlimit:2.61313}
    .str8 {stroke:#156189;stroke-width:0.9;stroke-linecap:round;stroke-linejoin:round;stroke-miterlimit:2.61313}
    .fil10 {fill:none}
    .fil4 {fill:none;fill-rule:nonzero}
    .fil2 {fill:#FEFEFE}
    .fil5 {fill:#FEFEFE}
    .fil9 {fill:#A03436}
    .fil6 {fill:#822E2F}
    .fil3 {fill:#156189}
    .fil8 {fill:#156189}
    .fil0 {fill:#FEFEFE;fill-rule:nonzero}
    .fil1 {fill:#156189;fill-rule:nonzero}
    .fil7 {fill:white;fill-rule:nonzero}
   ]]>
  </style>
 </defs>
 <g id="Layer_x0020_1">
  <metadata id="CorelCorpID_0Corel-Layer"/>
  <g>
   <path class="fil0" d="M177.98 57.11l8.7 0 2.75 16.49 0.3 0.21c4.55,21.43 10.11,13.33 12.77,-2.2l0.21 -0.3 -2.17 -12.99 3.08 -7.62 -0.92 -4.58 -7.79 -8.7 -16.95 0 0 13.29 0 6.41z"/>
   <path id="1" class="fil1" d="M186.69 56.66l0.45 0.38 -0.45 0.53 -8.7 0 0 -0.9 8.7 0zm0 0l0.38 0 0.06 0.38 -0.45 -0.38zm3.19 16.87l-0.71 0.44 -0.19 -0.29 -2.75 -16.49 0.89 -0.15 2.75 16.49zm-0.71 0.44l-0.15 -0.11 -0.03 -0.19 0.19 0.29zm0.82 -0.52l0.18 0.28 -0.7 0.46 -0.3 -0.21 0.52 -0.74 0.3 0.21zm0 0l0.14 0.1 0.04 0.17 -0.18 -0.28zm12.88 -1.57l0.08 -0.18 -0.26 1.44 -0.28 1.39 -0.29 1.34 -0.31 1.29 -0.32 1.23 -0.33 1.17 -0.35 1.1 -0.36 1.03 -0.37 0.96 -0.39 0.88 -0.4 0.8 -0.41 0.71 -0.43 0.63 -0.44 0.54 -0.47 0.44 -0.49 0.34 -0.52 0.23 -0.55 0.09 -0.56 -0.05 -0.55 -0.2 -0.52 -0.33 -0.5 -0.46 -0.48 -0.59 -0.47 -0.72 -0.47 -0.85 -0.46 -0.99 -0.46 -1.14 -0.45 -1.29 -0.45 -1.44 -0.44 -1.6 -0.44 -1.77 -0.43 -1.93 0.88 -0.19 0.43 1.91 0.43 1.74 0.44 1.58 0.44 1.41 0.44 1.25 0.44 1.1 0.44 0.95 0.43 0.8 0.43 0.65 0.42 0.51 0.4 0.37 0.37 0.24 0.34 0.13 0.32 0.03 0.32 -0.06 0.34 -0.15 0.36 -0.25 0.38 -0.36 0.38 -0.46 0.38 -0.56 0.38 -0.66 0.38 -0.75 0.37 -0.84 0.36 -0.92 0.35 -1 0.34 -1.08 0.33 -1.14 0.32 -1.21 0.3 -1.27 0.29 -1.33 0.27 -1.38 0.26 -1.43 0.08 -0.18 0.74 0.52zm-0.81 -0.34l0.02 -0.1 0.06 -0.08 -0.08 0.18zm0.29 -0.49l0.82 0.19 -0.08 0.33 -0.21 0.3 -0.74 -0.52 0.21 -0.3zm0.82 0.19l0.03 0.18 -0.11 0.15 0.08 -0.33zm-3.06 -12.85l0.03 -0.24 0.86 0.09 2.17 12.99 -0.89 0.15 -2.17 -12.99zm0 0l-0.02 -0.13 0.05 -0.12 -0.03 0.24zm3.11 -7.86l0.86 0.08 -0.02 0.26 -3.08 7.62 -0.84 -0.34 3.08 -7.62zm0.86 0.08l0.03 0.13 -0.05 0.13 0.02 -0.26zm-1.8 -4.4l0.78 -0.39 0.11 0.21 0.92 4.58 -0.89 0.18 -0.92 -4.58zm0.78 -0.39l0.08 0.09 0.02 0.12 -0.11 -0.21zm-8.46 -8.1l0.34 -0.75 0.34 0.15 7.79 8.7 -0.67 0.6 -7.79 -8.7zm0.34 -0.75l0.2 0 0.13 0.15 -0.34 -0.15zm-16.95 0.9l-0.45 -0.45 0.45 -0.45 16.95 0 0 0.9 -16.95 0zm-0.45 -0.45l0 -0.45 0.45 0 -0.45 0.45zm0.9 13.29l-0.9 0 0 -13.29 0.9 0 0 13.29zm0 6.41l-0.45 0.45 -0.45 -0.45 0 -6.41 0.9 0 0 6.41zm-0.45 0.45l-0.45 0 0 -0.45 0.45 0.45z"/>
  </g>
  <g>
   <path class="fil2" d="M115.76 49.34c-0.88,0.72 -2.04,2.97 -2.34,3.33 -0.88,1.58 -8.29,11.91 -9.15,14.03 -0.81,2.64 0.23,2.56 2.3,4.14l0.2 0.16c1.07,0.64 2.16,1.4 3.28,2.06 2.59,1.53 3.76,2.61 5.14,0.32 1.66,-2.74 6.39,-10.05 8.15,-12.81 3.18,-5.25 4.4,-5.01 -1.43,-8.8 -0.85,-0.55 -1.75,-1.13 -2.67,-1.63 -0.45,-0.25 -0.95,-0.49 -1.4,-0.74 -1.42,-0.78 -1.85,-0.27 -2.08,-0.06z"/>
   <path class="fil3" d="M116.2 51.05c0.93,-0.1 5.35,3.02 6.6,3.74 2.9,1.42 0.2,3.75 -1.18,5.97l0 0c-0.94,1.43 -5.1,7.9 -5.65,8.23 -1.02,0.61 -4.33,-2.11 -4.95,-2.53 -0.65,-0.42 -1.26,-0.83 -1.75,-1.18 -0.44,-0.29 -0.8,-0.54 -1.02,-0.82l-0 -0 -0.01 -0.01c-0.3,-0.38 -0.32,-0.8 0.07,-1.44 0.22,-0.46 0.52,-0.82 0.52,-0.82l0.47 -0.74c0.76,-1.38 2.03,-3.25 2.92,-4.65 0.94,-1.48 2.68,-4.82 3.98,-5.75zm8.33 5.9c0.37,-0.97 -0.35,-1.69 -1.1,-2.16 -1.57,-0.99 -3.16,-1.95 -4.75,-2.92 -3.73,-2.26 -2.47,-1.69 -7.2,5.39 -0.94,1.66 -2.23,3.55 -3.32,5.25 -1.5,2.36 0.08,2.42 2.39,4.12 1.09,0.65 2.32,1.49 3.42,2.19 1.07,0.68 1.93,1.21 2.83,-0 0.24,-0.32 0.44,-0.64 0.64,-0.98 0.4,-0.66 0.83,-1.29 1.2,-1.93l0.16 -0.25c0.34,-0.45 2.19,-3.14 3.28,-4.82 0.32,-0.5 2.19,-3.22 2.45,-3.9z"/>
   <path class="fil3" d="M116.99 69.63c-0.44,0.7 -0.82,1.28 -1.26,1.98 -1.18,1.89 -1.37,3.19 -3.13,2.42 -1.52,-0.67 -4.32,-2.69 -6,-3.61 -0.56,-0.38 -1.18,-0.81 -1.71,-1.22 -1.71,-1.33 2,-5.89 2.77,-6.97l3.65 -5.57c5.85,-8.84 3.72,-8.78 11.25,-4.06 1.69,1.05 3.58,2.07 2.83,3.71 -1.69,3.69 -5.93,9.36 -8.41,13.33zm-1.22 -20.28c-0.88,0.72 -2.03,2.97 -2.34,3.33 -0.88,1.58 -8.29,11.91 -9.15,14.03 -0.81,2.64 0.23,2.56 2.3,4.14l0.2 0.16c1.07,0.64 2.16,1.4 3.28,2.06 2.59,1.53 3.76,2.61 5.14,0.32 1.66,-2.74 6.39,-10.05 8.15,-12.81 3.18,-5.25 4.4,-5.01 -1.43,-8.8 -0.85,-0.55 -1.75,-1.13 -2.67,-1.63 -0.45,-0.25 -0.95,-0.49 -1.4,-0.74 -1.42,-0.78 -1.85,-0.27 -2.08,-0.06z"/>
   <path class="fil3" d="M114.13 71.75c-0.12,-0.27 -5.85,-4.06 -7.23,-4.83 -0.76,-0.42 -0.5,-0.17 -0.64,-0.13 1.42,1.18 7.47,5.03 7.87,4.96z"/>
   <path class="fil3" d="M118.76 51.17c0.38,0.47 1.51,1.17 2.09,1.53l1.74 1.05c0.07,0.05 0.19,0.14 0.28,0.18 0.38,0.17 0.09,0.1 0.39,0.06 0.03,-0.47 0.09,-0.23 -0.92,-0.87 -0.56,-0.35 -2.99,-1.95 -3.34,-1.99 -0.25,-0.03 -0.11,-0.02 -0.23,0.03z"/>
   <g id="_2290810952688">
    <path class="fil3" d="M122.73 56.52l-0.24 0.04c-0.48,0.03 -1.04,0.26 -1.32,0.17 0.26,-0.06 1.55,-0.38 3.03,-0.73 0.01,0.04 0.02,0.08 0.03,0.13 -0.79,0.16 -1.39,0.3 -1.51,0.39z"/>
    <path class="fil3" d="M123.74 57.91c-0.69,0.14 -1.22,0.24 -1.31,0.23l0.4 -0.16c0.31,-0.06 0.64,-0.14 0.98,-0.21l-0.07 0.14z"/>
    <path class="fil3" d="M119.55 52.59c-0.25,0.04 -0.51,0.08 -0.76,0.12 0.03,-0.03 0.32,-0.1 0.66,-0.19l0.1 0.06z"/>
    <path class="fil3" d="M120.6 54.75c-0.15,0.12 -1.05,0.35 -0.98,0.16 0.26,-0.03 0.64,-0.22 0.98,-0.16zm1.63 -0.51l0.22 0.14c-0.92,0.2 -1.8,0.38 -1.85,0.37l0.22 -0.12c0.45,-0.14 0.92,-0.27 1.41,-0.38z"/>
    <path class="fil3" d="M123.4 57.11c0.28,-0.07 0.52,-0.13 0.78,-0.19 -0.02,0.07 -0.05,0.15 -0.09,0.24 -1.28,0.33 -2.51,0.62 -3.03,0.63 0.32,-0.25 1.93,-0.57 2.34,-0.67z"/>
    <path class="fil3" d="M121.37 53.7l-0.44 0.09c-0.48,0.09 -0.96,0.21 -1.38,0.26 0.39,-0.28 1.04,-0.36 1.64,-0.45l0.18 0.11z"/>
    <path class="fil3" d="M123.27 54.91c-0.24,0.05 -0.47,0.1 -0.71,0.15l-1.15 0.25c-0.33,0.07 -0.34,0.12 -0.64,0.11 0.13,-0.09 0.02,-0.05 0.2,-0.11 0.05,-0.02 0.14,-0.03 0.2,-0.04l0.35 -0.08c0.54,-0.12 1.08,-0.24 1.62,-0.37l0.13 0.09z"/>
    <path class="fil3" d="M123.93 55.44c-0.88,0.18 -1.76,0.35 -1.94,0.34 0.18,-0.19 0.09,-0.1 0.34,-0.15l1.51 -0.3 0 0c0.03,0.04 0.06,0.07 0.09,0.11z"/>
   </g>
   <g id="_2290810949904">
    <path class="fil3" d="M111.19 65.1l0.23 -0.08c0.43,-0.21 1.04,-0.28 1.23,-0.49 -0.29,0.08 -1.83,0.5 -3.49,0.98l0.16 0.1c0.95,-0.31 1.71,-0.54 1.88,-0.51z"/>
    <path class="fil3" d="M108.78 61.91c1.14,-0.35 2.36,-0.74 2.54,-0.88l-0.25 0.01c-0.04,0.01 -0.21,0.06 -0.29,0.09 -0.21,0.06 -0.35,0.11 -0.54,0.17 -0.38,0.12 -0.85,0.26 -1.32,0.4l-0.14 0.22z"/>
    <path class="fil3" d="M111.09 66.78c0.63,-0.2 1.09,-0.36 1.16,-0.41l-0.42 0.06c-0.27,0.09 -0.56,0.18 -0.87,0.27l0.13 0.08z"/>
    <path class="fil3" d="M110.87 60.38c-0.47,0.15 -0.96,0.28 -1.42,0.45l-0.12 0.19c1.17,-0.36 2.29,-0.74 3.43,-1.17 -0.1,-0.02 -1.53,0.41 -1.9,0.53z"/>
    <path class="fil3" d="M112.18 62.52c0.19,0.03 1.09,-0.2 0.93,-0.34 -0.24,0.1 -0.66,0.12 -0.93,0.34zm-4.36 1.19c-0.01,0.05 -0.02,0.09 -0.03,0.14 0.21,-0.06 0.41,-0.11 0.62,-0.16 0.66,-0.16 3.69,-1.1 3.77,-1.17l-0.25 0c-1.31,0.26 -2.76,0.78 -4.11,1.19z"/>
    <path class="fil3" d="M110.89 65.95c-0.27,0.07 -0.51,0.14 -0.76,0.21l0.24 0.15c1.25,-0.33 2.44,-0.68 2.89,-0.92 -0.41,-0.06 -1.96,0.44 -2.37,0.56z"/>
    <path class="fil3" d="M110.68 61.94c-0.71,0.19 -1.53,0.44 -2.34,0.69l-0.15 0.25c1.01,-0.31 2,-0.62 3.24,-1.04 0.46,-0.15 0.94,-0.28 1.33,-0.45 -0.6,-0.07 -1.4,0.34 -2.08,0.55z"/>
    <path class="fil3" d="M107.88 64.57c0.91,-0.26 1.82,-0.53 2.74,-0.82l1.13 -0.34c0.32,-0.1 0.35,-0.06 0.61,-0.22 -0.15,-0.02 -0.05,-0.03 -0.23,0 -0.06,0.01 -0.13,0.04 -0.19,0.06l-0.34 0.1c-1.25,0.38 -2.51,0.74 -3.77,1.1 0.02,0.04 0.04,0.08 0.06,0.12z"/>
    <path class="fil3" d="M108.54 65.1c1.03,-0.33 2.72,-0.87 2.94,-1 -0.25,-0.07 -0.13,-0.05 -0.37,0.04l-2.69 0.87 0.13 0.09z"/>
   </g>
   <path class="fil3" d="M110.44 71.32c0.3,-0.49 0.59,-0.44 1.06,-0.21 0.33,0.17 0.69,0.38 1,0.59 0.28,0.18 1.06,0.66 1.02,1.04 -0.01,0.1 -0.05,0.19 -0.12,0.26 -0.38,0.35 -1.35,-0.3 -1.68,-0.51 -0.3,-0.19 -1.5,-0.81 -1.27,-1.17zm0.21 0.13c-0.05,0.18 2.6,1.87 2.63,1.27 0.03,-0.29 -1.51,-1.2 -1.89,-1.39 -0.41,-0.2 -0.69,-0.06 -0.74,0.11z"/>
   <path class="fil3" d="M109.45 69.76c0.68,-0.16 1.1,0.85 0.39,1.22l-0.03 0.02 -0.04 0.01c-0.74,0.14 -1.29,-0.68 -0.39,-1.21l0.03 -0.02 0.04 -0.01zm0.06 0.24c0.4,-0.09 0.68,0.52 0.22,0.76 -0.41,0.08 -0.93,-0.34 -0.22,-0.76z"/>
   <path class="fil3" d="M108.2 69.84c0.31,-0.49 0.14,-0.72 -0.28,-1.04 -0.29,-0.23 -0.64,-0.45 -0.96,-0.64 -0.28,-0.17 -1.06,-0.67 -1.38,-0.47 -0.08,0.05 -0.15,0.13 -0.18,0.22 -0.15,0.49 0.85,1.09 1.19,1.29 0.3,0.19 1.38,1 1.61,0.64zm-0.21 -0.13c-0.14,0.13 -2.81,-1.52 -2.29,-1.81 0.25,-0.15 1.74,0.84 2.07,1.1 0.36,0.28 0.36,0.59 0.22,0.72z"/>
   <path class="fil3" d="M112.84 69.64c0.17,-0.27 0.32,-0.24 0.57,-0.11 0.18,0.09 0.37,0.21 0.54,0.32 0.15,0.1 0.57,0.36 0.55,0.57 -0.01,0.05 -0.03,0.1 -0.07,0.14 -0.2,0.19 -0.73,-0.16 -0.91,-0.28 -0.16,-0.1 -0.82,-0.44 -0.69,-0.64zm0.11 0.07c-0.03,0.1 1.41,1.01 1.43,0.69 0.02,-0.16 -0.82,-0.65 -1.02,-0.75 -0.22,-0.11 -0.37,-0.03 -0.4,0.06z"/>
   <path class="fil3" d="M110.73 68.28c0.17,-0.27 0.32,-0.24 0.57,-0.11 0.18,0.09 0.37,0.21 0.54,0.32 0.15,0.1 0.57,0.36 0.55,0.57 -0.01,0.05 -0.03,0.1 -0.07,0.14 -0.2,0.19 -0.73,-0.16 -0.91,-0.28 -0.16,-0.1 -0.82,-0.44 -0.69,-0.64zm0.11 0.07c-0.03,0.1 1.41,1.01 1.43,0.69 0.02,-0.16 -0.82,-0.65 -1.02,-0.75 -0.23,-0.11 -0.37,-0.03 -0.4,0.06z"/>
   <path class="fil3" d="M108.81 67.02c0.17,-0.27 0.32,-0.24 0.57,-0.11 0.18,0.09 0.37,0.21 0.54,0.32 0.15,0.1 0.57,0.36 0.55,0.57 -0.01,0.05 -0.03,0.1 -0.07,0.14 -0.2,0.19 -0.73,-0.16 -0.91,-0.28 -0.16,-0.1 -0.82,-0.44 -0.69,-0.64zm0.11 0.07c-0.03,0.1 1.41,1.01 1.43,0.69 0.02,-0.16 -0.82,-0.65 -1.02,-0.75 -0.22,-0.11 -0.37,-0.03 -0.4,0.06z"/>
   <path class="fil3" d="M106.81 65.7c0.17,-0.27 0.32,-0.24 0.57,-0.11 0.18,0.09 0.37,0.21 0.54,0.32 0.15,0.1 0.57,0.36 0.55,0.57 -0.01,0.05 -0.03,0.1 -0.07,0.14 -0.2,0.19 -0.73,-0.16 -0.91,-0.28 -0.16,-0.1 -0.81,-0.44 -0.69,-0.64zm0.11 0.07c-0.03,0.1 1.41,1.01 1.43,0.69 0.02,-0.16 -0.82,-0.65 -1.02,-0.75 -0.22,-0.11 -0.37,-0.03 -0.4,0.06z"/>
  </g>
  <path class="fil4 str0" d="M115.97 58.79c-0.39,0.08 -1.35,0.21 -1.81,0.29 -0.14,0.02 -0.29,0.02 -0.44,0.14 -0.16,0.12 -0.24,0.29 -0.26,0.46 -0.04,0.42 0.32,0.61 0.63,0.84 0.7,0.51 1.4,1.02 2.11,1.53 0.26,0.19 0.56,0.46 0.96,0.24 0.15,-0.08 0.28,-0.26 0.31,-0.43 0.05,-0.24 -0.11,-0.68 -0.11,-0.92 -0,-0.08 0.03,-0.15 -0.07,-0.21 -0.08,-0.05 -0.18,-0.04 -0.23,0.06 -0.06,0.11 0.09,0.79 0.1,0.93 0.02,0.21 -0.16,0.33 -0.32,0.33 -0.16,-0 -0.37,-0.2 -0.51,-0.3l-2.11 -1.53c-0.15,-0.11 -0.38,-0.23 -0.42,-0.4 -0.1,-0.41 0.41,-0.41 0.71,-0.45 0.08,-0.01 0.14,-0.02 0.22,-0.03 0.08,-0.01 0.15,-0.04 0.23,-0.05 0.31,-0.04 0.6,-0.09 0.92,-0.14 0.54,-0.08 0.49,-0.06 0.4,-0.58l-0.22 -1.37c-0.05,-0.38 0.16,-0.65 0.57,-0.67 0.18,-0.01 0.35,0.12 0.51,0.24 0.35,0.25 0.7,0.51 1.05,0.76 0.25,0.18 0.84,0.54 0.93,0.79 0.13,0.35 -0.02,0.66 -0.43,0.77 -0.22,0.06 -0.39,0.02 -0.45,0.09 -0.09,0.1 -0.07,0.33 0.26,0.27 0.26,-0.05 0.62,-0.06 0.86,-0.43 0.21,-0.32 0.17,-0.68 0.01,-0.95 -0.15,-0.25 -0.68,-0.58 -0.94,-0.77 -0.26,-0.19 -1.31,-1 -1.57,-1.07 -0.16,-0.04 -0.34,-0.04 -0.46,-0.01 -0.33,0.1 -0.62,0.35 -0.67,0.77 -0.04,0.33 0.28,1.62 0.25,1.83z"/>
  <path class="fil5" d="M107.83 75.62l4.56 -1.21 -1.61 -0.91 -1.39 -0.84 -1.7 -1.09 -1.99 -1.35 -0.58 -0.48 0.44 -0.52c0,0 0.57,-0.78 0.74,-1.81 0.25,-1.55 0.11,-3.63 -0.03,-4.04 -0.25,-0.68 -0.87,-0.86 -1.39,-0.1 -0.27,0.4 -0.16,2.25 -0.56,3.87 -0.37,1.5 -2.39,5.41 -2.39,5.41l5.17 5.4 0.73 -2.34z"/>
  <path class="fil6" d="M116.62 57.09c-0.28,0.56 0.41,1.37 0.14,1.95 0.61,-0.49 1.41,-0.06 1.95,-0.43l-2.09 -1.51z"/>
  <rect class="fil6" transform="matrix(0.00739897 0.0466102 -0.0466102 0.00739897 116.725 59.0765)" width="4.23" height="4.23"/>
  <rect class="fil6" transform="matrix(0.00739897 0.0466102 -0.0466102 0.00739897 116.681 59.4756)" width="4.23" height="4.23"/>
  <rect class="fil6" transform="matrix(0.00739897 0.0466102 -0.0466102 0.00739897 116.281 59.5178)" width="4.23" height="4.23"/>
  <path class="fil6" d="M116.61 61.95c0.48,-0.29 -0.52,-0.91 -0.56,-1.71 -1.24,0.37 -1.65,-0.86 -2.13,-0.24 0.09,0.08 0.2,0.14 0.29,0.21l2.11 1.53c0.08,0.06 0.19,0.15 0.29,0.22z"/>
  <rect class="fil6" transform="matrix(0.00739897 0.0466102 -0.0466102 0.00739897 116.281 59.9174)" width="4.23" height="4.23"/>
  <g>
   <path class="fil7" d="M61.57 29.78l-8.7 0 -2.75 16.49 -0.3 0.21c-4.55,21.43 -10.11,13.33 -12.77,-2.2l-0.21 -0.3 2.17 -12.99 -3.08 -7.62 0.92 -4.58 7.79 -8.7 16.95 0 0 13.29 0 6.41z"/>
   <path id="1" class="fil1" d="M52.87 29.33l8.7 0 0 0.9 -8.7 0 -0.45 -0.53 0.45 -0.38zm-0.45 0.38l0.06 -0.38 0.38 0 -0.45 0.38zm-2.75 16.49l2.75 -16.49 0.89 0.15 -2.75 16.49 -0.19 0.29 -0.71 -0.44zm0.89 0.15l-0.03 0.19 -0.15 0.11 0.19 -0.29zm-1.01 -0.23l0.3 -0.21 0.52 0.74 -0.3 0.21 -0.7 -0.46 0.18 -0.28zm-0.18 0.28l0.04 -0.17 0.14 -0.1 -0.18 0.28zm-12.7 -1.85l0.74 -0.52 0.08 0.18 0.26 1.43 0.27 1.38 0.29 1.33 0.3 1.27 0.32 1.21 0.33 1.14 0.34 1.08 0.35 1 0.36 0.92 0.37 0.84 0.38 0.75 0.38 0.66 0.38 0.56 0.38 0.46 0.38 0.36 0.36 0.25 0.34 0.15 0.32 0.06 0.32 -0.03 0.34 -0.13 0.37 -0.24 0.4 -0.37 0.42 -0.51 0.43 -0.65 0.43 -0.8 0.44 -0.95 0.44 -1.1 0.44 -1.25 0.44 -1.41 0.44 -1.58 0.43 -1.74 0.43 -1.91 0.88 0.19 -0.43 1.93 -0.44 1.77 -0.44 1.6 -0.45 1.44 -0.45 1.29 -0.46 1.14 -0.46 0.99 -0.47 0.85 -0.47 0.72 -0.48 0.59 -0.5 0.46 -0.52 0.33 -0.55 0.2 -0.56 0.05 -0.55 -0.09 -0.52 -0.23 -0.49 -0.34 -0.47 -0.44 -0.44 -0.54 -0.43 -0.63 -0.41 -0.71 -0.4 -0.8 -0.39 -0.88 -0.37 -0.96 -0.36 -1.03 -0.35 -1.1 -0.33 -1.17 -0.32 -1.23 -0.31 -1.29 -0.29 -1.34 -0.28 -1.39 -0.26 -1.44 0.08 0.18zm0.74 -0.52l0.06 0.08 0.02 0.1 -0.08 -0.18zm-0.21 -0.3l0.21 0.3 -0.74 0.52 -0.21 -0.3 -0.08 -0.33 0.81 -0.19zm-0.74 0.52l-0.11 -0.15 0.03 -0.18 0.08 0.33zm2.98 -13.18l-2.17 12.99 -0.89 -0.15 2.17 -12.99 0.86 -0.09 0.03 0.24zm-0.03 -0.24l0.05 0.12 -0.02 0.13 -0.03 -0.24zm-3.08 -7.62l3.08 7.62 -0.84 0.34 -3.08 -7.62 -0.02 -0.26 0.86 -0.08zm-0.84 0.34l-0.05 -0.13 0.03 -0.13 0.02 0.26zm1.78 -4.66l-0.92 4.58 -0.89 -0.18 0.92 -4.58 0.11 -0.21 0.78 0.39zm-0.89 -0.18l0.02 -0.12 0.08 -0.09 -0.11 0.21zm8.57 -8.31l-7.79 8.7 -0.67 -0.6 7.79 -8.7 0.34 -0.15 0.34 0.75zm-0.67 -0.6l0.13 -0.15 0.2 0 -0.34 0.15zm17.29 0.75l-16.95 0 0 -0.9 16.95 0 0.45 0.45 -0.45 0.45zm0 -0.9l0.45 0 0 0.45 -0.45 -0.45zm-0.45 13.74l0 -13.29 0.9 0 0 13.29 0 0 -0.9 0zm0 6.41l0 -6.41 0.9 0 0 6.41 -0.45 0.45 -0.45 -0.45zm0.9 0l0 0.45 -0.45 0 0.45 -0.45z"/>
  </g>
  <path class="fil1" d="M50.27 0l-5.97 0c-5.37,0 -9.7,4.39 -9.62,9.76l0.31 21.39 5.04 -0.17 0 -6.25c-1.79,0 -3.23,-1.46 -3.21,-3.25 0.02,-1.7 1.46,-3.14 3.16,-3.16 1.79,-0.02 3.25,1.42 3.25,3.21l0 2.06 0 4.81c0,4.55 3.69,8.25 8.25,8.25l5.96 0c2.53,0 4.58,-2.05 4.58,-4.58l0 -10.08 -13.74 0c-2.02,0 -3.66,-1.64 -3.66,-3.66l0 -8.25 0.66 0.44c2.26,1.51 4.91,2.31 7.62,2.31l8.67 0 0 4.12 0.92 0c2.53,0 4.58,-2.05 4.58,-4.58l0 -1.37 0 -1.37c0,-2.53 -2.05,-4.58 -4.58,-4.58l-1.37 0 0 -0.46c0,-2.53 -2.05,-4.58 -4.58,-4.58l-6.26 0z"/>
  <g>
   <path class="fil5" d="M27.53 107.86l-4.02 110.73 16.08 0 5.97 -87.25 6.09 86.13 15.58 0 -5.53 -110.31 -34.17 0.7z"/>
   <path id="1" class="fil1" d="M23.06 218.57l4.02 -110.73 0.9 0.04 -4.02 110.73 -0.45 0.48 -0.45 -0.52zm0.45 0.52l-0.47 0 0.02 -0.52 0.45 0.52zm16.08 0l-16.08 0 0 -1.01 16.08 0 0.45 0.54 -0.45 0.47zm0.45 -0.47l-0.03 0.47 -0.42 0 0.45 -0.47zm5.97 -87.25l-5.97 87.25 -0.9 -0.08 5.97 -87.25 0.9 -0 0 0.08zm5.19 86.13l-6.09 -86.13 0.9 -0.08 6.09 86.13 -0.45 0.54 -0.45 -0.46zm0.45 0.46l-0.42 0 -0.03 -0.46 0.45 0.46zm15.58 0l-15.58 0 0 -1.01 15.58 0 0.45 0.48 -0.45 0.53zm0.45 -0.53l0.03 0.53 -0.48 0 0.45 -0.53zm-5.53 -110.31l5.53 110.31 -0.9 0.06 -5.53 -110.31 0.44 -0.53 0.46 0.48zm-0.46 -0.48l0.44 -0.01 0.02 0.49 -0.46 -0.48zm-34.17 0.7l34.17 -0.7 0.02 1.01 -34.17 0.7 -0.46 -0.52 0.44 -0.48zm-0.44 0.48l0.02 -0.48 0.43 -0.01 -0.44 0.48z"/>
  </g>
  <path class="fil2 str1" d="M28.03 103.01l33.67 0 0 4.15 -34.18 0.79 0.51 -4.93z"/>
  <rect class="fil8" x="44.67" y="103" width="6.83" height="4.23"/>
  <path class="fil8" d="M73.41 219.42l-21.98 0 0 -0c0,-4.92 4.03,-8.95 8.95,-8.95l4.08 0c4.92,0 8.95,4.03 8.95,8.95l0 0z"/>
  <path class="fil8" d="M45.46 220.43l-21.98 0 0 -0c0,-4.92 4.03,-8.95 8.95,-8.95l4.08 0c4.92,0 8.95,4.03 8.95,8.95l0 0z"/>
  <path class="fil1" d="M189.28 27.33l5.97 0c5.37,0 9.7,4.39 9.62,9.76l-0.31 21.39 -5.04 -0.17 0 -6.25c1.79,0 3.23,-1.46 3.21,-3.25 -0.02,-1.7 -1.46,-3.14 -3.16,-3.16 -1.79,-0.02 -3.25,1.42 -3.25,3.21l0 2.06 0 4.81c0,4.55 -3.69,8.25 -8.25,8.25l-5.96 0c-2.53,0 -4.58,-2.05 -4.58,-4.58l0 -10.08 1.02 0 0 10.07c0,0 -0.06,2.76 2.45,3.45 2.51,0.69 8.86,0 8.86,0 0,0 2.9,-0.75 4.03,-2.82 1.13,-2.07 0.96,-13.58 0.96,-13.58l0 0c0.06,-0.25 0.08,-0.52 0.08,-0.79l0 -8.25 -0.66 0.44c-2.26,1.51 -4.91,2.31 -7.62,2.31l-8.67 0 0 4.12 -0.92 0c-2.53,0 -4.58,-2.05 -4.58,-4.58l0 -1.37 0 -1.37c0,-2.53 2.05,-4.58 4.58,-4.58l1.37 0 0 -0.46c0,-2.53 2.05,-4.58 4.58,-4.58l6.26 0z"/>
  <path class="fil0" d="M178.51 49.37l0 0.71 0 9.36c0,0 -0.06,2.76 2.45,3.46 2.51,0.69 8.86,0 8.86,0 0,0 2.62,-0.58 3.97,-2.7 1.35,-2.12 1.03,-13.7 1.03,-13.7l0 0c0.06,-0.25 0.08,-0.52 0.08,-0.79l0 -8.25 -0.66 0.44c-2.26,1.51 -4.91,2.31 -7.62,2.31l-8.11 0 0 9.16z"/>
  <g>
   <path class="fil1" d="M30.44 121.36l9.99 -8.17 0.79 0.63 -9.99 8.17 -0.79 -0.63z"/>
  </g>
  <path class="fil7 str2" d="M17.2 81.15l9.79 14.21 4.53 7.81 3.14 5.42 3.72 6.92 -5.75 4.55 -31.47 -36.88c-4.63,-5.08 14.41,-28.3 17.83,-35.63 2.57,-3.67 13.89,-6.73 18.37,-6.73l4.4 4.59 6.5 -0.43 2.84 -4.58c4.12,0 15.86,3.49 17.89,7.07l16.26 32.81 3.44 3.34 11.94 -11.87 7.79 8.1 -14.82 14.13c0,0 -3.83,2.32 -9.17,0.69 -2.05,-0.63 -4.78,-2.49 -7.37,-4.55l0 0 -0 -0c-4.14,-3.29 -7.91,-7.08 -7.91,-7.08l-5.74 -7.93 -0.46 13.29 -1.3 15.48 -30.12 -0.72 -1.29 -2.22 -4.32 -7.93 -0.97 -11.76 -0.02 -0.17 -1.82 -9.59 -5.9 9.65z"/>
  <g>
   <path class="fil1" d="M60.82 121.36l-0.79 0.63 -9.99 -8.17 0.79 -0.63 9.99 8.17z"/>
  </g>
  <g>
   <path class="fil1" d="M39.08 56.22l-5.92 -14.87 1.06 -0.28 5.92 14.87 -0.05 0.37 -1.01 -0.09zm1.01 0.09l-0.63 0.85 -0.38 -0.95 1.01 0.09zm3.02 -4.08l-3.02 4.08 -0.95 -0.46 3.02 -4.08 0.97 0.43 -0.02 0.03zm0.02 -0.03l-0.01 0.02 -0.01 0.01 0.02 -0.03zm2.04 -3.32l-2.04 3.32 -1 -0.4 2.04 -3.32 1.02 0.04 -0.02 0.36zm-1 -0.4l0.57 -0.92 0.45 0.96 -1.02 -0.04zm1.45 3.52l-1.48 -3.16 1.04 -0.32 1.48 3.16 -0.98 0.41 -0.06 -0.09zm0.06 0.09l-0.04 -0.04 -0.02 -0.05 0.06 0.09zm3.58 4.3l-3.58 -4.3 0.92 -0.5 3.58 4.3 0.07 0.39 -0.99 0.11zm0.99 -0.11l-0.35 0.88 -0.64 -0.77 0.99 -0.11zm5.92 -14.87l-5.92 14.87 -1.06 -0.28 5.92 -14.87 1.06 0.28z"/>
  </g>
  <path class="fil9" d="M47.9 55.83c-1.55,-5.58 -2.89,-3.72 -0.93,-6.77 1.15,-1.79 1.41,-2.44 1.54,-3.64l-6.79 0.46c0.03,1.35 -0.29,1.77 0.94,3.66 1.13,1.44 1.46,1.04 0.68,2.96l-1.08 3.47 -1.27 31.39 4.31 6.82 3.5 -6.78 -0.9 -31.58z"/>
  <path class="fil2" d="M123.26 75.19c0.88,0.72 2.03,2.97 2.34,3.33 0.88,1.58 8.29,11.91 9.15,14.03 0.81,2.64 -0.23,2.56 -2.3,4.14l-0.2 0.16c-1.07,0.64 -2.16,1.4 -3.28,2.06 -2.59,1.53 -3.76,2.61 -5.14,0.32 -1.66,-2.74 -6.39,-10.05 -8.15,-12.81 -3.18,-5.25 -4.4,-5.01 1.44,-8.8 0.85,-0.55 1.75,-1.13 2.67,-1.63 0.45,-0.25 0.95,-0.49 1.4,-0.74 1.42,-0.78 1.85,-0.27 2.08,-0.06z"/>
  <path class="fil3" d="M122.82 76.9c-0.93,-0.1 -5.35,3.02 -6.6,3.74 -2.9,1.42 -0.2,3.75 1.18,5.97l0 0c0.94,1.43 5.1,7.9 5.65,8.23 1.02,0.61 4.32,-2.11 4.95,-2.53 0.65,-0.42 1.26,-0.83 1.75,-1.18 0.44,-0.29 0.8,-0.54 1.02,-0.82l0 -0 0.01 -0.01c0.3,-0.38 0.32,-0.8 -0.07,-1.44 -0.22,-0.46 -0.52,-0.82 -0.52,-0.82l-0.48 -0.74c-0.76,-1.38 -2.03,-3.25 -2.92,-4.65 -0.94,-1.48 -2.68,-4.82 -3.98,-5.75zm-8.33 5.9c-0.37,-0.97 0.35,-1.69 1.1,-2.16 1.57,-0.99 3.16,-1.95 4.75,-2.92 3.74,-2.26 2.47,-1.69 7.2,5.39 0.94,1.66 2.23,3.55 3.32,5.25 1.5,2.36 -0.08,2.42 -2.39,4.12 -1.09,0.65 -2.32,1.49 -3.42,2.19 -1.07,0.68 -1.93,1.21 -2.83,-0 -0.24,-0.32 -0.44,-0.64 -0.64,-0.98 -0.4,-0.66 -0.83,-1.3 -1.2,-1.93l-0.16 -0.25c-0.34,-0.45 -2.19,-3.14 -3.28,-4.82 -0.32,-0.5 -2.19,-3.22 -2.45,-3.9z"/>
  <path class="fil3" d="M122.03 95.48c0.44,0.7 0.82,1.28 1.26,1.98 1.18,1.89 1.37,3.19 3.13,2.42 1.52,-0.67 4.32,-2.69 6,-3.61 0.56,-0.38 1.18,-0.81 1.71,-1.22 1.71,-1.33 -2,-5.89 -2.77,-6.97l-3.65 -5.57c-5.85,-8.84 -3.72,-8.78 -11.25,-4.06 -1.69,1.05 -3.58,2.07 -2.83,3.71 1.69,3.69 5.93,9.36 8.41,13.33zm1.22 -20.29c0.88,0.72 2.03,2.97 2.34,3.33 0.88,1.58 8.29,11.91 9.15,14.03 0.81,2.64 -0.23,2.56 -2.3,4.14l-0.2 0.16c-1.07,0.64 -2.16,1.4 -3.28,2.06 -2.59,1.53 -3.76,2.61 -5.14,0.32 -1.66,-2.74 -6.39,-10.05 -8.15,-12.81 -3.18,-5.25 -4.4,-5.01 1.44,-8.8 0.85,-0.55 1.75,-1.13 2.67,-1.63 0.45,-0.25 0.95,-0.49 1.4,-0.74 1.42,-0.78 1.85,-0.27 2.08,-0.06z"/>
  <path class="fil3" d="M124.89 97.6c0.12,-0.27 5.85,-4.06 7.23,-4.83 0.76,-0.42 0.5,-0.17 0.64,-0.13 -1.42,1.18 -7.47,5.03 -7.87,4.96z"/>
  <path class="fil3" d="M120.26 77.01c-0.38,0.47 -1.51,1.17 -2.09,1.53l-1.74 1.05c-0.07,0.05 -0.19,0.14 -0.28,0.18 -0.38,0.17 -0.09,0.1 -0.39,0.06 -0.03,-0.47 -0.09,-0.23 0.93,-0.87 0.56,-0.35 2.99,-1.95 3.34,-1.99 0.25,-0.03 0.11,-0.02 0.23,0.03z"/>
  <path class="fil3" d="M116.29 82.36l0.24 0.04c0.48,0.03 1.04,0.26 1.32,0.17 -0.26,-0.06 -1.55,-0.38 -3.03,-0.73 -0.01,0.04 -0.02,0.08 -0.03,0.13 0.79,0.16 1.39,0.3 1.51,0.39z"/>
  <path class="fil3" d="M115.28 83.76c0.69,0.14 1.22,0.24 1.31,0.23l-0.4 -0.16c-0.31,-0.06 -0.64,-0.14 -0.98,-0.21l0.07 0.14z"/>
  <path class="fil3" d="M119.47 78.43c0.25,0.04 0.51,0.08 0.76,0.12 -0.03,-0.03 -0.32,-0.1 -0.66,-0.19l-0.1 0.06z"/>
  <path class="fil3" d="M118.42 80.59c0.15,0.12 1.05,0.35 0.98,0.16 -0.26,-0.03 -0.64,-0.22 -0.98,-0.16zm-1.63 -0.51l-0.22 0.14c0.92,0.2 1.8,0.38 1.85,0.37l-0.22 -0.12c-0.45,-0.14 -0.92,-0.27 -1.41,-0.38z"/>
  <path class="fil3" d="M115.61 82.96c-0.27,-0.07 -0.52,-0.13 -0.78,-0.19 0.02,0.07 0.05,0.15 0.09,0.24 1.28,0.33 2.51,0.62 3.03,0.63 -0.32,-0.25 -1.93,-0.57 -2.34,-0.67z"/>
  <path class="fil3" d="M117.65 79.55l0.44 0.09c0.48,0.09 0.96,0.21 1.38,0.26 -0.39,-0.28 -1.04,-0.36 -1.64,-0.45l-0.18 0.11z"/>
  <path class="fil3" d="M115.75 80.76c0.24,0.05 0.47,0.1 0.71,0.15l1.15 0.25c0.33,0.07 0.34,0.12 0.64,0.11 -0.13,-0.09 -0.02,-0.05 -0.2,-0.11 -0.05,-0.02 -0.14,-0.03 -0.2,-0.04l-0.35 -0.08c-0.54,-0.12 -1.08,-0.24 -1.62,-0.37l-0.13 0.09z"/>
  <path class="fil3" d="M115.09 81.29c0.88,0.18 1.76,0.35 1.94,0.34 -0.18,-0.19 -0.09,-0.1 -0.34,-0.15l-1.51 -0.3 0 0c-0.03,0.04 -0.06,0.07 -0.09,0.11z"/>
  <path class="fil3" d="M127.83 90.95l-0.23 -0.08c-0.43,-0.21 -1.04,-0.28 -1.23,-0.49 0.29,0.08 1.83,0.5 3.49,0.98l-0.15 0.1c-0.95,-0.31 -1.71,-0.54 -1.88,-0.51z"/>
  <path class="fil3" d="M130.24 87.76c-1.14,-0.35 -2.36,-0.74 -2.54,-0.88l0.25 0.01c0.04,0.01 0.21,0.06 0.29,0.09 0.21,0.06 0.35,0.11 0.54,0.17 0.38,0.12 0.85,0.26 1.32,0.4l0.14 0.22z"/>
  <path class="fil3" d="M127.93 92.63c-0.63,-0.2 -1.09,-0.36 -1.16,-0.41l0.42 0.06c0.27,0.09 0.56,0.18 0.87,0.27l-0.13 0.08z"/>
  <path class="fil3" d="M128.15 86.23c0.47,0.15 0.96,0.28 1.42,0.45l0.12 0.19c-1.17,-0.36 -2.29,-0.74 -3.43,-1.17 0.1,-0.02 1.53,0.41 1.9,0.53z"/>
  <path class="fil3" d="M126.84 88.36c-0.19,0.03 -1.09,-0.2 -0.93,-0.34 0.24,0.1 0.66,0.12 0.93,0.34zm4.36 1.19c0.01,0.05 0.02,0.09 0.03,0.14 -0.21,-0.06 -0.41,-0.11 -0.62,-0.16 -0.66,-0.16 -3.69,-1.1 -3.77,-1.16l0.25 0c1.31,0.26 2.76,0.78 4.11,1.19z"/>
  <path class="fil3" d="M128.13 91.8c0.27,0.07 0.51,0.14 0.76,0.21l-0.24 0.15c-1.25,-0.33 -2.44,-0.68 -2.89,-0.92 0.41,-0.06 1.96,0.44 2.37,0.56z"/>
  <path class="fil3" d="M128.34 87.78c0.71,0.19 1.53,0.44 2.34,0.69l0.15 0.25c-1.01,-0.31 -2,-0.62 -3.24,-1.04 -0.46,-0.15 -0.94,-0.28 -1.33,-0.45 0.6,-0.07 1.4,0.34 2.08,0.55z"/>
  <path class="fil3" d="M131.14 90.42c-0.91,-0.26 -1.82,-0.53 -2.74,-0.82l-1.13 -0.34c-0.32,-0.1 -0.35,-0.06 -0.61,-0.22 0.15,-0.02 0.05,-0.03 0.23,0 0.06,0.01 0.13,0.04 0.19,0.06l0.34 0.1c1.25,0.38 2.51,0.74 3.77,1.1 -0.02,0.04 -0.04,0.08 -0.06,0.12z"/>
  <path class="fil3" d="M130.48 90.94c-1.04,-0.33 -2.72,-0.86 -2.94,-1 0.25,-0.07 0.12,-0.05 0.37,0.04l2.69 0.87 -0.13 0.09z"/>
  <path class="fil3" d="M128.58 97.16c-0.3,-0.49 -0.59,-0.44 -1.06,-0.21 -0.33,0.17 -0.69,0.38 -1,0.59 -0.28,0.18 -1.06,0.66 -1.02,1.04 0.01,0.1 0.05,0.19 0.12,0.26 0.38,0.35 1.35,-0.3 1.68,-0.51 0.3,-0.19 1.5,-0.81 1.27,-1.17zm-0.21 0.13c0.05,0.18 -2.6,1.87 -2.63,1.27 -0.03,-0.29 1.51,-1.2 1.88,-1.38 0.41,-0.2 0.69,-0.06 0.74,0.11z"/>
  <path class="fil3" d="M129.57 95.6c-0.68,-0.16 -1.1,0.84 -0.39,1.22l0.03 0.02 0.04 0.01c0.74,0.14 1.29,-0.68 0.39,-1.21l-0.03 -0.02 -0.04 -0.01zm-0.06 0.24c-0.4,-0.09 -0.68,0.52 -0.22,0.76 0.41,0.08 0.93,-0.34 0.22,-0.76z"/>
  <path class="fil3" d="M130.82 95.68c-0.31,-0.49 -0.14,-0.72 0.28,-1.04 0.29,-0.23 0.64,-0.45 0.96,-0.64 0.28,-0.17 1.06,-0.67 1.38,-0.47 0.08,0.05 0.15,0.13 0.18,0.22 0.15,0.49 -0.85,1.09 -1.19,1.29 -0.3,0.18 -1.38,1 -1.61,0.64zm0.21 -0.13c0.14,0.13 2.81,-1.52 2.29,-1.81 -0.25,-0.15 -1.74,0.84 -2.07,1.1 -0.36,0.28 -0.36,0.59 -0.22,0.72z"/>
  <path class="fil3" d="M126.18 95.48c-0.17,-0.27 -0.32,-0.24 -0.57,-0.11 -0.18,0.09 -0.37,0.21 -0.54,0.32 -0.15,0.1 -0.57,0.36 -0.55,0.57 0,0.05 0.03,0.1 0.07,0.14 0.2,0.19 0.73,-0.16 0.91,-0.28 0.16,-0.1 0.81,-0.44 0.69,-0.64zm-0.11 0.07c0.03,0.1 -1.41,1.01 -1.43,0.69 -0.02,-0.16 0.82,-0.65 1.02,-0.75 0.22,-0.11 0.37,-0.03 0.4,0.06z"/>
  <path class="fil3" d="M128.29 94.13c-0.17,-0.27 -0.32,-0.24 -0.57,-0.11 -0.18,0.09 -0.37,0.21 -0.54,0.32 -0.15,0.1 -0.57,0.36 -0.55,0.57 0,0.05 0.03,0.1 0.07,0.14 0.2,0.19 0.73,-0.16 0.91,-0.28 0.16,-0.1 0.82,-0.44 0.69,-0.64zm-0.11 0.07c0.03,0.1 -1.41,1.01 -1.43,0.69 -0.02,-0.16 0.82,-0.65 1.02,-0.75 0.22,-0.11 0.37,-0.03 0.4,0.06z"/>
  <path class="fil3" d="M130.21 92.86c-0.17,-0.27 -0.32,-0.24 -0.57,-0.11 -0.18,0.09 -0.37,0.21 -0.54,0.32 -0.15,0.1 -0.58,0.36 -0.55,0.57 0,0.05 0.03,0.1 0.07,0.14 0.2,0.19 0.73,-0.16 0.91,-0.28 0.16,-0.1 0.82,-0.44 0.69,-0.64zm-0.11 0.07c0.03,0.1 -1.41,1.01 -1.43,0.69 -0.02,-0.16 0.82,-0.65 1.02,-0.75 0.22,-0.11 0.37,-0.03 0.4,0.06z"/>
  <path class="fil3" d="M132.21 91.55c-0.17,-0.27 -0.32,-0.24 -0.57,-0.11 -0.18,0.09 -0.37,0.21 -0.54,0.32 -0.15,0.1 -0.57,0.36 -0.55,0.57 0.01,0.05 0.03,0.1 0.07,0.14 0.2,0.19 0.73,-0.16 0.91,-0.28 0.16,-0.1 0.82,-0.44 0.69,-0.64zm-0.11 0.07c0.03,0.1 -1.41,1.01 -1.43,0.69 -0.02,-0.16 0.82,-0.65 1.02,-0.75 0.22,-0.11 0.37,-0.04 0.4,0.06z"/>
  <path class="fil4 str3" d="M123.05 84.63c0.39,0.08 1.35,0.21 1.81,0.29 0.14,0.02 0.29,0.02 0.44,0.14 0.16,0.12 0.24,0.29 0.26,0.46 0.04,0.42 -0.32,0.61 -0.63,0.84 -0.7,0.51 -1.4,1.02 -2.11,1.53 -0.26,0.19 -0.56,0.46 -0.96,0.24 -0.15,-0.08 -0.28,-0.26 -0.31,-0.43 -0.05,-0.24 0.1,-0.68 0.11,-0.92 0,-0.08 -0.03,-0.15 0.07,-0.21 0.08,-0.05 0.18,-0.04 0.23,0.06 0.06,0.11 -0.09,0.79 -0.1,0.93 -0.02,0.21 0.16,0.33 0.32,0.33 0.16,-0 0.37,-0.2 0.51,-0.3l2.11 -1.53c0.15,-0.11 0.38,-0.23 0.42,-0.4 0.1,-0.41 -0.41,-0.41 -0.71,-0.45 -0.08,-0.01 -0.14,-0.02 -0.22,-0.03 -0.08,-0.01 -0.15,-0.04 -0.23,-0.05 -0.31,-0.04 -0.6,-0.09 -0.92,-0.14 -0.54,-0.08 -0.49,-0.06 -0.4,-0.58l0.22 -1.37c0.05,-0.38 -0.16,-0.65 -0.57,-0.67 -0.18,-0.01 -0.35,0.12 -0.51,0.24 -0.35,0.25 -0.7,0.51 -1.05,0.76 -0.25,0.18 -0.84,0.54 -0.93,0.79 -0.13,0.35 0.02,0.66 0.43,0.77 0.22,0.06 0.39,0.02 0.45,0.09 0.09,0.1 0.07,0.33 -0.26,0.27 -0.26,-0.05 -0.62,-0.06 -0.86,-0.44 -0.21,-0.32 -0.17,-0.68 -0.01,-0.95 0.15,-0.25 0.68,-0.58 0.95,-0.77 0.26,-0.19 1.31,-1 1.57,-1.07 0.16,-0.04 0.34,-0.04 0.46,-0.01 0.33,0.1 0.62,0.35 0.67,0.77 0.04,0.33 -0.28,1.62 -0.25,1.83z"/>
  <path class="fil6" d="M122.4 82.94c0.28,0.56 -0.41,1.37 -0.14,1.95 -0.61,-0.49 -1.41,-0.06 -1.95,-0.43l2.09 -1.51z"/>
  <rect class="fil6" transform="matrix(-0.00739897 0.0466102 0.0466102 0.00739897 122.295 84.923)" width="4.23" height="4.23"/>
  <rect class="fil6" transform="matrix(-0.00739897 0.0466102 0.0466102 0.00739897 122.339 85.3221)" width="4.23" height="4.23"/>
  <rect class="fil6" transform="matrix(-0.00739897 0.0466102 0.0466102 0.00739897 122.739 85.3643)" width="4.23" height="4.23"/>
  <path class="fil6" d="M122.41 87.79c-0.48,-0.29 0.52,-0.91 0.56,-1.71 1.24,0.37 1.65,-0.86 2.13,-0.24 -0.09,0.08 -0.2,0.14 -0.29,0.21l-2.11 1.53c-0.08,0.06 -0.19,0.15 -0.29,0.22z"/>
  <rect class="fil6" transform="matrix(-0.00739897 0.0466102 0.0466102 0.00739897 122.739 85.7639)" width="4.23" height="4.23"/>
  <path class="fil5" d="M131.88 101.75c-0.71,-0.19 -1.43,-0.35 -2.13,-0.57 -0.95,-0.3 -1.8,-0.54 -2.67,-1.15l2.28 -1.36 3.24 -2.1 1.21 -0.84c0,0 -0.54,-0.88 -0.7,-1.91 -0.25,-1.56 -0.11,-3.63 0.03,-4.04 0.25,-0.68 0.87,-0.86 1.39,-0.1 0.27,0.4 0.16,2.25 0.56,3.87 0.37,1.5 1.27,2.79 1.27,2.79l0.8 2.89 -4.57 4.74 -0.71 -2.23z"/>
  <g>
   <path class="fil1" d="M133.15 92.61l0 0 0.02 0.16 0.03 0.16 0.03 0.16 0.03 0.16 0.04 0.16 0.04 0.16 0.04 0.16 0.04 0.16 0.04 0.16 0.04 0.15 0.05 0.15 0.05 0.15 0.05 0.14 0.05 0.14 0.05 0.13 0.05 0.13 0.05 0.12 0.04 0.12 0.04 0.11 0.04 0.11 0.04 0.1 0.04 0.09 0.04 0.09 0.03 0.08 0.03 0.07 0.03 0.06 0.02 0.05 0.02 0.04 0.02 0.04 0.01 0.02 0.01 0.01 0 0.01 -0.54 0.19 -0 -0 -0.01 -0.02 -0.01 -0.03 -0.02 -0.04 -0.02 -0.05 -0.02 -0.06 -0.03 -0.07 -0.03 -0.07 -0.03 -0.08 -0.04 -0.09 -0.04 -0.1 -0.04 -0.1 -0.04 -0.11 -0.04 -0.12 -0.05 -0.12 -0.05 -0.13 -0.05 -0.14 -0.05 -0.14 -0.05 -0.14 -0.05 -0.15 -0.05 -0.15 -0.05 -0.16 -0.05 -0.16 -0.05 -0.16 -0.04 -0.16 -0.04 -0.17 -0.04 -0.17 -0.04 -0.17 -0.04 -0.17 -0.03 -0.17 -0.03 -0.17 -0.03 -0.17 0 0 0.59 -0.02zm0.3 -2.87l0 0 0.01 -0.01 -0 0 -0.01 0.01 -0.02 0.02 -0.02 0.03 -0.02 0.04 -0.02 0.05 -0.02 0.06 -0.02 0.06 -0.02 0.07 -0.02 0.08 -0.02 0.08 -0.02 0.09 -0.02 0.09 -0.02 0.1 -0.02 0.1 -0.02 0.1 -0.01 0.11 -0.01 0.11 -0.01 0.12 -0.01 0.12 -0.01 0.12 -0.01 0.13 -0 0.13 -0 0.13 0 0.13 0 0.13 0.01 0.13 0.01 0.14 0.01 0.14 0.01 0.14 0.02 0.14 -0.59 0.02 -0.02 -0.15 -0.02 -0.15 -0.01 -0.15 -0.01 -0.15 -0.01 -0.15 -0 -0.14 -0 -0.14 0 -0.14 0 -0.14 0.01 -0.13 0.01 -0.13 0.01 -0.13 0.01 -0.13 0.01 -0.12 0.02 -0.12 0.02 -0.12 0.02 -0.11 0.02 -0.11 0.02 -0.1 0.02 -0.1 0.03 -0.09 0.03 -0.09 0.03 -0.09 0.03 -0.08 0.03 -0.07 0.03 -0.07 0.04 -0.07 0.04 -0.06 0.04 -0.06 0.05 -0.05 0.06 -0.05 0.07 -0.04 0 0 0.3 0.55zm0.79 -0.06l0.1 0.22 0 0 -0 -0 -0 -0 -0 -0 -0.01 -0.01 -0.01 -0.01 -0.02 -0.01 -0.02 -0.01 -0.02 -0.01 -0.02 -0.01 -0.02 -0.01 -0.03 -0.02 -0.02 -0.01 -0.03 -0.01 -0.03 -0.01 -0.03 -0.01 -0.03 -0.01 -0.03 -0.01 -0.03 -0.01 -0.03 -0.01 -0.04 -0.01 -0.04 -0.01 -0.04 -0 -0.04 -0 -0.04 -0 -0.04 0 -0.04 0 -0.04 0.01 -0.04 0.01 -0.05 0.01 -0.05 0.02 -0.05 0.02 -0.3 -0.55 0.08 -0.03 0.08 -0.03 0.08 -0.02 0.08 -0.02 0.08 -0.01 0.07 -0.01 0.08 -0 0.07 0 0.07 0 0.07 0.01 0.07 0.01 0.06 0.01 0.06 0.02 0.06 0.02 0.06 0.02 0.05 0.02 0.05 0.02 0.05 0.02 0.05 0.02 0.05 0.03 0.04 0.02 0.04 0.02 0.04 0.02 0.03 0.02 0.03 0.02 0.02 0.02 0.02 0.02 0.02 0.02 0.02 0.02 0.01 0.01 0 0 0.01 0.01 0.1 0.22 -0.59 -0.03zm1.88 6.81l-0.02 -0.04 -0.14 -0.29 -0.13 -0.27 -0.12 -0.26 -0.11 -0.24 -0.11 -0.23 -0.1 -0.21 -0.09 -0.2 -0.09 -0.19 -0.08 -0.19 -0.08 -0.18 -0.07 -0.17 -0.07 -0.17 -0.06 -0.17 -0.06 -0.16 -0.05 -0.16 -0.05 -0.16 -0.04 -0.16 -0.04 -0.17 -0.04 -0.17 -0.03 -0.17 -0.03 -0.18 -0.03 -0.19 -0.03 -0.19 -0.02 -0.2 -0.02 -0.21 -0.02 -0.22 -0.02 -0.24 -0.02 -0.25 -0.02 -0.27 -0.02 -0.28 -0.02 -0.3 -0.02 -0.32 0.59 0.03 0.02 0.32 0.02 0.3 0.02 0.28 0.02 0.26 0.02 0.25 0.02 0.23 0.02 0.22 0.02 0.21 0.02 0.19 0.03 0.18 0.03 0.17 0.03 0.17 0.03 0.16 0.03 0.15 0.04 0.15 0.04 0.15 0.04 0.15 0.05 0.15 0.05 0.15 0.06 0.15 0.06 0.16 0.07 0.16 0.07 0.17 0.08 0.18 0.09 0.19 0.09 0.2 0.1 0.21 0.11 0.22 0.11 0.24 0.12 0.25 0.13 0.27 0.14 0.29 -0.02 -0.04 -0.49 0.28zm0 0l-0.01 -0.02 -0.01 -0.02 0.02 0.04zm1.3 2.67l-0.05 0.3 -0.04 -0.11 -0.04 -0.11 -0.04 -0.11 -0.04 -0.11 -0.04 -0.11 -0.04 -0.11 -0.04 -0.1 -0.04 -0.1 -0.04 -0.1 -0.04 -0.1 -0.04 -0.1 -0.04 -0.1 -0.04 -0.1 -0.04 -0.1 -0.04 -0.1 -0.04 -0.09 -0.04 -0.09 -0.04 -0.09 -0.04 -0.09 -0.04 -0.09 -0.04 -0.09 -0.04 -0.09 -0.04 -0.08 -0.04 -0.08 -0.04 -0.08 -0.04 -0.08 -0.04 -0.08 -0.04 -0.08 -0.04 -0.08 -0.04 -0.08 -0.04 -0.07 -0.05 -0.07 0.49 -0.28 0.05 0.08 0.05 0.09 0.05 0.09 0.05 0.09 0.05 0.09 0.04 0.09 0.04 0.09 0.04 0.09 0.04 0.09 0.04 0.09 0.04 0.09 0.04 0.09 0.04 0.09 0.04 0.09 0.04 0.1 0.04 0.1 0.04 0.1 0.04 0.1 0.04 0.1 0.04 0.1 0.04 0.1 0.04 0.1 0.04 0.1 0.04 0.1 0.04 0.1 0.04 0.1 0.04 0.1 0.04 0.1 0.04 0.11 0.04 0.11 0.04 0.11 0.04 0.11 -0.05 0.3 -0.45 -0.43zm0.5 0.13l0.07 0.18 -0.12 0.13 0.05 -0.3zm-5.25 5.71l-0.51 -0.16 0.06 -0.27 5.2 -5.41 0.45 0.43 -5.2 5.41zm0 0l-0.35 0.36 -0.16 -0.52 0.51 0.16zm-1.37 -2.91l0.36 -0.33 0.21 0.22 0.86 2.75 -0.57 0.11 -0.86 -2.75zm0.36 -0.33l0.16 0.06 0.05 0.16 -0.21 -0.22zm-5.02 -1.91l0.21 0.14 0.2 0.13 0.19 0.12 0.19 0.11 0.18 0.1 0.18 0.09 0.17 0.09 0.17 0.08 0.17 0.07 0.16 0.07 0.16 0.06 0.16 0.06 0.15 0.05 0.15 0.05 0.15 0.04 0.15 0.04 0.14 0.04 0.14 0.04 0.14 0.03 0.14 0.03 0.14 0.03 0.14 0.03 0.14 0.03 0.14 0.03 0.14 0.03 0.14 0.03 0.14 0.04 0.14 0.04 0.14 0.04 0.14 0.04 0.15 0.05 0.15 0.05 -0.15 0.55 -0.13 -0.05 -0.13 -0.04 -0.13 -0.04 -0.13 -0.04 -0.13 -0.04 -0.13 -0.03 -0.13 -0.03 -0.14 -0.03 -0.14 -0.03 -0.14 -0.03 -0.14 -0.03 -0.14 -0.03 -0.15 -0.03 -0.15 -0.04 -0.15 -0.04 -0.15 -0.04 -0.16 -0.04 -0.16 -0.05 -0.16 -0.05 -0.16 -0.06 -0.17 -0.06 -0.17 -0.07 -0.18 -0.07 -0.18 -0.08 -0.18 -0.09 -0.19 -0.09 -0.19 -0.1 -0.2 -0.11 -0.2 -0.12 -0.21 -0.13 -0.21 -0.14 -0.22 -0.14 0.3 -0.48z"/>
  </g>
  <g>
   <path class="fil5" d="M211.87 134.27l4.02 110.73 -16.08 0 -5.97 -87.25 -6.09 86.13 -15.58 0 5.53 -110.31 34.17 0.7z"/>
   <path id="1" class="fil1" d="M216.35 244.99l-0.45 0.52 -0.45 -0.48 -4.02 -110.73 0.9 -0.04 4.02 110.73zm0 0l0.02 0.52 -0.47 0 0.45 -0.52zm-16.53 0.52l-0.45 -0.47 0.45 -0.54 16.08 0 0 1.01 -16.08 0zm0 0l-0.42 0 -0.03 -0.47 0.45 0.47zm-6.42 -87.72l0 -0.08 0.9 0 5.97 87.25 -0.9 0.08 -5.97 -87.25zm-5.19 86.13l-0.45 0.46 -0.45 -0.54 6.09 -86.13 0.9 0.08 -6.09 86.13zm0 0l-0.03 0.46 -0.42 0 0.45 -0.46zm-16.03 0.46l-0.45 -0.53 0.45 -0.48 15.58 0 0 1.01 -15.58 0zm0 0l-0.48 0 0.03 -0.53 0.45 0.53zm5.08 -110.84l0.46 -0.48 0.44 0.53 -5.53 110.31 -0.9 -0.06 5.53 -110.31zm0 0l0.02 -0.49 0.44 0.01 -0.46 0.48zm34.63 0.22l0.44 0.48 -0.46 0.52 -34.17 -0.7 0.02 -1.01 34.17 0.7zm0 0l0.43 0.01 0.02 0.48 -0.44 -0.48z"/>
  </g>
  <path class="fil8" d="M165.99 245.83l21.98 0 0 -0c0,-4.92 -4.03,-8.95 -8.95,-8.95l-4.08 0c-4.92,0 -8.95,4.03 -8.95,8.95l0 0z"/>
  <path class="fil8" d="M193.95 246.84l21.98 0 0 -0c0,-4.92 -4.03,-8.95 -8.95,-8.95l-4.08 0c-4.92,0 -8.95,4.03 -8.95,8.95l0 0z"/>
  <path class="fil7 str4" d="M237.14 107.87c2.06,-6.56 -11.74,-26.18 -15.16,-33.51 -2.57,-3.67 -15.46,-7.12 -19.94,-7.12 -5.87,7.84 -9.47,9.78 -13.74,-0.41 -4.12,0 -15.86,3.49 -17.89,7.07l-16.26 32.81 -3.44 3.34 -11.94 -11.87 -7.79 8.1 14.82 14.13c0,0 3.83,2.32 9.17,0.69 2.05,-0.63 4.78,-2.49 7.37,-4.55l0 0 0 -0c4.14,-3.29 7.91,-7.08 7.91,-7.08l5.74 -7.93 0.46 13.29 1.3 15.48 29.69 0.02 1.71 -2.95 4.32 -7.93 0.97 -11.76 0.02 -0.17 1.82 -9.59 5.9 9.65 14.94 0.31z"/>
  <path class="fil6 str5" d="M211.37 129.43l-33.67 0 0 4.15 34.18 0.79 -0.51 -4.93z"/>
  <rect class="fil8" x="187.9" y="129.41" width="6.83" height="4.23"/>
  <rect class="fil2 str6" transform="matrix(0.29462 0.252187 -0.308805 0.360765 201.959 93.7287)" width="106.21" height="61.69" rx="1.5" ry="1.5"/>
  <path class="fil10 str7" d="M201.15 120.06l7.27 -8.49"/>
  <path class="fil10 str7" d="M203.54 122.1l7.27 -8.49"/>
  <path class="fil10 str7" d="M205.93 124.14l7.27 -8.49"/>
  <path class="fil7 str8" d="M222.06 107.77l-13.37 22.39 5.77 4.08 6.15 -5.28 16.58 -21.28 -15.13 0.09z"/>
  <g>
   <path class="fil5" d="M206.16 134.6c-0.18,0.07 -0.5,0.66 -1.65,1.21 -1.05,-0.11 -1.19,-1.61 -0.62,-1.91 0.61,-0.35 1.29,-0.84 2.42,-1.63 1.09,-0.32 1.86,0.12 2.78,-1.75l4.96 3.51 -1.31 1.92c-0.31,1.57 0.26,2.62 -0.91,5.13 -1.17,2.51 -4.96,-1.03 -6.22,-2.13 -1.26,-1.1 0.4,-4.2 0.55,-4.35z"/>
   <path id="1" class="fil1" d="M204.51 136.11l-0 -0.59 -0.15 0.02 0.1 -0.05 0.1 -0.05 0.09 -0.05 0.09 -0.05 0.08 -0.05 0.08 -0.05 0.07 -0.05 0.07 -0.05 0.07 -0.05 0.06 -0.05 0.06 -0.05 0.06 -0.04 0.05 -0.04 0.05 -0.04 0.05 -0.04 0.05 -0.04 0.04 -0.04 0.04 -0.04 0.04 -0.04 0.04 -0.04 0.03 -0.03 0.03 -0.03 0.03 -0.03 0.03 -0.03 0.03 -0.03 0.03 -0.03 0.03 -0.03 0.03 -0.02 0.03 -0.02 0.03 -0.02 0.04 -0.02 0.05 -0.02 0.27 0.56 0.01 -0 0 -0 -0 0 -0.01 0.01 -0.01 0.01 -0.02 0.02 -0.02 0.02 -0.02 0.02 -0.03 0.03 -0.03 0.03 -0.03 0.03 -0.04 0.04 -0.04 0.04 -0.04 0.04 -0.04 0.04 -0.05 0.04 -0.05 0.04 -0.05 0.05 -0.06 0.05 -0.06 0.05 -0.06 0.05 -0.07 0.05 -0.07 0.05 -0.08 0.05 -0.08 0.05 -0.08 0.05 -0.09 0.05 -0.09 0.05 -0.1 0.05 -0.1 0.05 -0.11 0.05 -0.11 0.05 -0.15 0.02zm0.15 -0.02l-0.07 0.03 -0.08 -0.01 0.15 -0.02zm-0.94 -2.44l0.34 0.52 -0.01 0 -0.02 0.01 -0.02 0.02 -0.02 0.02 -0.02 0.03 -0.02 0.03 -0.02 0.04 -0.02 0.05 -0.02 0.05 -0.01 0.05 -0.01 0.06 -0.01 0.06 -0 0.06 0 0.06 0 0.06 0.01 0.06 0.01 0.06 0.02 0.06 0.02 0.06 0.02 0.06 0.03 0.06 0.03 0.05 0.03 0.05 0.03 0.05 0.04 0.04 0.04 0.04 0.04 0.03 0.04 0.03 0.05 0.03 0.05 0.02 0.06 0.02 0.06 0.01 0.07 0.01 0 0.59 -0.12 -0.02 -0.12 -0.03 -0.11 -0.04 -0.11 -0.05 -0.1 -0.06 -0.09 -0.07 -0.09 -0.07 -0.08 -0.08 -0.07 -0.08 -0.06 -0.09 -0.06 -0.09 -0.05 -0.09 -0.04 -0.09 -0.04 -0.1 -0.03 -0.1 -0.02 -0.1 -0.02 -0.1 -0.01 -0.1 -0.01 -0.1 -0 -0.1 0 -0.09 0.01 -0.09 0.01 -0.09 0.02 -0.09 0.03 -0.09 0.03 -0.08 0.04 -0.08 0.05 -0.08 0.05 -0.07 0.06 -0.06 0.07 -0.06 0.08 -0.05 -0.01 0zm0.34 0.52l-0.01 0 0.01 -0 0 -0zm2.13 -2.18l0.23 0.57 0.08 -0.04 -0.1 0.07 -0.1 0.07 -0.1 0.07 -0.1 0.07 -0.09 0.07 -0.09 0.07 -0.09 0.06 -0.09 0.06 -0.09 0.06 -0.08 0.06 -0.08 0.06 -0.08 0.06 -0.08 0.05 -0.08 0.05 -0.07 0.05 -0.07 0.05 -0.07 0.05 -0.07 0.05 -0.07 0.05 -0.07 0.05 -0.07 0.04 -0.07 0.04 -0.06 0.04 -0.06 0.04 -0.06 0.04 -0.06 0.04 -0.06 0.04 -0.06 0.04 -0.06 0.04 -0.06 0.04 -0.06 0.04 -0.06 0.03 -0.34 -0.52 0.06 -0.03 0.06 -0.03 0.06 -0.03 0.06 -0.04 0.06 -0.04 0.06 -0.04 0.06 -0.04 0.06 -0.04 0.06 -0.04 0.06 -0.04 0.06 -0.04 0.07 -0.04 0.07 -0.04 0.07 -0.05 0.07 -0.05 0.07 -0.05 0.07 -0.05 0.07 -0.05 0.08 -0.05 0.08 -0.05 0.08 -0.06 0.08 -0.06 0.08 -0.06 0.09 -0.06 0.09 -0.06 0.09 -0.06 0.09 -0.06 0.09 -0.07 0.1 -0.07 0.1 -0.07 0.1 -0.07 0.1 -0.07 0.08 -0.04zm-0.08 0.04l0.03 -0.02 0.04 -0.01 -0.08 0.04zm3.12 -1.74l-0.31 0.47 0.42 -0.08 -0.09 0.18 -0.09 0.16 -0.09 0.15 -0.09 0.14 -0.09 0.13 -0.09 0.12 -0.09 0.11 -0.09 0.1 -0.09 0.09 -0.09 0.08 -0.09 0.07 -0.09 0.07 -0.09 0.06 -0.1 0.05 -0.1 0.04 -0.1 0.04 -0.1 0.03 -0.09 0.03 -0.09 0.02 -0.09 0.02 -0.09 0.02 -0.09 0.02 -0.09 0.01 -0.09 0.01 -0.09 0.01 -0.09 0.01 -0.09 0.01 -0.09 0.01 -0.09 0.02 -0.09 0.02 -0.09 0.02 -0.09 0.03 -0.23 -0.57 0.11 -0.03 0.11 -0.03 0.11 -0.02 0.1 -0.02 0.1 -0.02 0.1 -0.01 0.09 -0.01 0.09 -0.01 0.09 -0.01 0.08 -0.01 0.08 -0.01 0.08 -0.01 0.08 -0.02 0.07 -0.02 0.07 -0.02 0.07 -0.02 0.07 -0.03 0.07 -0.03 0.07 -0.04 0.07 -0.04 0.07 -0.05 0.07 -0.05 0.07 -0.06 0.07 -0.07 0.07 -0.08 0.07 -0.09 0.08 -0.1 0.08 -0.11 0.08 -0.12 0.08 -0.14 0.08 -0.15 0.08 -0.16 0.42 -0.08zm-0.42 0.08l0.14 -0.28 0.29 0.2 -0.42 0.08zm5.08 3.9l-4.96 -3.51 0.31 -0.47 4.96 3.51 0.1 0.42 -0.41 0.05zm0.31 -0.47l0.26 0.18 -0.16 0.24 -0.1 -0.42zm-1.71 1.97l1.31 -1.92 0.51 0.37 -1.31 1.92 -0.55 -0.27 0.04 -0.1zm-0.04 0.1l0.01 -0.05 0.03 -0.04 -0.04 0.1zm-0.34 5.36l-0.55 -0.3 0 0 0.1 -0.23 0.09 -0.22 0.08 -0.21 0.07 -0.2 0.07 -0.19 0.06 -0.19 0.05 -0.18 0.04 -0.17 0.04 -0.17 0.03 -0.16 0.03 -0.16 0.02 -0.15 0.02 -0.15 0.02 -0.15 0.01 -0.14 0.01 -0.14 0.01 -0.14 0 -0.14 0 -0.14 0 -0.13 0 -0.14 0 -0.14 0 -0.14 0 -0.14 0 -0.14 0.01 -0.14 0.01 -0.14 0.01 -0.14 0.01 -0.15 0.02 -0.15 0.02 -0.15 0.03 -0.15 0.59 0.18 -0.02 0.14 -0.02 0.14 -0.02 0.13 -0.01 0.13 -0.01 0.13 -0.01 0.13 -0.01 0.13 -0 0.13 -0 0.13 -0 0.13 -0 0.13 -0 0.14 -0 0.14 -0 0.14 -0 0.14 -0.01 0.15 -0.01 0.15 -0.01 0.16 -0.02 0.16 -0.02 0.16 -0.02 0.17 -0.03 0.17 -0.04 0.18 -0.04 0.18 -0.05 0.19 -0.06 0.19 -0.06 0.2 -0.07 0.21 -0.08 0.21 -0.09 0.22 -0.1 0.23 -0.11 0.24 0 0zm-6.68 -2.07l0.36 -0.42 0 0 0.13 0.11 0.14 0.12 0.15 0.13 0.16 0.14 0.17 0.15 0.18 0.16 0.19 0.16 0.2 0.16 0.21 0.17 0.21 0.17 0.22 0.16 0.22 0.16 0.22 0.16 0.23 0.15 0.23 0.14 0.23 0.13 0.22 0.12 0.22 0.11 0.22 0.09 0.21 0.08 0.2 0.06 0.19 0.04 0.19 0.03 0.17 0.01 0.16 -0.01 0.15 -0.03 0.14 -0.05 0.13 -0.07 0.13 -0.1 0.12 -0.13 0.11 -0.16 0.1 -0.19 0.55 0.3 -0.13 0.24 -0.15 0.21 -0.17 0.18 -0.19 0.14 -0.2 0.11 -0.22 0.08 -0.23 0.05 -0.23 0.02 -0.24 -0.01 -0.24 -0.03 -0.24 -0.06 -0.24 -0.08 -0.25 -0.09 -0.25 -0.11 -0.25 -0.12 -0.25 -0.13 -0.24 -0.14 -0.24 -0.15 -0.24 -0.16 -0.24 -0.16 -0.23 -0.17 -0.23 -0.17 -0.22 -0.17 -0.21 -0.17 -0.21 -0.17 -0.2 -0.17 -0.19 -0.16 -0.18 -0.15 -0.17 -0.14 -0.15 -0.13 -0.14 -0.12 -0.12 -0.11 0 0zm0.87 -4.28l-0.27 -0.56 0.35 0.51 0.01 -0.01 -0.02 0.02 -0.03 0.05 -0.04 0.06 -0.04 0.08 -0.05 0.09 -0.05 0.1 -0.06 0.11 -0.06 0.12 -0.06 0.13 -0.06 0.14 -0.06 0.15 -0.06 0.15 -0.06 0.16 -0.05 0.16 -0.05 0.17 -0.05 0.17 -0.04 0.17 -0.04 0.17 -0.03 0.17 -0.02 0.17 -0.02 0.16 -0.01 0.16 0 0.15 0.01 0.15 0.02 0.14 0.03 0.13 0.04 0.12 0.05 0.11 0.06 0.09 0.07 0.09 0.08 0.08 -0.36 0.42 -0.14 -0.14 -0.12 -0.15 -0.1 -0.16 -0.08 -0.17 -0.06 -0.18 -0.04 -0.18 -0.03 -0.18 -0.01 -0.19 -0 -0.19 0.01 -0.19 0.02 -0.19 0.03 -0.19 0.03 -0.19 0.04 -0.19 0.05 -0.19 0.05 -0.18 0.06 -0.18 0.06 -0.17 0.06 -0.17 0.06 -0.16 0.06 -0.16 0.06 -0.15 0.06 -0.14 0.06 -0.13 0.06 -0.12 0.06 -0.11 0.05 -0.1 0.05 -0.09 0.04 -0.07 0.04 -0.06 0.04 -0.05 0.05 -0.06 0.35 0.51z"/>
  </g>
  <path class="fil2" d="M222.8 102.15l-0.56 4.66 0.39 0.76 -0.54 1.08 -0.91 6.97 14.53 -6.81c0.56,-0.6 1.11,-0.81 1.16,-2.35l-4.81 -5.69 -9.27 1.37z"/>
  <g>
   <path class="fil1" d="M106.26 66.2l0.59 0.02 0 0 -0.03 0.17 -0.03 0.17 -0.03 0.17 -0.04 0.17 -0.04 0.17 -0.04 0.17 -0.04 0.17 -0.04 0.16 -0.05 0.16 -0.05 0.16 -0.05 0.16 -0.05 0.15 -0.05 0.15 -0.05 0.14 -0.05 0.14 -0.05 0.14 -0.05 0.13 -0.05 0.12 -0.04 0.12 -0.04 0.11 -0.04 0.1 -0.04 0.1 -0.04 0.09 -0.03 0.08 -0.03 0.07 -0.03 0.07 -0.02 0.06 -0.02 0.05 -0.02 0.04 -0.01 0.03 -0.01 0.02 -0 0 -0.54 -0.19 0 -0.01 0.01 -0.01 0.01 -0.02 0.02 -0.04 0.02 -0.04 0.02 -0.05 0.03 -0.06 0.03 -0.07 0.03 -0.08 0.04 -0.09 0.04 -0.09 0.04 -0.1 0.04 -0.11 0.04 -0.11 0.04 -0.12 0.05 -0.12 0.05 -0.13 0.05 -0.13 0.05 -0.14 0.05 -0.14 0.05 -0.15 0.05 -0.15 0.04 -0.15 0.04 -0.15 0.04 -0.16 0.04 -0.16 0.04 -0.16 0.04 -0.16 0.03 -0.16 0.03 -0.16 0.03 -0.16 0.02 -0.16 0 0zm-0.3 -2.87l0.3 -0.55 -0 0 0.07 0.04 0.06 0.05 0.05 0.05 0.04 0.06 0.04 0.06 0.04 0.07 0.03 0.07 0.03 0.07 0.03 0.08 0.03 0.09 0.03 0.09 0.03 0.09 0.02 0.1 0.02 0.1 0.02 0.11 0.02 0.11 0.02 0.12 0.02 0.12 0.01 0.12 0.01 0.13 0.01 0.13 0.01 0.13 0.01 0.14 0 0.14 0 0.14 -0 0.14 -0 0.14 -0.01 0.15 -0.01 0.15 -0.01 0.15 -0.02 0.15 -0.02 0.15 -0.59 -0.02 0.02 -0.14 0.02 -0.14 0.01 -0.14 0.01 -0.14 0.01 -0.13 0 -0.13 0 -0.13 -0 -0.13 -0 -0.13 -0.01 -0.12 -0.01 -0.12 -0.01 -0.12 -0.01 -0.12 -0.01 -0.11 -0.01 -0.11 -0.02 -0.1 -0.02 -0.1 -0.02 -0.1 -0.02 -0.09 -0.02 -0.09 -0.02 -0.08 -0.02 -0.08 -0.02 -0.07 -0.02 -0.06 -0.02 -0.06 -0.02 -0.05 -0.02 -0.04 -0.02 -0.03 -0.02 -0.02 -0.01 -0.01 -0 -0 0.01 0.01 -0 0zm-0.79 -0.06l-0.59 0.03 0.1 -0.22 0.01 -0.01 0 -0 0.01 -0.01 0.02 -0.02 0.02 -0.02 0.02 -0.02 0.02 -0.02 0.03 -0.02 0.03 -0.02 0.04 -0.02 0.04 -0.02 0.04 -0.02 0.05 -0.03 0.05 -0.02 0.05 -0.02 0.05 -0.02 0.05 -0.02 0.06 -0.02 0.06 -0.02 0.06 -0.02 0.06 -0.01 0.07 -0.01 0.07 -0.01 0.07 -0 0.07 -0 0.07 0 0.07 0.01 0.08 0.01 0.08 0.02 0.08 0.02 0.08 0.03 0.08 0.03 -0.3 0.55 -0.05 -0.02 -0.05 -0.02 -0.05 -0.01 -0.04 -0.01 -0.04 -0.01 -0.04 -0 -0.04 -0 -0.04 0 -0.04 0 -0.04 0 -0.04 0.01 -0.04 0.01 -0.03 0.01 -0.03 0.01 -0.03 0.01 -0.03 0.01 -0.03 0.01 -0.03 0.01 -0.03 0.01 -0.02 0.01 -0.03 0.02 -0.02 0.01 -0.02 0.01 -0.02 0.01 -0.02 0.01 -0.02 0.01 -0.01 0.01 -0.01 0.01 -0 0 -0 0 -0 0 0 -0 0.1 -0.22zm-1.88 6.81l-0.49 -0.28 -0.02 0.04 0.14 -0.29 0.13 -0.27 0.12 -0.25 0.12 -0.24 0.11 -0.22 0.1 -0.21 0.09 -0.2 0.09 -0.19 0.08 -0.18 0.07 -0.17 0.07 -0.16 0.06 -0.16 0.06 -0.15 0.05 -0.15 0.05 -0.15 0.04 -0.15 0.04 -0.15 0.04 -0.15 0.03 -0.15 0.03 -0.16 0.03 -0.17 0.03 -0.17 0.03 -0.18 0.02 -0.19 0.02 -0.21 0.02 -0.22 0.02 -0.23 0.02 -0.25 0.02 -0.26 0.02 -0.28 0.02 -0.3 0.02 -0.32 0.59 -0.03 -0.02 0.32 -0.02 0.3 -0.02 0.28 -0.02 0.27 -0.02 0.25 -0.02 0.24 -0.02 0.22 -0.02 0.21 -0.02 0.2 -0.03 0.19 -0.03 0.19 -0.03 0.18 -0.03 0.17 -0.04 0.17 -0.04 0.17 -0.04 0.16 -0.05 0.16 -0.05 0.16 -0.06 0.16 -0.06 0.17 -0.07 0.17 -0.07 0.17 -0.08 0.18 -0.08 0.19 -0.09 0.19 -0.09 0.2 -0.1 0.21 -0.11 0.23 -0.12 0.24 -0.12 0.25 -0.13 0.27 -0.14 0.29 -0.02 0.04zm0.02 -0.04l-0.01 0.02 -0.01 0.02 0.02 -0.04zm-1.32 2.7l-0.45 0.43 -0.05 -0.3 0.04 -0.11 0.04 -0.11 0.04 -0.11 0.04 -0.1 0.04 -0.1 0.04 -0.1 0.04 -0.1 0.04 -0.1 0.04 -0.1 0.04 -0.1 0.04 -0.1 0.04 -0.1 0.04 -0.1 0.04 -0.1 0.04 -0.1 0.04 -0.1 0.04 -0.1 0.04 -0.1 0.04 -0.09 0.04 -0.09 0.04 -0.09 0.04 -0.09 0.04 -0.09 0.04 -0.09 0.04 -0.09 0.04 -0.09 0.04 -0.09 0.05 -0.09 0.05 -0.09 0.05 -0.09 0.05 -0.09 0.05 -0.08 0.49 0.28 -0.05 0.07 -0.04 0.07 -0.04 0.08 -0.04 0.08 -0.04 0.08 -0.04 0.08 -0.04 0.08 -0.04 0.08 -0.04 0.08 -0.04 0.08 -0.04 0.09 -0.04 0.09 -0.04 0.09 -0.04 0.09 -0.04 0.09 -0.04 0.09 -0.04 0.09 -0.04 0.1 -0.04 0.1 -0.04 0.1 -0.04 0.1 -0.04 0.1 -0.04 0.1 -0.04 0.1 -0.04 0.1 -0.04 0.1 -0.04 0.11 -0.04 0.11 -0.04 0.11 -0.04 0.11 -0.04 0.11 -0.04 0.11 -0.05 -0.3zm-0.45 0.43l-0.12 -0.12 0.07 -0.18 0.05 0.3zm5.2 5.41l-5.2 -5.41 0.45 -0.43 5.2 5.41 0.06 0.27 -0.51 0.16zm0.51 -0.16l-0.16 0.52 -0.35 -0.36 0.51 -0.16zm0.86 -2.75l-0.86 2.75 -0.57 -0.11 0.86 -2.75 0.21 -0.22 0.36 0.33zm-0.57 -0.11l0.05 -0.16 0.16 -0.06 -0.21 0.22zm4.96 -1.57l0.3 0.48 -0.22 0.14 -0.21 0.13 -0.21 0.12 -0.2 0.11 -0.19 0.1 -0.19 0.09 -0.18 0.08 -0.18 0.07 -0.17 0.06 -0.17 0.05 -0.16 0.04 -0.16 0.04 -0.16 0.03 -0.15 0.03 -0.15 0.02 -0.15 0.02 -0.14 0.01 -0.14 0.01 -0.14 0.01 -0.13 0.01 -0.13 0.01 -0.13 0.01 -0.13 0.01 -0.12 0.01 -0.12 0.01 -0.12 0.02 -0.12 0.02 -0.12 0.02 -0.12 0.03 -0.12 0.03 -0.13 0.04 -0.13 0.04 -0.15 -0.55 0.15 -0.05 0.15 -0.04 0.15 -0.04 0.14 -0.03 0.14 -0.03 0.14 -0.02 0.14 -0.02 0.14 -0.01 0.13 -0.01 0.13 -0.01 0.13 -0.01 0.13 -0.01 0.13 -0.01 0.13 -0.01 0.13 -0.01 0.13 -0.01 0.13 -0.02 0.13 -0.02 0.14 -0.02 0.14 -0.03 0.14 -0.03 0.14 -0.04 0.15 -0.05 0.15 -0.05 0.16 -0.06 0.16 -0.07 0.17 -0.08 0.17 -0.09 0.18 -0.1 0.19 -0.11 0.2 -0.12 0.2 -0.13z"/>
  </g>
 </g>
</svg>
