<?xml version="1.0" encoding="UTF-8"?>
<!DOCTYPE svg PUBLIC "-//W3C//DTD SVG 1.0//EN" "http://www.w3.org/TR/2001/REC-SVG-20010904/DTD/svg10.dtd">
<!-- Creator: CorelDRAW 2018 (64-Bit) -->
<svg xmlns="http://www.w3.org/2000/svg" xml:space="preserve" width="4.81232in" height="3.45033in" version="1.0" style="shape-rendering:geometricPrecision; text-rendering:geometricPrecision; image-rendering:optimizeQuality; fill-rule:evenodd; clip-rule:evenodd"
viewBox="0 0 3856.62 2765.12"
 xmlns:xlink="http://www.w3.org/1999/xlink">
 <defs>
  <style type="text/css">
   <![CDATA[
    .str6 {stroke:#0076A7;stroke-width:8.35;stroke-miterlimit:2.61313}
    .str0 {stroke:#FEFEFE;stroke-width:5.57;stroke-miterlimit:2.61313}
    .str3 {stroke:#0076A7;stroke-width:5.57;stroke-miterlimit:2.61313}
    .str4 {stroke:#006089;stroke-width:10.52;stroke-miterlimit:10}
    .str5 {stroke:#006089;stroke-width:10.52;stroke-miterlimit:2.61313}
    .str1 {stroke:#FEFEFE;stroke-width:5.56;stroke-miterlimit:10}
    .str2 {stroke:#FEFEFE;stroke-width:5.56;stroke-miterlimit:2.61313}
    .fil17 {fill:none}
    .fil14 {fill:none;fill-rule:nonzero}
    .fil9 {fill:#FEFEFE}
    .fil20 {fill:#E6E7E8}
    .fil1 {fill:#96989A}
    .fil0 {fill:#CCDDE6}
    .fil21 {fill:#A03436}
    .fil10 {fill:#822E2F}
    .fil22 {fill:#81B1C7}
    .fil23 {fill:#2A93C1}
    .fil18 {fill:#0076A7}
    .fil4 {fill:#156189}
    .fil15 {fill:#FBD2C0}
    .fil13 {fill:#FEFEFE;fill-rule:nonzero}
    .fil5 {fill:#96989A;fill-rule:nonzero}
    .fil7 {fill:#CCDDE6;fill-rule:nonzero}
    .fil24 {fill:#A03436;fill-rule:nonzero}
    .fil12 {fill:#822E2F;fill-rule:nonzero}
    .fil19 {fill:#80BED9;fill-rule:nonzero}
    .fil11 {fill:#0076A7;fill-rule:nonzero}
    .fil16 {fill:#156189;fill-rule:nonzero}
    .fil3 {fill:#006089;fill-rule:nonzero}
    .fil8 {fill:#3B2A42;fill-rule:nonzero}
    .fil25 {fill:#97CEF7;fill-rule:nonzero}
    .fil6 {fill:#C9C7C7;fill-rule:nonzero}
    .fil2 {fill:white;fill-rule:nonzero}
   ]]>
  </style>
 </defs>
 <g id="Layer_x0020_1">
  <metadata id="CorelCorpID_0Corel-Layer"/>
  <path class="fil0" d="M218.47 0l851.55 0 0 446.92 -851.55 0 0 -446.92z"/>
  <rect class="fil1" x="1380.51" y="299.68" width="283.53" height="286.04"/>
  <rect class="fil1" x="1793.22" y="299.68" width="283.53" height="286.04"/>
  <rect class="fil1" x="2205.93" y="299.68" width="283.53" height="286.04"/>
  <g>
   <path class="fil2" d="M2986.11 2118.79l140.25 -8.11 -31.76 543.85 -108.49 0 0 -535.74z"/>
   <path id="1" class="fil3" d="M3126.68 2115.67l-140.25 8.11 -0.64 -9.98 140.25 -8.11 5.57 5.27 -4.93 4.71zm-0.64 -9.98l5.9 -0.34 -0.33 5.61 -5.57 -5.27zm-36.69 548.56l31.76 -543.85 10.51 0.56 -31.76 543.85 -5.25 4.72 -5.25 -5.28zm10.51 0.56l-0.27 4.72 -4.98 0 5.25 -4.72zm-113.74 -5.28l108.49 0 0 10 -108.49 0 -5.26 -5 5.26 -5zm0 10l-5.26 0 0 -5 5.26 5zm5.26 -540.73l0 535.74 -10.53 0 0 -535.74 4.94 -4.99 5.58 4.99zm-10.53 0l0 -4.7 4.94 -0.29 -4.94 4.99z"/>
  </g>
  <path class="fil4" d="M2997.45 2588.85c46.22,0 92.69,37.94 103.8,84.73 0.77,3.22 1.34,6.4 1.74,9.53l-166.29 0c-1.09,-3.13 -2.03,-6.31 -2.8,-9.53 -11.12,-46.79 17.34,-84.73 63.55,-84.73z"/>
  <g>
   <path class="fil2" d="M3221.52 2122.13l141.92 -3.34 0 535.74 -105.18 0 -36.73 -532.4z"/>
   <path id="1" class="fil3" d="M3363.57 2123.79l-141.92 3.34 -0.26 -10 141.92 -3.34 5.39 5 -5.13 5zm-0.26 -10l5.39 -0.13 0 5.12 -5.39 -5zm-5.13 540.73l0 -535.74 10.53 0 0 535.74 -5.26 5 -5.26 -5zm10.53 0l0 5 -5.26 0 5.26 -5zm-110.45 -5l105.18 0 0 10 -105.18 0 -5.25 -4.67 5.25 -5.33zm0 10l-4.93 0 -0.32 -4.67 5.25 4.67zm-31.48 -537.72l36.73 532.4 -10.5 0.66 -36.73 -532.4 5.12 -5.33 5.38 4.67zm-10.5 0.66l-0.36 -5.2 5.48 -0.13 -5.12 5.33z"/>
  </g>
  <path class="fil4" d="M3347.1 2588.85c-46.22,0 -92.69,37.94 -103.8,84.73 -0.77,3.22 -1.34,6.4 -1.74,9.53l166.29 0c1.09,-3.13 2.03,-6.31 2.8,-9.53 11.12,-46.79 -17.34,-84.73 -63.55,-84.73z"/>
  <path class="fil4" d="M528.29 2588.85c46.22,0 92.69,37.94 103.8,84.73 0.77,3.22 1.34,6.4 1.74,9.53l-166.29 0c-1.09,-3.13 -2.03,-6.31 -2.8,-9.53 -11.12,-46.79 17.34,-84.73 63.55,-84.73z"/>
  <g>
   <path class="fil2" d="M516.95 2118.79l140.25 -8.11 -31.76 543.85 -108.49 0 0 -535.74z"/>
   <path id="1" class="fil3" d="M657.52 2115.67l-140.25 8.11 -0.64 -9.98 140.25 -8.11 5.57 5.27 -4.93 4.71zm-0.64 -9.98l5.9 -0.34 -0.33 5.61 -5.57 -5.27zm-36.69 548.56l31.76 -543.85 10.51 0.56 -31.76 543.85 -5.25 4.72 -5.25 -5.28zm10.51 0.56l-0.27 4.72 -4.98 0 5.25 -4.72zm-113.74 -5.28l108.49 0 0 10 -108.49 0 -5.26 -5 5.26 -5zm0 10l-5.26 0 0 -5 5.26 5zm5.26 -540.73l0 535.74 -10.53 0 0 -535.74 4.94 -4.99 5.58 4.99zm-10.53 0l0 -4.7 4.94 -0.29 -4.94 4.99z"/>
  </g>
  <path class="fil4" d="M877.95 2588.85c-46.22,0 -92.69,37.94 -103.8,84.73 -0.77,3.22 -1.34,6.4 -1.74,9.53l166.29 0c1.09,-3.13 2.03,-6.31 2.8,-9.53 11.12,-46.79 -17.34,-84.73 -63.55,-84.73z"/>
  <g>
   <path class="fil2" d="M752.37 2122.13l141.92 -3.34 0 535.74 -105.18 0 -36.73 -532.4z"/>
   <path id="1" class="fil3" d="M894.41 2123.79l-141.92 3.34 -0.26 -10 141.92 -3.34 5.39 5 -5.13 5zm-0.26 -10l5.39 -0.13 0 5.12 -5.39 -5zm-5.13 540.73l0 -535.74 10.53 0 0 535.74 -5.26 5 -5.26 -5zm10.53 0l0 5 -5.26 0 5.26 -5zm-110.45 -5l105.18 0 0 10 -105.18 0 -5.25 -4.67 5.25 -5.33zm0 10l-4.93 0 -0.32 -4.67 5.25 4.67zm-31.48 -537.72l36.73 532.4 -10.5 0.66 -36.73 -532.4 5.12 -5.33 5.38 4.67zm-10.5 0.66l-0.36 -5.2 5.48 -0.13 -5.12 5.33z"/>
  </g>
  <path class="fil5" d="M2442.66 1564.94l-72.05 0c-38.61,0 -69.91,23.28 -69.91,52.01l0 24.15 211.88 0 0 -24.15c0,-28.72 -31.3,-52.01 -69.91,-52.01z"/>
  <path class="fil6" d="M2470.13 864.56l-1008.74 0c-23.44,0 -42.45,19 -42.45,42.45l0 539.32c0,23.44 19,42.45 42.45,42.45l1008.74 0c23.44,0 42.45,-19 42.45,-42.45l0 -539.32c0,-23.44 -19.01,-42.45 -42.45,-42.45z"/>
  <path class="fil7" d="M2477.62 1373.92l-1023.72 0 0 -474.41 1023.72 0 0 474.41z"/>
  <path class="fil8" d="M2058.14 1641.09l-184.77 0 -67.77 0 0 -47.45 67.77 0 0 -104.87 184.77 0 0 104.87 67.77 0 0 47.45 -67.77 0z"/>
  <path class="fil8" d="M1973.43 1431.35c0,7.39 -5.99,13.37 -13.38,13.37 -7.39,0 -13.37,-5.99 -13.37,-13.37 0,-7.39 5.99,-13.37 13.37,-13.37 7.39,0 13.38,5.99 13.38,13.37z"/>
  <g>
   <g>
    <path class="fil5" d="M55.35 2702.43l-55.35 0 118.6 -954.78 55.35 0 -118.6 954.78z"/>
    <path class="fil5" d="M3795.34 2702.43l55.35 0 -118.6 -954.78 -55.35 0 118.6 954.78z"/>
   </g>
   <path class="fil5" d="M3856.62 1641.09l-3836.86 0 0 106.56 3836.86 0 0 -106.56z"/>
  </g>
  <path class="fil9 str0" d="M1675.66 1272.92c70.09,-24.41 142.75,-10.86 146.09,-32.56 3.34,-21.7 -8.35,-64.28 -8.35,-64.28l161.11 -1.67 25.04 55.1c0,0 48.82,29.38 101.84,36.73 72.9,10.11 151.13,25.2 123.55,131.9 -3.04,11.77 -51.23,131.38 -75.13,158.61 -23.9,27.23 -91.68,50.95 -184.07,50.95 -92.39,0 -168.42,4.39 -256.71,-60.97 -66.32,-49.1 -103.48,-249.4 -33.38,-273.81z"/>
  <path class="fil6" d="M3685.76 864.56l-1008.74 0c-23.44,0 -42.45,19 -42.45,42.45l0 539.33c0,23.44 19,42.44 42.45,42.44l411.99 0 0 104.87 -67.77 0 0 47.45 67.77 0 184.77 0 67.77 0 0 -47.45 -67.77 0 0 -104.87 411.99 0c23.44,0 42.45,-19 42.45,-42.44l0 -539.33c0,-23.44 -19,-42.45 -42.45,-42.45z"/>
  <path class="fil7" d="M3693.25 1373.92l-1023.72 0 0 -474.41 1023.72 0 0 474.41z"/>
  <path class="fil10" d="M1646.09 1283.62l0.08 -0.06 0.09 -0.06 0.1 -0.07 0.03 -0.03 0 0c1.79,-1.28 3.58,-2.36 5.36,-3.17 19.74,-8.99 19.74,-8.99 19.74,-8.99 0,0 151.02,39.34 254.53,37.41 103.51,-1.93 120.21,-4 172.39,-17.37 52.17,-13.37 54.9,-18.9 54.9,-18.9 0,0 38.63,9.75 58.37,26.83l0.01 0 0.02 0.03c1.53,1.33 2.95,2.69 4.22,4.11 2.58,2.86 4.75,6.05 6.57,9.4 41.11,51.53 185.97,234.06 196.7,260.55 12.52,30.89 7.52,67.79 -18.37,67.79 -25.88,0 -112.7,0 -112.7,0l-85.15 -99.52 -144.85 -0.37 -457.88 8.72 -75.13 91.16c0,0 -66.78,6.51 -100.18,0 -33.39,-6.51 -8.35,-45.25 -8.35,-45.25 0,0 76.8,-141.08 130.23,-210.37 50.92,-66.04 95.21,-98.92 99.25,-101.85z"/>
  <g>
   <path class="fil11" d="M2908.62 2084.84c0,0 -8.21,54.66 79.55,67.19 87.76,12.54 306.43,10.09 383.22,-4.91 64.85,-12.66 54.85,-72.18 54.85,-72.18l-517.62 9.9z"/>
   <g>
    <path class="fil11" d="M3134.44 2193.83c0,106.16 0,212.33 0,318.49 0,40.34 62.68,40.4 62.68,0 0,-106.16 0,-212.32 0,-318.49 0,-40.34 -62.68,-40.4 -62.68,0z"/>
   </g>
   <g>
    <path class="fil11" d="M3154.48 2515.38c-66.7,19.49 -131.3,45.97 -191.94,79.99 -41.92,23.51 -67.24,50.98 -56.79,101.9 6.08,29.61 51.41,17.08 45.34,-12.5 -8.09,-39.39 46.86,-55.91 74.93,-69.78 45.33,-22.4 92.46,-40.1 140.95,-54.27 28.98,-8.47 16.65,-53.85 -12.5,-45.33z"/>
   </g>
   <g>
    <path class="fil11" d="M3168.02 2558.23c51.52,10.21 101.72,29.61 150.66,48.26 32.06,12.22 103.16,26.5 96.37,73.4 -4.28,29.6 41.01,42.37 45.33,12.5 9.87,-68.18 -36.11,-93.89 -90.24,-115.92 -61.08,-24.87 -124.73,-50.72 -189.63,-63.58 -29.55,-5.85 -42.2,39.45 -12.5,45.34z"/>
   </g>
   <g>
    <path class="fil11" d="M3153.97 2547.43c19.7,28.31 40.88,55.56 61.67,83.07 21.07,27.89 32.02,43.19 29.66,80.72 -1.9,30.21 45.12,30.1 47.01,0 4.87,-77.62 -56.44,-128.15 -97.75,-187.53 -17.16,-24.66 -57.93,-1.19 -40.59,23.73z"/>
   </g>
   <path class="fil11" d="M2972.3 2691.01c0,24.23 -19.64,43.88 -43.88,43.88 -24.23,0 -43.88,-19.64 -43.88,-43.88 0,-24.23 19.65,-43.88 43.88,-43.88 24.23,0 43.88,19.64 43.88,43.88z"/>
   <path class="fil11" d="M3481.6 2686.15c0,24.23 -19.65,43.88 -43.88,43.88 -24.23,0 -43.88,-19.64 -43.88,-43.88 0,-24.23 19.64,-43.88 43.88,-43.88 24.23,0 43.88,19.65 43.88,43.88z"/>
   <path class="fil11" d="M3312.69 2711.22c0,24.23 -19.65,43.88 -43.88,43.88 -24.23,0 -43.88,-19.65 -43.88,-43.88 0,-24.23 19.64,-43.88 43.88,-43.88 24.23,0 43.88,19.65 43.88,43.88z"/>
   <path class="fil11" d="M3200.7 2452.92l-66.94 0c-4.31,0 -7.8,3.49 -7.8,7.8l0 95.19 82.54 0 0 -95.19c0,-4.31 -3.49,-7.8 -7.8,-7.8z"/>
   <path class="fil11" d="M3165.78 2199.72c84.23,0 82.16,-35.62 84.23,-51.97l-169.72 -0.62c-2.42,32.85 15.3,52.6 85.49,52.6z"/>
  </g>
  <path class="fil5" d="M1217.62 1564.94l-72.05 0c-38.61,0 -69.91,23.28 -69.91,52.01l0 24.15 211.88 0 0 -24.15c0,-28.72 -31.3,-52.01 -69.91,-52.01z"/>
  <path class="fil6" d="M1245.09 864.56l-1008.74 0c-23.45,0 -42.45,19 -42.45,42.45l0 539.32c0,23.44 19,42.45 42.45,42.45l1008.74 0c23.44,0 42.45,-19 42.45,-42.45l0 -539.32c0,-23.44 -19.01,-42.45 -42.45,-42.45z"/>
  <path class="fil7" d="M1252.58 1373.92l-1023.73 0 0 -474.41 1023.73 0 0 474.41z"/>
  <g>
   <path class="fil12" d="M269.35 1641.39l-133.5 0 0 -207.38 133.5 0 0 207.38z"/>
   <path class="fil12" d="M135.85 1464.92c-33.38,0 -60.44,30.85 -60.44,68.9 0,38.05 27.06,68.9 60.44,68.9 33.38,0 60.44,-30.84 60.44,-68.9 0,-38.05 -27.06,-68.9 -60.44,-68.9zm0 113.48l0 0c-18.61,0 -33.69,-19.96 -33.69,-44.58 0,-24.62 15.08,-44.58 33.69,-44.58 18.61,0 33.69,19.96 33.69,44.58 0,24.62 -15.08,44.58 -33.69,44.58z"/>
   <path class="fil13" d="M195.34 1537.74c-3.45,3.76 -12.63,12.37 -16.96,16.67 -1.29,1.27 -2.92,2.38 -3.64,4.73 -0.77,2.5 -0.44,4.82 0.64,6.7 2.69,4.68 7.83,3.97 12.71,3.97 11.13,0 22.26,0 33.38,0 4.11,0 9.3,0.52 11.87,-4.73 0.95,-1.92 1.07,-4.76 0.18,-6.8 -1.23,-2.81 -6.11,-6.3 -7.9,-8.74 -0.59,-0.8 -0.81,-1.75 -2.3,-1.69 -1.22,0.05 -2.16,0.97 -2.05,2.36 0.13,1.62 6.68,7.48 7.85,8.9 1.7,2.06 0.7,4.66 -0.94,5.78 -1.68,1.15 -5.32,0.71 -7.58,0.71l-33.38 0c-2.35,0 -5.7,0.51 -7.34,-0.92 -4.08,-3.56 1.34,-7.35 4.15,-10.06 0.75,-0.72 1.33,-1.27 2.07,-1.99 0.76,-0.74 1.3,-1.49 2.08,-2.22 2.97,-2.81 5.68,-5.52 8.64,-8.34 5.14,-4.87 4.65,-4.34 -0.06,-9.05l-12.33 -12.52c-3.29,-3.63 -3.06,-7.99 1.08,-11.21 1.85,-1.44 4.52,-1.4 7.1,-1.39 5.52,0 11.05,0 16.57,0 3.96,0 12.77,-0.68 15.53,1.2 3.91,2.65 4.62,7.06 1.15,11.17 -1.92,2.27 -3.94,3.11 -4.1,4.39 -0.21,1.72 1.63,3.98 4.72,0.84 2.38,-2.41 6.08,-5.24 5.9,-11.02 -0.16,-4.95 -3.21,-8.4 -6.81,-9.94 -3.34,-1.43 -11.4,-0.89 -15.6,-0.89 -4.08,0 -21.12,-0.53 -24.36,0.69 -1.98,0.74 -3.92,2.12 -4.95,3.4 -2.77,3.47 -3.96,8.29 -1.38,12.97 2.04,3.71 14.85,14.76 16.07,17.06z"/>
   <path class="fil9" d="M189.72 1515.24c1.17,7.94 14.38,11.16 15.73,19.15 2.84,-9.72 14.42,-11.28 17.32,-19.15l-33.05 0z"/>
   <path class="fil9" d="M205.43 1535.04l1.77 1.81 -1.84 1.81 -1.77 -1.81 1.84 -1.81z"/>
   <path class="fil9" d="M207.9 1539.51l1.77 1.8 -1.84 1.81 -1.77 -1.81 1.84 -1.8z"/>
   <path class="fil9" d="M204 1542.96l1.77 1.81 -1.84 1.81 -1.77 -1.81 1.84 -1.81z"/>
   <path class="fil9" d="M225.3 1565.64c2.87,-6.64 -12.17,-5.45 -18.46,-13.49 -10.35,13.15 -23.73,3.49 -24.16,13.49 1.51,0.13 3.2,-0.04 4.56,-0.04l33.38 0c1.31,0 3.1,0.15 4.69,0.04z"/>
   <path class="fil9" d="M206.93 1547.11l1.77 1.81 -1.84 1.81 -1.77 -1.81 1.84 -1.81z"/>
  </g>
  <path class="fil8" d="M833.1 1641.09l-184.77 0 -67.77 0 0 -47.45 67.77 0 0 -104.87 184.77 0 0 104.87 67.77 0 0 47.45 -67.77 0z"/>
  <path class="fil8" d="M748.38 1431.35c0,7.39 -5.99,13.37 -13.37,13.37 -7.39,0 -13.37,-5.99 -13.37,-13.37 0,-7.39 5.99,-13.37 13.37,-13.37 7.39,0 13.37,5.99 13.37,13.37z"/>
  <g>
   <path class="fil11" d="M461.59 2094.86c0,0 -8.21,54.66 79.55,67.19 87.76,12.54 306.43,10.09 383.22,-4.91 64.85,-12.66 54.85,-72.18 54.85,-72.18l-517.62 9.9z"/>
   <g>
    <path class="fil11" d="M687.41 2203.85c0,106.16 0,212.33 0,318.49 0,40.34 62.68,40.4 62.68,0 0,-106.16 0,-212.32 0,-318.49 0,-40.34 -62.68,-40.4 -62.68,0z"/>
   </g>
   <g>
    <path class="fil11" d="M707.45 2525.4c-66.7,19.49 -131.29,45.97 -191.94,79.99 -41.92,23.51 -67.24,50.98 -56.78,101.9 6.08,29.61 51.41,17.08 45.33,-12.5 -8.09,-39.39 46.86,-55.91 74.93,-69.78 45.33,-22.4 92.46,-40.1 140.95,-54.27 28.98,-8.47 16.65,-53.85 -12.5,-45.33z"/>
   </g>
   <g>
    <path class="fil11" d="M720.99 2568.25c51.52,10.21 101.72,29.61 150.66,48.26 32.06,12.22 103.16,26.5 96.37,73.4 -4.28,29.6 41.01,42.37 45.33,12.5 9.87,-68.18 -36.11,-93.89 -90.23,-115.92 -61.08,-24.87 -124.74,-50.72 -189.63,-63.58 -29.55,-5.85 -42.2,39.45 -12.5,45.34z"/>
   </g>
   <g>
    <path class="fil11" d="M706.94 2557.45c19.7,28.31 40.87,55.56 61.66,83.07 21.07,27.89 32.02,43.19 29.66,80.72 -1.9,30.21 45.12,30.1 47.01,0 4.87,-77.62 -56.43,-128.15 -97.75,-187.53 -17.16,-24.66 -57.93,-1.19 -40.59,23.73z"/>
   </g>
   <path class="fil11" d="M525.27 2701.03c0,24.23 -19.65,43.88 -43.88,43.88 -24.23,0 -43.88,-19.64 -43.88,-43.88 0,-24.23 19.64,-43.88 43.88,-43.88 24.23,0 43.88,19.64 43.88,43.88z"/>
   <path class="fil11" d="M1034.57 2696.17c0,24.23 -19.65,43.88 -43.88,43.88 -24.23,0 -43.88,-19.64 -43.88,-43.88 0,-24.23 19.64,-43.88 43.88,-43.88 24.23,0 43.88,19.65 43.88,43.88z"/>
   <path class="fil11" d="M865.65 2721.24c0,24.23 -19.64,43.88 -43.88,43.88 -24.23,0 -43.88,-19.65 -43.88,-43.88 0,-24.23 19.65,-43.88 43.88,-43.88 24.23,0 43.88,19.65 43.88,43.88z"/>
   <path class="fil11" d="M753.67 2462.94l-66.94 0c-4.31,0 -7.8,3.49 -7.8,7.8l0 95.19 82.54 0 0 -95.19c0,-4.31 -3.49,-7.8 -7.8,-7.8z"/>
   <path class="fil11" d="M718.75 2209.74c84.22,0 82.16,-35.62 84.22,-51.97l-169.72 -0.62c-2.42,32.85 15.3,52.6 85.5,52.6z"/>
  </g>
  <path class="fil12 str1" d="M874.39 961.44l0 41.53 -35.09 1.3c0,0 6.01,-39.44 -8.01,-82.59 -14.02,-43.14 -64.84,-62.64 -64.84,-62.64 0,0 -65.11,-25.17 -120.57,18.49 -55.46,43.65 -40.52,125.44 -40.52,125.44l-35.09 0 0 -41.53c0,-77.09 63.17,-140.17 140.37,-140.17l23.39 0c77.21,0 140.37,63.07 140.37,140.17z"/>
  <path class="fil12 str2" d="M601.45 1057.5c0,7.39 -6.82,13.02 -14.05,11.46 -29.86,-6.43 -52.24,-32.96 -52.24,-64.7 0,-31.74 22.38,-58.27 52.24,-64.7 7.23,-1.56 14.05,4.07 14.05,11.47l0 106.47z"/>
  <path class="fil12 str2" d="M839.3 951.03c0,-7.4 6.82,-13.03 14.05,-11.47 29.86,6.43 52.24,32.96 52.24,64.7 0,31.74 -22.38,58.27 -52.24,64.7 -7.23,1.56 -14.05,-4.07 -14.05,-11.46l0 -106.47z"/>
  <path class="fil9 str3" d="M261.31 1641.09l93.86 0 75.13 -152.32 25.99 94.66c10.75,-22.6 17.69,-40.31 26.61,-43.74 21.71,-8.35 118.55,-16.7 160.28,-16.7 41.74,0 330.58,156.94 330.58,156.94l78.03 -125.22 16.69 86.37 79.09 0c9.47,0 17.89,0.31 23.81,-7.09 5.92,-7.4 8.11,-16.09 6.39,-25.41 -17.78,-96.65 -95.01,-296.22 -162.93,-327.57l-233.72 -76.4 -13.77 -82.34 -95.17 18.79c0,0 -5.05,47.86 -3.95,71.1l-67.34 20.13 -10.88 3.25 -147.89 44.19c-30.68,15.2 -159.18,220.3 -208.79,315.19 -5.26,10.06 -4.91,21.25 0.97,30.96 5.88,9.71 15.63,15.2 26.99,15.2z"/>
  <path class="fil14 str4" d="M468.73 1664.83l0 -229.07"/>
  <path class="fil14 str4" d="M1002.63 1435.77l0 233.63"/>
  <path class="fil2 str5" d="M715.79 852.42l13.07 0c60.74,0 110.44,49.7 110.44,110.44l0 82.82c0,60.74 -49.69,110.44 -110.44,110.44l-13.07 0c-52.36,0 -96.52,-36.93 -107.7,-86.03 -1.79,-7.85 -2.73,-16.02 -2.73,-24.4l0 -82.82c0,-60.74 49.7,-110.44 110.44,-110.44z"/>
  <g>
   <path class="fil15" d="M1739.45 2108.26l16.21 82.54c0,0 -7.37,25.06 -5.9,184.24 1.48,159.18 36.85,257.94 36.85,257.94l63.38 1.48 13.26 -453.97 -2.95 -61.9 -120.86 -10.32z"/>
   <path class="fil10" d="M1849.37 2721.42c0,0 -56.85,5.9 -70.01,1.47 -13.16,-4.42 -19.74,-24.32 -18.55,-43.48 1.2,-19.16 19.15,-67.06 34.71,-75.17 15.56,-8.11 47.27,-0.74 55.05,20.63 7.78,21.37 7.78,77.38 -1.2,96.54z"/>
   <path class="fil15" d="M2117.09 2108.26l-16.21 82.54c0,0 7.37,25.06 5.9,184.24 -1.48,159.18 -36.85,257.94 -36.85,257.94l-63.38 1.48 -13.26 -453.97 2.95 -61.9 120.86 -10.32z"/>
   <path class="fil10" d="M2007.17 2721.42c0,0 56.85,5.9 70.01,1.47 13.16,-4.42 19.75,-24.32 18.55,-43.48 -1.2,-19.16 -19.15,-67.06 -34.7,-75.17 -15.56,-8.11 -47.27,-0.74 -55.05,20.63 -7.78,21.37 -7.78,77.38 1.2,96.54z"/>
  </g>
  <path class="fil16" d="M1051.8 1355.52l0 702.95c0,28.83 -23.38,52.22 -52.21,52.22l-559.97 0c-28.9,0 -52.28,-23.38 -52.28,-52.22l0 -702.95c0,-20.37 16.55,-36.92 36.92,-36.92l590.61 0c20.44,0 36.92,16.55 36.92,36.92z"/>
  <path class="fil11" d="M1051.8 1355.52l0 631.42c-18.18,5.96 -37.11,9.97 -56.04,12.6 -153.08,21.06 -315.24,-56.54 -394.85,-188.99 -51.71,-86.07 -69.08,-189.31 -66.32,-289.67 1.88,-68.08 12.48,-135.4 25.76,-202.28l454.53 0c20.44,0 36.92,16.55 36.92,36.92z"/>
  <path class="fil4" d="M674.2 1190.94c-81.28,-57.84 -104.35,-228.78 -50.02,-298.89 27.78,-35.86 58.03,-45.71 104.06,-45.06 46.03,0.65 108.25,36.27 115.24,103.2 6.99,66.94 1.13,104.91 0.13,116.39 -3.82,43.85 -40.88,111.93 -92.27,132.22l-29.01 -42.7 -14.59 47.07c-10.64,-1.85 -22.64,-4.49 -33.54,-12.25z"/>
  <path class="fil17 str3" d="M590.02 1235.54c88.46,38.35 182.7,40.56 269.76,-5.22"/>
  <path class="fil16" d="M2075.89 1004.32c0,-102.7 -85.45,-185.5 -189.3,-181.49 -94.7,3.64 -171.63,80.86 -174.75,175.35 -0.92,27.92 4.47,54.47 14.86,78.35l43.66 69.23c89.07,141.24 168.14,142.42 283.46,185.58 1.58,0.59 3.19,-5.59 4.78,-16.58 -50.5,-46.4 -124.22,-116.15 -124.22,-116.15l157.31 100.96c-69.47,-79.02 -15.8,-266.22 -15.8,-295.24z"/>
  <path class="fil4" d="M1710.66 1030.35c0,0 2.51,169.93 91,243.39 88.49,73.46 210.37,100.18 210.37,100.18 -140.69,-52.87 -192.31,-102.11 -215.38,-252.11 -1.67,-10.85 -85.99,-91.46 -85.99,-91.46z"/>
  <path class="fil16" d="M2246.79 1355.52l0 702.95c0,28.83 -23.38,52.22 -52.22,52.22l-559.96 0c-28.9,0 -52.28,-23.38 -52.28,-52.22l0 -702.95c0,-20.37 16.55,-36.92 36.92,-36.92l590.62 0c20.44,0 36.92,16.55 36.92,36.92z"/>
  <path class="fil11" d="M2246.79 1355.52l0 631.42c-18.18,5.96 -37.11,9.97 -56.04,12.6 -153.07,21.06 -315.24,-56.54 -394.85,-188.99 -51.72,-86.07 -69.08,-189.31 -66.32,-289.67 1.88,-68.08 12.48,-135.4 25.76,-202.28l454.53 0c20.44,0 36.92,16.55 36.92,36.92z"/>
  <path class="fil5" d="M3741.07 1562.65l-46.94 0c-25.15,0 -45.54,23.98 -45.54,53.57l0 24.87 138.03 0 0 -24.87c0,-29.59 -20.39,-53.57 -45.55,-53.57z"/>
  <rect class="fil10" x="1838.1" y="2695.69" width="34.8" height="29.22"/>
  <g>
   <path class="fil11" d="M1656.58 2094.86c0,0 -8.21,54.66 79.55,67.19 87.76,12.54 306.43,10.09 383.22,-4.91 64.85,-12.66 54.85,-72.18 54.85,-72.18l-517.62 9.9z"/>
   <g>
    <path class="fil11" d="M1882.4 2203.85c0,106.16 0,212.33 0,318.49 0,40.34 62.68,40.4 62.68,0 0,-106.16 0,-212.32 0,-318.49 0,-40.34 -62.68,-40.4 -62.68,0z"/>
   </g>
   <g>
    <path class="fil11" d="M1902.44 2525.4c-66.7,19.49 -131.3,45.97 -191.94,79.99 -41.92,23.51 -67.24,50.98 -56.79,101.9 6.08,29.61 51.41,17.08 45.34,-12.5 -8.09,-39.39 46.86,-55.91 74.93,-69.78 45.33,-22.4 92.46,-40.1 140.95,-54.27 28.98,-8.47 16.65,-53.85 -12.5,-45.33z"/>
   </g>
   <g>
    <path class="fil11" d="M1915.98 2568.25c51.52,10.21 101.72,29.61 150.66,48.26 32.06,12.22 103.16,26.5 96.37,73.4 -4.28,29.6 41.01,42.37 45.33,12.5 9.87,-68.18 -36.11,-93.89 -90.24,-115.92 -61.08,-24.87 -124.73,-50.72 -189.63,-63.58 -29.55,-5.85 -42.2,39.45 -12.5,45.34z"/>
   </g>
   <g>
    <path class="fil11" d="M1901.93 2557.45c19.7,28.31 40.88,55.56 61.66,83.07 21.07,27.89 32.02,43.19 29.67,80.72 -1.9,30.21 45.12,30.1 47.01,0 4.87,-77.62 -56.44,-128.15 -97.75,-187.53 -17.16,-24.66 -57.93,-1.19 -40.59,23.73z"/>
   </g>
   <path class="fil11" d="M1720.26 2701.03c0,24.23 -19.64,43.88 -43.88,43.88 -24.23,0 -43.88,-19.64 -43.88,-43.88 0,-24.23 19.65,-43.88 43.88,-43.88 24.23,0 43.88,19.64 43.88,43.88z"/>
   <path class="fil11" d="M2229.56 2696.17c0,24.23 -19.65,43.88 -43.88,43.88 -24.23,0 -43.88,-19.64 -43.88,-43.88 0,-24.23 19.64,-43.88 43.88,-43.88 24.23,0 43.88,19.65 43.88,43.88z"/>
   <path class="fil11" d="M2060.65 2721.24c0,24.23 -19.65,43.88 -43.88,43.88 -24.23,0 -43.88,-19.65 -43.88,-43.88 0,-24.23 19.64,-43.88 43.88,-43.88 24.23,0 43.88,19.65 43.88,43.88z"/>
   <path class="fil11" d="M1948.66 2462.94l-66.94 0c-4.31,0 -7.8,3.49 -7.8,7.8l0 95.19 82.54 0 0 -95.19c0,-4.31 -3.49,-7.8 -7.8,-7.8z"/>
   <path class="fil11" d="M1913.74 2209.74c84.23,0 82.16,-35.62 84.23,-51.97l-169.72 -0.62c-2.42,32.85 15.3,52.6 85.49,52.6z"/>
  </g>
  <path class="fil9 str6" d="M3060.26 951.94c1.3,-0.07 -52.99,-2.3 -53.88,27.96 -0.89,30.26 23.87,57.47 44.94,66.3 46.52,19.49 23.61,82 35.15,134.82l150.39 0 0.89 -64.96c0.92,-67.18 44.47,-59.57 73.42,-114.8 10,-19.07 3.11,-31.15 -2.67,-37.37 -5.78,-6.23 -23.58,-14.68 -23.58,-14.68l-224.66 2.74z"/>
  <path class="fil18 str3" d="M3021.51 872.22c0,0 -9.79,67.63 31.14,155.73 40.93,88.1 113.02,116.57 113.02,116.57 0,0 97.89,-43.6 125.47,-156.62 27.59,-113.01 18.69,-117.46 18.69,-117.46 0,0 12.45,-8.01 3.56,-25.81 -8.9,-17.8 -30.26,-51.61 -38.27,-72.97 -8.01,-21.36 -79.2,-65.85 -109.45,-61.41 -30.26,4.45 -23.14,26.7 -37.38,24.03 -14.24,-2.67 -32.04,-24.03 -54.28,-8.9 -22.24,15.13 -18.68,32.03 -18.68,32.03 0,0 -12.46,-9.79 -48.05,12.46 -35.6,22.25 -9.79,32.93 -9.79,32.93 0,0 12.46,-14.24 17.8,-3.56 5.34,10.68 4.45,17.8 -1.78,18.69 -6.23,0.89 -26.7,14.24 -14.24,34.71 12.46,20.46 22.25,19.58 22.25,19.58z"/>
  <path class="fil9 str3" d="M3067.77 1154.74l181.54 0c3.53,76.23 28.17,68.88 113.9,102.34 36.2,14.12 61.88,28.47 79.99,44.34l0.01 0 0.04 0.04c5.97,5.23 11.11,10.64 15.54,16.25 53.56,56.29 226.94,241.13 226.23,274.31 -0.84,39.24 -31.72,49.08 -31.72,49.08l-96.05 0c-10.74,0 -19.98,-4.87 -26.05,-13.74l-74.94 -109.63 -214.9 -15.03 -131.76 12.46c0,0 -25.7,-5.75 -55.51,-12.46l-170.48 0 -70.22 122.54c-5.78,10.08 -15.75,15.86 -27.37,15.86 -29.95,0 -87.74,0 -103.6,0 -21.7,0 -6.68,-33.21 -6.68,-33.21 0,0 43.41,-98.51 94.33,-178.65 28.58,-44.98 60.48,-79.98 82.97,-102.04 4.67,-6.56 10.64,-12.85 18.25,-18.61 3.61,-2.74 7.33,-5.38 11.13,-7.94l0.04 -0.03 0.01 0c54.27,-36.48 125.91,-55.03 159.16,-69.16 14.23,-6.05 21.26,-19.52 24.57,-33.51 4.97,-21.01 1.56,-43.2 1.56,-43.2z"/>
  <path class="fil10" d="M3070.52 1156.45l176.22 0c0.92,19.71 3.32,33.61 7.95,44.04l-186.32 0c0.22,-0.81 0.43,-1.63 0.63,-2.45 4.83,-20.22 1.52,-41.58 1.52,-41.58z"/>
  <path class="fil16" d="M3498.83 1345.5l0 702.95c0,28.83 -23.38,52.22 -52.22,52.22l-559.96 0c-28.9,0 -52.28,-23.38 -52.28,-52.22l0 -702.95c0,-20.37 16.55,-36.92 36.92,-36.92l590.62 0c20.44,0 36.92,16.55 36.92,36.92z"/>
  <path class="fil11" d="M3498.83 1345.5l0 631.42c-18.18,5.96 -37.11,9.97 -56.04,12.6 -153.07,21.06 -315.24,-56.54 -394.85,-188.99 -51.72,-86.07 -69.08,-189.31 -66.32,-289.67 1.88,-68.08 12.48,-135.4 25.76,-202.28l454.53 0c20.44,0 36.92,16.55 36.92,36.92z"/>
  <path class="fil19" d="M953.35 383.16l-242.56 0 0 32.2 242.56 0 0 -32.2z"/>
  <path class="fil16" d="M944.72 350.54l-242.55 0 0 32.2 242.55 0 0 -32.2z"/>
  <path class="fil12" d="M953.35 319.18l-242.56 0 0 32.2 242.56 0 0 -32.2z"/>
  <path class="fil11" d="M923.52 287.82l-242.56 0 0 32.2 242.56 0 0 -32.2z"/>
  <rect class="fil20" x="1372.1" y="291.59" width="283.53" height="286.04"/>
  <rect class="fil9" x="1397.47" y="316.95" width="232.8" height="235.32"/>
  <rect class="fil18" x="1431.31" y="351.15" width="165.13" height="166.91"/>
  <rect class="fil20" x="1784.81" y="291.59" width="283.53" height="286.04"/>
  <rect class="fil9" x="1810.18" y="316.95" width="232.8" height="235.32"/>
  <rect class="fil21" x="1844.02" y="351.15" width="165.13" height="166.91"/>
  <rect class="fil20" x="2197.52" y="291.59" width="283.53" height="286.04"/>
  <rect class="fil9" x="2222.89" y="316.95" width="232.8" height="235.32"/>
  <rect class="fil4" x="2256.72" y="351.15" width="165.13" height="166.91"/>
  <g>
   <rect class="fil22" x="2840.77" y="621.29" width="861.94" height="28.18"/>
   <rect class="fil23" x="2840.77" y="649.47" width="861.94" height="28.18"/>
  </g>
  <path class="fil12" d="M3580.66 621.29l-75.56 0 0 -300.05 75.56 0 0 300.05z"/>
  <path class="fil11" d="M3505.09 321.24l-74 0 0 300.05 74 0 0 -300.05z"/>
  <path class="fil11" d="M3654.66 321.24l-74 0 0 300.05 74 0 0 -300.05z"/>
  <rect class="fil20" x="3529.31" y="365.07" width="27.13" height="137.74"/>
  <rect class="fil20" x="3604.09" y="365.07" width="27.13" height="137.74"/>
  <rect class="fil20" x="3454.52" y="365.07" width="27.13" height="137.74"/>
  <path class="fil11" d="M335.57 415.37l57.38 0 0 -232.6 -57.38 0 0 232.6z"/>
  <path class="fil24" d="M400.62 415.37l58.67 0 0 -322.85 -58.67 0 0 322.85z"/>
  <path class="fil16" d="M274.71 415.37l54.04 0 0 -287.27 -54.04 0 0 287.27z"/>
  <path class="fil12" d="M633.66 391.61l-48.56 23.76 -125.77 -258.15 48.56 -23.76 125.77 258.15z"/>
  <path class="fil2" d="M274.71 169.35l54.04 0 0 -18.63 -54.04 0 0 18.63z"/>
  <path class="fil25" d="M348.17 291.19l32.17 0 0 -88.74 -32.17 0 0 88.74z"/>
  <path class="fil13" d="M400.62 142.12l58.67 0 0 -14.02 -58.67 0 0 14.02z"/>
  <path class="fil13" d="M400.62 388.6l58.67 0 0 -18.38 -58.67 0 0 18.38z"/>
  <path class="fil24" d="M3223.5 599.77l-8.11 1.31 -25.7 -170.53 8.11 -1.31 25.7 170.53z"/>
  <path class="fil5" d="M3191.05 413.05l-1.36 17.5 8.11 -1.31 -6.75 -16.19z"/>
  <path class="fil16" d="M3260.58 598.82l-12.15 -2.25 26.59 -143.05 12.15 2.25 -26.59 143.05z"/>
  <path class="fil5" d="M3285.77 429.46l-10.75 24.06 12.15 2.25 -1.4 -26.31z"/>
  <path class="fil16" d="M3245.76 599.16l-12.13 -2.25 28.65 -170.12 12.15 2.26 -28.67 170.12z"/>
  <path class="fil5" d="M3273.04 402.73l-10.75 24.06 12.15 2.26 -1.4 -26.31z"/>
  <path class="fil12" d="M3186.54 492.05c-0.19,0.67 -0.27,1.36 -0.22,2.06l7.37 125.1c0.09,1.66 1.47,2.95 3.13,2.95l74.7 0c1.66,0 3.04,-1.3 3.14,-2.95l7.37 -125.1c0.04,-0.7 -0.04,-1.39 -0.22,-2.06l4.54 0 0 -10.18 -107.22 0 0 10.18 7.41 0zm91.91 0l-5.85 0 -0.07 0.07 4.5 4.5 1.87 -1.87 0 0 0.05 -0.82c0.04,-0.68 -0.14,-1.33 -0.49,-1.88zm-10.38 0l-8.85 0 -0.07 0.07 4.5 4.5 4.5 -4.5 -0.07 -0.07zm-13.38 0l-8.85 0 -0.07 0.07 4.5 4.5 4.5 -4.5 -0.07 -0.07zm-13.38 0l-8.85 0 -0.07 0.07 4.5 4.5 4.5 -4.5 -0.07 -0.07zm-13.38 0l-8.85 0 -0.07 0.07 4.5 4.5 4.5 -4.5 -0.07 -0.07zm-13.38 0l-8.85 0 -0.07 0.07 4.5 4.5 4.5 -4.5 -0.07 -0.07zm-13.38 0l-8.99 0 4.57 4.57 4.5 -4.5 -0.07 -0.07zm46.9 46.9l0 0 -4.5 4.5 -4.5 -4.5 4.5 -4.49 4.5 4.49zm-2.3 -6.69l0 0 4.5 -4.5 4.5 4.5 -4.5 4.5 -4.5 -4.5zm-4.39 13.38l0 0 -4.5 4.5 -4.5 -4.5 4.5 -4.5 4.5 4.5zm-4.5 -8.88l0 0 -4.5 -4.5 4.5 -4.5 4.5 4.5 -4.5 4.5zm-2.19 2.19l0 0 -4.5 4.5 -4.5 -4.5 4.5 -4.49 4.5 4.49zm-6.69 6.69l0 0 -4.5 4.5 -4.5 -4.5 4.5 -4.5 4.5 4.5zm-4.5 -8.88l0 0 -4.5 -4.5 4.5 -4.5 4.5 4.5 -4.5 4.5zm-2.19 2.19l0 0 -4.5 4.5 -4.5 -4.5 4.5 -4.49 4.5 4.49zm0 13.38l0 0 -4.5 4.5 -4.5 -4.5 4.5 -4.5 4.5 4.5zm2.19 2.19l0 0 4.5 4.5 -4.5 4.5 -4.5 -4.5 4.5 -4.5zm2.19 -2.19l0 0 4.5 -4.5 4.5 4.5 -4.5 4.5 -4.5 -4.5zm11.18 2.19l0 0 4.5 4.5 -4.5 4.5 -4.5 -4.5 4.5 -4.5zm2.2 -2.19l0 0 4.5 -4.5 4.5 4.5 -4.5 4.5 -4.5 -4.5zm11.18 2.19l0 0 4.5 4.5 -4.5 4.5 -4.5 -4.5 4.5 -4.5zm-4.5 -8.88l0 0 4.5 -4.5 4.5 4.5 -4.5 4.5 -4.5 -4.5zm6.69 -6.69l0 0 4.5 -4.49 4.5 4.49 -4.5 4.5 -4.5 -4.5zm0 -13.38l0 0 4.5 -4.5 4.5 4.5 -4.5 4.5 -4.5 -4.5zm-2.19 -2.19l0 0 -4.5 -4.5 4.5 -4.49 4.5 4.49 -4.5 4.5zm-2.19 2.19l0 0 -4.5 4.5 -4.5 -4.5 4.5 -4.5 4.5 4.5zm-11.19 -2.19l0 0 -4.5 -4.5 4.5 -4.5 4.5 4.5 -4.5 4.5zm-2.19 2.2l0 0 -4.5 4.5 -4.5 -4.5 4.5 -4.5 4.5 4.5zm-11.18 -2.2l0 0 -4.5 -4.5 4.5 -4.49 4.5 4.49 -4.5 4.5zm-2.19 2.19l0 0 -4.5 4.5 -4.5 -4.5 4.5 -4.5 4.5 4.5zm-11.19 -2.19l0 0 -4.5 -4.5 4.5 -4.5 4.5 4.5 -4.5 4.5zm-2.19 2.2l0 0 -4.5 4.5 -4.5 -4.5 4.5 -4.5 4.5 4.5zm2.19 2.19l0 0 4.5 4.5 -4.5 4.5 -4.5 -4.5 4.5 -4.5zm4.5 17.87l0 0 -4.5 4.5 -4.5 -4.5 4.5 -4.5 4.5 4.5zm0 13.38l0 0 -4.5 4.5 -4.5 -4.5 4.5 -4.5 4.5 4.5zm0 13.38l0 0 -4.5 4.5 -4.5 -4.5 4.5 -4.5 4.5 4.5zm-2.3 -6.69l0 0 4.5 -4.5 4.5 4.5 -4.5 4.5 -4.5 -4.5zm11.19 2.2l0 0 4.5 4.5 -4.5 4.5 -4.5 -4.5 4.5 -4.5zm2.19 -2.2l0 0 4.5 -4.5 4.5 4.5 -4.5 4.5 -4.5 -4.5zm11.18 2.2l0 0 4.5 4.5 -4.5 4.5 -4.5 -4.5 4.5 -4.5zm2.2 -2.2l0 0 4.5 -4.5 4.5 4.5 -4.5 4.5 -4.5 -4.5zm11.18 2.2l0 0 4.5 4.5 -4.5 4.5 -4.5 -4.5 4.5 -4.5zm2.19 -2.2l0 0 4.5 -4.5 4.5 4.5 -4.5 4.5 -4.5 -4.5zm0 -13.38l0 0 4.5 -4.5 4.5 4.5 -4.5 4.5 -4.5 -4.5zm6.69 -6.69l0 0 4.5 -4.5 4.5 4.5 -4.5 4.5 -4.5 -4.5zm0 -13.38l0 0 4.5 -4.5 4.5 4.5 -4.5 4.5 -4.5 -4.5zm0 -13.38l0 0 4.5 -4.5 4.5 4.5 -4.5 4.5 -4.5 -4.5zm0 -13.38l0 0 4.5 -4.5 4.5 4.5 -4.5 4.5 -4.5 -4.5zm2.3 6.69l0 0 -4.5 4.5 -4.5 -4.5 4.5 -4.5 4.5 4.5zm-11.18 -2.19l0 0 -4.5 -4.5 4.5 -4.5 4.5 4.5 -4.5 4.5zm-2.19 2.19l0 0 -4.5 4.5 -4.5 -4.5 4.5 -4.5 4.5 4.5zm-11.19 -2.2l0 0 -4.5 -4.5 4.5 -4.5 4.5 4.5 -4.5 4.5zm-2.19 2.2l0 0 -4.5 4.5 -4.5 -4.5 4.5 -4.5 4.5 4.5zm-11.18 -2.19l0 0 -4.5 -4.5 4.5 -4.5 4.5 4.5 -4.5 4.5zm-2.19 2.19l0 0 -4.5 4.5 -4.5 -4.5 4.5 -4.5 4.5 4.5zm-11.19 -2.2l0 0 -4.5 -4.5 4.5 -4.5 4.5 4.5 -4.5 4.5zm-2.19 2.2l0 0 -4.5 4.5 -4.5 -4.5 4.5 -4.5 4.5 4.5zm-11.19 -2.19l0 0 -4.5 -4.5 4.5 -4.5 4.5 4.5 -4.5 4.5zm4.5 8.88l0 0 -4.5 4.5 -4.5 -4.5 4.5 -4.49 4.5 4.49zm0 13.38l0 0 -4.5 4.5 -4.5 -4.5 4.5 -4.5 4.5 4.5zm2.2 2.2l0 0 4.5 4.49 -4.5 4.5 -4.5 -4.5 4.5 -4.49zm4.5 17.87l0 0 -4.5 4.5 -4.5 -4.5 4.5 -4.5 4.5 4.5zm0 13.38l0 0 -4.5 4.5 -4.5 -4.5 4.5 -4.5 4.5 4.5zm0 13.38l0 0 -4.5 4.5 -4.5 -4.5 4.5 -4.49 4.5 4.49zm2.19 2.19l0 0 4.5 4.5 -4.5 4.5 -4.5 -4.5 4.5 -4.5zm2.19 -2.19l0 0 4.5 -4.49 4.5 4.49 -4.5 4.5 -4.5 -4.5zm11.19 2.19l0 0 4.5 4.5 -4.5 4.5 -4.5 -4.5 4.5 -4.5zm2.19 -2.19l0 0 4.5 -4.49 4.5 4.49 -4.5 4.5 -4.5 -4.5zm11.18 2.19l0 0 4.5 4.5 -4.5 4.5 -4.5 -4.5 4.5 -4.5zm2.2 -2.19l0 0 4.5 -4.49 4.5 4.49 -4.5 4.5 -4.5 -4.5zm11.18 2.19l0 0 4.5 4.5 -4.5 4.5 -4.5 -4.5 4.5 -4.5zm2.19 -2.19l0 0 4.5 -4.49 4.5 4.49 -4.5 4.5 -4.5 -4.5zm11.19 2.19l0 0 4.5 4.5 -4.5 4.5 -4.5 -4.5 4.5 -4.5zm-4.5 -8.88l0 0 4.5 -4.5 4.5 4.5 -4.5 4.5 -4.5 -4.5zm0 -13.38l0 0 4.5 -4.5 4.5 4.5 -4.5 4.5 -4.5 -4.5zm6.69 -6.69l0 0 4.5 -4.5 4.5 4.5 -4.5 4.5 -4.5 -4.5zm0 -13.38l0 0 4.5 -4.49 4.5 4.49 -4.5 4.5 -4.5 -4.5zm0 -13.38l0 0 4.5 -4.5 4.5 4.5 -4.5 4.5 -4.5 -4.5zm0 -13.38l0 0 4.5 -4.5 4.5 4.5 -4.5 4.5 -4.5 -4.5zm0 -13.38l0 0 4.5 -4.5 4.5 4.5 -4.5 4.49 -4.5 -4.49zm-4.39 0l0 0 -4.5 4.49 -4.5 -4.49 4.5 -4.5 4.5 4.5zm-13.38 0l0 0 -4.5 4.49 -4.5 -4.49 4.5 -4.5 4.5 4.5zm-13.38 0l0 0 -4.5 4.49 -4.5 -4.49 4.5 -4.5 4.5 4.5zm-13.38 0l0 0 -4.5 4.49 -4.5 -4.49 4.5 -4.5 4.5 4.5zm-13.38 0l0 0 -4.5 4.49 -4.5 -4.49 4.5 -4.5 4.5 4.5zm-17.97 4.4l0 0 -0.55 -9.29c-0,-0.08 0.01,-0.16 0.01,-0.24l5.12 5.13 -4.5 4.49 -0.09 -0.09zm0.28 4.66l0 0 4.31 4.31 -3.83 3.83 -0.48 -8.15zm0.84 14.22l0 0 3.47 3.47 -3.09 3.09 -0.39 -6.56zm0.84 14.22l0 0 2.63 2.63 -2.34 2.34 -0.29 -4.98zm0.54 9.12l0 0 4.29 -4.29 4.5 4.5 -4.5 4.5 -4.27 -4.27 -0.02 -0.44zm0.3 5.1l0 0 1.8 1.8 -1.6 1.6 -0.2 -3.39zm0.44 7.54l0 0 3.54 -3.55 4.5 4.5 -4.5 4.5 -3.43 -3.43 -0.12 -2.02zm0.39 6.68l0 0 0.96 0.96 -0.85 0.86 -0.11 -1.81zm0.85 14.45l0 0 -0.01 -0.23 0.12 0.12 -0.11 0.11zm-0.29 -4.89l0 0 -0.21 -3.6 2.8 -2.8 4.5 4.5 -4.5 4.5 -2.59 -2.59zm0.53 9.04l0 0 2.06 -2.06 4.5 4.5 -4.5 4.5 -1.75 -1.75 -0.31 -5.18zm5.95 16.42l0 0 -4.98 0 -0.22 -3.79 1.31 -1.31 4.5 4.5 -0.6 0.61zm-1.7 -7.29l0 0 4.5 -4.5 4.5 4.5 -4.5 4.5 -4.5 -4.5zm15.08 7.29l0 0 -7.78 0 -0.61 -0.61 4.5 -4.5 4.5 4.5 -0.61 0.61zm-1.7 -7.29l0 0 4.5 -4.5 4.5 4.5 -4.5 4.5 -4.5 -4.5zm15.08 7.29l0 0 -7.78 0 -0.6 -0.61 4.5 -4.5 4.5 4.5 -0.61 0.61zm-1.7 -7.29l0 0 4.5 -4.5 4.5 4.5 -4.5 4.5 -4.5 -4.5zm15.08 7.29l0 0 -7.78 0 -0.61 -0.61 4.5 -4.5 4.5 4.5 -0.61 0.61zm-1.7 -7.29l0 0 4.5 -4.5 4.5 4.5 -4.5 4.5 -4.5 -4.5zm15.08 7.29l0 0 -7.78 0 -0.61 -0.61 4.5 -4.5 4.5 4.5 -0.61 0.61zm-1.7 -7.29l0 0 4.5 -4.5 4.5 4.5 -4.5 4.5 -4.5 -4.5zm15.08 7.29l0 0 -7.78 0 -0.61 -0.61 4.5 -4.5 4.5 4.5 -0.61 0.61zm5.19 -0.41l0 0 -0.2 -0.2 0.22 -0.22 -0.03 0.42zm0.3 -5.09l0 0 -2.69 2.69 -4.5 -4.5 4.5 -4.5 2.89 2.89 -0.2 3.4zm0.44 -7.55l0 0 -0.94 -0.95 1.06 -1.06 -0.12 2.01zm0.39 -6.67l0 0 -3.53 3.53 -4.5 -4.5 4.5 -4.49 3.64 3.64 -0.11 1.82zm0.35 -5.97l0 0 -1.69 -1.69 1.9 -1.9 -0.21 3.59zm0.49 -8.25l0 0 -4.37 4.37 -4.5 -4.5 4.5 -4.5 4.39 4.39 -0.02 0.24zm0.26 -4.38l0 0 -2.44 -2.44 2.74 -2.74 -0.3 5.17zm0.74 -12.64l0 0 -3.18 -3.18 3.58 -3.57 -0.4 6.76zm0.74 -12.64l0 0 -3.92 -3.92 4.42 -4.42 -0.49 8.34zm0.77 -13l0 0 -0.2 0.19 -4.5 -4.5 4.5 -4.49 0.68 0.67 -0.48 8.12zm0.84 -14.22l0 0 -1.03 1.03 -4.5 -4.5 4.5 -4.5 1.42 1.42 -0.39 6.54z"/>
  <g>
   <path class="fil4" d="M2891.95 527.99l166.74 0c4.89,0 8.88,4 8.88,8.88l0 68.26c0,4.89 -4,8.88 -8.88,8.88l-6.28 0 0 7.4 -27.38 0 0 -7.4 -96.25 0 0 7.4 -27.38 0 0 -7.4 -9.45 0c-4.89,0 -8.88,-4 -8.88,-8.88l0 -68.26c0,-4.89 4,-8.88 8.88,-8.88z"/>
   <path class="fil9" d="M2891.95 533.32l166.74 0c1.96,0 3.56,1.6 3.56,3.56l0 68.26c0,1.96 -1.6,3.55 -3.56,3.55l-166.74 0c-1.95,0 -3.55,-1.6 -3.55,-3.55l0 -68.26c0,-1.96 1.6,-3.56 3.55,-3.56zm5.33 5.33l156.08 0c1.96,0 3.55,1.6 3.55,3.55l0 57.6c0,1.95 -1.6,3.55 -3.55,3.55l-156.08 0c-1.95,0 -3.55,-1.6 -3.55,-3.55l0 -57.6c0,-1.96 1.6,-3.55 3.55,-3.55z"/>
   <path class="fil9" d="M2904.28 544.68l60.76 0c2.78,0 5.05,2.27 5.05,5.05l0 41.26c0,2.78 -2.27,5.05 -5.05,5.05l-60.76 0c-2.78,0 -5.05,-2.27 -5.05,-5.05l0 -41.26c0,-2.78 2.27,-5.05 5.05,-5.05zm81.32 0l60.76 0c2.78,0 5.05,2.27 5.05,5.05l0 41.26c0,2.78 -2.27,5.05 -5.05,5.05l-60.76 0c-2.78,0 -5.05,-2.27 -5.05,-5.05l0 -41.26c0,-2.78 2.27,-5.05 5.05,-5.05zm-66.8 45.48c9.61,0 15.62,-8.77 15.62,-19.23 0,-10.56 -5.96,-19.23 -15.52,-19.23 -9.56,0 -15.62,8.77 -15.62,19.23 0,10.57 5.91,19.23 15.52,19.23zm0.09 -9.09c-3.75,0 -6.25,-4.22 -6.25,-10.14 0,-6.02 2.45,-10.14 6.15,-10.14 3.7,0 6.25,4.28 6.25,10.14 0,5.97 -2.4,10.14 -6.15,10.14zm32.63 8.98c8.07,0 13.84,-4.28 13.84,-10.89 0,-4.7 -2.35,-7.18 -5.77,-8.93 2.6,-1.58 4.62,-4.02 4.62,-8.03 0,-6.02 -5.14,-10.41 -12.69,-10.41 -7.55,0 -12.69,4.39 -12.69,10.3 0,4.12 2.02,6.55 4.62,8.14 -3.61,1.69 -5.77,4.39 -5.77,8.88 0,6.55 5.77,10.94 13.84,10.94l0 0zm0 -7.66c-3.13,0 -4.86,-1.96 -4.86,-4.17 0,-2.48 2.02,-4.12 4.86,-4.12 2.83,0 4.85,1.64 4.85,4.02 0,2.32 -1.73,4.28 -4.85,4.28zm0 -14.95c-2.5,0 -4.13,-1.74 -4.13,-4.07 0,-2.16 1.58,-3.96 4.13,-3.96 2.55,0 4.13,1.85 4.13,3.91 0,2.43 -1.63,4.12 -4.13,4.12l0 0zm47.78 22.72c8.97,0 14.58,-8.77 14.58,-19.23 0,-10.56 -5.56,-19.23 -14.49,-19.23 -8.93,0 -14.58,8.77 -14.58,19.23 0,10.57 5.52,19.23 14.49,19.23zm0.09 -9.09c-3.5,0 -5.83,-4.22 -5.83,-10.14 0,-6.02 2.29,-10.14 5.74,-10.14 3.45,0 5.83,4.28 5.83,10.14 0,5.97 -2.24,10.14 -5.74,10.14zm32.65 9.09c8.97,0 14.57,-8.77 14.57,-19.23 0,-10.56 -5.56,-19.23 -14.49,-19.23 -8.92,0 -14.57,8.77 -14.57,19.23 0,10.57 5.52,19.23 14.49,19.23zm0.09 -9.09c-3.5,0 -5.83,-4.22 -5.83,-10.14 0,-6.02 2.28,-10.14 5.74,-10.14 3.45,0 5.83,4.28 5.83,10.14 0,5.97 -2.24,10.14 -5.74,10.14zm-56.76 -23.09c1.82,0 3.29,1.47 3.29,3.29 0,1.82 -1.47,3.29 -3.29,3.29 -1.82,0 -3.29,-1.47 -3.29,-3.29 0,-1.82 1.47,-3.29 3.29,-3.29zm0 18.92c1.82,0 3.29,1.47 3.29,3.29 0,1.82 -1.47,3.29 -3.29,3.29 -1.82,0 -3.29,-1.47 -3.29,-3.29 0,-1.82 1.47,-3.29 3.29,-3.29z"/>
  </g>
  <path class="fil4" d="M218.47 0l851.55 0 0 446.92 -851.55 0 0 -446.92zm31.55 415.37l788.45 0 0 -383.82 -788.45 0 0 383.82z"/>
 </g>
</svg>
