<?xml version="1.0" encoding="UTF-8"?>
<!DOCTYPE svg PUBLIC "-//W3C//DTD SVG 1.0//EN" "http://www.w3.org/TR/2001/REC-SVG-20010904/DTD/svg10.dtd">
<!-- Creator: CorelDRAW 2021 (64-Bit) -->
<svg xmlns="http://www.w3.org/2000/svg" xml:space="preserve" width="0.778228in" height="0.924335in" version="1.0" style="shape-rendering:geometricPrecision; text-rendering:geometricPrecision; image-rendering:optimizeQuality; fill-rule:evenodd; clip-rule:evenodd"
viewBox="0 0 197.55 234.63"
 xmlns:xlink="http://www.w3.org/1999/xlink"
 xmlns:xodm="http://www.corel.com/coreldraw/odm/2003">
 <defs>
  <style type="text/css">
   <![CDATA[
    .fil0 {fill:#016189}
    .fil1 {fill:#777777}
    .fil3 {fill:#B8B8B8}
    .fil2 {fill:#F6F6F6}
   ]]>
  </style>
 </defs>
 <g id="Layer_x0020_1">
  <metadata id="CorelCorpID_0Corel-Layer"/>
  <path class="fil0" d="M34.24 178.82c0.29,11.25 16.56,8.59 26.4,8.57 1.12,13.49 -2.21,33.54 2.65,41.2 6.45,10.17 23.61,7.15 25.1,-6.23l0.2 -35.08 20.53 0.07 -0 34.17c0.82,16.85 25.68,17.44 27.55,0.67l0.16 -34.92 18.23 -0.02c4.28,-0.53 8.02,-3.68 8.15,-8.01l0.1 -99.86 -128.97 0.09 -0.09 99.34z"/>
  <path class="fil0" d="M126.84 39.21c6.56,-2.39 10.13,8.28 3.15,10.25 -6.81,1.92 -10.07,-7.73 -3.15,-10.25zm-59.11 0.04c7.18,-2.25 9.24,8.62 3.13,10.24 -6.92,1.83 -10.1,-8.05 -3.13,-10.24zm70.35 -39.25l-11.85 20.03c-11.07,-3.42 -13.05,-5.9 -27.99,-5.9 -15.2,-0 -18.24,3.63 -27.74,6.19l-8.36 -16.8c-0.86,-1.64 -1.62,-4.25 -3.92,-3.16 -3.11,1.49 1.74,8.79 2.97,11.02 1.88,3.42 3.74,7.17 5.46,10.75 -0.3,0.34 -0.22,0.28 -0.75,0.71 -0.22,0.18 -0.64,0.47 -0.85,0.61 -8.1,5.39 -14.85,10.88 -20.31,19.13 -5.83,8.82 -9.75,17.45 -11.33,30.31l130.72 -0.14c-1.51,-11.81 -5.77,-22.75 -11.59,-30.51 -5.42,-7.23 -13.78,-16.44 -22.26,-19.96 2.1,-6.58 12.11,-17.42 10.53,-22.08l-2.75 -0.2z"/>
  <path class="fil0" d="M0.4 153.23c1.07,7.1 8.13,13.19 16.61,11.42 10.56,-2.21 10.97,-11.14 11,-18.32 0.03,-9.69 -0.02,-19.39 -0.01,-29.08 0.01,-7.84 0.84,-21.97 -0.15,-29.09 -1.86,-13.4 -19.3,-15.81 -25.62,-5.34 -2.16,3.57 -2.01,7.53 -2.05,12.25 -0.07,8.4 -0.48,53.5 0.22,58.16z"/>
  <path class="fil0" d="M169.58 152.74c1.33,11.38 16.15,17.8 25.35,5.99 2.48,-3.19 2.41,-7.55 2.36,-11.9 -0.1,-9.68 0.01,-19.4 0.01,-29.08 -0,-8.88 0.62,-20.5 -0.1,-29.05 -0.64,-7.64 -7.96,-13.87 -16.88,-12.03 -8.66,1.79 -10.84,8 -10.87,17.92 -0.03,8.92 -0.46,53.15 0.13,58.16z"/>
  <path class="fil1" d="M34.24 178.82l0.09 -99.34 128.97 -0.09 -0.1 99.86c1.43,-2.02 0.55,-43.83 0.59,-50.16 0.04,-7.86 0.35,-45.33 -0.16,-50.19l-129.72 0.1c-0.52,16.08 -0.43,33.96 -0.14,50.09 0.12,6.59 -0.8,47.48 0.46,49.73z"/>
  <path class="fil2" d="M126.84 39.21c-6.93,2.52 -3.67,12.17 3.15,10.25 6.98,-1.97 3.41,-12.64 -3.15,-10.25z"/>
  <path class="fil2" d="M67.73 39.25c-6.98,2.19 -3.79,12.07 3.13,10.24 6.12,-1.62 4.05,-12.5 -3.13,-10.24z"/>
  <path class="fil3" d="M88.4 222.35c1.57,-2.8 0.66,-29.09 0.66,-34.59l19.83 -0.01c0,5.1 -0.72,31.17 0.25,33.77l0 -34.17 -20.53 -0.07 -0.2 35.08z"/>
  <path class="fil3" d="M136.67 222.2c0.89,-1.05 0.71,-30.59 0.69,-34.42 4.27,-0.05 14.74,0.31 16.98,-0.17 0.1,-0.02 0.3,-0.01 0.37,-0.16 0.07,-0.15 0.23,-0.13 0.35,-0.19l-18.23 0.02 -0.16 34.92z"/>
 </g>
</svg>
