<?xml version="1.0" encoding="UTF-8"?>
<!DOCTYPE svg PUBLIC "-//W3C//DTD SVG 1.0//EN" "http://www.w3.org/TR/2001/REC-SVG-20010904/DTD/svg10.dtd">
<!-- Creator: CorelDRAW 2021 (64-Bit) -->
<svg xmlns="http://www.w3.org/2000/svg" xml:space="preserve" width="0.75428in" height="0.919807in" version="1.0" style="shape-rendering:geometricPrecision; text-rendering:geometricPrecision; image-rendering:optimizeQuality; fill-rule:evenodd; clip-rule:evenodd"
viewBox="0 0 1001.57 1221.36"
 xmlns:xlink="http://www.w3.org/1999/xlink"
 xmlns:xodm="http://www.corel.com/coreldraw/odm/2003">
 <defs>
  <style type="text/css">
   <![CDATA[
    .fil0 {fill:#016189}
   ]]>
  </style>
 </defs>
 <g id="Layer_x0020_1">
  <metadata id="CorelCorpID_0Corel-Layer"/>
  <path class="fil0" d="M842.35 641.74c-0.18,-75.62 32.57,-144.43 81.53,-190.38l37.78 -28.66c1.07,-0.63 6.98,-3.94 7.59,-4.36 4.79,-3.36 1.43,0.63 5.39,-4.85 -2.68,-11.12 -12.45,-18.58 -19.78,-26.06 -67.57,-68.93 -115.73,-91.2 -223.39,-91.2 -91.49,0 -125.95,26.02 -186.79,46.36 -6.58,2.2 -20.05,7.21 -25.32,8.23 -23.22,4.5 -72.81,-19.2 -101.37,-30.59 -73.21,-29.19 -178.83,-27.78 -245.55,12.07 -83.49,49.87 -126.47,88.63 -153.78,174.94 -0.2,0.63 -0.45,1.19 -0.63,1.85l-12.7 68.34c-1.36,58.55 -8.21,74.63 -3.97,140.44l22.18 148.8c11.27,41.28 15.11,54.65 33.73,94.75 9.93,21.4 17.52,38.62 29.31,56.44 36.38,54.99 62.8,94.02 116.22,138.41 28.48,23.66 60.65,53.32 109.7,61.2 60.82,9.78 89.13,-6.14 131.64,-28.66 105.14,-55.71 161.07,2.14 197.02,16.73 19,7.71 42.23,15.8 66.53,15.8 31.58,0 40.25,-7.18 61.61,-21.01 73.35,-47.47 143.1,-125.5 185.4,-202.39 8.97,-16.31 47.25,-87.38 46.86,-105.62 -5.04,-2.44 -13.9,-4.89 -18.99,-7.11 -60.86,-26.62 -111.07,-88.45 -128.49,-152.34 -12.94,-47.51 -11.61,-40.06 -11.74,-91.15z"/>
  <path class="fil0" d="M466.7 307.18c39.37,-3.8 86.48,-10.04 120.22,-28.78 32,-17.77 60.93,-38.6 85.19,-62.17 26.49,-25.75 45.52,-50.39 58.91,-87.95 10.73,-30.13 24.52,-91.09 21.44,-128.27 -52.61,0.38 -80.71,9.34 -118.92,27.59 -67.06,32.04 -110.39,88.3 -140.1,155.13 -8.9,20.01 -20.63,66.1 -21.93,90.6 -0.9,17.14 -5.54,19.42 -4.81,33.85z"/>
 </g>
</svg>
