<?xml version="1.0" encoding="UTF-8"?>
<!DOCTYPE svg PUBLIC "-//W3C//DTD SVG 1.0//EN" "http://www.w3.org/TR/2001/REC-SVG-20010904/DTD/svg10.dtd">
<!-- Creator: CorelDRAW 2021 (64-Bit) -->
<svg xmlns="http://www.w3.org/2000/svg" xml:space="preserve" width="0.939209in" height="0.938272in" version="1.0" style="shape-rendering:geometricPrecision; text-rendering:geometricPrecision; image-rendering:optimizeQuality; fill-rule:evenodd; clip-rule:evenodd"
viewBox="0 0 564.14 563.58"
 xmlns:xlink="http://www.w3.org/1999/xlink"
 xmlns:xodm="http://www.corel.com/coreldraw/odm/2003">
 <defs>
  <style type="text/css">
   <![CDATA[
    .fil0 {fill:#016189}
    .fil1 {fill:#4D4D50}
   ]]>
  </style>
 </defs>
 <g id="Layer_x0020_1">
  <metadata id="CorelCorpID_0Corel-Layer"/>
  <path class="fil0" d="M302.31 422.62l76.65 0.04c-4.19,16.97 -20.57,46.08 -28.97,57.75 -8.96,12.46 -29.39,34.5 -47.73,38.88l0.05 -92.64 -0 -4.04zm-40.57 96.54c-18.33,-5.06 -38.83,-25.7 -47.32,-38.88 -8.98,-13.95 -25.13,-38.81 -29.26,-57.68l76.84 -0.06 -0.26 96.62zm124.6 -19.87c1.29,-4.2 7.2,-12.38 10.09,-17.37 7.9,-13.68 22.39,-44.64 25.45,-59.23 14.71,-0.49 41.71,-0.7 55.83,0.74 -2.77,2.54 -15.42,23.24 -39.87,43.45l-24.69 17.66c-7.04,4.58 -19.1,11.94 -26.82,14.76zm-208.37 0.06c-16.35,-6.13 -39.91,-23.28 -51.42,-32.63 -10.19,-8.28 -23.78,-22 -31.74,-32.35 -1.77,-2.3 -7.34,-10.15 -8.29,-11.36l55.74 -0.18c7.61,32.83 33.99,71.52 35.71,76.52zm83.73 -197.26c1.66,3.13 1.18,4.27 1.18,9.08 0.01,14.79 1.58,63.86 -0.85,70.9 -5.07,3.12 -60.8,1.57 -68.45,1.53l-21.18 -1.24c-1.31,-0.96 -1.42,2.89 -1.22,-3.19 0.48,-5.77 -3.94,-24.01 -4.98,-31.47 -1.45,-10.37 -3.39,-22.07 -3.33,-32.61 -2.25,-3.91 -2.97,-7.8 -1.85,-12.9 4.3,-1.94 79.12,-2.23 95.53,-1.35l4.32 0.81c0.15,-0.27 0.54,0.28 0.82,0.43zm131.3 76.91l-1.2 3.29c-1.05,0.55 2.02,0.26 -3.1,1.2l-82.31 0.15c-8.27,-0.8 -2.23,-0.25 -4.33,-1.44 -1.86,-6.35 -0.76,-48.4 -0.65,-60.76 0.06,-6.5 -1.01,-15.3 1,-19.49 4.65,-2.23 44.83,-1 50.29,-1.04 9.34,-0.07 44.28,-1.36 50.49,1.29 0.95,4.61 1.18,5.86 -1.54,11.21 -0.06,9.8 -2.01,24.34 -3.53,33.98 -1.12,7.11 -5.53,26.41 -5.12,31.61zm-351.32 -77.2l79.9 0.49c1.09,30.6 5.52,51.7 9.41,80.02l-68.98 -0.06c-9.01,-28.38 -18.7,-44.2 -20.33,-80.45zm391.46 80.49c4.03,-28.12 8.41,-50.13 9.49,-80.43l80.03 -0.11c-0.69,14.98 -3.96,30.14 -7.55,43.31 -5.12,18.79 -8.97,24.66 -13.02,37.26l-68.95 -0.03zm-130.93 -201.02c3.43,-2.1 6.1,-1.52 10.71,-1.52 3.87,-0 7.68,0.02 11.55,0.07l66.32 0.78c0.19,-0.31 0.63,0.3 0.94,0.46 0.81,0.81 1.87,-3.07 1.48,3.76 -0.41,6.92 3.7,22.54 4.85,31.12 1.35,10.04 3.37,21.74 3.29,32.33 2.15,3.79 2.93,7.93 1.87,12.86 -6.09,2.74 -61.6,1.14 -76.18,1.22 -4.96,0.03 -20.26,1.14 -24.49,-1.11l-0.79 -1.7c-0.64,-2.59 -0.07,0.74 -0.39,-2.19 -0.13,-1.16 -0.03,-3.89 -0.02,-5.19 0.04,-14.9 -1.57,-63.78 0.87,-70.9zm-139.45 66.85c0.05,-9.57 2,-23.81 3.56,-33.38 1.09,-6.69 5.27,-25.39 4.9,-30.43 -0.07,-6.06 -0.08,-2.29 1.33,-3.19l85.31 -1.4c8.02,0.74 2.44,0.34 4.33,1.41 1.12,3.79 1.76,70.26 0.39,78.47l-0.74 1.79c-0.8,0.38 1.09,0.39 -2.84,0.97l-8.96 0c-16.73,-0.1 -82.67,1.47 -88.99,-1.22 -1.13,-5.12 -0.43,-8.96 1.7,-13.01zm339.47 -67.03c8.85,27.93 18.93,45.01 20.33,80.44l-79.85 -0.56c-1.15,-30.08 -5.68,-52.1 -9.45,-79.95l68.97 0.06zm-460.67 80.49c1.75,-35.4 11.57,-52.91 20.57,-80.4l68.96 -0.12c-4.06,28.01 -8.39,49.51 -9.54,80.22l-79.98 0.31zm260.91 -217.45c19.94,5.01 37.26,24.97 47.37,38.91 8.89,12.25 24.8,40.33 29.25,57.7l-76.84 0.06 0.23 -96.67zm-117.19 96.54c4.21,-17.24 20.44,-45.84 29.2,-57.53 9.92,-13.25 27.81,-34.07 47.5,-39.06l-0.04 96.68 -76.65 -0.08zm-137.6 -15.12c-1.72,1.36 0.83,-0.65 0,0zm430.01 14.32c-6.73,1.98 -46.43,1.14 -55.71,0.64 -3.43,-14.69 -17.4,-45.37 -25.48,-59.17 -2.85,-4.88 -8.68,-12.79 -10.25,-17.37 17.13,6.12 38.64,22.88 51.09,32.95 8.23,6.65 14.81,13.47 21.67,20.69 3.9,4.1 6.64,7.81 10.17,11.65 3.41,3.72 7.38,9.69 8.5,10.61zm-391.19 0.07c11.32,-11.12 10.22,-17.17 40.04,-43.4 9.51,-8.37 37.09,-27.37 51.37,-32.53 -1.45,4.38 -28.16,44.24 -35.59,76.69l-55.83 -0.77zm-39.4 -13.79c-1.82,2.11 -9.91,16.19 -12.53,20.91 -13.51,24.35 -22.15,48.4 -28.29,76.9 -42.76,198.47 138.91,382.68 346.07,330.72 38.67,-9.7 69.48,-26.75 95.6,-45.56 88.85,-63.96 137.51,-182.37 107.11,-297.7 -45.18,-171.4 -231.19,-260.12 -394.87,-183.88 -38.39,17.88 -73.46,46.9 -98.35,78.73 -5.34,6.82 -9.43,13.69 -14.74,19.88z"/>
  <path class="fil1" d="M162.89 315.09l-0.81 -12.9 99.64 -0.1 0.33 79.97 -89.63 0.29c0.32,-4.81 0.51,-2.24 -1.22,-3.19 -0.2,6.08 -0.09,2.23 1.22,3.19l21.18 1.24c7.65,0.04 63.38,1.59 68.45,-1.53 2.42,-7.04 0.86,-56.11 0.85,-70.9 -0,-4.8 0.48,-5.95 -1.18,-9.08 -0.27,-0.15 -0.66,-0.7 -0.82,-0.43l-4.32 -0.81c-16.41,-0.89 -91.23,-0.59 -95.53,1.35 -1.12,5.09 -0.4,8.99 1.85,12.9z"/>
  <path class="fil1" d="M302.06 382.2c2.1,1.19 -3.94,0.64 4.33,1.44l82.31 -0.15c5.12,-0.94 2.06,-0.66 3.1,-1.2l1.2 -3.29c-1.71,1.05 -1.63,-2.12 -1.2,3.29l-89.74 -0.08 0.35 -80.26 99.54 0.34 -0.3 11.12c2.72,-5.35 2.49,-6.6 1.54,-11.21 -6.21,-2.64 -41.15,-1.36 -50.49,-1.29 -5.46,0.04 -45.64,-1.18 -50.29,1.04 -2.01,4.2 -0.93,12.99 -1,19.49 -0.12,12.36 -1.22,54.41 0.65,60.76z"/>
  <path class="fil1" d="M302.55 261.24c4.23,2.25 19.53,1.14 24.49,1.11 14.59,-0.08 70.09,1.52 76.18,-1.22 1.06,-4.94 0.28,-9.07 -1.87,-12.86l0.82 12.86 -99.63 0.11 -0.33 -79.97 89.52 -0.21c-0.04,1.98 -1.13,3.76 1.48,3.76 0.39,-6.83 -0.67,-2.95 -1.48,-3.76 -0.31,-0.16 -0.75,-0.76 -0.94,-0.46l-66.32 -0.78c-3.86,-0.05 -7.68,-0.08 -11.55,-0.07 -4.61,0 -7.28,-0.58 -10.71,1.52 -2.44,7.12 -0.83,56 -0.87,70.9 -0,1.3 -0.1,4.03 0.02,5.19 0.32,2.93 -0.25,-0.41 0.39,2.19l0.79 1.7z"/>
  <path class="fil1" d="M171.23 184.31c1.86,-1.03 1.73,1.71 1.33,-3.19l89.64 0 -0.35 80.26 -99.61 -0.33 0.53 -12.93c-2.13,4.05 -2.83,7.9 -1.7,13.01 6.31,2.69 72.26,1.11 88.99,1.22l8.96 0c3.93,-0.58 2.04,-0.59 2.84,-0.97l0.74 -1.79c1.37,-8.21 0.73,-74.68 -0.39,-78.47 -1.89,-1.07 3.69,-0.67 -4.33,-1.41l-85.31 1.4c-1.4,0.89 -1.4,-2.87 -1.33,3.19z"/>
 </g>
</svg>
