<?xml version="1.0" encoding="UTF-8"?>
<!DOCTYPE svg PUBLIC "-//W3C//DTD SVG 1.0//EN" "http://www.w3.org/TR/2001/REC-SVG-20010904/DTD/svg10.dtd">
<!-- Creator: CorelDRAW 2021 (64-Bit) -->
<svg xmlns="http://www.w3.org/2000/svg" xml:space="preserve" width="0.848783in" height="0.839256in" version="1.0" style="shape-rendering:geometricPrecision; text-rendering:geometricPrecision; image-rendering:optimizeQuality; fill-rule:evenodd; clip-rule:evenodd"
viewBox="0 0 352.89 348.93"
 xmlns:xlink="http://www.w3.org/1999/xlink"
 xmlns:xodm="http://www.corel.com/coreldraw/odm/2003">
 <defs>
  <style type="text/css">
   <![CDATA[
    .str0 {stroke:#373435;stroke-width:2.89;stroke-miterlimit:2.61313}
    .fil0 {fill:#FEFEFE}
    .fil1 {fill:#8E0429}
    .fil2 {fill:#EDEDED}
   ]]>
  </style>
 </defs>
 <g id="Layer_x0020_1">
  <metadata id="CorelCorpID_0Corel-Layer"/>
  <circle class="fil0 str0" cx="176.45" cy="174.46" r="167.38"/>
  <path class="fil1" d="M251.39 316.54c-16.03,11.05 -52.64,18.72 -75.41,18.36 -15.8,-0.25 -26.86,-1.79 -41.61,-5.33 -7.96,-1.91 -27.72,-9.14 -32.99,-13.31l150.01 0.28zm-204.5 -46.18c-3.3,-2.74 -9.78,-13.4 -11.8,-16.89l-2.45 -4.81c-0.85,-1.65 -1.7,-3.06 -2.54,-4.7 -0.18,-0.35 -1.88,-4.07 -2.33,-5.12l-1.88 -4.53c-22.27,-54.12 -11.17,-109.07 16.4,-150.68 4.67,-7.05 9.69,-12.32 15.31,-18.77l7.47 -7.14c0.13,-0.11 0.31,-0.27 0.44,-0.38l1.73 -1.58c5.21,-5.25 16.58,-13.91 22.88,-17.57 0.16,-0.09 0.36,-0.21 0.52,-0.3l4.78 -2.61c0.72,-0.39 1.15,-0.62 2.13,-1.23 28.17,-17.4 70.08,-23.69 103.36,-18.63l22.69 4.98c19.66,6.36 39.72,16.28 55.25,29.1 53.23,43.94 74.96,114.6 49.33,182.12 -3.22,8.49 -13.58,29.64 -19.64,35.69 -3.78,-5.15 -7.32,-13.46 -15.07,-23.75 -6.22,-8.26 -9.98,-12.67 -18.53,-19.58 -4,-3.24 -7.29,-5.77 -11.27,-8.27 -20.23,-12.72 -13.01,-3.49 -36.3,6.79 -36.54,16.13 -73.45,13.72 -107.85,-6.32 -5.25,-3.06 -6.56,-4.76 -10.92,-7.83 -16.89,5.04 -24.82,14.13 -36.61,25.16 -8.87,8.3 -7.38,9.25 -13.63,17.25 -6.16,7.89 -8.71,17.1 -11.47,19.62zm116.17 -270.13c-24.08,0.84 -47.89,9.51 -68.42,19.55 -4.73,2.31 -9.76,4.82 -13.96,8.03l-24.68 19.22 -15.99 16.45c-12.52,17.35 -19.03,24.19 -28.49,48.66 -8.85,22.89 -13.16,50.62 -10.95,75.33 2.48,27.77 9.38,47.63 19.69,67.87 3.58,7.02 12.48,20.71 17.3,26.74l10.13 11.75c11.99,14.34 43.94,36.09 65.89,43.6 29.12,9.97 63.41,15.14 95.43,8.55l48.39 -16.41 27.57 -17.86c15.65,-12.02 19.67,-17.39 30.38,-29.71l1.06 -1.4c0.38,-0.54 0.9,-1.37 1.27,-1.93 12.55,-18.42 15.69,-22.38 23.51,-42.18 18.28,-46.27 14.94,-100.68 -8.66,-143.29 -6.19,-11.17 -6.4,-10.39 -12.42,-19.85 -0.1,-0.16 -0.22,-0.37 -0.32,-0.53 -0.1,-0.16 -0.22,-0.36 -0.33,-0.52l-1.71 -2.43c-0.82,-1.09 -1.65,-2.08 -2.5,-3.18 -18.51,-23.9 -46.53,-44.51 -75.91,-55.6 -25.84,-9.75 -46.91,-11.89 -76.29,-10.87z"/>
  <path class="fil1" d="M170.37 35.18c-23.27,1.85 -45.71,16.6 -55.7,29.11 -6.07,7.59 -11.98,17.58 -15.15,26.99 -8.37,24.89 -6.2,46.67 5.76,69.3 15.21,28.78 49.76,47.67 83.2,43.37 13.68,-1.76 21.94,-4.57 32.07,-10.25 2.38,-1.34 5.31,-2.86 6.76,-3.88 4.88,-3.44 10.98,-8.85 14.82,-13.58 0.67,-0.82 0.82,-1.01 1.45,-1.72l12.58 -19.11c12.87,-26.25 9.64,-59.19 -6.79,-83.67 -1.64,-2.45 -2.95,-4.01 -4.44,-6.18 -6.11,-8.88 -24.49,-21.6 -37.13,-26.04 -12.37,-4.34 -23.64,-5.44 -37.42,-4.35z"/>
  <path class="fil2" d="M251.39 316.54l-150.01 -0.28c5.26,4.17 25.03,11.39 32.99,13.31 14.75,3.54 25.81,5.08 41.61,5.33 22.78,0.37 59.38,-7.31 75.41,-18.36z"/>
 </g>
</svg>
