<?xml version="1.0" encoding="UTF-8"?>
<!DOCTYPE svg PUBLIC "-//W3C//DTD SVG 1.0//EN" "http://www.w3.org/TR/2001/REC-SVG-20010904/DTD/svg10.dtd">
<!-- Creator: CorelDRAW 2021 (64-Bit) -->
<svg xmlns="http://www.w3.org/2000/svg" xml:space="preserve" width="4.2975in" height="4.30091in" version="1.0" style="shape-rendering:geometricPrecision; text-rendering:geometricPrecision; image-rendering:optimizeQuality; fill-rule:evenodd; clip-rule:evenodd"
viewBox="0 0 392.05 392.36"
 xmlns:xlink="http://www.w3.org/1999/xlink"
 xmlns:xodm="http://www.corel.com/coreldraw/odm/2003">
 <defs>
  <style type="text/css">
   <![CDATA[
    .fil0 {fill:#157CC3}
    .fil3 {fill:#5DA5D5}
    .fil2 {fill:#A9CFE9}
    .fil1 {fill:#FEFEFF}
   ]]>
  </style>
 </defs>
 <g id="Layer_x0020_1">
  <metadata id="CorelCorpID_0Corel-Layer"/>
  <path class="fil0" d="M209.27 392.17l-0.1 -150.98 -51.01 -0.61c-0.92,-9.73 0.01,-39.01 -0.19,-52.8 -0.11,-7.87 -0.12,-5.56 1.3,-6.19l50 -0.15c0,-41.2 -3.81,-76.82 20.76,-101.33 9.22,-9.19 23.45,-16.84 41.6,-19.36 15,-2.08 43.37,-0.74 58.46,1.36 1.45,1.05 0.6,-1.11 1.24,2.07l-0.01 43.59c0.03,6.12 1.65,7.95 -3.83,8.05l-34.03 0.17c-6.34,-0.88 -12.71,2.37 -16.25,5.74 -11.06,10.56 -7.02,40.03 -7.02,59.81l58.48 0.03 -8 59.08 -50.48 0 0 151.51c31.22,0 62.44,-0.01 93.65,0 10.11,0 12.97,0.41 19.04,-3.94 4.18,-2.99 8.16,-8.55 8.68,-15.09 1.1,-13.91 0.01,-33.04 0.01,-47.52l0 -281.22c0,-16.18 2.89,-30.5 -7.78,-38.96 -6.01,-4.76 -8.88,-4.62 -19.15,-4.61l-305.78 0c-26.24,0 -49.13,-5.83 -57.3,13.2 -2.38,5.55 -1.32,15.14 -1.32,22.45l0 328.75c-0.01,9.31 0.02,14.09 4.54,19.22 3.73,4.24 8.29,7.7 16.02,7.75 62.77,0.36 125.68,-0.04 188.47,-0.04z"/>
  <path class="fil1" d="M159.27 181.6c-1.07,5.08 -0.44,49.73 -0.44,58.71l45.01 -0.02c6.48,-0.06 4.32,0.11 5.32,0.9l0.1 150.98 60.92 0 0 -151.51 50.48 0 8 -59.08 -58.48 -0.03c0,-19.77 -4.04,-49.25 7.02,-59.81 3.54,-3.38 9.9,-6.62 16.25,-5.74l37.26 -0.98c-1,-12.91 1.8,-42.97 -0.64,-52.9 -15.08,-2.1 -43.45,-3.44 -58.46,-1.36 -18.15,2.52 -32.38,10.16 -41.6,19.36 -24.57,24.51 -20.76,60.13 -20.76,101.33l-50 0.15z"/>
  <path class="fil2" d="M209.16 241.2c-1,-0.79 1.16,-0.96 -5.32,-0.9l-45.01 0.02c0,-8.98 -0.63,-53.63 0.44,-58.71 -1.42,0.63 -1.41,-1.68 -1.3,6.19 0.2,13.8 -0.73,43.07 0.19,52.8l51.01 0.61z"/>
  <path class="fil3" d="M293.45 116.01l34.03 -0.17c5.48,-0.1 3.85,-1.93 3.83,-8.05l0.01 -43.59c-0.63,-3.18 0.22,-1.02 -1.24,-2.07 2.43,9.93 -0.36,39.99 0.64,52.9l-37.26 0.98z"/>
 </g>
</svg>
