<?xml version="1.0" encoding="UTF-8"?>
<!DOCTYPE svg PUBLIC "-//W3C//DTD SVG 1.0//EN" "http://www.w3.org/TR/2001/REC-SVG-20010904/DTD/svg10.dtd">
<!-- Creator: CorelDRAW 2021 (64-Bit) -->
<svg xmlns="http://www.w3.org/2000/svg" xml:space="preserve" width="1.13399in" height="1.10602in" version="1.0" style="shape-rendering:geometricPrecision; text-rendering:geometricPrecision; image-rendering:optimizeQuality; fill-rule:evenodd; clip-rule:evenodd"
viewBox="0 0 91.18 88.94"
 xmlns:xlink="http://www.w3.org/1999/xlink"
 xmlns:xodm="http://www.corel.com/coreldraw/odm/2003">
 <defs>
  <style type="text/css">
   <![CDATA[
    .fil0 {fill:#006189}
   ]]>
  </style>
 </defs>
 <g id="Layer_x0020_1">
  <metadata id="CorelCorpID_0Corel-Layer"/>
  <path id="github.svg" class="fil0" d="M45.59 0c-25.19,0 -45.59,20.4 -45.59,45.59 0,20.17 13.05,37.21 31.17,43.26 2.28,0.4 3.13,-0.97 3.13,-2.17 0,-1.08 -0.06,-4.67 -0.06,-8.49 -11.46,2.11 -14.42,-2.79 -15.33,-5.36 -0.51,-1.31 -2.74,-5.36 -4.67,-6.44 -1.6,-0.86 -3.88,-2.96 -0.06,-3.02 3.59,-0.06 6.15,3.31 7.01,4.67 4.1,6.9 10.66,4.96 13.28,3.76 0.4,-2.96 1.6,-4.96 2.91,-6.1 -10.14,-1.14 -20.74,-5.07 -20.74,-22.51 0,-4.96 1.77,-9.06 4.67,-12.25 -0.46,-1.14 -2.05,-5.81 0.46,-12.08 0,0 3.82,-1.2 12.54,4.67 3.65,-1.03 7.52,-1.54 11.4,-1.54 3.88,0 7.75,0.51 11.4,1.54 8.72,-5.93 12.54,-4.67 12.54,-4.67 2.51,6.27 0.91,10.94 0.46,12.08 2.91,3.19 4.67,7.24 4.67,12.25 0,17.5 -10.66,21.37 -20.8,22.51 1.65,1.42 3.08,4.16 3.08,8.43 0,6.1 -0.06,11 -0.06,12.54 0,1.2 0.85,2.62 3.13,2.17 18.01,-6.04 31.06,-23.14 31.06,-43.26 0,-25.19 -20.4,-45.59 -45.59,-45.59z"/>
 </g>
</svg>
