<?xml version="1.0" encoding="UTF-8"?>
<!DOCTYPE svg PUBLIC "-//W3C//DTD SVG 1.0//EN" "http://www.w3.org/TR/2001/REC-SVG-20010904/DTD/svg10.dtd">
<!-- Creator: CorelDRAW 2021 (64-Bit) -->
<svg xmlns="http://www.w3.org/2000/svg" xml:space="preserve" width="1.36349in" height="1.25601in" version="1.0" style="shape-rendering:geometricPrecision; text-rendering:geometricPrecision; image-rendering:optimizeQuality; fill-rule:evenodd; clip-rule:evenodd"
viewBox="0 0 172.26 158.68"
 xmlns:xlink="http://www.w3.org/1999/xlink"
 xmlns:xodm="http://www.corel.com/coreldraw/odm/2003">
 <defs>
  <style type="text/css">
   <![CDATA[
    .fil0 {fill:#006189;fill-rule:nonzero}
    .fil1 {fill:#166E94;fill-rule:nonzero}
    .fil2 {fill:#65A6C2;fill-rule:nonzero}
   ]]>
  </style>
 </defs>
 <g id="Layer_x0020_1">
  <metadata id="CorelCorpID_0Corel-Layer"/>
  <path class="fil0" d="M86.13 158.68l31.72 -97.62 -63.44 0 31.72 97.62 0 0z"/>
  <path class="fil1" d="M86.13 158.68l-31.72 -97.62 -44.45 0 76.17 97.62z"/>
  <path class="fil2" d="M9.96 61.06l-9.64 29.67c-0.21,0.65 -0.32,1.34 -0.32,2.03 0,2.1 1.01,4.08 2.71,5.31l83.42 60.61 -76.17 -97.62 0 -0z"/>
  <path class="fil0" d="M9.96 61.06l44.45 0 -19.1 -58.79c-0.98,-3.03 -5.26,-3.02 -6.25,0l-19.1 58.79z"/>
  <path class="fil1" d="M86.13 158.68l31.72 -97.62 44.45 0 -76.17 97.62 0 0z"/>
  <path class="fil2" d="M162.3 61.06l9.64 29.67c0.21,0.65 0.32,1.34 0.32,2.03 0,2.1 -1.01,4.08 -2.71,5.31l-83.42 60.61 76.17 -97.62 0 -0z"/>
  <path class="fil0" d="M162.3 61.06l-44.45 0 19.1 -58.79c0.98,-3.03 5.26,-3.02 6.25,0l19.1 58.79 0 0z"/>
 </g>
</svg>
