<?xml version="1.0" encoding="UTF-8"?>
<!DOCTYPE svg PUBLIC "-//W3C//DTD SVG 1.0//EN" "http://www.w3.org/TR/2001/REC-SVG-20010904/DTD/svg10.dtd">
<!-- Creator: CorelDRAW 2021 (64-Bit) -->
<svg xmlns="http://www.w3.org/2000/svg" xml:space="preserve" width="4.35443in" height="4.35443in" version="1.0" style="shape-rendering:geometricPrecision; text-rendering:geometricPrecision; image-rendering:optimizeQuality; fill-rule:evenodd; clip-rule:evenodd"
viewBox="0 0 327.22 327.22"
 xmlns:xlink="http://www.w3.org/1999/xlink"
 xmlns:xodm="http://www.corel.com/coreldraw/odm/2003">
 <defs>
  <style type="text/css">
   <![CDATA[
    .fil2 {fill:white;fill-rule:nonzero}
    .fil1 {fill:url(#id0);fill-rule:nonzero}
    .fil0 {fill:url(#id1);fill-rule:nonzero}
   ]]>
  </style>
  <radialGradient id="id0" gradientUnits="userSpaceOnUse" gradientTransform="matrix(2.23437 -0 -0 2.23437 -279 -380)" cx="225.78" cy="307.58" r="1316.89" fx="225.78" fy="307.58">
   <stop offset="0" style="stop-opacity:1; stop-color:#8C3AAA"/>
   <stop offset="0.639216" style="stop-opacity:0; stop-color:#8C3AAA"/>
   <stop offset="1" style="stop-opacity:1; stop-color:#8C3AAA"/>
  </radialGradient>
  <radialGradient id="id1" gradientUnits="userSpaceOnUse" gradientTransform="matrix(2.53871 -0 -0 2.53871 -35 -488)" cx="22.91" cy="317.4" r="1316.89" fx="22.91" fy="317.4">
   <stop offset="0" style="stop-opacity:1; stop-color:#FA8F21"/>
   <stop offset="0.0901961" style="stop-opacity:1; stop-color:#FA8F21"/>
   <stop offset="0.780392" style="stop-opacity:1; stop-color:#D82D7E"/>
   <stop offset="1" style="stop-opacity:1; stop-color:#D82D7E"/>
  </radialGradient>
 </defs>
 <g id="Layer_x0020_1">
  <metadata id="CorelCorpID_0Corel-Layer"/>
  <path class="fil0" d="M82.97 326.06c-19.46,-0.88 -30.03,-4.12 -37.06,-6.87 -9.32,-3.63 -15.96,-7.95 -22.95,-14.93 -6.99,-6.98 -11.32,-13.62 -14.93,-22.94 -2.74,-7.03 -5.98,-17.6 -6.87,-37.06 -0.97,-21.04 -1.17,-27.35 -1.17,-80.64 0,-53.29 0.21,-59.59 1.16,-80.65 0.88,-19.46 4.14,-30.01 6.87,-37.06 3.63,-9.32 7.96,-15.96 14.93,-22.96 6.98,-6.98 13.62,-11.32 22.95,-14.93 7.03,-2.74 17.6,-5.98 37.06,-6.87 21.04,-0.96 27.37,-1.16 80.64,-1.16 53.29,0 59.59,0.21 80.65,1.16 19.46,0.88 30.01,4.14 37.06,6.87 9.32,3.61 15.96,7.95 22.95,14.93 6.99,6.98 11.3,13.63 14.93,22.95 2.74,7.03 5.98,17.6 6.87,37.06 0.96,21.05 1.16,27.36 1.16,80.65 0,53.27 -0.19,59.59 -1.16,80.65 -0.88,19.46 -4.14,30.03 -6.87,37.06 -3.63,9.32 -7.95,15.96 -14.93,22.94 -6.98,6.98 -13.63,11.3 -22.95,14.93 -7.03,2.74 -17.6,5.98 -37.06,6.87 -21.04,0.96 -27.36,1.16 -80.65,1.16 -53.27,0 -59.59,-0.18 -80.63,-1.16m0 0l0 0 0 0z"/>
  <path class="fil1" d="M82.97 326.06c-19.46,-0.88 -30.03,-4.12 -37.06,-6.87 -9.32,-3.63 -15.96,-7.95 -22.95,-14.93 -6.99,-6.98 -11.32,-13.62 -14.93,-22.94 -2.74,-7.03 -5.98,-17.6 -6.87,-37.06 -0.97,-21.04 -1.17,-27.35 -1.17,-80.64 0,-53.29 0.21,-59.59 1.16,-80.65 0.88,-19.46 4.14,-30.01 6.87,-37.06 3.63,-9.32 7.96,-15.96 14.93,-22.96 6.98,-6.98 13.62,-11.32 22.95,-14.93 7.03,-2.74 17.6,-5.98 37.06,-6.87 21.04,-0.96 27.37,-1.16 80.64,-1.16 53.29,0 59.59,0.21 80.65,1.16 19.46,0.88 30.01,4.14 37.06,6.87 9.32,3.61 15.96,7.95 22.95,14.93 6.99,6.98 11.3,13.63 14.93,22.95 2.74,7.03 5.98,17.6 6.87,37.06 0.96,21.05 1.16,27.36 1.16,80.65 0,53.27 -0.19,59.59 -1.16,80.65 -0.88,19.46 -4.14,30.03 -6.87,37.06 -3.63,9.32 -7.95,15.96 -14.93,22.94 -6.98,6.98 -13.63,11.3 -22.95,14.93 -7.03,2.74 -17.6,5.98 -37.06,6.87 -21.04,0.96 -27.36,1.16 -80.65,1.16 -53.27,0 -59.59,-0.18 -80.63,-1.16m0 0l0 0 0 0z"/>
  <g>
   <path class="fil2" d="M123.43 164.31c0,-22.38 18.14,-40.52 40.51,-40.52 22.38,0 40.52,18.15 40.52,40.52 0,22.38 -18.15,40.52 -40.52,40.52 -22.38,0 -40.51,-18.15 -40.51,-40.52l0 0zm-21.91 0c0,34.47 27.95,62.42 62.42,62.42 34.47,0 62.42,-27.95 62.42,-62.42 0,-34.47 -27.95,-62.42 -62.42,-62.42 -34.48,0 -62.42,27.94 -62.42,62.42l-0 0zm112.73 -64.9c0,0 0,0 0,0.01 0,8.06 6.53,14.59 14.59,14.59 8.06,0 14.59,-6.53 14.59,-14.59 0,-8.05 -6.53,-14.59 -14.58,-14.59l-0.01 0c-8.05,0 -14.58,6.53 -14.59,14.58l0 -0zm-99.42 163.85c-11.85,-0.54 -18.29,-2.51 -22.57,-4.18 -5.68,-2.21 -9.72,-4.84 -13.98,-9.09 -4.26,-4.25 -6.89,-8.3 -9.09,-13.97 -1.67,-4.28 -3.64,-10.72 -4.18,-22.57 -0.59,-12.81 -0.71,-16.66 -0.71,-49.13 0,-32.46 0.13,-36.3 0.71,-49.13 0.54,-11.85 2.53,-18.28 4.18,-22.57 2.21,-5.68 4.84,-9.73 9.09,-13.98 4.25,-4.26 8.3,-6.89 13.98,-9.09 4.28,-1.67 10.72,-3.64 22.57,-4.18 12.81,-0.59 16.66,-0.71 49.11,-0.71 32.45,0 36.3,0.13 49.13,0.71 11.85,0.54 18.28,2.53 22.57,4.18 5.68,2.2 9.73,4.84 13.98,9.09 4.26,4.25 6.88,8.31 9.09,13.98 1.67,4.28 3.64,10.72 4.18,22.57 0.59,12.82 0.71,16.66 0.71,49.13 0,32.46 -0.12,36.3 -0.71,49.13 -0.54,11.85 -2.52,18.29 -4.18,22.57 -2.21,5.68 -4.84,9.72 -9.09,13.97 -4.25,4.25 -8.31,6.88 -13.98,9.09 -4.28,1.67 -10.72,3.64 -22.57,4.18 -12.81,0.59 -16.66,0.71 -49.13,0.71 -32.46,0 -36.3,-0.12 -49.11,-0.71l0 -0zm-1.01 -219.78c-12.94,0.59 -21.78,2.64 -29.51,5.65 -7.99,3.1 -14.77,7.27 -21.53,14.02 -6.77,6.76 -10.92,13.53 -14.02,21.53 -3,7.73 -5.06,16.57 -5.65,29.51 -0.6,12.96 -0.74,17.11 -0.74,50.12 0,33.01 0.14,37.16 0.74,50.12 0.59,12.94 2.64,21.78 5.65,29.51 3.1,7.99 7.26,14.78 14.02,21.53 6.76,6.75 13.53,10.91 21.53,14.02 7.74,3 16.57,5.06 29.51,5.65 12.97,0.59 17.11,0.74 50.12,0.74 33.01,0 37.16,-0.14 50.12,-0.74 12.94,-0.59 21.78,-2.64 29.51,-5.65 7.99,-3.11 14.77,-7.27 21.53,-14.02 6.77,-6.75 10.91,-13.54 14.02,-21.53 3,-7.73 5.07,-16.57 5.65,-29.51 0.59,-12.97 0.73,-17.11 0.73,-50.12 0,-33.01 -0.14,-37.16 -0.73,-50.12 -0.59,-12.94 -2.64,-21.78 -5.65,-29.51 -3.11,-7.99 -7.27,-14.77 -14.02,-21.53 -6.75,-6.77 -13.54,-10.92 -21.52,-14.02 -7.74,-3 -16.58,-5.07 -29.51,-5.65 -12.96,-0.59 -17.11,-0.74 -50.11,-0.74 -33.01,0 -37.16,0.14 -50.13,0.74l-0.01 0zm0 0l0 0 0 0z"/>
  </g>
 </g>
</svg>
