<?xml version="1.0" encoding="UTF-8"?>
<!DOCTYPE svg PUBLIC "-//W3C//DTD SVG 1.0//EN" "http://www.w3.org/TR/2001/REC-SVG-20010904/DTD/svg10.dtd">
<!-- Creator: CorelDRAW 2021 (64-Bit) -->
<svg xmlns="http://www.w3.org/2000/svg" xml:space="preserve" width="4.55291in" height="4.55373in" version="1.0" style="shape-rendering:geometricPrecision; text-rendering:geometricPrecision; image-rendering:optimizeQuality; fill-rule:evenodd; clip-rule:evenodd"
viewBox="0 0 438.1 438.18"
 xmlns:xlink="http://www.w3.org/1999/xlink"
 xmlns:xodm="http://www.corel.com/coreldraw/odm/2003">
 <defs>
  <style type="text/css">
   <![CDATA[
    .fil0 {fill:#006699}
    .fil2 {fill:#3184AD}
    .fil3 {fill:#63A1C1}
    .fil1 {fill:#FEFEFF}
   ]]>
  </style>
 </defs>
 <g id="Layer_x0020_1">
  <metadata id="CorelCorpID_0Corel-Layer"/>
  <path class="fil0" d="M75.36 168.4l65.81 0 -0.01 197.89 -66.36 0 0.56 -197.89zm167.69 197.78l-65.16 0.12 -0.05 -197.9 65.48 0.02 0.16 26.2c9.73,-8.19 10.4,-13.98 23.43,-22.15 26.76,-16.78 77.69,-9.56 97.43,23.12 19.17,31.72 15.75,126.12 13.62,170.59l-65.16 0.12c-4.35,-67.45 15.64,-151.81 -34.54,-150.4 -14.44,0.4 -24,8.42 -29.3,16.97 -10.37,16.71 -4.29,99.43 -5.91,133.31zm-98.32 -267.46c4.38,54.53 -66.3,55.23 -72.86,13.33 -8.99,0.88 -8.96,4.01 -25.63,9.48 -7.8,2.56 -18.21,6.95 -25.49,7.93 -1.93,-11 -3.8,-36.96 6.16,-45.62 1.79,-18.16 24.94,-37.97 29.17,-42.04 11.13,-10.7 29.98,-20.49 50.9,-21.15 10.07,-4.96 155.03,-1.16 186.51,-0.96 32.31,0.21 29.35,1.83 53.29,8.58 -15.99,8.47 -87.38,27.93 -99.35,35.31 -12.15,7.48 -9.63,4.36 -24.1,8.06 -14.28,3.65 -71.74,22.43 -78.6,27.1zm-90 -96.15c-70.27,13.42 -52.82,100.71 -52.82,165.99 0,33.51 -2.3,196.89 1.52,216.16 1.52,7.68 3.9,12.81 7.4,18.54l11.85 14.77c31.54,29 90.95,18.17 146.77,18.17 33.6,0 196.72,2.33 216.14,-1.54 25.81,-5.15 48.25,-28.4 51.03,-57.24 2.29,-23.7 1.85,-310.65 -0.96,-324.59 -2.17,-10.82 -6.56,-18.52 -12.93,-26.51 -10.45,-13.12 -25.48,-22.99 -44.42,-24.82 -24.23,-2.34 -308,-1.9 -323.58,1.07z"/>
  <path class="fil1" d="M243.06 366.18c1.63,-33.89 -4.46,-116.61 5.91,-133.31 5.3,-8.54 14.87,-16.56 29.3,-16.97 50.18,-1.41 30.18,82.95 34.54,150.4l65.16 -0.12c2.13,-44.47 5.55,-138.86 -13.62,-170.59 -19.74,-32.68 -70.67,-39.89 -97.43,-23.12 -13.02,8.16 -13.69,13.96 -23.43,22.15l-0.16 -26.2 -65.48 -0.02 0.05 197.9 65.16 -0.12z"/>
  <path class="fil1" d="M74.81 366.3l66.36 0 0.01 -197.89 -65.81 0 -0.56 197.89z"/>
  <path class="fil2" d="M26.92 83.84c-9.96,8.66 -8.09,34.62 -6.16,45.62 7.28,-0.98 17.7,-5.37 25.49,-7.93 16.67,-5.47 16.64,-8.59 25.63,-9.48 -0.06,-22.33 9.35,-36.18 30.81,-38.61 29.53,-3.35 32.78,11.17 42.05,25.28 6.86,-4.66 64.32,-23.45 78.6,-27.1 14.46,-3.69 11.95,-0.57 24.1,-8.06 11.97,-7.37 83.36,-26.84 99.35,-35.31 -23.94,-6.75 -20.97,-8.37 -53.29,-8.58 -31.48,-0.2 -176.44,-3.99 -186.51,0.96l122.56 2.11c-6.26,-1.65 -42.87,11.43 -50.33,13.76 -9.61,3 -15.43,8.81 -38.27,13.78 -14.74,3.21 -41.77,17.34 -60.43,22.22 -21.65,5.67 -35.24,14.32 -53.13,15.01l-0.46 -3.69z"/>
  <path class="fil3" d="M26.92 83.84l0.46 3.69c17.89,-0.69 31.48,-9.35 53.13,-15.01 18.66,-4.88 45.69,-19.01 60.43,-22.22 22.84,-4.97 28.66,-10.78 38.27,-13.78 7.47,-2.33 44.07,-15.41 50.33,-13.76l-122.56 -2.11c-20.92,0.67 -39.78,10.45 -50.9,21.15 -4.23,4.07 -27.38,23.88 -29.17,42.04z"/>
  <path class="fil1" d="M71.89 112.05c6.56,41.9 77.24,41.2 72.86,-13.33 -9.27,-14.12 -12.52,-28.64 -42.05,-25.28 -21.45,2.44 -30.86,16.28 -30.81,38.61z"/>
 </g>
</svg>
