<?xml version="1.0" encoding="UTF-8"?>
<!DOCTYPE svg PUBLIC "-//W3C//DTD SVG 1.0//EN" "http://www.w3.org/TR/2001/REC-SVG-20010904/DTD/svg10.dtd">
<!-- Creator: CorelDRAW 2021 (64-Bit) -->
<svg xmlns="http://www.w3.org/2000/svg" xml:space="preserve" width="4.6132in" height="3.75846in" version="1.0" style="shape-rendering:geometricPrecision; text-rendering:geometricPrecision; image-rendering:optimizeQuality; fill-rule:evenodd; clip-rule:evenodd"
viewBox="0 0 366.79 298.83"
 xmlns:xlink="http://www.w3.org/1999/xlink"
 xmlns:xodm="http://www.corel.com/coreldraw/odm/2003">
 <defs>
  <style type="text/css">
   <![CDATA[
    .fil0 {fill:#1DA1F2;fill-rule:nonzero}
   ]]>
  </style>
 </defs>
 <g id="Layer_x0020_1">
  <metadata id="CorelCorpID_0Corel-Layer"/>
  <path class="fil0" d="M114.71 298.83c138.81,0 214.48,-115.19 214.48,-214.48 0,-3.37 0,-6.75 0,-9.64 14.94,-10.6 27.47,-24.1 37.59,-39.04 -13.5,5.78 -27.95,10.12 -43.38,12.05 15.42,-9.16 27.47,-24.1 33.26,-41.93 -14.46,8.68 -30.85,14.94 -47.72,18.32 -13.98,-14.94 -33.26,-24.1 -54.95,-24.1 -41.93,0 -75.67,33.74 -75.67,75.67 0,5.78 0.48,11.57 1.93,17.35 -62.66,-3.37 -118.09,-33.26 -155.68,-79.04 -6.27,11.09 -10.12,24.1 -10.12,37.59 0,26.03 13.5,49.16 33.74,62.66 -12.53,-0.48 -24.1,-3.86 -34.22,-9.64 0,0.48 0,0.48 0,0.96 0,36.63 26.03,67 60.73,73.74 -6.27,1.93 -13.01,2.89 -19.76,2.89 -4.82,0 -9.64,-0.48 -13.98,-1.45 9.64,29.88 37.59,51.57 70.37,52.54 -26.03,20.24 -58.32,32.29 -93.5,32.29 -6.27,0 -12.05,-0.48 -17.83,-0.96 32.77,21.69 72.3,34.22 114.71,34.22z"/>
 </g>
</svg>
