<?xml version="1.0" encoding="UTF-8"?>
<!DOCTYPE svg PUBLIC "-//W3C//DTD SVG 1.0//EN" "http://www.w3.org/TR/2001/REC-SVG-20010904/DTD/svg10.dtd">
<!-- Creator: CorelDRAW 2021 (64-Bit) -->
<svg xmlns="http://www.w3.org/2000/svg" xml:space="preserve" width="0.612354in" height="0.612354in" version="1.0" style="shape-rendering:geometricPrecision; text-rendering:geometricPrecision; image-rendering:optimizeQuality; fill-rule:evenodd; clip-rule:evenodd"
viewBox="0 0 37.64 37.64"
 xmlns:xlink="http://www.w3.org/1999/xlink"
 xmlns:xodm="http://www.corel.com/coreldraw/odm/2003">
 <defs>
  <style type="text/css">
   <![CDATA[
    .fil0 {fill:#016189}
    .fil4 {fill:#E9F5F9}
    .fil3 {fill:#F4FCFB}
    .fil2 {fill:#FAFDFA}
    .fil1 {fill:#FCFCFE}
   ]]>
  </style>
 </defs>
 <g id="Layer_x0020_1">
  <metadata id="CorelCorpID_0Corel-Layer"/>
  <circle class="fil0" cx="18.82" cy="18.82" r="18.82"/>
  <path class="fil1" d="M6.29 5.58c-0.68,0.19 -0.42,0.09 -0.92,0.59 -1.42,1.4 -2.87,3.8 -3.81,5.68 -0.4,0.79 -0.29,0.81 -0.12,1.13l7.85 -2.06c0.73,-0.6 11.1,-0.24 12.96,-0.24 2.24,-0.01 12.05,0.28 13.39,-0.17 -1.47,-1.37 -1.61,-3.43 -3.95,-4.94l-2.7 -0.12 1.77 -0.59c-0.5,-1.04 -1.82,-1.52 -2.88,-2.17 -0.88,-0.54 -2.54,-1.56 -3.87,-1.22 -1.51,0.07 -6.75,1.75 -8.63,2.29 -1.49,0.42 -2.76,0.75 -4.31,1.19 -2.2,0.63 -2.54,0.38 -4.79,0.65z"/>
  <path class="fil2" d="M24.65 15.08c2.91,-1.59 4.76,2.8 2.18,4.14 -2.6,1.35 -5.14,-2.52 -2.18,-4.14zm-3.4 3.76c0.57,0.58 0.53,1.18 1.55,1.99 1.7,1.35 3.98,1.31 5.75,0.09 1.16,-0.8 1.04,-1.51 1.66,-2.07 0.33,-1.88 0.32,-3.27 -0.77,-4.65 -0.71,-0.91 -2.03,-1.84 -3.82,-1.82 -3.33,0.05 -5.1,2.88 -4.37,6.47z"/>
  <path class="fil2" d="M9.87 17.79c-0.91,-3.32 4.08,-4.02 4.59,-1.23 0.62,3.34 -3.88,3.84 -4.59,1.23zm-0.55 -4.67c-0.66,1.12 -1.2,1.1 -1.65,2.48 -0.48,1.47 -0.05,2.61 0.23,3.82 0.84,0.63 1.5,2.41 4.26,2.42 1.48,0 2.7,-0.61 3.53,-1.58l0.54 -0.69c0.26,-0.3 0.23,-0.24 0.25,-0.25 0.6,-2.67 0.48,-4.45 -1.38,-5.93 -0.74,-0.59 -1.71,-1.01 -2.93,-1.02 -1.22,0 -2.05,0.72 -2.83,0.74z"/>
  <path class="fil3" d="M15.25 30.46c2.15,0.66 1.31,-1.78 4.06,-1.82 2.82,-0.04 2.07,2.56 4.22,1.78 0.63,-1.81 -1.96,-3.57 -4,-3.63 -2.11,-0.06 -4.96,1.78 -4.27,3.67z"/>
  <path class="fil4" d="M18.3 23.68c-0.11,-1.25 0.93,-1.14 0.38,-1.71 -0.53,-0.55 -1.14,0.21 -1.31,0.62 -0.65,1.57 0.79,2.98 2.07,1.94 -0.12,-1.1 -0.18,-0.4 -1.14,-0.84z"/>
 </g>
</svg>
