<?xml version="1.0" encoding="UTF-8"?>
<!DOCTYPE svg PUBLIC "-//W3C//DTD SVG 1.0//EN" "http://www.w3.org/TR/2001/REC-SVG-20010904/DTD/svg10.dtd">
<!-- Creator: CorelDRAW 2021 (64-Bit) -->
<svg xmlns="http://www.w3.org/2000/svg" xml:space="preserve" width="0.612354in" height="0.612354in" version="1.0" style="shape-rendering:geometricPrecision; text-rendering:geometricPrecision; image-rendering:optimizeQuality; fill-rule:evenodd; clip-rule:evenodd"
viewBox="0 0 44.07 44.07"
 xmlns:xlink="http://www.w3.org/1999/xlink"
 xmlns:xodm="http://www.corel.com/coreldraw/odm/2003">
 <defs>
  <style type="text/css">
   <![CDATA[
    .fil4 {fill:#FEFEFE}
    .fil0 {fill:#016189}
    .fil2 {fill:#F4FCFB}
    .fil3 {fill:#F5FCF5}
    .fil1 {fill:#FAFDFA}
   ]]>
  </style>
 </defs>
 <g id="Layer_x0020_1">
  <metadata id="CorelCorpID_0Corel-Layer"/>
  <circle class="fil0" cx="22.03" cy="22.03" r="22.03"/>
  <path class="fil1" d="M11.56 18.6c-0.66,-3.91 5.05,-4.43 5.47,-0.98 0.47,3.9 -4.93,4.19 -5.47,0.98zm-1.98 -3.7c-0.65,1.91 -1.29,3.49 -0.25,5.63 0.64,1.32 2.14,2.6 3.7,2.93 4.41,0.94 7.04,-2.47 6.73,-6.68 -0.42,-0.77 -0.56,-1.65 -1.58,-2.65 -1.76,-1.72 -4.27,-2.14 -6.47,-0.99 -0.95,0.49 -1.63,1.58 -2.14,1.76z"/>
  <path class="fil1" d="M29.16 15.5c3.74,-1.41 5.19,3.94 2.11,5.14 -3.6,1.4 -5.45,-3.88 -2.11,-5.14zm-4.17 5.03c0.32,0.26 0.13,0.08 0.42,0.41 0.11,0.13 0.24,0.3 0.34,0.43 2.05,2.59 5.5,2.91 7.81,1.05 4.38,-3.53 1.01,-7.41 0.14,-8.87 -0.62,-0.1 -3.95,-2.38 -7.04,0.24 -0.79,0.67 -1.5,1.55 -1.85,2.83 -0.49,1.78 0.18,2.54 0.17,3.91z"/>
  <path class="fil2" d="M35.13 4.53c0.08,2.13 -0.31,7.13 0.25,8.66l1.08 0.04c0.49,-1.38 0.28,-5.4 0.21,-7.17 -0.04,-1.36 0.18,-3 -0.26,-3.98l-0.99 -0 -0.3 2.46z"/>
  <path class="fil2" d="M30.62 2.15c0.16,1.49 0.07,3.33 0.07,4.86 -0,1.16 -0.36,4.29 1.36,2.89 0.35,-1.24 0.26,-5.51 0.1,-6.91l0.05 -2.55 -1.2 -0.11 -0.38 1.82z"/>
  <path class="fil3" d="M32.86 3.13c0.12,1.33 -0.27,3.49 0.34,4.58l0.99 0.06c0.49,-0.98 0.3,-2.46 0.22,-3.5 0.05,-0.86 0.33,-2.42 -0.24,-2.96 -1.22,-1.16 -1.19,1.09 -1.31,1.81z"/>
  <ellipse class="fil4" cx="22.03" cy="32.45" rx="3.24" ry="6.34"/>
 </g>
</svg>
