<?xml version="1.0" encoding="UTF-8"?>
<!DOCTYPE svg PUBLIC "-//W3C//DTD SVG 1.0//EN" "http://www.w3.org/TR/2001/REC-SVG-20010904/DTD/svg10.dtd">
<!-- Creator: CorelDRAW 2021 (64-Bit) -->
<svg xmlns="http://www.w3.org/2000/svg" xml:space="preserve" width="0.612358in" height="0.612358in" version="1.0" style="shape-rendering:geometricPrecision; text-rendering:geometricPrecision; image-rendering:optimizeQuality; fill-rule:evenodd; clip-rule:evenodd"
viewBox="0 0 38.36 38.36"
 xmlns:xlink="http://www.w3.org/1999/xlink"
 xmlns:xodm="http://www.corel.com/coreldraw/odm/2003">
 <defs>
  <style type="text/css">
   <![CDATA[
    .fil0 {fill:#016189}
    .fil4 {fill:#E9F5F9}
    .fil1 {fill:#F4FCFB}
    .fil3 {fill:#F5FCF5}
    .fil2 {fill:#FAFDFA}
   ]]>
  </style>
 </defs>
 <g id="Layer_x0020_1">
  <metadata id="CorelCorpID_0Corel-Layer"/>
  <circle class="fil0" cx="19.18" cy="19.18" r="19.18"/>
  <path class="fil1" d="M11.49 15.07c3.22,-1.03 4.34,3.76 1.51,4.57 -3.21,0.92 -4.46,-3.62 -1.51,-4.57zm-1.47 17.2l0.62 0.09c0.43,-1.62 1.36,-4.28 0.48,-6 -0.41,-0.79 -1.06,-1.25 -1.24,-2.22 -0.28,-1.53 0.01,-2.31 1.54,-2.08 -0.09,1.09 -0.66,1.52 -0.4,2.68 0.17,0.76 0.82,1.37 1.15,2.08 0.89,1.95 -0.62,4.54 -0.16,5.47 1.07,-0.27 0.47,-1.17 1.15,-2.06 -0.13,-1.6 0.24,-2.79 -0.62,-4.22 -0.83,-1.36 -1.22,-2.25 -0.09,-3.76 0.19,-0.14 4,-0.41 4.55,-4.07 0.85,-5.73 -6.6,-7.78 -9.06,-3 -1.47,2.86 0.25,4.92 1.57,6.22 -0.36,2.99 -1.26,1.68 0.82,5.11 1.05,1.73 -0.22,4.05 -0.3,5.76z"/>
  <path class="fil2" d="M25.26 15.09c3.2,-1.12 4.44,3.62 1.67,4.53 -3.27,1.08 -4.51,-3.53 -1.67,-4.53zm-0.77 6.64c1.03,-0.11 0.3,0.04 0.83,0.08 0.72,0.05 0.27,0.06 0.94,-0 0.61,-0.05 1.3,-0.13 1.87,-0.27 3.69,-0.37 4.12,-9.4 -2.4,-8.99 -6.13,0.38 -5.21,9.03 -1.25,9.18z"/>
  <path class="fil3" d="M17.05 29.62l-0.56 0.56c-0.27,0.25 -0.41,0.35 -0.67,0.64 -0.62,0.68 -0.56,0.74 -0.68,1.72 2.48,1.12 1.7,-1.78 4.58,-1.67 2.75,0.1 2.21,3.02 4.2,1.64 0.19,-1.47 -1.25,-2.53 -2.35,-3.06 -1.72,-0.83 -3,-0.26 -4.52,0.18z"/>
  <path class="fil4" d="M24.49 21.73c0.04,0.04 0.11,0.08 0.13,0.1 0.03,0.02 0.1,0.07 0.13,0.1 0.03,0.03 0.09,0.07 0.12,0.1 0.03,0.03 0.08,0.07 0.12,0.11 0.03,0.03 0.08,0.08 0.11,0.12l0.75 1.77c2.21,1.51 -2.1,6.33 1.11,6.12 -0.1,-0.96 -0.65,-0.61 -0.46,-1.76 0.1,-0.63 0.62,-1.35 0.77,-2.07 0.48,-2.3 -0.92,-2.66 -1.02,-3.48 -0.07,-0.6 -0.09,-0.28 0.14,-0.63 1.27,0.08 0.22,-0.46 1.2,1.64 0.35,0.75 0.88,1.23 0.72,2.23 -0.1,0.6 -2.14,3.92 -0.2,4.48 0.71,-0.92 -0.48,-1.49 0.33,-2.4 0.16,-1.33 1.29,-1.71 0.51,-3.51 -0.48,-1.12 -1.33,-1.8 -0.81,-3.1 -0.57,0.14 -1.25,0.22 -1.87,0.27 -0.67,0.06 -0.22,0.05 -0.94,0 -0.54,-0.04 0.19,-0.19 -0.83,-0.08z"/>
  <path class="fil4" d="M19.7 24.62c-0.63,-0.79 -0.35,-0.04 -1.24,-0.64 0.03,-1.47 0.48,-0.45 0.54,-1.66 -0.94,-0.46 -1.81,0.52 -1.57,1.81 0.21,1.14 1.79,1.71 2.27,0.49z"/>
 </g>
</svg>
