<?xml version="1.0" encoding="UTF-8"?>
<!DOCTYPE svg PUBLIC "-//W3C//DTD SVG 1.0//EN" "http://www.w3.org/TR/2001/REC-SVG-20010904/DTD/svg10.dtd">
<!-- Creator: CorelDRAW 2021 (64-Bit) -->
<svg xmlns="http://www.w3.org/2000/svg" xml:space="preserve" width="0.593626in" height="0.593626in" version="1.0" style="shape-rendering:geometricPrecision; text-rendering:geometricPrecision; image-rendering:optimizeQuality; fill-rule:evenodd; clip-rule:evenodd"
viewBox="0 0 63.09 63.09"
 xmlns:xlink="http://www.w3.org/1999/xlink"
 xmlns:xodm="http://www.corel.com/coreldraw/odm/2003">
 <defs>
  <style type="text/css">
   <![CDATA[
    .str1 {stroke:#FEFEFE;stroke-width:4.43;stroke-miterlimit:2.61313}
    .str2 {stroke:#EDE8EB;stroke-width:4.43;stroke-miterlimit:2.61313}
    .str0 {stroke:#016189;stroke-width:0.74;stroke-miterlimit:2.61313}
    .fil3 {fill:none}
    .fil0 {fill:#016189}
    .fil2 {fill:#E9F5F9}
    .fil1 {fill:#F4FCFB}
   ]]>
  </style>
 </defs>
 <g id="Layer_x0020_1">
  <metadata id="CorelCorpID_0Corel-Layer"/>
  <path class="fil0 str0" d="M31.55 0.37c8.09,0 15.46,3.08 21,8.13 1.56,-0.91 2.43,-1.9 3.47,-3.38 1.42,-2.02 1.4,-3.26 2.33,-4.28l1 2.46c1.29,8.03 -1.37,9.36 -1.67,11.25 3.19,4.89 5.04,10.73 5.04,17 0,17.22 -13.96,31.18 -31.18,31.18 -17.22,0 -31.18,-13.96 -31.18,-31.18 0,-6.07 1.74,-11.73 4.73,-16.52l-0 -0c-2.42,-2.35 -2.6,-9.71 -0.85,-14.11 0.72,0.72 1.63,3.13 2.5,4.33 0.95,1.31 1.97,2.77 3.66,3.35l0.1 -0.06c5.54,-5.07 12.92,-8.16 21.03,-8.16z"/>
  <path class="fil1" d="M38.12 30.72c1.24,-0.63 7.36,-2.54 8.74,-2.58 1.67,8.2 -8.75,7.92 -8.74,2.58zm-3.75 -2.38c-1.13,11.36 13.25,12.93 15.92,3.99 1.15,-3.84 -0.61,-6.14 -1.86,-8.22 -1.78,-0.03 -12.69,3.29 -14.06,4.24z"/>
  <path class="fil1" d="M14.56 28.22c1.86,-0.15 6.78,1.85 8.85,2.34 -0.67,6.2 -10.34,5.04 -8.85,-2.34zm-2.22 -3.5c-0.74,2.1 -1.97,4.05 -1.37,6.97 0.4,1.97 1.26,3 2.38,4.13l1.12 1.25c3.33,0.3 4.75,2.47 9.19,-0.43 11.82,-7.73 -7.29,-13.26 -10.46,-12.37l-0.86 0.45z"/>
  <path class="fil2" d="M31.55 42.01l-2.06 -0.71c0.13,-2.66 1.36,-1.3 0.73,-3.02 -1.75,-0.69 -2.95,1.73 -2.33,3.44 0.52,1.42 3.36,2.82 3.66,0.28z"/>
  <path class="fil3 str1" d="M43.11 47.28c-3.68,2.85 -8.31,4.55 -13.33,4.55 -3.77,0 -7.32,-0.96 -10.42,-2.65"/>
  <path class="fil3 str2" d="M19.13 44.4l-2.74 7.89"/>
  <path class="fil3 str2" d="M46.07 52.28l-2.74 -7.89"/>
 </g>
</svg>
