<?xml version="1.0" encoding="UTF-8"?>
<!DOCTYPE svg PUBLIC "-//W3C//DTD SVG 1.0//EN" "http://www.w3.org/TR/2001/REC-SVG-20010904/DTD/svg10.dtd">
<!-- Creator: CorelDRAW 2021 (64-Bit) -->
<svg xmlns="http://www.w3.org/2000/svg" xml:space="preserve" width="0.612358in" height="0.612358in" version="1.0" style="shape-rendering:geometricPrecision; text-rendering:geometricPrecision; image-rendering:optimizeQuality; fill-rule:evenodd; clip-rule:evenodd"
viewBox="0 0 66.83 66.83"
 xmlns:xlink="http://www.w3.org/1999/xlink"
 xmlns:xodm="http://www.corel.com/coreldraw/odm/2003">
 <defs>
  <style type="text/css">
   <![CDATA[
    .fil0 {fill:#016189}
    .fil1 {fill:#841F3B}
    .fil6 {fill:#E9F5F9}
    .fil2 {fill:#F4FCFB}
    .fil5 {fill:#F5F4F5}
    .fil3 {fill:#F5FCF5}
    .fil4 {fill:#FAFDFA}
   ]]>
  </style>
 </defs>
 <g id="Layer_x0020_1">
  <metadata id="CorelCorpID_0Corel-Layer"/>
  <circle class="fil0" cx="33.42" cy="33.42" r="33.42"/>
  <path class="fil1" d="M43.53 29.19l0.09 -1.77 1.84 0.02c0.88,1.93 -0.76,1.6 1.99,1.7l0.1 1.72c2.2,0.31 1.74,-0.31 1.73,2.21 -2,0.05 -1.53,-0.04 -1.97,-0.55 -1.19,-1.38 0.8,-0.02 -0.89,-1.19 -2.78,-1.92 0.66,-0.69 -2.6,-2.02 -0.07,-0.03 -0.2,-0.07 -0.28,-0.12zm-26.04 -0.21l0.1 1.71c0.93,0.65 1.03,0.12 1.48,0.63 1.1,1.24 -0.14,1.72 -0.16,1.75l-1.87 -0.19 0.21 -1.08 -1.45 -0.73c-0.55,-0.56 -0.31,-0.44 -0.41,-1.41l-1.75 -0.48 0.06 -1.75 1.84 -0 0.75 1.69 1.2 -0.14zm4.33 4.23l0.1 -2.15 1.9 -0.09 0.06 2.13 -2.06 0.11zm0.1 -2.15l-1.91 0.11 -0.09 -1.53 -1.76 -0.45 0.38 -1.62c2.3,-0.05 1.07,0.05 1.53,0.51l0.52 0.77c0.03,-0.06 0.12,0.16 0.19,0.23 0.12,0.02 0.41,0.06 0.47,0.09 0.89,0.38 0.4,0.18 0.78,0.41l-0.12 1.49zm17.18 -1.87l0.06 -1.77 1.82 0.01c0.92,1.94 -0.76,1.62 2.01,1.71l0.09 1.72 1.74 0.58 -0.05 1.5 -1.55 0.21c-0.76,-0.83 -0.45,-0.3 -0.53,-1.63l-1.58 -0.28 -0.3 -1.55c-0.09,-0.01 -0.92,-0.12 -0.93,-0.12 -0.67,-0.21 -0.36,-0.11 -0.78,-0.38zm-26.12 1.43c1.15,0.23 0.32,0.03 0.82,0.62 2.88,3.4 0.86,-0.52 2.49,2.87l8.25 0.08c3.04,0.04 2.19,-0.29 3.12,-1.51 0.04,-0.06 0.12,-0.13 0.16,-0.19l0.56 -0.57c0.06,-0.06 0.13,-0.15 0.18,-0.21 0.93,-1.07 0.13,-0.81 1.1,-1.05l1.41 -0.14 0.15 -3.14c6.98,-0.07 2.75,0.04 5.29,1.52 0.44,0.26 0.25,-0.06 1.09,0.4l0.15 1.02c1.27,0.7 0.63,-0.15 1.64,1.16 0.05,0.06 0.09,0.17 0.14,0.23 0.96,1.18 0.51,0.27 1.51,1.15 1.2,1.04 -0.56,0.32 1.08,1.32l10.42 0.01c0.29,-2.68 0,-1.16 1.1,-2.07l0.38 -0.4c0.56,-0.6 0.23,-0.74 1.22,-1.05 0.01,-0 1.14,-0.11 1.3,-0.13l0.01 -4.81 -4.07 0.06 -14.04 0.04 -10 -0.08 -14.17 0.03 -4.1 0.13 -0.01 2.94c1.25,0.59 0.87,-0.19 2.13,1.04 0.67,0.65 -0.34,0.3 0.73,0.76z"/>
  <path class="fil2" d="M19.58 53.5c2.33,-0.09 0.63,0.08 1.95,-1.33 2.17,2.12 6.84,3.95 11.21,4.08 5.82,0.17 8.25,-1.27 11.98,-3.45 0.08,0.04 0.17,0.05 0.2,0.16 0.02,0.06 0.6,0.82 2.07,0.89 1.06,-2.07 0.42,-3.73 -0.97,-5.39 -0.51,-0.61 -1.24,-1.6 -2.36,-1.27 -1.47,0.44 -0.31,1.58 0,2.63 -3.35,1.59 -5.3,3.36 -10.55,3.32 -4.07,-0.03 -7.59,-1.72 -10.09,-3.75l0.94 -1.28c0.34,-0.89 0.05,0.62 0.13,-0.59 -2.8,-1.44 -6.3,3.11 -4.52,5.98z"/>
  <path class="fil3" d="M52.52 34.17l-10.42 -0.01c-1.64,-1 0.11,-0.27 -1.08,-1.32 -1,-0.87 -0.54,0.04 -1.51,-1.15 -0.05,-0.06 -0.09,-0.17 -0.14,-0.23 -1.01,-1.3 -0.37,-0.46 -1.64,-1.16l-0.15 -1.02 -0.64 0.19c0.25,9.62 11.58,11.62 15.58,4.68z"/>
  <path class="fil3" d="M29.66 30.66c-0.97,0.24 -0.17,-0.02 -1.1,1.05 -0.05,0.06 -0.13,0.15 -0.18,0.22l-0.56 0.57c-0.05,0.05 -0.12,0.13 -0.16,0.19 -0.93,1.22 -0.08,1.56 -3.12,1.51l-8.25 -0.08c-1.63,-3.39 0.38,0.53 -2.49,-2.87 -0.5,-0.59 0.33,-0.39 -0.82,-0.62 0.65,9.82 15.59,10.48 16.68,0.03z"/>
  <path class="fil4" d="M38.41 25.81l14.04 -0.03c-0.57,-2.17 -3.61,-4.21 -6.98,-4.24 -3.28,-0.03 -6.58,1.96 -7.06,4.28z"/>
  <path class="fil4" d="M15.35 23.94c-0.71,0.82 -0.86,0.78 -1.11,1.81l14.17 -0.03c-0.63,-1.89 -3.25,-3.79 -5.89,-4.17 -3.38,-0.49 -5.45,0.9 -7.16,2.38z"/>
  <path class="fil5" d="M47.45 29.15c-2.75,-0.1 -1.11,0.23 -1.99,-1.7l-1.84 -0.02 -0.09 1.77c0.09,0.05 0.22,0.1 0.28,0.12 3.26,1.33 -0.18,0.1 2.6,2.02 1.69,1.17 -0.3,-0.19 0.89,1.19 0.44,0.51 -0.02,0.6 1.97,0.55 0.02,-2.52 0.48,-1.9 -1.73,-2.21l-0.1 -1.72z"/>
  <path class="fil5" d="M42.99 29.14c-2.77,-0.09 -1.09,0.23 -2.01,-1.71l-1.82 -0.01 -0.06 1.77c0.41,0.27 0.1,0.17 0.78,0.38 0.01,0 0.85,0.11 0.93,0.12l0.3 1.55 1.58 0.28c0.09,1.32 -0.23,0.8 0.53,1.63l1.55 -0.21 0.05 -1.5 -1.74 -0.58 -0.09 -1.72z"/>
  <path class="fil6" d="M36.45 45.04c-1.29,-2.26 -1,-0.56 -3.37,-1.71 0.18,-3.39 1.07,-2.04 1.32,-3.66 0.45,-2.86 -4.64,-1.08 -4.1,3.48 0.3,2.55 4.4,5.46 6.14,1.89z"/>
 </g>
</svg>
