<?xml version="1.0" encoding="UTF-8"?>
<!DOCTYPE svg PUBLIC "-//W3C//DTD SVG 1.0//EN" "http://www.w3.org/TR/2001/REC-SVG-20010904/DTD/svg10.dtd">
<!-- Creator: CorelDRAW 2021 (64-Bit) -->
<svg xmlns="http://www.w3.org/2000/svg" xml:space="preserve" width="0.612358in" height="0.612354in" version="1.0" style="shape-rendering:geometricPrecision; text-rendering:geometricPrecision; image-rendering:optimizeQuality; fill-rule:evenodd; clip-rule:evenodd"
viewBox="0 0 43.45 43.45"
 xmlns:xlink="http://www.w3.org/1999/xlink"
 xmlns:xodm="http://www.corel.com/coreldraw/odm/2003">
 <defs>
  <style type="text/css">
   <![CDATA[
    .fil0 {fill:#016189}
    .fil4 {fill:#841F3B}
    .fil5 {fill:#E9F5F9}
    .fil2 {fill:#F4FCFB}
    .fil1 {fill:#FAFDFA}
    .fil3 {fill:#FCFCFE}
   ]]>
  </style>
 </defs>
 <g id="Layer_x0020_1">
  <metadata id="CorelCorpID_0Corel-Layer"/>
  <circle class="fil0" cx="21.72" cy="21.72" r="21.72"/>
  <path class="fil1" d="M11.79 17.63c1.66,-0.55 1.08,-0.08 2.17,0.09 1,0.16 0.53,-0.69 1.97,-0.24 1.52,0.47 0.89,2.55 0.1,3.39 -1.11,1.18 -1.9,1.67 -3.34,0.39 -1.16,-1.04 -1.76,-1.88 -0.9,-3.63zm0.47 -3.28c-7.17,3.22 -2.55,12.42 3.78,10.17 2.38,-0.85 4.44,-3.83 3.2,-7.11 -0.85,-2.25 -3.86,-4.46 -6.98,-3.06z"/>
  <path class="fil1" d="M29.87 22.16c-1.17,-0.32 -2.56,-1.34 -2.77,-2.79 -0.45,-2.95 2.27,-1.63 2.74,-1.65 0.6,-0.03 3.35,-1.17 2.64,1.82 -0.25,1.04 -1.61,2.13 -2.6,2.62zm2.15 2.42l0.27 -0.28c3.45,-3.19 3.74,-3.71 1.64,-8.67l-0.9 -0.61c-1.42,-1.04 -3.04,-1.35 -4.74,-0.89 -3.77,1.01 -5.6,6.03 -2.2,9.27 2.25,2.15 3.37,1.06 5.92,1.18z"/>
  <path class="fil2" d="M20.39 37.14c2.54,0.11 3.01,-0.2 5.17,-0.59 1.27,-0.56 1.94,-0.31 2.74,-0.1 0.74,0.2 0.57,-1.03 0.68,-1.26 0.07,-0.43 0.07,-0.93 0.33,-1.33 0.33,-1.31 1.48,-1.51 1.01,-3.72l-1.4 -0.04c-1.39,0.96 -6.02,1.37 -8.03,1.32 -2.54,-0.07 -3.81,-0.45 -6.02,-1.13 -3.64,-1.12 -1.68,2.88 0.55,4.78 1.38,1.18 2.92,1.71 4.98,2.07z"/>
  <path class="fil3" d="M26.39 35.84l0.29 -0.21c0.03,-0.03 0.1,-0.07 0.14,-0.11 0.62,-0.59 0.54,-0.91 0.62,-2.03l-1.17 -0.87 -4.17 -0.57c-1.95,0.6 -0.09,0.63 -3.92,0.69 -2.14,0.03 -1.68,0.49 -1.68,2.45 1.09,0.66 3.82,1.46 5.59,1.46 -0.42,-1.26 0.85,-0.91 -1.46,-0.97 1.73,-0.01 2.28,0.89 5.76,0.16z"/>
  <path class="fil4" d="M29.87 22.16c0.99,-0.48 2.35,-1.57 2.6,-2.62 0.71,-2.99 -2.04,-1.85 -2.64,-1.82 -0.47,0.02 -3.18,-1.3 -2.74,1.65 0.22,1.44 1.61,2.46 2.77,2.79z"/>
  <path class="fil4" d="M11.79 17.63c-0.86,1.75 -0.25,2.59 0.9,3.63 1.44,1.29 2.23,0.79 3.34,-0.39 0.79,-0.83 1.42,-2.91 -0.1,-3.39 -1.44,-0.45 -0.97,0.4 -1.97,0.24 -1.09,-0.17 -0.51,-0.64 -2.17,-0.09z"/>
  <path class="fil5" d="M21.19 26.93c-0.02,-1.28 1.17,-1.62 0.31,-2.05 -1.09,-0.55 -2.48,2.45 -0.65,3.31 1.02,0.48 1.57,0.19 1.72,-0.83l-1.39 -0.42z"/>
 </g>
</svg>
