<?xml version="1.0" encoding="UTF-8"?>
<!DOCTYPE svg PUBLIC "-//W3C//DTD SVG 1.0//EN" "http://www.w3.org/TR/2001/REC-SVG-20010904/DTD/svg10.dtd">
<!-- Creator: CorelDRAW 2021 (64-Bit) -->
<svg xmlns="http://www.w3.org/2000/svg" xml:space="preserve" width="0.632031in" height="0.612358in" version="1.0" style="shape-rendering:geometricPrecision; text-rendering:geometricPrecision; image-rendering:optimizeQuality; fill-rule:evenodd; clip-rule:evenodd"
viewBox="0 0 38.82 37.61"
 xmlns:xlink="http://www.w3.org/1999/xlink"
 xmlns:xodm="http://www.corel.com/coreldraw/odm/2003">
 <defs>
  <style type="text/css">
   <![CDATA[
    .fil0 {fill:#016189}
    .fil1 {fill:#841F3B}
    .fil4 {fill:#E9F5F9}
    .fil3 {fill:#F4FCFB}
    .fil2 {fill:#FAFDFA}
   ]]>
  </style>
 </defs>
 <g id="Layer_x0020_1">
  <metadata id="CorelCorpID_0Corel-Layer"/>
  <circle class="fil0" cx="20.01" cy="18.8" r="18.8"/>
  <path class="fil1" d="M7.14 29.92c0.41,-1.33 4.84,-2.88 5.52,-6.47 0.41,-2.15 -0.36,-3.66 -1.63,-4.36 -2.25,-1.23 -3.37,0.27 -4.6,0.89 -0.8,-0.26 -0.99,-0.77 -1.69,-1.06 -0.51,-0.21 -2.81,-0.22 -2.82,-0.13 -0,0.02 -0.1,0.06 -0.14,0.16 -0.89,0.9 -1.75,1.48 -1.78,3.22 -0.02,1.56 0.58,2.71 1.28,3.64 0.68,0.9 1.5,1.73 2.46,2.49 0.99,0.78 1.78,1.72 3.4,1.61z"/>
  <path class="fil2" d="M25 14.87c-0.01,-3.5 4.56,-3.29 4.55,0.03l-4.55 -0.03zm-1.61 2.44l7.7 0.04c2.47,-2.89 -0.13,-7.29 -3.6,-7.44 -3.8,-0.16 -6.34,4.02 -4.11,7.4z"/>
  <path class="fil2" d="M15.96 14.91l-4.5 0c-0.06,-3.49 4.57,-3.41 4.5,-0zm-6.1 2.42l7.69 0.02c2.25,-3.18 -0.14,-7.37 -3.73,-7.44 -3.81,-0.07 -6.34,4.34 -3.96,7.42z"/>
  <path class="fil3" d="M18.69 30.53c-0,-1.53 -0.3,-0.67 -1.45,-1.14 -0.14,-1.63 0.48,-0.7 0.6,-1.68 0.15,-1.24 -0.7,-0.02 -0.61,-1.86l1.46 -0.32c-0,-1.38 -1.19,-1.3 -1.97,-0.79 -1.01,0.65 -0.7,1.55 -0.52,2.52 0.21,1.11 -0.6,1.34 -0.03,2.58 0.38,0.84 1.51,1.11 2.53,0.7z"/>
  <path class="fil0" d="M15.96 14.91c0.07,-3.41 -4.56,-3.49 -4.5,0l4.5 -0z"/>
  <path class="fil0" d="M25 14.87l4.55 0.03c0.01,-3.31 -4.56,-3.52 -4.55,-0.03z"/>
  <path class="fil4" d="M21.01 21.85c-0.47,-0.83 -0.36,-0.22 -1.24,-0.64 0.11,-1.43 0.78,-0.74 0.43,-1.71 -0,-0 -0.39,-0.57 -1.07,0.29 -1.28,1.61 1,3.73 1.88,2.07z"/>
 </g>
</svg>
