<?xml version="1.0" encoding="UTF-8"?>
<!DOCTYPE svg PUBLIC "-//W3C//DTD SVG 1.0//EN" "http://www.w3.org/TR/2001/REC-SVG-20010904/DTD/svg10.dtd">
<!-- Creator: CorelDRAW 2021 (64-Bit) -->
<svg xmlns="http://www.w3.org/2000/svg" xml:space="preserve" width="0.612354in" height="0.612358in" version="1.0" style="shape-rendering:geometricPrecision; text-rendering:geometricPrecision; image-rendering:optimizeQuality; fill-rule:evenodd; clip-rule:evenodd"
viewBox="0 0 37.64 37.64"
 xmlns:xlink="http://www.w3.org/1999/xlink"
 xmlns:xodm="http://www.corel.com/coreldraw/odm/2003">
 <defs>
  <style type="text/css">
   <![CDATA[
    .fil0 {fill:#016189}
    .fil2 {fill:#FAFDFA}
    .fil1 {fill:#FCFCFE}
   ]]>
  </style>
 </defs>
 <g id="Layer_x0020_1">
  <metadata id="CorelCorpID_0Corel-Layer"/>
  <circle class="fil0" cx="18.82" cy="18.82" r="18.82"/>
  <path class="fil1" d="M0.48 22.95l0.56 1.01 5.75 0.07c0.51,0.88 0.1,6.16 0.2,7.73 0.43,0.28 0.89,0.62 1.32,1.01 3.28,1.8 6.82,3.22 11.6,2.9 2.18,-0.15 4.11,-0.57 5.96,-1.31 1.45,-0.58 4.11,-1.68 4.59,-2.79l0.12 -7.54 5.83 -0.05c0.41,-0.5 0.27,-0.25 0.3,-1 -3.08,0.22 -6.51,0.01 -9.52,-0.28 -2.52,-0.24 -6.17,-0.87 -8.74,-0.8 -5.76,0.15 -11.91,1.74 -17.95,1.06z"/>
  <path class="fil2" d="M11.47 14.17c2.9,-1.2 4.39,3.4 1.58,4.42 -2.74,1 -4.87,-3.05 -1.58,-4.42zm-3.87 3.34c0.49,2.15 2.89,4.12 5.75,3.44 2.12,-0.5 4.12,-2.83 3.45,-5.72 -1.33,-5.82 -10.65,-4.09 -9.21,2.27z"/>
  <path class="fil2" d="M25.27 14.07c2.96,-0.77 4.1,3.82 1.13,4.59 -3.04,0.79 -4.4,-3.73 -1.13,-4.59zm5.13 3.23c0.64,-2.76 -1.38,-5.06 -3.58,-5.56 -2.82,-0.64 -5.19,1.32 -5.66,3.56 -1.32,6.12 7.79,8.27 9.25,2.01z"/>
 </g>
</svg>
