<?xml version="1.0" encoding="UTF-8"?>
<!DOCTYPE svg PUBLIC "-//W3C//DTD SVG 1.0//EN" "http://www.w3.org/TR/2001/REC-SVG-20010904/DTD/svg10.dtd">
<!-- Creator: CorelDRAW 2021 (64-Bit) -->
<svg xmlns="http://www.w3.org/2000/svg" xml:space="preserve" width="0.612354in" height="0.612358in" version="1.0" style="shape-rendering:geometricPrecision; text-rendering:geometricPrecision; image-rendering:optimizeQuality; fill-rule:evenodd; clip-rule:evenodd"
viewBox="0 0 37.63 37.63"
 xmlns:xlink="http://www.w3.org/1999/xlink"
 xmlns:xodm="http://www.corel.com/coreldraw/odm/2003">
 <defs>
  <style type="text/css">
   <![CDATA[
    .fil0 {fill:#016189}
    .fil3 {fill:#E9F5F9}
    .fil2 {fill:#F4FCFB}
    .fil1 {fill:#FAFDFA}
   ]]>
  </style>
 </defs>
 <g id="Layer_x0020_1">
  <metadata id="CorelCorpID_0Corel-Layer"/>
  <circle class="fil0" cx="18.82" cy="18.82" r="18.82"/>
  <path class="fil1" d="M14.3 17.83c-1.21,3 -5.57,1.27 -4.41,-1.76 1.06,-2.75 5.6,-1.2 4.41,1.76zm-3.32 -5.37c-6.07,1.52 -3.88,10.63 2.33,9.12 5.86,-1.42 3.79,-10.65 -2.33,-9.12z"/>
  <path class="fil2" d="M11.04 30.25c0.97,0.09 0.71,-0.25 1.25,-0.62 2.22,1.44 3.63,2.32 7.16,2.22 3.64,-0.11 4.32,-1.3 5.42,-1.69 1.57,-0.56 -0.05,0.36 1.75,0.3 0.79,-1.92 -1.14,-4.15 -2.02,-3.68 -0.78,0.41 -0.13,0.78 0.12,1.39 -1.81,1.06 -3.03,1.86 -5.69,1.92 -3,0.07 -3.99,-1.05 -5.93,-1.92 0.41,-1.31 -0.53,1.04 0.34,-0.54 0.31,-0.57 0.21,0.38 0.23,-0.65 -1.5,-0.95 -3.31,1.52 -2.63,3.27z"/>
  <path class="fil2" d="M22.45 15.27c-0.71,0.95 -3.1,1.61 -2.39,3.66 2.04,0.83 1.71,-1.38 3.86,-1.91 2.38,-0.58 3.36,1.09 4.13,2.07 0.66,0.07 0.98,0.04 1.37,-0.28 0.66,-1.47 -1.28,-2.82 -2.15,-3.32 -1.85,-1.06 -2.9,-0.61 -4.81,-0.23z"/>
  <path class="fil3" d="M19.4 24.15c-0.61,-0.78 -0.35,-0.07 -1.21,-0.63 0.04,-1.43 0.47,-0.47 0.54,-1.62 -1.02,-0.51 -1.77,0.67 -1.54,1.77 0.2,0.96 1.73,1.71 2.21,0.47z"/>
 </g>
</svg>
