<?xml version="1.0" encoding="UTF-8"?>
<!DOCTYPE svg PUBLIC "-//W3C//DTD SVG 1.0//EN" "http://www.w3.org/TR/2001/REC-SVG-20010904/DTD/svg10.dtd">
<!-- Creator: CorelDRAW 2021 (64-Bit) -->
<svg xmlns="http://www.w3.org/2000/svg" xml:space="preserve" width="0.612358in" height="0.677488in" version="1.0" style="shape-rendering:geometricPrecision; text-rendering:geometricPrecision; image-rendering:optimizeQuality; fill-rule:evenodd; clip-rule:evenodd"
viewBox="0 0 42.79 47.34"
 xmlns:xlink="http://www.w3.org/1999/xlink"
 xmlns:xodm="http://www.corel.com/coreldraw/odm/2003">
 <defs>
  <style type="text/css">
   <![CDATA[
    .fil0 {fill:#016189}
    .fil3 {fill:#E9F5F9}
    .fil2 {fill:#F4FCFB}
    .fil1 {fill:#FAFDFA}
   ]]>
  </style>
 </defs>
 <g id="Layer_x0020_1">
  <metadata id="CorelCorpID_0Corel-Layer"/>
  <circle class="fil0" cx="21.4" cy="25.95" r="21.4"/>
  <path class="fil1" d="M28.21 21.46c3.36,-1.62 5.34,3.35 2.36,4.81 -3.22,1.58 -5.69,-3.21 -2.36,-4.81zm5.12 6.38c0.13,-1.16 0.7,-0.83 1.15,-2.43 0.35,-1.24 0.18,-2.17 -0.02,-3.4 -1.13,-1.8 -2.18,-3.59 -5.27,-3.52 -2.51,0.05 -4.36,1.83 -5,3.77 -0.96,2.95 0.83,5.29 2.36,6.2 2.83,1.68 4.47,0.5 6.08,-0.36 0.46,-0.24 0.14,-0.17 0.69,-0.26z"/>
  <path class="fil1" d="M11.26 24.39c-0.56,-3.94 4.89,-4.25 5.3,-0.95 0.47,3.87 -4.86,4.02 -5.3,0.95zm-1.83 -3.83c-0.2,1.42 -1.28,2.19 -0.77,4.5 0.43,1.93 1.59,2.29 2.19,3.4 2.4,0.68 3.64,1.48 6.15,-0.2 5.82,-3.89 -0.39,-13.58 -6.83,-8.27 -0.43,0.36 -0.23,0.25 -0.74,0.57z"/>
  <path class="fil2" d="M13.14 39c0.69,-0.21 0.59,-0.52 0.99,-0.95 1.46,1.59 4.59,2.6 7.15,2.67 2.63,0.07 6.25,-0.75 7.56,-2.28l0.49 0.42c0.14,0.1 0.29,0.23 0.47,0.28 1.84,0.49 0.62,-3.98 -1.17,-4.22 -1.61,-0.21 -0.51,1.25 -0.41,1.68 -4.81,2.5 -7.92,3.4 -13.32,-0.31 0.42,-0.33 1.49,-0.68 0.52,-1.26 -1.39,-0.84 -4.22,2.81 -2.29,3.97z"/>
  <path class="fil0" d="M16.1 1.4c1.8,-0.79 9.06,-0.48 11.04,-0.1 -0.36,0.44 -0.09,0.28 -0.64,0.48 -0.7,0.25 -8.99,0.39 -10.07,-0.09 -0.38,-0.17 -0.16,-0.08 -0.33,-0.29zm-2.48 1.44c4.58,1.05 10.64,1.55 15.47,0.15 1.22,-0.36 1.25,-0.42 1.31,-1.58 -1.41,-0.39 -2.08,-0.84 -3.92,-1.09 -3,-0.42 -12.3,-0.79 -13.68,1.57 0.38,0.95 0.18,0.4 0.82,0.96z"/>
  <path class="fil3" d="M20.89 31.34c-0.12,-1.72 0.69,-0.51 0.48,-2.01 -2.58,-0.61 -2.11,4.74 0.87,3.04 -0.28,-1.56 -0.1,-0.41 -1.36,-1.03z"/>
 </g>
</svg>
