<?xml version="1.0" encoding="UTF-8"?>
<!DOCTYPE svg PUBLIC "-//W3C//DTD SVG 1.0//EN" "http://www.w3.org/TR/2001/REC-SVG-20010904/DTD/svg10.dtd">
<!-- Creator: CorelDRAW 2021 (64-Bit) -->
<svg xmlns="http://www.w3.org/2000/svg" xml:space="preserve" width="0.613in" height="0.679965in" version="1.0" style="shape-rendering:geometricPrecision; text-rendering:geometricPrecision; image-rendering:optimizeQuality; fill-rule:evenodd; clip-rule:evenodd"
viewBox="0 0 45.12 50.05"
 xmlns:xlink="http://www.w3.org/1999/xlink"
 xmlns:xodm="http://www.corel.com/coreldraw/odm/2003">
 <defs>
  <style type="text/css">
   <![CDATA[
    .fil0 {fill:#016189}
    .fil1 {fill:#841F3B}
    .fil4 {fill:#E9F5F9}
    .fil3 {fill:#F4FCFB}
    .fil2 {fill:#FAFDFA}
   ]]>
  </style>
 </defs>
 <g id="Layer_x0020_1">
  <metadata id="CorelCorpID_0Corel-Layer"/>
  <circle class="fil0" cx="22.54" cy="27.16" r="22.54"/>
  <path class="fil0" d="M15.61 38.34c2.38,1.03 3.19,2.31 6.82,2.33 3.27,0.02 5.04,-1.07 7.12,-2.26 -0.32,-0.78 -0.92,-0.98 -0.31,-1.59 0.97,-0.96 3.44,1.61 2.65,4.18 -0.88,0.24 -0.2,0.28 -0.95,-0.04l-0.75 -0.59c-4,3.76 -12.16,2.72 -15.65,-0.42 -0.74,1.1 0.19,0.9 -1.19,0.92 -1.32,-1.65 0.96,-4.92 2.95,-4.01 -0,1.73 -0.38,0.14 -0.7,1.47zm7.59 -4.78c-0.75,1.8 -3.36,0.24 -2.57,-1.8 0.2,-0.52 0.99,-1.53 1.55,-0.97 0.64,0.64 -0.4,0.67 -0.45,2.01 1.05,0.74 0.67,-0.23 1.47,0.76zm15.22 -7.4c1.31,-0.52 1.43,-0.44 2.41,0.12l0.8 0.39c0.04,-0.06 0.15,0.05 0.23,0.08l1.99 0.09 0.06 1.73 -0.35 0.1c-1.02,0.14 -2.06,0.16 -3.21,0.17 -1.93,0.01 -2.12,0.28 -2.59,-0.28 -0.51,-0.59 -0.15,-2.16 0.07,-2.72 1.19,-0.1 0.41,-0.07 0.59,0.31zm0.65 -9.13c-0.2,0.42 -0.29,-0.34 -0.11,0.59 0.16,0.82 1.5,0.03 1.99,-0.39 0.02,-0.02 0.07,-0.08 0.09,-0.1 0.07,-0.07 0.11,-0.13 0.12,-0.21 0.56,0.14 0.97,0.35 1.25,1.15 0.53,1.51 -0.02,0.97 -0.04,2.38 -1.23,-0.13 -1.1,0.6 -1.26,-0.66l0 3.43 -2.52 0c0,0.14 0.03,0.95 0.02,1.01l-0.52 1.26c-1.34,-0.7 -0.94,-2.05 -1.16,-3.09l-0.8 0.37c-0.04,2.52 0.76,3.5 -0.91,5.66 -2.48,3.21 -7.25,2.87 -9.32,-0.35 -1.31,-2.04 -0.86,-3.47 -0.46,-5.54 -3.08,0.87 -0.11,4.03 -1.73,5.98 -1.78,-0.88 -0.61,-0.79 -1.13,-2.82l0.12 3.07 -2.57 0c0.14,-2.13 0.64,-1.73 0.55,-3.52 -0.06,-1.32 -0.38,-1.31 -0.27,-2.53l0.1 -0.5c0.01,-0.14 0.06,-0.17 0.07,-0.25l-0.78 -0.46c-0.05,-0.03 -0.1,-0.08 -0.14,-0.11 -0.82,-0.62 0.53,-0.72 -1.16,-0.6 0.95,1.91 2.43,3.51 1.17,6.47 -0.67,1.56 -2.33,3.15 -4.52,3.38 -2.81,0.29 -4.61,-1.14 -5.53,-2.64 -2.33,-3.82 1.03,-4.77 -1.69,-5.77 0.05,0.93 0.06,0.08 0.16,0.67 0.01,0.07 0.03,0.14 0.04,0.22l0.04 0.43c0,0.1 -0.09,0.93 -0.09,1.2 -2.2,0.01 -0.64,-0.01 -1.16,0.44l0.93 -0c-0.19,1.05 -0.61,2.94 -1.53,3.46 -0.21,-0.22 -0.15,-0.14 -0.36,-0.49l-0.65 -1.09c-0.45,0.78 -0.31,1.11 -1.01,1.63 -0.67,-0.5 -1.53,-2.83 -1.26,-3.5 0.99,0.23 0.31,-0.08 0.78,0.54 0.13,0.17 0.17,0.33 0.28,0.53l1.21 -0.98 -0.45 -0.31c-0.08,-0.04 -0.13,-0.09 -0.22,-0.13 -0.09,-0.04 -0.57,-0.23 -0.66,-0.25 -0.63,-0.14 -0.86,-0.17 -1.46,0.04 -1.44,0.51 -0.08,1.13 -1.75,1.62 -0.42,-1.45 0.75,-1.49 0.25,-3.28 2.27,0.33 -0.03,0.55 3.02,1.21l-1.01 -1.21c0.68,-2.29 0.7,-1.49 -0,-2.02 -0.83,1.12 0.31,0.48 -0.62,1.93 -0.04,0.06 -0.15,0.22 -0.18,0.17 -0.03,-0.05 -0.13,0.12 -0.2,0.16 -0.77,-0.35 -1.14,0.39 -0.52,-1.4 0.21,-0.61 1.03,-1.24 1.03,-4.15 -1.4,1.26 -2.37,6.38 -2.44,8.06 -0.16,3.5 0.15,6.16 1.16,9.1 0.88,2.58 2.16,4.81 3.67,6.69 2.49,3.09 4.76,4.38 5.19,4.94 1.12,0.4 1.99,1.04 3.18,1.58 1.18,0.53 2.14,0.88 3.53,1.26 8,2.18 16.35,-0.5 21.67,-5.78 6.26,-6.21 9.69,-18.62 3.12,-28.08 -1.19,0.55 -0.29,2.03 -2.51,1.58z"/>
  <path class="fil0" d="M2.51 17.66c0,2.91 -0.82,3.54 -1.03,4.15 -0.62,1.79 -0.24,1.05 0.52,1.4 0.08,-0.04 0.17,-0.21 0.2,-0.16 0.03,0.04 0.15,-0.12 0.18,-0.17 0.93,-1.45 -0.21,-0.81 0.62,-1.93 0.71,0.53 0.68,-0.27 0,2.02l1.01 1.21c-3.05,-0.66 -0.75,-0.88 -3.02,-1.21 0.5,1.79 -0.67,1.83 -0.25,3.28 1.67,-0.49 0.31,-1.11 1.75,-1.62 0.59,-0.21 0.83,-0.19 1.46,-0.04 0.09,0.02 0.57,0.2 0.66,0.25 0.09,0.04 0.14,0.09 0.22,0.13l0.45 0.31c0.67,0.07 0.51,0.65 1.01,1.44 0.51,-0.52 0.54,-0.7 0.61,-1.53 0.52,-0.45 -1.04,-0.42 1.16,-0.44 0,-0.27 0.09,-1.11 0.09,-1.2l-0.04 -0.43c-0.01,-0.08 -0.02,-0.14 -0.04,-0.22 -0.1,-0.59 -0.11,0.26 -0.16,-0.67 -0.43,-0.83 -0.44,-0.14 -0.64,-1.31 1.81,-0.01 1.11,0.82 2.45,0.94 0.37,-1.79 -1.24,-0.42 -1.17,-2.4 1.26,0.1 1.1,0.6 2.28,1.06 1.18,-0.53 2.31,-1.25 4.04,-1.13 1.97,0.13 2.52,1.03 3.61,1.4 1.69,-0.12 0.35,-0.01 1.16,0.6 0.04,0.03 0.1,0.08 0.14,0.11l0.78 0.46c-0.01,0.09 -0.06,0.11 -0.07,0.25l-0.1 0.5c-0.11,1.22 0.21,1.21 0.27,2.53 0.08,1.79 -0.41,1.39 -0.55,3.52l2.57 0 -0.12 -3.07c0.52,2.03 -0.65,1.94 1.13,2.82 1.61,-1.95 -1.35,-5.11 1.73,-5.98 1.4,-1.1 2.63,-5.2 8.87,-2.01 1.14,-0.54 0.97,-1.02 2.25,-1.08 0.08,1.99 -1.47,0.5 -1.18,2.43 1.24,-0.26 1.11,-1.06 2.31,-1.06 0.26,1.12 -0.27,0.75 -0.76,1.56 0.23,1.05 -0.18,2.4 1.16,3.09l0.52 -1.26c0.01,-0.06 -0.02,-0.88 -0.02,-1.01l2.52 0 0 -3.43c0.16,1.26 0.03,0.53 1.26,0.66 0.02,-1.41 0.57,-0.87 0.04,-2.38 -0.28,-0.8 -0.69,-1.01 -1.25,-1.15 -0.01,0.08 -0.05,0.14 -0.12,0.21 -0.02,0.02 -0.07,0.08 -0.09,0.1 -0.49,0.43 -1.83,1.21 -1.99,0.39 -0.18,-0.93 -0.09,-0.17 0.11,-0.59 -0.94,-0.51 -4.02,-4.62 -4.51,-5.41 -3.68,0.07 -3,0.37 -5.06,-1.75 -2.27,0.04 -5.81,1.74 -7.88,0.82 -0.74,-2.06 0.93,-3.53 1.1,-5.74 -5.93,0.55 -8.45,1.03 -12.7,3.84 -1.77,1.17 -3.22,2.44 -4.44,3.88 -0.65,0.76 -3.15,3.82 -3.07,5.01z"/>
  <path class="fil1" d="M22.72 4.93c-0.16,2.21 -1.83,3.67 -1.1,5.74 2.06,0.93 5.61,-0.77 7.88,-0.82 2.06,2.12 1.38,1.82 5.06,1.75 0.48,0.79 3.56,4.9 4.51,5.41 2.21,0.45 1.32,-1.03 2.51,-1.58 -0,-2.43 2.24,-5.76 2.6,-8.41 -0.32,-1.98 -1.64,-1.44 -3.41,-1.06 -7.55,1.64 -3.49,0.74 -6.44,-0.69 -1.28,-0.62 -2.02,-0.18 -3.3,-0.26l-3.99 -5.03 -2.33 0c-0.43,1.03 -1.37,4.24 -1.97,4.93z"/>
  <path class="fil2" d="M13.54 22.34c3.75,-1.28 5.14,4.38 1.75,5.37 -3.67,1.06 -5.23,-4.18 -1.75,-5.37zm-5.63 -0.14c2.72,1 -0.63,1.95 1.69,5.77 0.92,1.5 2.71,2.93 5.53,2.64 2.18,-0.23 3.85,-1.82 4.52,-3.38 1.26,-2.96 -0.22,-4.55 -1.17,-6.47 -1.09,-0.37 -1.64,-1.27 -3.61,-1.4 -1.72,-0.12 -2.86,0.61 -4.04,1.13 -1.18,-0.46 -1.01,-0.96 -2.28,-1.06 -0.07,1.98 1.54,0.61 1.17,2.4 -1.34,-0.12 -0.64,-0.95 -2.45,-0.94 0.2,1.16 0.21,0.48 0.64,1.31z"/>
  <path class="fil3" d="M29.72 22.37c3.66,-1.31 5.24,3.94 2.14,5.24 -3.64,1.52 -5.77,-3.93 -2.14,-5.24zm-4.29 0.16c-0.4,2.07 -0.85,3.51 0.46,5.54 2.07,3.21 6.84,3.56 9.32,0.35 1.67,-2.16 0.87,-3.14 0.91,-5.66l0.8 -0.37c0.49,-0.81 1.02,-0.44 0.76,-1.56 -1.21,0 -1.08,0.8 -2.31,1.06 -0.28,-1.94 1.26,-0.44 1.18,-2.43 -1.28,0.06 -1.11,0.53 -2.25,1.08 -6.24,-3.2 -7.47,0.91 -8.87,2.01z"/>
  <path class="fil3" d="M15.61 38.34c0.32,-1.32 0.69,0.26 0.7,-1.47 -1.99,-0.91 -4.28,2.36 -2.95,4.01 1.38,-0.02 0.45,0.18 1.19,-0.92 3.49,3.14 11.65,4.18 15.65,0.42l0.75 0.59c0.74,0.32 0.07,0.27 0.95,0.04 0.79,-2.57 -1.68,-5.14 -2.65,-4.18 -0.61,0.6 -0.01,0.81 0.31,1.59 -2.08,1.2 -3.85,2.29 -7.12,2.26 -3.64,-0.03 -4.44,-1.31 -6.82,-2.33z"/>
  <path class="fil4" d="M24.39 34.16c-1.15,-1.43 -0.6,-0.03 -2.11,-1.09 0.07,-1.94 1.58,-1.97 0.65,-2.9 -0.81,-0.81 -1.95,0.65 -2.24,1.39 -1.13,2.94 2.61,5.19 3.7,2.59z"/>
 </g>
</svg>
