<?xml version="1.0" encoding="UTF-8"?>
<!DOCTYPE svg PUBLIC "-//W3C//DTD SVG 1.0//EN" "http://www.w3.org/TR/2001/REC-SVG-20010904/DTD/svg10.dtd">
<!-- Creator: CorelDRAW 2021 (64-Bit) -->
<svg xmlns="http://www.w3.org/2000/svg" xml:space="preserve" width="0.612358in" height="0.612354in" version="1.0" style="shape-rendering:geometricPrecision; text-rendering:geometricPrecision; image-rendering:optimizeQuality; fill-rule:evenodd; clip-rule:evenodd"
viewBox="0 0 42.61 42.61"
 xmlns:xlink="http://www.w3.org/1999/xlink"
 xmlns:xodm="http://www.corel.com/coreldraw/odm/2003">
 <defs>
  <style type="text/css">
   <![CDATA[
    .fil0 {fill:#016189}
    .fil3 {fill:#E9F5F9}
    .fil2 {fill:#F4FCFB}
    .fil1 {fill:#FAFDFA}
   ]]>
  </style>
 </defs>
 <g id="Layer_x0020_1">
  <metadata id="CorelCorpID_0Corel-Layer"/>
  <circle class="fil0" cx="21.3" cy="21.3" r="21.3"/>
  <path class="fil1" d="M26.34 19.76c-0.78,-3.83 4.5,-4.5 5.2,-1.34 0.82,3.69 -4.57,4.44 -5.2,1.34zm1.2 -5.82c-6.84,1.9 -4.07,12.06 2.82,10.29 6.68,-1.71 4.12,-12.22 -2.82,-10.29z"/>
  <path class="fil1" d="M12.72 16.56c3.46,-1.22 4.92,3.92 1.85,5.01 -3.45,1.23 -5.31,-3.79 -1.85,-5.01zm-0.46 -2.63c-6.89,1.82 -4.19,12.18 2.83,10.28 6.37,-1.72 4.19,-12.14 -2.83,-10.28z"/>
  <path class="fil2" d="M12.53 34.07c0.89,0.02 0.53,0.04 0.99,-0.43l0.2 -0.31c2.26,1.38 3.58,2.44 7.15,2.55 4.05,0.12 4.88,-0.79 7.63,-2.15 0.61,0.33 0.66,0.57 1.5,0.63 0.9,-2.33 -1.13,-4.57 -2.16,-4.26 -0.95,0.28 -0.23,1.08 0.01,1.68 -1.95,1.01 -3.37,2.08 -6.5,2.12 -3.3,0.04 -4.48,-1.11 -6.65,-2.23 0.36,-1.17 -0.65,1.29 0.37,-0.53 0.34,-0.61 0.28,0.56 0.27,-0.83 -1.91,-0.93 -3.97,2.16 -2.82,3.77z"/>
  <path class="fil3" d="M23.23 28.42l-2.09 -0.6c0.13,-2.25 1.78,-2.2 0.72,-3.21 -1.38,-1.31 -4.05,3.23 -1.49,4.88 0.26,0.17 2.87,1.45 2.87,-1.07z"/>
 </g>
</svg>
