<?xml version="1.0" encoding="UTF-8"?>
<!DOCTYPE svg PUBLIC "-//W3C//DTD SVG 1.0//EN" "http://www.w3.org/TR/2001/REC-SVG-20010904/DTD/svg10.dtd">
<!-- Creator: CorelDRAW 2021 (64-Bit) -->
<svg xmlns="http://www.w3.org/2000/svg" xml:space="preserve" width="0.551791in" height="0.861531in" version="1.0" style="shape-rendering:geometricPrecision; text-rendering:geometricPrecision; image-rendering:optimizeQuality; fill-rule:evenodd; clip-rule:evenodd"
viewBox="0 0 68.11 106.34"
 xmlns:xlink="http://www.w3.org/1999/xlink"
 xmlns:xodm="http://www.corel.com/coreldraw/odm/2003">
 <defs>
  <style type="text/css">
   <![CDATA[
    .str0 {stroke:#006189;stroke-width:0.86;stroke-miterlimit:2.61313}
    .fil1 {fill:none}
    .fil0 {fill:#FEFEFE}
   ]]>
  </style>
 </defs>
 <g id="Layer_x0020_1">
  <metadata id="CorelCorpID_0Corel-Layer"/>
  <g id="_2714626357232">
   <path class="fil0" d="M22.93 54.38c-1.63,2.77 -15.01,14.96 -18.77,19.04 -1.93,2.1 -3.09,2.58 -3.86,5.66 -0.63,2.55 -0.27,5.6 1.1,7.65 3.09,4.59 8.25,4.29 14.71,4.29 12.71,-0.01 25.43,-0.04 38.14,0 6.34,0.02 11.29,-0.83 13.15,-5.87 3.16,-8.56 -5.07,-11.97 -9.44,-17.8 -2.48,-3.31 -5.34,-1.02 -5.08,1.24 0.28,2.44 7.24,7.7 9.04,10.06 1.73,2.25 1.05,5.54 -1.09,6.63 -1.87,0.95 -6.6,0.63 -8.96,0.62l-38.14 0.01c-3.09,0.04 -6.53,0.29 -7.92,-1.68 -1.9,-2.68 -0.13,-5.1 1.51,-6.69 5.99,-5.83 12.76,-12.95 19.04,-19.11 4.88,-4.79 3.94,-3.96 -2.19,-10.19 -3.22,-3.28 -5.73,-5.89 -9.45,-9.62 -2.57,-2.57 -8.08,-6.77 -6.24,-11.88 1.94,-5.41 6.57,-5.87 13.36,-5.86 6.2,0.01 12.77,0.15 18.75,-0.09 5.5,-0.22 12.82,-0.88 16.46,2.2 4.25,3.59 3.09,8.98 -0.68,12.54 -1.35,1.28 -4.36,3.33 -3.29,5.69 2.19,4.83 12.95,-5.46 11.91,-13.81 -0.68,-5.47 -3.91,-9.17 -8.27,-10.77 -4.86,-1.79 -29.89,-1.28 -36.82,-1.08 -6.09,0.17 -11.3,1.21 -13.99,4.79 -11.22,14.88 11.96,25.56 17.02,34.05z"/>
   <path class="fil0" d="M56.5 83.68c0.49,-2.74 -2.08,-3.46 -4.26,-4.77 -4.08,-2.46 -13.65,-7.05 -15.29,-9.57 -1.71,-2.62 0.51,0.11 -0.04,-3.06 -4.45,0.64 2.49,0.01 -5.46,4.74 -7.67,4.57 -24.29,9.85 -18.84,13.1 1.07,0.64 41.66,0.19 43.88,-0.45z"/>
   <path class="fil0" d="M17.06 29.23l10.25 10.43c5.39,5.34 5.98,4.01 6.84,14.24 1.16,0.9 1.91,1.64 3.06,1.83 0.1,-5.4 0.47,-10.95 4.29,-14.39 1.72,-1.55 8.81,-8.01 9.55,-9.31 -2.29,-0.92 -6.03,-0.78 -8.62,-1.78 -2.66,-1.03 -4.72,-2.44 -7.66,-3.28 -5.21,-1.49 -13.52,-0.12 -17.71,2.26z"/>
   <path class="fil0" d="M33.56 64.46c1.89,-0.25 1.58,0.58 1.29,-1.84l-1.64 -0.07c-0.2,1.85 -0.34,0.85 0.34,1.91z"/>
   <path class="fil0" d="M33.57 55.62l-0.33 1.49 1.58 -0.04c0.15,-1.47 0,-1.62 -1.25,-1.45z"/>
   <path class="fil0" d="M33.2 61.05c0.45,1.41 -0.23,0.7 1.18,1.14l0.53 -1.12c-0.18,-0.08 -0.32,-0.32 -0.37,-0.21l-1.34 0.19z"/>
   <path class="fil0" d="M33.45 64.39c2.02,1.6 0.8,0.19 1.15,0 -0.78,-0.37 0.96,-1.18 -1.15,0z"/>
   <path class="fil0" d="M33.45 60.57l0.93 0.24c0.05,-0.02 0.17,-0.16 0.27,-0.24 -2,-1.47 -0.71,-0.23 -1.2,0z"/>
   <path class="fil0" d="M33.53 58.19c0.6,0.42 0.45,0.5 1.06,0 -1.72,-1.27 -0.56,-0.23 -1.06,0z"/>
  </g>
  <path class="fil1 str0" d="M29.97 105.91l2.49 0m0 -105.48l-2.49 0"/>
 </g>
</svg>
