<svg id="Capa_1" enable-background="new 0 0 512 512" height="512" viewBox="0 0 512 512" width="512" xmlns="http://www.w3.org/2000/svg" xmlns:xlink="http://www.w3.org/1999/xlink"><linearGradient id="SVGID_1_" gradientUnits="userSpaceOnUse" x1="256" x2="256" y1="330" y2="0"><stop offset="0" stop-color="#ffc2cc"/><stop offset="1" stop-color="#fff2f4"/></linearGradient><linearGradient id="SVGID_2_" gradientUnits="userSpaceOnUse" x1="256" x2="256" y1="512" y2="240"><stop offset="0" stop-color="#fd3a84"/><stop offset="1" stop-color="#ffa68d"/></linearGradient><g><g><g><path d="m196 60c0-33.084-26.916-60-60-60s-60 26.916-60 60 26.916 60 60 60 60-26.916 60-60zm-45 60h-15-15c-41.355 0-75 33.645-75 75 0 8.284 6.716 15 15 15h150c8.284 0 15-6.716 15-15 0-41.355-33.645-75-75-75zm285 60c0-33.084-26.916-60-60-60s-60 26.916-60 60 26.916 60 60 60 60-26.916 60-60zm-45 60h-15-15c-41.355 0-75 33.645-75 75 0 8.284 6.716 15 15 15h150c8.284 0 15-6.716 15-15 0-41.355-33.645-75-75-75z" fill="url(#SVGID_1_)"/></g></g><g><g><path d="m211 240h-150c-8.284 0-15 6.716-15 15v242c0 8.284 6.716 15 15 15h150c8.284 0 15-6.716 15-15v-242c0-8.284-6.716-15-15-15zm240 120h-150c-8.284 0-15 6.716-15 15v122c0 8.284 6.716 15 15 15h150c8.284 0 15-6.716 15-15v-122c0-8.284-6.716-15-15-15z" fill="url(#SVGID_2_)"/></g></g></g></svg>