<?xml version="1.0" encoding="UTF-8"?>
<!DOCTYPE svg PUBLIC "-//W3C//DTD SVG 1.0//EN" "http://www.w3.org/TR/2001/REC-SVG-20010904/DTD/svg10.dtd">
<!-- Creator: CorelDRAW 2021 (64-Bit) -->
<svg xmlns="http://www.w3.org/2000/svg" xml:space="preserve" width="1.04772in" height="1.53897in" version="1.0" style="shape-rendering:geometricPrecision; text-rendering:geometricPrecision; image-rendering:optimizeQuality; fill-rule:evenodd; clip-rule:evenodd"
viewBox="0 0 56.02 82.28"
 xmlns:xlink="http://www.w3.org/1999/xlink"
 xmlns:xodm="http://www.corel.com/coreldraw/odm/2003">
 <defs>
  <style type="text/css">
   <![CDATA[
    .fil0 {fill:#016189;fill-rule:nonzero}
    .fil1 {fill:#841F3B;fill-rule:nonzero}
   ]]>
  </style>
 </defs>
 <g id="Layer_x0020_1">
  <metadata id="CorelCorpID_0Corel-Layer"/>
  <g id="_1756876528416">
   <path class="fil0" d="M38.29 74.57c0,1.42 -1.15,2.57 -2.57,2.57l-0.47 0c-1.06,2.99 -3.89,5.14 -7.24,5.14 -3.36,0 -6.18,-2.15 -7.24,-5.14l-0.47 0c-1.42,0 -2.57,-1.15 -2.57,-2.57 0,-1.42 1.15,-2.57 2.57,-2.57l15.43 0c1.42,0 2.57,1.15 2.57,2.57z"/>
   <path class="fil1" d="M38.29 66.86c0,1.42 -1.15,2.57 -2.57,2.57l-15.43 0c-1.42,0 -2.57,-1.15 -2.57,-2.57 0,-1.42 1.15,-2.57 2.57,-2.57l15.43 0c1.42,0 2.57,1.15 2.57,2.57z"/>
   <path class="fil0" d="M28.01 10.29c-11.36,0 -20.57,9.21 -20.57,20.57 0,10.29 10.29,20.73 10.29,30.86l20.57 0c0,-10.45 10.29,-20.57 10.29,-30.86 0,-11.36 -9.21,-20.57 -20.57,-20.57zm10.86 33.57c-2.05,4.07 -4.14,8.25 -5.13,12.71l-11.49 0c-0.99,-4.32 -3.04,-8.44 -5.04,-12.46 -2.38,-4.79 -4.63,-9.31 -4.63,-13.26 0,-8.51 6.92,-15.43 15.43,-15.43 8.51,0 15.43,6.92 15.43,15.43 0,3.91 -2.22,8.33 -4.57,13z"/>
   <path class="fil0" d="M2.57 13.2l4.63 2.68c-1,1.39 -1.87,2.87 -2.59,4.44l-4.62 -2.66 2.57 -4.46zm25.44 -8.06c-0.88,0 -1.71,0.17 -2.57,0.26l0 -5.4 5.14 0 0 5.4c-0.86,-0.09 -1.69,-0.26 -2.57,-0.26zm23.4 15.18c-0.71,-1.58 -1.59,-3.05 -2.59,-4.44l4.63 -2.68 2.57 4.46 -4.61 2.66zm-0.06 21.04l4.67 2.69 -2.57 4.46 -4.21 -2.43c0.76,-1.55 1.46,-3.12 2.11,-4.72zm-46.7 0.01c0.64,1.6 1.34,3.17 2.09,4.73l-4.17 2.41 -2.57 -4.46 4.65 -2.68z"/>
  </g>
 </g>
</svg>
