<?xml version="1.0" encoding="UTF-8"?>
<!DOCTYPE svg PUBLIC "-//W3C//DTD SVG 1.0//EN" "http://www.w3.org/TR/2001/REC-SVG-20010904/DTD/svg10.dtd">
<!-- Creator: CorelDRAW 2021 (64-Bit) -->
<svg xmlns="http://www.w3.org/2000/svg" xml:space="preserve" width="1.15423in" height="1.53897in" version="1.0" style="shape-rendering:geometricPrecision; text-rendering:geometricPrecision; image-rendering:optimizeQuality; fill-rule:evenodd; clip-rule:evenodd"
viewBox="0 0 55.42 73.9"
 xmlns:xlink="http://www.w3.org/1999/xlink"
 xmlns:xodm="http://www.corel.com/coreldraw/odm/2003">
 <defs>
  <style type="text/css">
   <![CDATA[
    .fil0 {fill:#016189;fill-rule:nonzero}
    .fil1 {fill:#841F3B;fill-rule:nonzero}
   ]]>
  </style>
 </defs>
 <g id="Layer_x0020_1">
  <metadata id="CorelCorpID_0Corel-Layer"/>
  <path class="fil0" d="M36.95 66.97c0,1.28 -1.03,2.31 -2.31,2.31l-0.42 0c-0.95,2.69 -3.49,4.62 -6.5,4.62 -3.01,0 -5.55,-1.93 -6.5,-4.62l-0.42 0c-1.28,0 -2.31,-1.03 -2.31,-2.31 0,-1.28 1.03,-2.31 2.31,-2.31l13.86 0c1.28,0 2.31,1.03 2.31,2.31z"/>
  <path class="fil1" d="M36.95 60.04c0,1.28 -1.03,2.31 -2.31,2.31l-13.86 0c-1.28,0 -2.31,-1.03 -2.31,-2.31 0,-1.28 1.03,-2.31 2.31,-2.31l13.86 0c1.28,0 2.31,1.03 2.31,2.31z"/>
  <path class="fil0" d="M27.71 9.24c-10.2,0 -18.47,8.27 -18.47,18.47 0,9.24 9.24,18.62 9.24,27.71l18.47 0c0,-9.38 9.24,-18.47 9.24,-27.71 0,-10.2 -8.27,-18.47 -18.47,-18.47zm9.76 30.15c-1.84,3.66 -3.72,7.41 -4.61,11.42l-10.31 0c-0.89,-3.88 -2.73,-7.58 -4.53,-11.19 -2.14,-4.3 -4.16,-8.36 -4.16,-11.91 0,-7.64 6.22,-13.86 13.86,-13.86 7.64,0 13.86,6.22 13.86,13.86 0,3.51 -1.99,7.48 -4.1,11.68z"/>
  <path class="fil0" d="M4.87 11.85l4.16 2.4c-0.9,1.25 -1.68,2.58 -2.32,3.99l-4.15 -2.39 2.31 -4zm22.84 -7.23c-0.79,0 -1.54,0.15 -2.31,0.23l0 -4.85 4.62 0 0 4.85c-0.77,-0.08 -1.52,-0.23 -2.31,-0.23zm21.01 13.63c-0.64,-1.42 -1.43,-2.74 -2.33,-3.99l4.16 -2.4 2.31 4.01 -4.14 2.39zm-0.05 18.9l4.19 2.42 -2.31 4 -3.78 -2.18c0.68,-1.39 1.31,-2.8 1.89,-4.24zm-41.94 0.01c0.57,1.44 1.2,2.85 1.88,4.25l-3.75 2.16 -2.31 -4 4.18 -2.41z"/>
  <path class="fil1" d="M14.26 9.03l-2.4 -4.16 4 -2.31 2.39 4.14c-1.42,0.64 -2.74,1.42 -3.99,2.32zm26.91 -0c-1.24,-0.9 -2.58,-1.68 -3.99,-2.32l2.39 -4.14 4 2.31 -2.4 4.15zm-36.3 21l-4.86 0 0 -4.62 4.85 0c-0.08,0.77 -0.23,1.51 -0.23,2.31 0,0.78 0.15,1.54 0.24,2.31zm50.56 -4.62l0 4.62 -4.86 0c0.09,-0.77 0.24,-1.52 0.24,-2.31 0,-0.79 -0.15,-1.54 -0.23,-2.31l4.85 0 0 0z"/>
 </g>
</svg>
