<?xml version="1.0" encoding="UTF-8"?>
<!DOCTYPE svg PUBLIC "-//W3C//DTD SVG 1.0//EN" "http://www.w3.org/TR/2001/REC-SVG-20010904/DTD/svg10.dtd">
<!-- Creator: CorelDRAW 2021 (64-Bit) -->
<svg xmlns="http://www.w3.org/2000/svg" xml:space="preserve" width="1.29083in" height="1.28667in" version="1.0" style="shape-rendering:geometricPrecision; text-rendering:geometricPrecision; image-rendering:optimizeQuality; fill-rule:evenodd; clip-rule:evenodd"
viewBox="0 0 85.51 85.23"
 xmlns:xlink="http://www.w3.org/1999/xlink"
 xmlns:xodm="http://www.corel.com/coreldraw/odm/2003">
 <defs>
  <style type="text/css">
   <![CDATA[
    .fil0 {fill:#841F3B}
   ]]>
  </style>
 </defs>
 <g id="Layer_x0020_1">
  <metadata id="CorelCorpID_0Corel-Layer"/>
  <path class="fil0" d="M-0 19.43l0 47.7c0,3.97 4.15,11.14 7.55,13.43 3.59,2.42 6.75,4.68 11.88,4.68l46.31 -0.06c3.29,-0.45 2.58,0.47 7.87,-2.07 4.36,-2.1 7.48,-5.44 9.64,-9.79 1.24,-2.5 1.09,-2.07 1.71,-4.91 0.47,-2.12 0.06,-3.89 0.3,-6.1 0.4,-3.54 0.19,-20.27 0.19,-24.54 0,-5.91 -6.14,-7.32 -8.62,-3.99 -0.94,1.27 -0.88,1.8 -0.87,3.99 0.01,3.21 -0.22,6.07 -0.22,9.5l0.02 19.21c-1,4.25 -3.8,7.81 -8.15,9.09 -1.64,0.48 -36.28,0.62 -38.68,0.62 -8.57,0 -10.05,0.98 -15.99,-3.66 -2.1,-1.64 -2.69,-3.66 -3.44,-6.26 -0.18,-0.63 -0.09,-0.13 -0.06,-0.74l0.06 -8.77c0,-4.86 -0.37,-37.08 0.29,-39.01 0.95,-2.78 2.27,-4.12 4.06,-5.87 1.96,-1.92 4.77,-2.37 7.57,-2.37l19.27 0.06c2.93,-0.4 13.15,0.31 14.87,-0.15 1.25,-0.33 3.62,-2.39 3.62,-3.88 0,-1.71 0,-2.88 -1.31,-4.21 -0.65,-0.66 -1.61,-1.31 -2.89,-1.31l-33.56 0c-5.04,0 -6.83,0.95 -10.16,2.43 -2.65,1.17 -2.18,1.21 -4.61,3.12 -3.6,2.84 -6.65,8.85 -6.65,13.88z"/>
 </g>
</svg>
