<?xml version="1.0" encoding="UTF-8"?>
<!DOCTYPE svg PUBLIC "-//W3C//DTD SVG 1.0//EN" "http://www.w3.org/TR/2001/REC-SVG-20010904/DTD/svg10.dtd">
<!-- Creator: CorelDRAW 2021 (64-Bit) -->
<svg xmlns="http://www.w3.org/2000/svg" xml:space="preserve" width="1.11967in" height="1.11444in" version="1.0" style="shape-rendering:geometricPrecision; text-rendering:geometricPrecision; image-rendering:optimizeQuality; fill-rule:evenodd; clip-rule:evenodd"
viewBox="0 0 63.82 63.52"
 xmlns:xlink="http://www.w3.org/1999/xlink"
 xmlns:xodm="http://www.corel.com/coreldraw/odm/2003">
 <defs>
  <style type="text/css">
   <![CDATA[
    .fil0 {fill:#016189}
   ]]>
  </style>
 </defs>
 <g id="Layer_x0020_1">
  <metadata id="CorelCorpID_0Corel-Layer"/>
  <path class="fil0" d="M21.47 45.66l-7.22 -9.31c-0.73,-0.96 -4.04,-5.62 -5.17,-6.04 -1.89,-0.71 -4.43,0.87 -5.88,2.02 -0.58,0.45 -0.8,0.94 -1.34,1.51 -1.11,1.15 -1.85,2.61 -1.85,4.42 0,0.54 14.89,21.84 16.2,23.13 2.02,2 2.34,2.14 5.27,2.14 2.18,0 4.07,-1.87 5.24,-3.5l4.94 -7.03c0.47,-0.7 0.81,-1.11 1.26,-1.78 3.95,-5.9 11.01,-15.8 14.44,-21.28l9.27 -14.66c0.46,-0.69 4.81,-7.16 7.2,-11.13 -1.01,-2.43 -5.28,-5.92 -8.15,-3.07 -11.33,16.45 -17.18,24.87 -29.5,39.22 -0.84,0.9 -1.47,1.74 -2.28,2.66l-2.42 2.71z"/>
 </g>
</svg>
