<?xml version="1.0" encoding="UTF-8"?>
<!DOCTYPE svg PUBLIC "-//W3C//DTD SVG 1.0//EN" "http://www.w3.org/TR/2001/REC-SVG-20010904/DTD/svg10.dtd">
<!-- Creator: CorelDRAW 2021 (64-Bit) -->
<svg xmlns="http://www.w3.org/2000/svg" xml:space="preserve" width="0.559047in" height="0.686579in" version="1.0" style="shape-rendering:geometricPrecision; text-rendering:geometricPrecision; image-rendering:optimizeQuality; fill-rule:evenodd; clip-rule:evenodd"
viewBox="0 0 60.56 74.38"
 xmlns:xlink="http://www.w3.org/1999/xlink"
 xmlns:xodm="http://www.corel.com/coreldraw/odm/2003">
 <defs>
  <style type="text/css">
   <![CDATA[
    .fil0 {fill:#016189;fill-rule:nonzero}
   ]]>
  </style>
 </defs>
 <g id="Layer_x0020_1">
  <metadata id="CorelCorpID_0Corel-Layer"/>
  <g>
   <path class="fil0" d="M50.58 39.52c0.1,11.26 9.87,15 9.98,15.05 -0.08,0.26 -1.56,5.34 -5.15,10.58 -3.1,4.53 -6.32,9.05 -11.39,9.14 -4.98,0.09 -6.58,-2.95 -12.28,-2.95 -5.69,0 -7.47,2.86 -12.19,3.05 -4.89,0.19 -8.62,-4.9 -11.74,-9.41 -6.39,-9.23 -11.27,-26.09 -4.71,-37.48 3.26,-5.65 9.08,-9.23 15.39,-9.32 4.8,-0.09 9.34,3.23 12.28,3.23 2.93,0 8.45,-4 14.24,-3.41 2.43,0.1 9.23,0.98 13.6,7.38 -0.35,0.22 -8.12,4.74 -8.04,14.15l0 0zm-9.36 -27.64c2.6,-3.14 4.35,-7.52 3.87,-11.88 -3.74,0.15 -8.27,2.49 -10.96,5.64 -2.41,2.78 -4.51,7.24 -3.95,11.51 4.17,0.32 8.44,-2.12 11.03,-5.27z"/>
  </g>
 </g>
</svg>
