<?xml version="1.0" encoding="UTF-8"?>
<!DOCTYPE svg PUBLIC "-//W3C//DTD SVG 1.0//EN" "http://www.w3.org/TR/2001/REC-SVG-20010904/DTD/svg10.dtd">
<!-- Creator: CorelDRAW 2021 (64-Bit) -->
<svg xmlns="http://www.w3.org/2000/svg" xml:space="preserve" width="0.567902in" height="0.671165in" version="1.0" style="shape-rendering:geometricPrecision; text-rendering:geometricPrecision; image-rendering:optimizeQuality; fill-rule:evenodd; clip-rule:evenodd"
viewBox="0 0 62.14 73.44"
 xmlns:xlink="http://www.w3.org/1999/xlink"
 xmlns:xodm="http://www.corel.com/coreldraw/odm/2003">
 <defs>
  <style type="text/css">
   <![CDATA[
    .fil0 {fill:#016189;fill-rule:nonzero}
   ]]>
  </style>
 </defs>
 <g id="Layer_x0020_1">
  <metadata id="CorelCorpID_0Corel-Layer"/>
  <g id="_2396766028864">
   <g>
    <g>
     <path class="fil0" d="M4.55 23.79c-1.27,0 -2.34,0.44 -3.22,1.32 -0.88,0.88 -1.32,1.94 -1.32,3.18l0 18.98c0,1.27 0.44,2.34 1.32,3.22 0.88,0.88 1.96,1.32 3.22,1.32 1.26,0 2.33,-0.44 3.2,-1.32 0.87,-0.88 1.3,-1.96 1.3,-3.22l0 -18.98c0,-1.24 -0.44,-2.29 -1.32,-3.18 -0.88,-0.88 -1.94,-1.32 -3.18,-1.32z"/>
     <path class="fil0" d="M41.09 6.75l3.13 -5.78c0.21,-0.38 0.13,-0.68 -0.22,-0.88 -0.38,-0.18 -0.68,-0.09 -0.88,0.26l-3.18 5.83c-2.8,-1.24 -5.75,-1.86 -8.87,-1.86 -3.12,0 -6.08,0.62 -8.87,1.86l-3.18 -5.83c-0.21,-0.35 -0.5,-0.44 -0.88,-0.26 -0.35,0.21 -0.43,0.5 -0.22,0.88l3.13 5.78c-3.18,1.62 -5.71,3.88 -7.59,6.78 -1.88,2.9 -2.82,6.07 -2.82,9.51l40.82 0c0,-3.44 -0.94,-6.61 -2.82,-9.51 -1.88,-2.9 -4.4,-5.15 -7.55,-6.78zm-18.12 8.41c-0.34,0.34 -0.74,0.51 -1.21,0.51 -0.47,0 -0.87,-0.17 -1.19,-0.51 -0.32,-0.34 -0.49,-0.74 -0.49,-1.21 0,-0.47 0.16,-0.87 0.49,-1.21 0.32,-0.34 0.72,-0.51 1.19,-0.51 0.47,0 0.87,0.17 1.21,0.51 0.34,0.34 0.51,0.74 0.51,1.21 -0,0.47 -0.17,0.88 -0.51,1.21zm18.6 0c-0.32,0.34 -0.72,0.51 -1.19,0.51 -0.47,0 -0.88,-0.17 -1.21,-0.51 -0.34,-0.34 -0.51,-0.74 -0.51,-1.21 0,-0.47 0.17,-0.87 0.51,-1.21 0.34,-0.34 0.74,-0.51 1.21,-0.51 0.47,0 0.87,0.17 1.19,0.51 0.32,0.34 0.49,0.74 0.49,1.21 0,0.47 -0.16,0.88 -0.49,1.21z"/>
     <path class="fil0" d="M10.81 54.02c0,1.35 0.47,2.5 1.41,3.44 0.94,0.94 2.09,1.41 3.44,1.41l3.27 0 0.04 10.02c0,1.27 0.44,2.34 1.32,3.22 0.88,0.88 1.94,1.32 3.18,1.32 1.26,0 2.34,-0.44 3.22,-1.32 0.88,-0.88 1.32,-1.96 1.32,-3.22l0 -10.02 6.09 0 0 10.02c0,1.27 0.44,2.34 1.32,3.22 0.88,0.88 1.96,1.32 3.22,1.32 1.26,0 2.34,-0.44 3.22,-1.32 0.88,-0.88 1.32,-1.96 1.32,-3.22l0 -10.02 3.31 0c1.32,0 2.46,-0.47 3.4,-1.41 0.94,-0.94 1.41,-2.09 1.41,-3.44l0 -29.39 -40.51 0 0 29.39z"/>
     <path class="fil0" d="M57.59 23.79c-1.24,0 -2.3,0.44 -3.18,1.3 -0.88,0.87 -1.32,1.94 -1.32,3.2l0 18.98c0,1.27 0.44,2.34 1.32,3.22 0.88,0.88 1.94,1.32 3.18,1.32 1.26,0 2.34,-0.44 3.22,-1.32 0.88,-0.88 1.32,-1.96 1.32,-3.22l0 -18.98c0,-1.26 -0.44,-2.33 -1.32,-3.2 -0.88,-0.87 -1.96,-1.3 -3.22,-1.3z"/>
    </g>
   </g>
   <g>
   </g>
   <g>
   </g>
   <g>
   </g>
   <g>
   </g>
   <g>
   </g>
   <g>
   </g>
   <g>
   </g>
   <g>
   </g>
   <g>
   </g>
   <g>
   </g>
   <g>
   </g>
   <g>
   </g>
   <g>
   </g>
   <g>
   </g>
   <g>
   </g>
  </g>
 </g>
</svg>
