<?xml version="1.0" encoding="UTF-8"?>
<!DOCTYPE svg PUBLIC "-//W3C//DTD SVG 1.0//EN" "http://www.w3.org/TR/2001/REC-SVG-20010904/DTD/svg10.dtd">
<!-- Creator: CorelDRAW 2021 (64-Bit) -->
<svg xmlns="http://www.w3.org/2000/svg" xml:space="preserve" width="0.34978in" height="0.486508in" version="1.0" style="shape-rendering:geometricPrecision; text-rendering:geometricPrecision; image-rendering:optimizeQuality; fill-rule:evenodd; clip-rule:evenodd"
viewBox="0 0 98.05 136.38"
 xmlns:xlink="http://www.w3.org/1999/xlink"
 xmlns:xodm="http://www.corel.com/coreldraw/odm/2003">
 <defs>
  <style type="text/css">
   <![CDATA[
    .fil0 {fill:#016189}
    .fil1 {fill:#841F3B}
   ]]>
  </style>
 </defs>
 <g id="Layer_x0020_1">
  <metadata id="CorelCorpID_0Corel-Layer"/>
  <g id="_2361678852560">
   <path class="fil0" d="M8.03 125.41l5.49 -17.59 8.9 5.96c-2.36,2.1 -7.93,6.55 -10.73,8.74 -1.04,0.81 -2.66,2.35 -3.66,2.89zm57.42 -108.26c0.07,0.24 0.13,0.19 -0.11,0.18 0.08,0.23 0.12,0.18 -0.13,0.17 0.09,0.23 0.13,0.17 -0.12,0.18 0.1,0.22 0.13,0.16 -0.12,0.18 0.09,0.23 0.13,0.17 -0.12,0.18 0.07,0.24 0.12,0.18 -0.12,0.17 0.09,0.23 0.13,0.18 -0.12,0.17 0.1,0.22 0.13,0.16 -0.11,0.18 0.1,0.22 0.12,0.15 -0.13,0.17 0.06,0.24 0.12,0.19 -0.12,0.18 0.08,0.23 0.12,0.18 -0.12,0.17 0.09,0.23 0.13,0.17 -0.12,0.18 0.1,0.22 0.12,0.15 -0.12,0.17 0.08,0.23 0.12,0.18 -0.12,0.18 0.07,0.23 0.12,0.18 -0.12,0.17 0.09,0.23 0.13,0.17 -0.12,0.17 0.09,0.22 0.13,0.16 -0.11,0.18 0.09,0.22 0.12,0.16 -0.12,0.17 0.07,0.23 0.12,0.18 -0.12,0.17 0.08,0.23 0.12,0.18 -0.12,0.17 0.1,0.23 0.13,0.17 -0.11,0.18 0.1,0.22 0.12,0.15 -0.12,0.17 0.07,0.23 0.12,0.18 -0.12,0.18 0.07,0.23 0.12,0.18 -0.12,0.17 0.09,0.23 0.13,0.17 -0.12,0.17 0.1,0.22 0.12,0.15 -0.12,0.17 0.08,0.22 0.12,0.17 -0.12,0.18 0.07,0.24 0.12,0.18 -0.12,0.18 0.08,0.23 0.12,0.17 -0.12,0.17 0.09,0.22 0.13,0.16 -0.11,0.18 0.1,0.22 0.12,0.15 -0.12,0.17 0.06,0.24 0.12,0.19 -0.12,0.18 0.08,0.23 0.12,0.17 -0.12,0.17 0.09,0.23 0.13,0.17 -0.11,0.18 0.09,0.22 0.12,0.15 -0.12,0.17 0.08,0.23 0.12,0.17 -0.12,0.18 0.07,0.23 0.12,0.18 -0.12,0.17 0.09,0.23 0.13,0.17 -0.12,0.17 0.09,0.22 0.13,0.16 -0.12,0.17 0.08,0.22 0.12,0.15 -0.12,0.17 0.07,0.24 0.12,0.19 -0.11,0.18 0.08,0.23 0.12,0.17 -0.12,0.17 0.09,0.22 0.13,0.16 -0.11,0.18 0.1,0.22 0.12,0.15 -0.12,0.17 0.06,0.23 0.11,0.18 -0.12,0.18 0.07,0.23 0.12,0.18 -0.12,0.17 0.09,0.23 0.13,0.17 -0.12,0.18 0.09,0.22 0.12,0.15 -0.12,0.17 0.08,0.22 0.11,0.16 -0.12,0.17 0.07,0.23 0.12,0.18 -0.12,0.18 0.08,0.23 0.12,0.17 -0.12,0.17 0.09,0.22 0.12,0.16 -0.12,0.18 0.09,0.21 0.12,0.14 -0.12,0.17 0.06,0.23 0.12,0.19 -0.11,0.18 0.08,0.23 0.12,0.18 -0.12,0.17 0.09,0.23 0.13,0.17 -0.12,0.18 0.09,0.22 0.12,0.15 -0.12,0.17 0.07,0.22 0.11,0.17 -0.12,0.18 0.07,0.23 0.12,0.18 -0.12,0.18 0.08,0.23 0.12,0.17 -0.12,0.17 0.09,0.22 0.13,0.16 -0.12,0.17 0.08,0.21 0.11,0.15 -0.12,0.17 0.07,0.24 0.12,0.19 -0.11,0.18 0.08,0.23 0.12,0.17 -0.12,0.17 0.09,0.22 0.13,0.16 -0.12,0.18 0.09,0.21 0.12,0.15 -0.12,0.17 0.06,0.23 0.11,0.17 -0.12,0.18 0.07,0.23 0.12,0.18 -0.12,0.17 0.09,0.23 0.13,0.17 -0.12,0.17 0.09,0.22 0.12,0.15 -0.12,0.17 0.08,0.22 0.11,0.16 -0.12,0.17 0.07,0.23 0.12,0.19 -0.12,0.18 0.08,0.23 0.12,0.17 -0.12,0.17 0.09,0.22 0.13,0.16 -0.11,0.18 0.09,0.21 0.11,0.14 -0.13,0.17 0.06,0.23 0.11,0.18 -0.11,0.18 0.07,0.23 0.12,0.18 -0.12,0.17 0.09,0.23 0.13,0.17 -0.12,0.18 0.09,0.22 0.12,0.15 -0.13,0.17 0.07,0.22 0.11,0.16 -0.12,0.18 0.07,0.23 0.12,0.18 -0.12,0.18 0.08,0.23 0.12,0.17 -0.12,0.17 0.09,0.22 0.12,0.16 -0.12,0.17 0.08,0.21 0.11,0.14 -0.12,0.17 0.07,0.23 0.12,0.19 -0.11,0.18 0.07,0.23 0.12,0.17 -0.12,0.17 0.09,0.22 0.12,0.16 -0.12,0.18 0.09,0.21 0.11,0.14 -0.13,0.17 0.06,0.22 0.11,0.17 -0.12,0.18 0.07,0.23 0.12,0.18 -0.12,0.18 0.08,0.23 0.12,0.17 -0.12,0.17 0.09,0.22 0.12,0.15 -0.12,0.17 0.07,0.21 0.1,0.15 -0.12,0.17 0.07,0.23 0.12,0.18 -0.11,0.18 0.08,0.23 0.12,0.17 -0.12,0.17 0.09,0.22 0.12,0.16 -0.12,0.17 0.08,0.21 0.11,0.14 -0.12,0.17 0.06,0.23 0.11,0.18 -0.11,0.18 0.07,0.23 0.12,0.18 -0.12,0.17 0.08,0.22 0.12,0.16 -0.12,0.17 0.09,0.22 0.12,0.15 -0.13,0.17 0.06,0.21 0.1,0.16 -0.12,0.18 0.07,0.23 0.12,0.18 -0.12,0.18 0.08,0.23 0.12,0.17 -0.12,0.17 0.09,0.22 0.12,0.16 -0.12,0.17 0.07,0.21 0.1,0.14 -0.12,0.17 0.06,0.23 0.12,0.19 -0.11,0.18 0.07,0.23 0.11,0.17 -0.12,0.17 0.08,0.22 0.12,0.16 -0.12,0.18 0.09,0.21 0.11,0.15 -0.13,0.17 0.05,0.22 0.1,0.16 -0.12,0.18 0.07,0.23 0.12,0.18 -0.11,0.18 0.08,0.22 0.12,0.16 -0.12,0.17 0.09,0.22 0.12,0.15 -0.12,0.17 0.07,0.21 0.1,0.15 -0.12,0.17 0.07,0.23 0.12,0.18 -0.11,0.18 0.08,0.23 0.12,0.17 -0.12,0.17 0.09,0.22 0.12,0.16 -0.12,0.17 0.08,0.21 0.11,0.14 -0.13,0.17 0.06,0.22 0.11,0.17 -0.11,0.18 0.07,0.23 0.12,0.18 -0.12,0.18 0.08,0.22 0.12,0.16 -0.12,0.18 0.09,0.22 0.11,0.15 -0.13,0.17 0.06,0.21 0.1,0.15 -0.12,0.17 0.07,0.23 0.12,0.18 -0.11,0.18 0.08,0.22 0.12,0.17 -0.12,0.17 0.09,0.22 0.12,0.16 -0.12,0.17 0.07,0.21 0.1,0.14 -0.12,0.17 0.06,0.23 0.11,0.18 -0.11,0.18 0.07,0.23 0.12,0.17 -0.12,0.17 0.08,0.22 0.12,0.16 -0.11,0.18 0.09,0.22 0.11,0.15 -0.13,0.17 0.05,0.21 0.09,0.16 -0.12,0.17 0.07,0.23 0.12,0.18 -0.11,0.18 0.08,0.22 0.12,0.16 -0.12,0.17 0.09,0.22 0.12,0.15 -0.13,0.17 0.06,0.2 0.1,0.14 -0.12,0.17 0.07,0.23 0.12,0.18 -0.11,0.18 0.07,0.22 0.11,0.17 -0.12,0.17 0.08,0.22 0.12,0.16 -0.12,0.17 0.08,0.21 0.11,0.14 -0.13,0.17 0.06,0.22 0.1,0.17 -0.11,0.18 0.07,0.23 0.12,0.18 -0.12,0.18 0.08,0.22 0.12,0.16 -0.12,0.17 0.09,0.22 0.11,0.15 -0.13,0.17 0.06,0.21 0.09,0.15 -0.12,0.17 0.07,0.23 0.12,0.18 -0.11,0.18 0.07,0.22 0.11,0.17 -0.12,0.17 0.09,0.22 0.12,0.16 -0.12,0.17 0.07,0.21 0.1,0.14 -0.13,0.17 0.06,0.22 0.11,0.17 -0.11,0.18 0.07,0.23 0.12,0.17 -0.12,0.18 0.08,0.22 0.12,0.16 -0.12,0.18 0.08,0.21 0.11,0.14 -0.13,0.17 0.05,0.21 0.09,0.16 -0.12,0.18 0.07,0.23 0.12,0.18 -0.11,0.18 0.08,0.22 0.12,0.16 -0.12,0.17 0.08,0.22 0.11,0.15 -0.13,0.17 0.06,0.2 0.09,0.14 -0.12,0.17 0.06,0.23 0.12,0.18 -0.11,0.18 0.07,0.23 0.11,0.17 -0.12,0.17 0.08,0.22 0.12,0.16 -0.12,0.17 0.08,0.21 0.1,0.14 -0.13,0.17 0.06,0.22 0.1,0.16 -0.11,0.18 0.07,0.23 0.12,0.18 -0.11,0.18 0.08,0.22 0.12,0.16 -0.12,0.18 0.08,0.21 0.11,0.15 -0.13,0.17 0.05,0.2 0.09,0.14 -0.12,0.17 0.07,0.23 0.12,0.18 -0.11,0.18 0.07,0.22 0.11,0.17 -0.12,0.17 0.08,0.22 0.11,0.15 -0.12,0.17 0.07,0.21 0.1,0.14 -0.13,0.17 0.06,0.22 0.11,0.17 -0.11,0.18 0.07,0.23 0.12,0.17 -0.12,0.18 0.08,0.22 0.12,0.16 -0.12,0.17 0.08,0.21 0.11,0.14 -0.13,0.17 0.05,0.21 0.09,0.15 -0.12,0.17 0.07,0.23 0.12,0.18 -0.11,0.18 0.08,0.22 0.11,0.16 -0.12,0.17 0.08,0.22 0.11,0.15 -0.13,0.17 0.06,0.2 0.09,0.14 -0.12,0.17 0.06,0.23 0.11,0.18 -0.11,0.18 0.07,0.22 0.11,0.17 -0.12,0.17 0.08,0.22 0.12,0.16 -0.12,0.17 0.07,0.21 0.1,0.14 -0.13,0.17 0.06,0.21 0.1,0.16 -0.11,0.18 0.07,0.23 0.12,0.18 -0.11,0.18 0.08,0.22 0.11,0.16 -0.12,0.17 0.08,0.21 0.11,0.15 -0.13,0.17 0.05,0.2 0.09,0.14 -0.12,0.17 0.07,0.23 0.12,0.18 -0.11,0.18 0.07,0.22 0.11,0.16 -0.12,0.17 0.08,0.22 0.11,0.15 -0.12,0.17 0.06,0.21 0.1,0.14 -0.13,0.17 0.06,0.22 0.11,0.17 -0.11,0.18 0.07,0.23 0.12,0.17 -0.11,0.18 0.08,0.22 0.11,0.16 -0.12,0.17 0.08,0.21 0.1,0.15 -0.13,0.17 0.05,0.2 0.09,0.15 -0.12,0.17 0.07,0.23 0.12,0.18 -0.11,0.18 0.07,0.22 0.11,0.16 -0.12,0.17 0.08,0.22 0.11,0.15 -0.13,0.17 0.06,0.2 0.09,0.14 -0.12,0.17 0.06,0.22 0.11,0.17 -0.11,0.18 0.07,0.22 0.11,0.17 -0.12,0.18 0.08,0.22 0.11,0.16 -0.12,0.17 0.07,0.21 0.1,0.14 -0.13,0.17 0.05,0.21 0.1,0.15 -0.11,0.18 0.07,0.23 0.12,0.18 -0.11,0.18 0.07,0.22 0.11,0.16 -0.12,0.17 0.08,0.21 0.11,0.15 -0.13,0.17 0.05,0.2 0.08,0.14 -0.12,0.17 0.07,0.23 0.12,0.18 -0.11,0.19 0.07,0.22 0.11,0.17 -0.12,0.17 0.08,0.22 0.11,0.15 -0.13,0.17 0.06,0.21 0.09,0.14 -0.13,0.17 0.06,0.22 0.1,0.16 -0.11,0.18 0.07,0.23 0.12,0.17 -0.11,0.18 0.07,0.22 0.11,0.16 -0.12,0.17 0.08,0.21 0.1,0.14 -0.13,0.16l-0.11 0.18c0.07,0.23 0.12,0.18 -0.11,0.19 0.07,0.22 0.11,0.16 -0.12,0.17 0.08,0.22 0.11,0.15 -0.13,0.17 0.05,0.2 0.09,0.14 -0.13,0.17 0.06,0.22 0.11,0.17 -0.11,0.18 0.07,0.23 0.11,0.17 -0.11,0.18 0.08,0.22 0.11,0.16 -0.12,0.17 0.07,0.21 0.1,0.14 -0.13,0.17 0.05,0.21 0.09,0.15 -0.11,0.18 0.07,0.23 0.12,0.18 -0.11,0.18 0.07,0.22 0.11,0.16 -0.12,0.17 0.08,0.21 0.11,0.15 -0.13,0.17 0.05,0.2 0.08,0.14 -0.12,0.17 0.06,0.23 0.12,0.17 -0.11,0.18 0.07,0.22 0.11,0.17 -0.12,0.18 0.08,0.22 0.11,0.15 -0.13,0.17 0.06,0.21 0.09,0.14 -0.13,0.17 0.06,0.21 0.1,0.16 -0.11,0.18 0.07,0.23 0.12,0.17 -0.11,0.18 0.07,0.22 0.11,0.16 -0.12,0.17 0.07,0.21 0.1,0.15 -0.13,0.17 0.05,0.2 0.08,0.14 -0.12,0.17 0.07,0.23 0.12,0.18 -0.11,0.18 0.07,0.22 0.11,0.16 -0.12,0.18 0.08,0.21 0.11,0.15 -0.13,0.17 0.05,0.2 0.09,0.14 -0.13,0.17 0.06,0.22 0.11,0.17 -0.11,0.18 0.07,0.22 0.11,0.17 -0.11,0.18 0.07,0.22 0.11,0.15 -0.12,0.17 0.07,0.21 0.1,0.14 -0.13,0.17 0.05,0.2 0.09,0.15 -0.11,0.18 0.07,0.23 0.12,0.18 -0.11,0.18 0.07,0.22 0.11,0.16 -0.12,0.17 0.08,0.21 0.1,0.15 -0.13,0.17 0.04,0.2 0.08,0.14 -0.12,0.17 0.07,0.22 0.11,0.17 -0.11,0.18 0.07,0.22 0.11,0.17 -0.12,0.18 0.08,0.22 0.11,0.15 -0.13,0.17 0.06,0.21 0.09,0.14 -0.13,0.17 0.06,0.21 0.1,0.15 -0.11,0.18 0.07,0.23 0.12,0.17 -0.11,0.18 0.07,0.22 0.11,0.16 -0.12,0.17 0.07,0.21 0.1,0.14 -0.13,0.17 0.05,0.2 0.09,0.14 -0.12,0.17 0.07,0.23 0.12,0.17 -0.11,0.18 0.07,0.22 0.11,0.16 -0.12,0.18 0.08,0.22 0.11,0.15 -0.13,0.17 0.05,0.2 0.09,0.14 -0.13,0.17 0.06,0.22 0.11,0.16 -0.11,0.18 0.07,0.22 0.11,0.17 -0.11,0.18 0.07,0.22 0.11,0.15 -0.12,0.17 0.06,0.21 0.09,0.14 -0.13,0.17 0.05,0.2 0.09,0.14 -0.11,0.18 0.07,0.23 0.12,0.18 -0.11,0.19 0.07,0.22 0.11,0.16 -0.12,0.17 0.07,0.21 0.1,0.15 -0.13,0.17 0.05,0.2 0.08,0.14 -0.12,0.17 0.06,0.22 0.11,0.17 -0.11,0.18 0.07,0.22 0.11,0.17 -0.11,0.18 0.08,0.21 0.11,0.15 -0.13,0.17 0.06,0.21 0.09,0.15 -0.13,0.17 0.06,0.21 0.1,0.15 -0.11,0.18 0.07,0.23 0.12,0.17 -0.11,0.18 0.07,0.22 0.11,0.16 -0.12,0.17 0.07,0.21 0.1,0.15 -0.13,0.17 0.05,0.2 0.09,0.14 -0.12,0.17 0.07,0.22 0.11,0.17 -0.11,0.18 0.07,0.22 0.11,0.16 -0.11,0.18 0.08,0.21 0.1,0.15 -0.13,0.17 0.05,0.2 0.08,0.14 -0.13,0.17 0.06,0.21 0.1,0.16 -0.11,0.18 0.07,0.22 0.11,0.17 -0.11,0.18 0.07,0.21 0.1,0.15 -0.12,0.17 0.06,0.21 0.1,0.15 -0.13,0.17 0.05,0.2 0.09,0.15 -0.11,0.18 0.07,0.22 0.12,0.17 -0.11,0.18 0.07,0.22 0.11,0.16 -0.12,0.17 0.07,0.21 0.1,0.15 -0.13,0.17 0.05,0.2 0.08,0.14 -0.12,0.17 0.07,0.22 0.11,0.16 -0.11,0.18 0.07,0.22 0.11,0.17 -0.11,0.18 0.07,0.21 0.1,0.15 -0.13,0.17 0.06,0.21 0.09,0.15 -0.13,0.17 0.06,0.21 0.1,0.15 -0.11,0.18 0.07,0.23 0.12,0.17 -0.11,0.18 0.07,0.21 0.1,0.15 -0.12,0.17 0.07,0.21 0.1,0.15 -0.13,0.17 0.05,0.21 0.09,0.15 -0.12,0.17 0.07,0.22 0.11,0.17 -0.11,0.18 0.07,0.22 0.11,0.16 -0.11,0.18 0.07,0.21 0.1,0.15 -0.13,0.17 0.05,0.2 0.09,0.14 -0.13,0.17 0.06,0.21 0.1,0.15 -0.11,0.18 0.07,0.22 0.12,0.17 -0.11,0.18 0.07,0.21 0.1,0.15 -0.13,0.17 0.06,0.21 0.09,0.15 -0.13,0.17 0.05,0.2 0.09,0.15 -0.12,0.18 0.07,0.22 0.11,0.17 -0.11,0.19 0.07,0.22 0.11,0.16 -0.12,0.17 0.07,0.21 0.1,0.15 -0.13,0.17 0.05,0.2 0.09,0.14 -0.12,0.17 0.06,0.22 0.11,0.16 -0.1,0.18 0.07,0.22 0.11,0.17 -0.11,0.18 0.07,0.21 0.1,0.15 -0.13,0.17 0.06,0.21 0.09,0.14 -0.13,0.16 0.06,0.21 0.1,0.15 -0.11,0.18 0.07,0.22 0.12,0.17 -0.11,0.18 0.07,0.22 0.1,0.16 -0.12,0.17 0.06,0.21 0.09,0.14 -0.13,0.17 0.05,0.2 0.09,0.15 -0.12,0.17 0.07,0.22 0.11,0.17 -0.1,0.18 0.07,0.22 0.11,0.16 -0.11,0.18 0.07,0.21 0.1,0.15 -0.13,0.17 0.05,0.2 0.08,0.14 -0.13,0.17 0.06,0.21 0.1,0.15 -0.11,0.18 0.07,0.22 0.11,0.17 -0.11,0.18 0.07,0.21 0.1,0.15 -0.12,0.17 0.06,0.21 0.09,0.15 -0.13,0.17 0.06,0.21 0.09,0.15 -0.11,0.18 0.07,0.22 0.11,0.17 -0.11,0.18 0.07,0.22 0.11,0.16 -0.12,0.18 0.07,0.21 0.1,0.15 -0.13,0.17 0.05,0.21 0.09,0.15 -0.12,0.17 0.06,0.21 0.1,0.16 -0.11,0.18 0.07,0.22 0.11,0.17 -0.11,0.18 0.07,0.21 0.1,0.15 -0.13,0.17 0.05,0.21 0.09,0.14 -0.13,0.17 0.06,0.21 0.1,0.15 -0.11,0.18 0.07,0.22 0.11,0.17 -0.11,0.19 0.07,0.21 0.1,0.15 -0.12,0.17 0.06,0.21 0.1,0.15 -0.13,0.17 0.05,0.21 0.09,0.15 -0.12,0.17 0.06,0.22 0.11,0.16 -0.11,0.18 0.07,0.22 0.11,0.16 -0.11,0.18 0.07,0.21 0.1,0.15 -0.13,0.17 0.05,0.2 0.08,0.14 -0.13,0.17 0.06,0.21 0.1,0.15 -0.11,0.18 0.07,0.22 0.11,0.17 -0.11,0.18 0.07,0.21 0.1,0.15 -0.12,0.17 0.06,0.21 0.09,0.15 -0.13,0.17 0.06,0.21 0.09,0.15 -0.12,0.18 0.06,0.22 0.11,0.16 -0.11,0.18 0.07,0.22 0.11,0.16 -0.12,0.18 0.07,0.21 0.1,0.15 -0.13,0.17 0.05,0.21 0.09,0.15 -0.13,0.17 0.06,0.21 0.1,0.15 -0.1,0.18 0.07,0.22 0.11,0.17 -0.11,0.18 0.07,0.21 0.1,0.15 -0.13,0.17 0.05,0.21 0.09,0.15 -0.13,0.17 0.06,0.21 0.1,0.15 -0.11,0.18 0.06,0.22 0.11,0.16 -0.11,0.18 0.07,0.22 0.1,0.16 -0.12,0.17 0.06,0.21 0.09,0.15 -0.13,0.17 0.05,0.21 0.09,0.15 -0.12,0.17 0.06,0.21 0.11,0.16 -0.11,0.18 0.07,0.22 0.11,0.16 -0.11,0.18 0.07,0.21 0.1,0.15 -0.13,0.17 0.05,0.21 0.08,0.15 -0.13,0.17 0.06,0.21 0.1,0.15 -0.11,0.18 0.07,0.22 0.11,0.17 -0.11,0.18 0.07,0.21 0.1,0.15 -0.12,0.17 0.06,0.21 0.09,0.15 -0.13,0.17 0.06,0.21 0.1,0.15 -0.12,0.18 0.06,0.22 0.11,0.16 -0.11,0.18 0.07,0.22 0.11,0.16 -0.12,0.18 0.07,0.21 0.1,0.15 -0.13,0.17 0.05,0.21 0.09,0.15 -0.13,0.17 0.06,0.21 0.1,0.15 -0.11,0.18 0.06,0.22 0.11,0.17 -0.11,0.18 0.07,0.21 0.1,0.15 -0.13,0.17 0.05,0.21 0.09,0.15 -0.13,0.17 0.06,0.21 0.1,0.15 -0.11,0.18 0.06,0.22 0.11,0.16 -0.11,0.18 0.07,0.21 0.1,0.16 -0.12,0.17 0.06,0.21 0.09,0.15 -0.13,0.17 0.06,0.21 0.09,0.15 -0.12,0.17 0.06,0.21 0.11,0.15 -0.11,0.18 0.07,0.22 0.11,0.16 -0.11,0.18 0.07,0.21 0.1,0.14 -0.13,0.17 0.05,0.21 0.09,0.15 -0.13,0.17 0.06,0.21 0.1,0.15 -0.11,0.18 0.06,0.22 0.11,0.17 -0.11,0.18 0.07,0.21 0.1,0.15 -0.12,0.17 0.06,0.21 0.09,0.15 -0.13,0.17 0.06,0.21 0.1,0.15 -0.12,0.17 0.06,0.21 0.11,0.16 -0.11,0.18 0.06,0.22 0.11,0.16 -0.11,0.18 0.06,0.21 0.1,0.15 -0.13,0.17 0.05,0.21 0.09,0.15 -0.13,0.17 0.06,0.21 0.1,0.15 -0.11,0.18 0.06,0.22 0.11,0.17 -0.11,0.18 0.06,0.21 0.1,0.15 -0.13,0.17 0.05,0.21 0.09,0.15 -0.13,0.17 0.06,0.21 0.1,0.15 -0.11,0.18 0.06,0.22 0.11,0.16 -0.11,0.18 0.06,0.21 0.1,0.16 -0.12,0.17 0.06,0.21 0.09,0.15 -0.13,0.17 0.06,0.21 0.1,0.15 -0.12,0.17 0.06,0.21 0.1,0.15 -0.11,0.18 0.06,0.22 0.11,0.16 -0.11,0.18 0.07,0.21 0.1,0.15 -0.13,0.17 0.05,0.21 0.09,0.15 -0.13,0.17 0.06,0.21 0.1,0.15 -0.11,0.18 0.06,0.22 0.11,0.16 -0.11,0.18 0.07,0.21 0.1,0.15 -0.12,0.17 0.05,0.21 0.09,0.15 -0.13,0.17 0.06,0.21 0.1,0.15 -0.12,0.17 0.06,0.21 0.11,0.16 -0.11,0.18 0.07,0.22 0.11,0.16 -0.12,0.18 0.06,0.21 0.09,0.15 -0.13,0.17 0.06,0.21 0.09,0.15 -0.13,0.17 0.06,0.21 0.1,0.15 -0.11,0.18 0.06,0.22 0.11,0.16 -0.11,0.18 0.06,0.21 0.1,0.15 -0.13,0.17 0.05,0.21 0.08,0.14 -0.13,0.17 0.06,0.21 0.1,0.16 -0.11,0.18 0.06,0.21 0.11,0.16 -0.11,0.18 0.06,0.21 0.1,0.16 -0.12,0.18 0.06,0.21 0.09,0.15 -0.13,0.17 0.06,0.21 0.1,0.15 -0.13,0.17 0.06,0.21 0.1,0.15 -0.11,0.18 0.06,0.22 0.11,0.16 -0.11,0.18 0.06,0.21 0.1,0.15 -0.13,0.17 0.05,0.21 0.09,0.15 -0.13,0.17 0.07,0.21 0.11,0.15 -0.11,0.18 0.07,0.22 0.11,0.16 -0.11,0.18 0.06,0.21 0.1,0.15 -0.12,0.17 0.05,0.21 0.09,0.15 -0.13,0.17 0.06,0.21 0.1,0.16 -0.12,0.17 0.06,0.21 0.1,0.15 -0.11,0.18 0.06,0.22 0.11,0.16 -0.11,0.18 0.06,0.21 0.09,0.15 -0.13,0.17 0.06,0.21 0.09,0.15 -0.13,0.17 0.06,0.21 0.1,0.15 -0.11,0.18 0.06,0.22 0.11,0.16 -0.11,0.18 0.06,0.21 0.1,0.15 -0.13,0.17 0.05,0.21 0.09,0.15 -0.13,0.17 0.07,0.22 0.11,0.16 -0.12,0.18 0.06,0.21 0.11,0.16 -0.11,0.18 0.06,0.21 0.1,0.16 -0.12,0.18 0.06,0.21 0.09,0.15 -0.13,0.17 0.06,0.21 0.1,0.16 -0.12,0.17 0.06,0.21 0.1,0.15 -0.11,0.18 0.07,0.22 0.11,0.16 -0.11,0.18 0.06,0.21 0.09,0.15 -0.13,0.17 0.05,0.21 0.09,0.15 -0.13,0.17 0.07,0.21 0.11,0.16 -0.11,0.18 0.06,0.21 0.11,0.16 -0.11,0.18 0.06,0.21 0.1,0.15 -0.12,0.17 0.05,0.21 0.09,0.15 -0.13,0.17 0.07,0.22 0.11,0.16 -0.12,0.18 0.06,0.21 0.1,0.15 -0.11,0.18 0.07,0.22 0.11,0.16 -0.11,0.18 0.06,0.21 0.09,0.15 -0.13,0.17 0.06,0.21 0.1,0.15 -0.12,0.17 0.07,0.21 0.11,0.15 -0.11,0.18 0.06,0.21 0.11,0.16 -0.11,0.18 0.06,0.21 0.1,0.15 -0.12,0.18l-0.03 0.23 -0.14 0.34 -8.18 35c0.97,-0.39 2.98,-1.86 3.94,-2.51 1.27,-0.86 2.57,-1.7 3.81,-2.52 4.86,-3.22 10.78,-7.01 15.41,-10.24 1.11,-0.77 7.19,-4.63 7.64,-5.15l55.25 -81.09c0.72,-1.06 1.68,-2.68 2.46,-3.55 -0.31,-0.62 -0.5,-0.61 -1.02,-0.95l-3.3 -2.26c-0.59,0.5 -2.95,4.21 -3.57,5.12 -1.22,1.79 -2.35,3.46 -3.57,5.24l-46.26 67.89c-0.81,1.19 -2.44,4.7 -5.19,3.01 -2.85,-1.76 -0.31,-4.59 0.51,-5.81l46.32 -67.98c0.95,-1.4 6.85,-9.82 7.08,-10.56 -0.48,-0.5 -3.83,-2.78 -4.4,-2.95 -1.16,1.43 -5.9,8.61 -7.34,10.72l-43.94 64.48c-1.23,1.81 -2.39,3.67 -3.69,5.43 -1.48,2.01 -5.04,1.05 -4.75,-2.43l0.04 -0.26 0.21 -0.24 0.07 -0.21c-0.08,-0.22 -0.12,-0.17 0.11,-0.19 -0.04,-0.21 -0.08,-0.15 0.13,-0.17 -0.07,-0.22 -0.11,-0.16 0.12,-0.18 -0.07,-0.21 -0.11,-0.15 0.12,-0.18 -0.07,-0.21 -0.1,-0.15 0.11,-0.18 -0.05,-0.21 -0.09,-0.16 0.12,-0.17 -0.06,-0.22 -0.1,-0.16 0.12,-0.17 -0.07,-0.22 -0.11,-0.16 0.12,-0.17 -0.07,-0.2 -0.1,-0.14 0.11,-0.18 -0.06,-0.21 -0.1,-0.16 0.12,-0.18 -0.05,-0.21 -0.09,-0.16 0.13,-0.17 -0.07,-0.22 -0.11,-0.16 0.12,-0.18 -0.07,-0.21 -0.11,-0.15 0.11,-0.18 -0.06,-0.21 -0.1,-0.15 0.12,-0.18 -0.05,-0.21 -0.09,-0.16 0.12,-0.17 -0.07,-0.22 -0.11,-0.16 0.12,-0.17 -0.08,-0.22 -0.11,-0.16 0.12,-0.17 -0.06,-0.2 -0.1,-0.14 0.11,-0.18 -0.05,-0.21 -0.1,-0.16 0.12,-0.17 -0.05,-0.21 -0.1,-0.16 0.12,-0.17 -0.08,-0.22 -0.11,-0.16 0.12,-0.17 -0.07,-0.21 -0.1,-0.15 0.11,-0.18 -0.06,-0.21 -0.1,-0.15 0.12,-0.18 -0.04,-0.21 -0.08,-0.16 0.12,-0.17 -0.07,-0.22 -0.11,-0.16 0.12,-0.18 -0.07,-0.21 -0.11,-0.15 0.12,-0.17 -0.06,-0.2 -0.1,-0.14 0.11,-0.18 -0.05,-0.21 -0.09,-0.16 0.12,-0.17 -0.06,-0.22 -0.1,-0.16 0.12,-0.17 -0.08,-0.22 -0.11,-0.16 0.12,-0.17 -0.07,-0.2 -0.1,-0.14 0.11,-0.18 -0.06,-0.21 -0.1,-0.15 0.12,-0.18 -0.05,-0.21 -0.09,-0.16 0.12,-0.17 -0.07,-0.22 -0.11,-0.16 0.12,-0.18 -0.07,-0.21 -0.11,-0.15 0.12,-0.18 -0.06,-0.21 -0.1,-0.14 0.12,-0.18 -0.04,-0.21 -0.09,-0.16 0.12,-0.17 -0.07,-0.22 -0.11,-0.16 0.12,-0.17 -0.08,-0.22 -0.11,-0.16 0.12,-0.17 -0.06,-0.2 -0.09,-0.14 0.11,-0.18 -0.05,-0.21 -0.1,-0.16 0.12,-0.18 -0.05,-0.21 -0.09,-0.16 0.12,-0.17 -0.07,-0.22 -0.11,-0.16 0.12,-0.17 -0.07,-0.21 -0.1,-0.15 0.11,-0.18 -0.06,-0.21 -0.1,-0.15 0.12,-0.18 -0.04,-0.21 -0.08,-0.15 0.12,-0.17 -0.07,-0.22 -0.11,-0.17 0.12,-0.18 -0.07,-0.22 -0.11,-0.16 0.12,-0.17 -0.06,-0.2 -0.09,-0.14 0.11,-0.18 -0.05,-0.21 -0.09,-0.16 0.12,-0.17 -0.06,-0.22 -0.1,-0.16 0.12,-0.17 -0.08,-0.22 -0.11,-0.16 0.12,-0.17 -0.07,-0.21 -0.1,-0.14 0.12,-0.18 -0.06,-0.21 -0.1,-0.15 0.12,-0.18 -0.05,-0.21 -0.09,-0.16 0.12,-0.17 -0.07,-0.22 -0.11,-0.16 0.12,-0.18 -0.07,-0.21 -0.11,-0.15 0.12,-0.18 -0.06,-0.2 -0.1,-0.14 0.12,-0.18 -0.04,-0.21 -0.08,-0.15 0.12,-0.17 -0.06,-0.22 -0.11,-0.16 0.12,-0.17 -0.07,-0.22 -0.11,-0.16 0.12,-0.17 -0.06,-0.2 -0.1,-0.14 0.11,-0.18 -0.05,-0.21 -0.09,-0.15 0.12,-0.17 -0.05,-0.22 -0.1,-0.16 0.12,-0.17 -0.07,-0.22 -0.11,-0.16 0.12,-0.18 -0.07,-0.21 -0.1,-0.15 0.12,-0.18 -0.06,-0.2 -0.09,-0.14 0.12,-0.17 -0.04,-0.21 -0.09,-0.16 0.12,-0.17 -0.07,-0.22 -0.11,-0.16 0.12,-0.18 -0.07,-0.22 -0.11,-0.16 0.12,-0.17 -0.06,-0.2 -0.09,-0.13 0.12,-0.18 -0.04,-0.21 -0.09,-0.16 0.12,-0.18 -0.06,-0.22 -0.1,-0.16 0.12,-0.17 -0.07,-0.22 -0.11,-0.16 0.12,-0.17 -0.07,-0.21 -0.1,-0.14 0.12,-0.18 -0.05,-0.21 -0.09,-0.15 0.12,-0.17 -0.05,-0.21 -0.09,-0.16 0.12,-0.17 -0.07,-0.22 -0.11,-0.16 0.12,-0.18 -0.07,-0.21 -0.11,-0.15 0.12,-0.17 -0.06,-0.2 -0.09,-0.14 0.12,-0.18 -0.04,-0.21 -0.08,-0.15 0.12,-0.17 -0.07,-0.22 -0.11,-0.16 0.12,-0.17 -0.07,-0.22 -0.11,-0.16 0.12,-0.17 -0.06,-0.2 -0.1,-0.14 0.12,-0.18 -0.05,-0.21 -0.09,-0.15 0.12,-0.17 -0.05,-0.22 -0.1,-0.16 0.12,-0.17 -0.07,-0.22 -0.11,-0.16 0.12,-0.17 -0.07,-0.21 -0.1,-0.15 0.12,-0.18 -0.06,-0.2 -0.09,-0.14 0.12,-0.17 -0.04,-0.21 -0.09,-0.16 0.12,-0.17 -0.07,-0.22 -0.11,-0.17 0.12,-0.18 -0.07,-0.22 -0.11,-0.15 0.12,-0.17 -0.06,-0.2 -0.09,-0.14 0.12,-0.18 -0.04,-0.21 -0.09,-0.15 0.12,-0.17 -0.06,-0.22 -0.1,-0.16 0.12,-0.18 -0.07,-0.22 -0.11,-0.16 0.12,-0.17 -0.07,-0.21 -0.1,-0.14 0.12,-0.17 -0.05,-0.2 -0.09,-0.14 0.12,-0.17 -0.05,-0.21 -0.09,-0.16 0.12,-0.17 -0.07,-0.22 -0.11,-0.16 0.12,-0.18 -0.07,-0.21 -0.11,-0.15 0.12,-0.17 -0.06,-0.2 -0.09,-0.13 0.12,-0.17 -0.04,-0.21 -0.08,-0.15 0.12,-0.17 -0.07,-0.22 -0.11,-0.16 0.12,-0.18 -0.07,-0.22 -0.11,-0.16 0.12,-0.17 -0.06,-0.2 -0.1,-0.14 0.12,-0.17 -0.05,-0.2 -0.09,-0.15 0.12,-0.17 -0.06,-0.22 -0.1,-0.16 0.12,-0.18 -0.07,-0.22 -0.11,-0.16 0.12,-0.18 -0.07,-0.21 -0.1,-0.15 0.12,-0.17 -0.05,-0.2 -0.09,-0.14 0.12,-0.17 -0.04,-0.21 -0.09,-0.16 0.12,-0.17 -0.07,-0.22 -0.11,-0.16 0.12,-0.18 -0.07,-0.22 -0.11,-0.16 0.12,-0.17 -0.06,-0.2 -0.09,-0.14 0.12,-0.17 -0.04,-0.21 -0.08,-0.15 0.12,-0.18 -0.06,-0.22 -0.1,-0.16 0.12,-0.18 -0.07,-0.22 -0.11,-0.16 0.12,-0.17 -0.07,-0.21 -0.1,-0.15 0.12,-0.17 -0.05,-0.2 -0.09,-0.14 0.12,-0.17 -0.05,-0.21 -0.1,-0.16 0.12,-0.18 -0.07,-0.22 -0.11,-0.16 0.12,-0.18 -0.07,-0.22 -0.11,-0.15 0.12,-0.17l0.12 -0.17 0.12 -0.18c-0.07,-0.22 -0.11,-0.16 0.12,-0.18 -0.07,-0.22 -0.11,-0.16 0.12,-0.17 -0.06,-0.2 -0.1,-0.14 0.12,-0.17l0.12 -0.17c-0.06,-0.22 -0.1,-0.16 0.12,-0.18 -0.07,-0.22 -0.11,-0.16 0.12,-0.18 -0.07,-0.21 -0.1,-0.15 0.12,-0.17l0.12 -0.17c-0.04,-0.21 -0.09,-0.16 0.12,-0.18 -0.07,-0.22 -0.11,-0.16 0.12,-0.18 -0.07,-0.22 -0.11,-0.16 0.12,-0.17 -0.06,-0.2 -0.09,-0.14 0.12,-0.17l0.12 -0.17c-0.06,-0.22 -0.1,-0.16 0.12,-0.18 -0.07,-0.22 -0.11,-0.16 0.12,-0.17 -0.07,-0.21 -0.1,-0.15 0.12,-0.17l0.12 -0.17c-0.05,-0.21 -0.1,-0.16 0.12,-0.18 -0.07,-0.22 -0.11,-0.16 0.12,-0.17 -0.07,-0.22 -0.11,-0.15 0.12,-0.17 -0.05,-0.2 -0.09,-0.13 0.12,-0.17l0.12 -0.18c-0.07,-0.22 -0.11,-0.16 0.12,-0.18 -0.07,-0.22 -0.11,-0.16 0.12,-0.17 -0.06,-0.21 -0.1,-0.14 0.12,-0.17l0.12 -0.17c-0.06,-0.22 -0.1,-0.16 0.11,-0.18 -0.07,-0.22 -0.11,-0.16 0.12,-0.17 -0.07,-0.21 -0.1,-0.15 0.12,-0.17l0.12 -0.17c-0.04,-0.21 -0.09,-0.16 0.11,-0.18 -0.07,-0.22 -0.11,-0.16 0.12,-0.18 -0.07,-0.22 -0.11,-0.16 0.12,-0.17 -0.06,-0.2 -0.09,-0.14 0.12,-0.17l0.12 -0.17c-0.06,-0.22 -0.11,-0.17 0.11,-0.18 -0.07,-0.22 -0.11,-0.16 0.12,-0.18 -0.07,-0.21 -0.1,-0.15 0.12,-0.17l0.12 -0.17c-0.05,-0.21 -0.1,-0.16 0.11,-0.18 -0.07,-0.22 -0.11,-0.16 0.12,-0.18 -0.07,-0.21 -0.11,-0.15 0.12,-0.17 -0.06,-0.2 -0.09,-0.13 0.12,-0.17l0.12 -0.18c-0.07,-0.22 -0.11,-0.16 0.11,-0.18 -0.07,-0.22 -0.11,-0.16 0.12,-0.17 -0.06,-0.21 -0.1,-0.14 0.12,-0.17l0.12 -0.17c-0.06,-0.22 -0.1,-0.16 0.11,-0.18 -0.07,-0.22 -0.11,-0.16 0.12,-0.18 -0.07,-0.21 -0.1,-0.15 0.13,-0.17l0.12 -0.17c-0.04,-0.21 -0.09,-0.16 0.11,-0.18 -0.07,-0.22 -0.11,-0.16 0.12,-0.18 -0.07,-0.22 -0.11,-0.16 0.12,-0.17 -0.06,-0.2 -0.09,-0.14 0.13,-0.17l0.12 -0.17c-0.06,-0.22 -0.11,-0.17 0.11,-0.18 -0.07,-0.22 -0.11,-0.16 0.12,-0.18 -0.07,-0.21 -0.1,-0.15 0.13,-0.17l0.12 -0.17c-0.05,-0.22 -0.1,-0.16 0.11,-0.18 -0.07,-0.22 -0.11,-0.16 0.12,-0.18 -0.07,-0.21 -0.11,-0.15 0.12,-0.17 -0.05,-0.2 -0.09,-0.13 0.12,-0.17l0.12 -0.18c-0.07,-0.22 -0.11,-0.17 0.11,-0.18 -0.07,-0.22 -0.11,-0.16 0.12,-0.18 -0.07,-0.21 -0.1,-0.14 0.13,-0.17l0.12 -0.17c-0.06,-0.22 -0.1,-0.16 0.11,-0.18 -0.07,-0.22 -0.11,-0.16 0.12,-0.18 -0.07,-0.21 -0.1,-0.15 0.13,-0.17l0.12 -0.17c-0.04,-0.21 -0.09,-0.16 0.11,-0.18 -0.07,-0.22 -0.11,-0.16 0.11,-0.18 -0.07,-0.22 -0.11,-0.16 0.12,-0.17 -0.06,-0.2 -0.09,-0.14 0.13,-0.17l0.12 -0.17c-0.07,-0.22 -0.11,-0.17 0.11,-0.18 -0.07,-0.22 -0.11,-0.16 0.12,-0.18 -0.07,-0.21 -0.1,-0.15 0.13,-0.17l0.12 -0.17c-0.05,-0.22 -0.1,-0.16 0.11,-0.18 -0.07,-0.22 -0.11,-0.16 0.12,-0.18 -0.07,-0.22 -0.11,-0.16 0.12,-0.17 -0.06,-0.2 -0.09,-0.14 0.13,-0.17l0.12 -0.18c-0.07,-0.22 -0.11,-0.17 0.11,-0.18 -0.07,-0.22 -0.11,-0.16 0.12,-0.17 -0.07,-0.21 -0.1,-0.15 0.13,-0.17l0.12 -0.17c-0.06,-0.22 -0.11,-0.17 0.11,-0.18 -0.07,-0.22 -0.11,-0.16 0.12,-0.18 -0.07,-0.22 -0.1,-0.15 0.13,-0.17l0.12 -0.17c-0.05,-0.21 -0.09,-0.15 0.11,-0.18 -0.07,-0.22 -0.11,-0.17 0.11,-0.18 -0.07,-0.22 -0.11,-0.16 0.12,-0.17 -0.06,-0.21 -0.09,-0.14 0.13,-0.17l0.12 -0.17c-0.07,-0.22 -0.11,-0.17 0.11,-0.18 -0.07,-0.22 -0.11,-0.16 0.12,-0.18 -0.07,-0.21 -0.1,-0.15 0.13,-0.17l0.12 -0.17c-0.05,-0.21 -0.1,-0.16 0.11,-0.18 -0.07,-0.22 -0.11,-0.16 0.12,-0.18 -0.07,-0.22 -0.11,-0.16 0.12,-0.17 -0.05,-0.2 -0.09,-0.14 0.13,-0.17l0.11 -0.18c-0.07,-0.22 -0.11,-0.17 0.11,-0.18 -0.07,-0.22 -0.11,-0.16 0.12,-0.17 -0.07,-0.21 -0.1,-0.15 0.13,-0.17l0.12 -0.17c-0.06,-0.22 -0.11,-0.17 0.11,-0.18 -0.07,-0.22 -0.11,-0.16 0.12,-0.18 -0.07,-0.22 -0.1,-0.15 0.13,-0.17 -0.05,-0.2 -0.08,-0.14 0.12,-0.17 -0.05,-0.21 -0.09,-0.15 0.11,-0.18 -0.07,-0.22 -0.11,-0.17 0.11,-0.18 -0.07,-0.22 -0.11,-0.16 0.12,-0.17 -0.06,-0.21 -0.09,-0.14 0.13,-0.17l0.12 -0.17c-0.07,-0.22 -0.11,-0.17 0.11,-0.18 -0.07,-0.22 -0.11,-0.16 0.12,-0.18 -0.07,-0.21 -0.1,-0.15 0.13,-0.17l0.12 -0.17c-0.05,-0.21 -0.1,-0.16 0.11,-0.18 -0.07,-0.22 -0.11,-0.17 0.12,-0.18 -0.07,-0.22 -0.11,-0.16 0.12,-0.17 -0.06,-0.2 -0.09,-0.14 0.13,-0.17l0.11 -0.18c-0.07,-0.22 -0.11,-0.17 0.11,-0.18 -0.07,-0.22 -0.11,-0.16 0.12,-0.18 -0.07,-0.21 -0.1,-0.15 0.13,-0.17l0.12 -0.17c-0.06,-0.22 -0.11,-0.17 0.11,-0.18 -0.07,-0.22 -0.11,-0.16 0.12,-0.18 -0.07,-0.22 -0.1,-0.15 0.13,-0.17 -0.05,-0.2 -0.08,-0.14 0.13,-0.17 -0.05,-0.2 -0.09,-0.15 0.11,-0.18 -0.07,-0.22 -0.11,-0.17 0.11,-0.18 -0.07,-0.22 -0.11,-0.16 0.12,-0.17 -0.06,-0.21 -0.09,-0.14 0.13,-0.17l0.12 -0.17c-0.07,-0.22 -0.12,-0.17 0.11,-0.19 -0.07,-0.22 -0.11,-0.16 0.12,-0.18 -0.07,-0.21 -0.1,-0.15 0.13,-0.17l0.12 -0.17c-0.05,-0.21 -0.1,-0.16 0.11,-0.18 -0.07,-0.22 -0.11,-0.17 0.11,-0.18 -0.07,-0.22 -0.11,-0.16 0.12,-0.17 -0.06,-0.2 -0.09,-0.14 0.13,-0.17l0.11 -0.18c-0.07,-0.22 -0.11,-0.17 0.11,-0.18 -0.07,-0.22 -0.11,-0.16 0.12,-0.18 -0.07,-0.21 -0.1,-0.15 0.13,-0.17l0.12 -0.17c-0.06,-0.22 -0.11,-0.16 0.11,-0.18 -0.07,-0.22 -0.11,-0.16 0.12,-0.18 -0.07,-0.22 -0.11,-0.15 0.13,-0.17 -0.05,-0.2 -0.08,-0.14 0.13,-0.17 -0.05,-0.2 -0.09,-0.15 0.11,-0.18 -0.07,-0.22 -0.12,-0.17 0.11,-0.18 -0.07,-0.22 -0.11,-0.16 0.12,-0.17 -0.06,-0.21 -0.1,-0.15 0.13,-0.17l0.11 -0.17c-0.07,-0.22 -0.12,-0.17 0.11,-0.19 -0.07,-0.22 -0.11,-0.16 0.12,-0.17 -0.07,-0.22 -0.1,-0.15 0.13,-0.17l0.12 -0.17c-0.06,-0.21 -0.1,-0.16 0.11,-0.18 -0.07,-0.22 -0.11,-0.17 0.11,-0.18 -0.07,-0.22 -0.11,-0.16 0.12,-0.17 -0.06,-0.21 -0.09,-0.14 0.13,-0.17l0.11 -0.18c-0.07,-0.22 -0.12,-0.17 0.11,-0.18 -0.07,-0.22 -0.11,-0.16 0.12,-0.18 -0.07,-0.21 -0.1,-0.15 0.13,-0.17l0.12 -0.17c-0.06,-0.22 -0.11,-0.16 0.11,-0.18 -0.07,-0.22 -0.11,-0.17 0.11,-0.18 -0.07,-0.22 -0.1,-0.15 0.13,-0.17 -0.05,-0.2 -0.08,-0.14 0.13,-0.17 -0.05,-0.2 -0.09,-0.15 0.11,-0.18 -0.07,-0.22 -0.12,-0.17 0.11,-0.18 -0.07,-0.22 -0.11,-0.16 0.12,-0.17 -0.07,-0.21 -0.1,-0.15 0.13,-0.17l0.12 -0.17c-0.07,-0.22 -0.12,-0.17 0.1,-0.19 -0.07,-0.22 -0.11,-0.16 0.12,-0.18 -0.07,-0.21 -0.1,-0.15 0.13,-0.17l0.13 -0.17c-0.06,-0.21 -0.1,-0.16 0.11,-0.18 -0.07,-0.22 -0.12,-0.17 0.11,-0.18 -0.07,-0.22 -0.11,-0.16 0.12,-0.17 -0.06,-0.21 -0.09,-0.14 0.13,-0.16l0.11 -0.18c-0.07,-0.22 -0.12,-0.17 0.11,-0.18 -0.07,-0.22 -0.11,-0.16 0.12,-0.17 -0.07,-0.21 -0.1,-0.15 0.13,-0.17l0.12 -0.17c-0.07,-0.22 -0.11,-0.16 0.1,-0.18 -0.07,-0.22 -0.11,-0.17 0.11,-0.18 -0.07,-0.22 -0.11,-0.16 0.13,-0.17 -0.05,-0.2 -0.09,-0.14 0.13,-0.17 -0.05,-0.2 -0.09,-0.15 0.11,-0.18 -0.07,-0.22 -0.12,-0.17 0.11,-0.18 -0.07,-0.22 -0.11,-0.16 0.12,-0.17 -0.07,-0.21 -0.1,-0.15 0.13,-0.17l0.12 -0.17c-0.07,-0.22 -0.11,-0.17 0.1,-0.19 -0.07,-0.22 -0.11,-0.17 0.12,-0.18 -0.07,-0.22 -0.1,-0.15 0.13,-0.17 -0.04,-0.2 -0.08,-0.14 0.13,-0.17 -0.06,-0.21 -0.1,-0.15 0.11,-0.18 -0.07,-0.22 -0.12,-0.17 0.11,-0.18 -0.07,-0.22 -0.11,-0.16 0.12,-0.17 -0.06,-0.21 -0.09,-0.15 0.14,-0.16l0.11 -0.18c-0.07,-0.22 -0.12,-0.17 0.11,-0.19 -0.08,-0.22 -0.11,-0.16 0.12,-0.18 -0.07,-0.22 -0.1,-0.15 0.13,-0.17l0.13 -0.17c-0.07,-0.22 -0.11,-0.16 0.1,-0.19 -0.07,-0.22 -0.12,-0.17 0.12,-0.18 -0.07,-0.22 -0.11,-0.16 0.13,-0.17 -0.05,-0.21 -0.09,-0.14 0.13,-0.17 -0.05,-0.2 -0.09,-0.14 0.11,-0.18 -0.07,-0.22 -0.12,-0.17 0.11,-0.18 -0.07,-0.22 -0.11,-0.16 0.12,-0.17 -0.06,-0.21 -0.1,-0.15 0.13,-0.17l0.12 -0.17c-0.07,-0.22 -0.12,-0.17 0.1,-0.19 -0.07,-0.22 -0.11,-0.16 0.12,-0.18 -0.07,-0.22 -0.1,-0.15 0.13,-0.17 -0.04,-0.2 -0.08,-0.14 0.13,-0.16 -0.06,-0.21 -0.1,-0.16 0.1,-0.18 -0.07,-0.22 -0.12,-0.17 0.11,-0.18 -0.07,-0.22 -0.11,-0.16 0.12,-0.17 -0.06,-0.21 -0.09,-0.15 0.14,-0.16l0.11 -0.18c-0.07,-0.22 -0.12,-0.17 0.11,-0.18 -0.07,-0.22 -0.11,-0.16 0.12,-0.18 -0.07,-0.22 -0.1,-0.15 0.13,-0.17l0.13 -0.17c-0.07,-0.22 -0.11,-0.16 0.1,-0.19 -0.08,-0.23 -0.12,-0.17 0.11,-0.18 -0.07,-0.22 -0.11,-0.16 0.13,-0.17 -0.05,-0.21 -0.09,-0.15 0.13,-0.16l0.11 -0.18c-0.07,-0.23 -0.12,-0.17 0.11,-0.18 -0.07,-0.22 -0.11,-0.16 0.12,-0.17 -0.07,-0.21 -0.1,-0.15 0.13,-0.17 -0.04,-0.2 -0.08,-0.14 0.12,-0.17 -0.07,-0.22 -0.12,-0.16 0.1,-0.19 -0.07,-0.22 -0.12,-0.17 0.12,-0.18 -0.07,-0.22 -0.11,-0.16 0.13,-0.17 -0.04,-0.2 -0.08,-0.14 0.13,-0.17 -0.06,-0.21 -0.11,-0.16 0.1,-0.18 -0.07,-0.22 -0.12,-0.17 0.11,-0.18 -0.08,-0.22 -0.11,-0.16 0.12,-0.17 -0.06,-0.21 -0.09,-0.15 0.13,-0.16 -0.05,-0.2 -0.09,-0.14 0.11,-0.18 -0.07,-0.22 -0.12,-0.17 0.11,-0.18 -0.08,-0.22 -0.12,-0.17 0.12,-0.18 -0.07,-0.22 -0.1,-0.15 0.13,-0.17 -0.04,-0.2 -0.08,-0.14 0.13,-0.17 -0.07,-0.22 -0.11,-0.16 0.1,-0.19 -0.07,-0.22 -0.12,-0.17 0.11,-0.18 -0.07,-0.22 -0.11,-0.16 0.13,-0.17 -0.05,-0.21 -0.09,-0.15 0.13,-0.16 -0.05,-0.2 -0.09,-0.15 0.11,-0.18 -0.07,-0.23 -0.12,-0.17 0.11,-0.18 -0.08,-0.22 -0.11,-0.16 0.12,-0.17 -0.07,-0.22 -0.1,-0.15 0.13,-0.17 -0.05,-0.2 -0.09,-0.14 0.12,-0.17 -0.07,-0.22 -0.12,-0.17 0.1,-0.19 -0.08,-0.22 -0.12,-0.17 0.11,-0.18 -0.07,-0.22 -0.11,-0.16 0.13,-0.17 -0.05,-0.2 -0.08,-0.14 0.13,-0.16 -0.06,-0.21 -0.1,-0.15 0.1,-0.18 -0.08,-0.23 -0.12,-0.17 0.11,-0.18 -0.08,-0.22 -0.11,-0.16 0.13,-0.17 -0.06,-0.21 -0.09,-0.15 0.13,-0.16 -0.05,-0.21 -0.09,-0.15 0.11,-0.18 -0.07,-0.22 -0.12,-0.17 0.11,-0.18 -0.08,-0.22 -0.12,-0.17 0.12,-0.18 -0.07,-0.22 -0.1,-0.15 0.13,-0.17 -0.05,-0.2 -0.08,-0.14 0.13,-0.17 -0.07,-0.22 -0.11,-0.16 0.1,-0.18 -0.08,-0.23 -0.12,-0.17 0.11,-0.18 -0.08,-0.22 -0.11,-0.16 0.13,-0.17 -0.06,-0.21 -0.09,-0.15 0.13,-0.16 -0.06,-0.21 -0.1,-0.15 0.11,-0.18 -0.07,-0.22 -0.12,-0.17 0.11,-0.18 -0.08,-0.22 -0.11,-0.16 0.12,-0.18 -0.07,-0.22 -0.1,-0.15 0.13,-0.17 -0.05,-0.2 -0.09,-0.15 0.12,-0.17 -0.07,-0.22 -0.11,-0.16 0.11,-0.18 -0.08,-0.22 -0.12,-0.17 0.11,-0.18 -0.08,-0.22 -0.11,-0.16 0.13,-0.17 -0.05,-0.21 -0.08,-0.14 0.13,-0.16 -0.07,-0.21 -0.11,-0.15 0.1,-0.18 -0.08,-0.23 -0.12,-0.17 0.11,-0.18 -0.08,-0.22 -0.11,-0.16 0.12,-0.17 -0.06,-0.21 -0.1,-0.15 0.13,-0.17 -0.06,-0.21 -0.1,-0.15 0.12,-0.17 -0.07,-0.22 -0.12,-0.17 0.1,-0.19 -0.08,-0.23 -0.12,-0.17 0.12,-0.18 -0.07,-0.22 -0.11,-0.16 0.13,-0.17 -0.05,-0.21 -0.08,-0.15 0.13,-0.17 -0.07,-0.21 -0.11,-0.16 0.1,-0.18 -0.08,-0.23 -0.12,-0.17 0.11,-0.18 -0.08,-0.22 -0.11,-0.16 0.13,-0.17 -0.06,-0.21 -0.09,-0.15 0.13,-0.17 -0.06,-0.21 -0.1,-0.15 0.11,-0.18 -0.08,-0.22 -0.12,-0.17 0.11,-0.18 -0.08,-0.22 -0.12,-0.17 0.12,-0.18 -0.07,-0.22 -0.1,-0.15 0.13,-0.16 -0.06,-0.21 -0.09,-0.15 0.12,-0.17 -0.07,-0.22 -0.12,-0.16 0.1,-0.19 -0.08,-0.23 -0.12,-0.17 0.11,-0.18 -0.08,-0.22 -0.11,-0.16 0.13,-0.17 -0.05,-0.21 -0.09,-0.15 0.13,-0.16 -0.07,-0.21 -0.11,-0.16 0.1,-0.18 -0.08,-0.22 -0.12,-0.17 0.11,-0.18 -0.08,-0.22 -0.11,-0.16 0.12,-0.17 -0.07,-0.22 -0.1,-0.15 0.13,-0.17 -0.06,-0.21 -0.1,-0.15 0.12,-0.17 -0.07,-0.22 -0.12,-0.17 0.1,-0.18 -0.08,-0.22 -0.12,-0.17 0.11,-0.18 -0.07,-0.22 -0.1,-0.16 0.13,-0.17 -0.05,-0.21 -0.09,-0.15 0.13,-0.16 -0.07,-0.21 -0.11,-0.16 0.1,-0.19l-0.07 -0.5c-0.21,0.05 -0.15,0.09 -0.17,-0.12 -0.23,0.09 -0.18,0.13 -0.18,-0.11 -0.23,0.09 -0.17,0.13 -0.17,-0.12 -0.22,0.08 -0.16,0.11 -0.17,-0.12 -0.21,0.06 -0.15,0.1 -0.18,-0.12 -0.22,0.08 -0.16,0.12 -0.18,-0.12 -0.23,0.09 -0.18,0.13 -0.18,-0.12 -0.23,0.08 -0.17,0.12 -0.17,-0.13 -0.21,0.06 -0.15,0.1 -0.18,-0.11 -0.21,0.06 -0.16,0.1 -0.17,-0.12 -0.23,0.09 -0.18,0.13 -0.18,-0.11 -0.23,0.09 -0.17,0.13 -0.17,-0.12 -0.22,0.07 -0.16,0.11 -0.17,-0.12 -0.21,0.06 -0.15,0.1 -0.17,-0.12 -0.23,0.08 -0.17,0.12 -0.18,-0.11 -0.23,0.09 -0.17,0.13 -0.18,-0.12 -0.23,0.08 -0.16,0.12 -0.17,-0.12 -0.21,0.06 -0.15,0.1 -0.17,-0.12 -0.22,0.07 -0.16,0.11 -0.17,-0.12 -0.23,0.09 -0.18,0.13 -0.18,-0.11 -0.23,0.09 -0.17,0.12 -0.17,-0.13 -0.21,0.07 -0.15,0.1 -0.18,-0.11 -0.21,0.06 -0.15,0.1 -0.17,-0.12 -0.66,0.16 -0.85,0.58 -1.01,1.17z"/>
   <path class="fil1" d="M69.26 11.29c0.37,0.56 4.66,3.3 5.54,3.89l16.77 11.4c1.24,-1.58 2.47,-3.59 3.64,-5.31 1.11,-1.63 2.43,-3.37 2.74,-6.06 0.71,-6.24 -2.81,-9.13 -6.81,-11.84 -1.79,-1.21 -3.19,-2.38 -5.72,-3.05 -2.37,-0.63 -5.32,-0.33 -7.69,0.89 -2.33,1.19 -3.45,2.77 -4.76,4.69l-3.71 5.39z"/>
  </g>
 </g>
</svg>
