<?xml version="1.0" encoding="UTF-8"?>
<!DOCTYPE svg PUBLIC "-//W3C//DTD SVG 1.0//EN" "http://www.w3.org/TR/2001/REC-SVG-20010904/DTD/svg10.dtd">
<!-- Creator: CorelDRAW 2021 (64-Bit) -->
<svg xmlns="http://www.w3.org/2000/svg" xml:space="preserve" width="0.311272in" height="0.389264in" version="1.0" style="shape-rendering:geometricPrecision; text-rendering:geometricPrecision; image-rendering:optimizeQuality; fill-rule:evenodd; clip-rule:evenodd"
viewBox="0 0 35.27 44.1"
 xmlns:xlink="http://www.w3.org/1999/xlink"
 xmlns:xodm="http://www.corel.com/coreldraw/odm/2003">
 <defs>
  <style type="text/css">
   <![CDATA[
    .fil0 {fill:#016189}
    .fil1 {fill:#841F3B}
    .fil2 {fill:whitesmoke}
   ]]>
  </style>
 </defs>
 <g id="Layer_x0020_1">
  <metadata id="CorelCorpID_0Corel-Layer"/>
  <path class="fil0" d="M17.02 8.06c2.38,-0.4 4.38,1.43 4.64,3.41 0.32,2.45 -1.33,4.33 -3.4,4.66 -2.44,0.39 -4.38,-1.4 -4.67,-3.42 -0.36,-2.51 1.38,-4.3 3.43,-4.65zm0.61 28.51c0.09,-0.08 0.04,-0.03 0.11,-0.12 0.39,-0.52 2.48,-3.98 2.79,-4.49 2.67,-4.36 5.87,-10.09 7.73,-14.79 0.83,-2.09 1.32,-3.72 1.07,-6.28 -0.21,-2.18 -0.84,-4.12 -1.83,-5.68 -4.41,-6.96 -15.41,-6.91 -19.75,-0.03 -0.99,1.57 -1.63,3.48 -1.84,5.67 -0.25,2.61 0.22,4.18 1.05,6.28 2.07,5.28 6.01,12.12 9.16,17.12 0.24,0.39 0.47,0.77 0.73,1.17l0.69 1.08c0.04,0.05 0.03,0.03 0.07,0.07z"/>
  <path class="fil1" d="M22.9 29.82c2.66,0.31 7.87,1.3 9.03,3.83 0.58,1.27 -0.21,2.43 -0.86,3.05 -5.09,4.86 -22.16,4.73 -26.92,-0.04 -2.22,-2.22 -0.47,-4.05 1.49,-5.07 0.92,-0.47 2.06,-0.86 3.16,-1.13 0.58,-0.14 1.15,-0.26 1.75,-0.37 0.26,-0.05 1.7,-0.23 1.83,-0.3l-0.71 -0.67c-0.08,-0.03 -9.7,0.62 -11.41,5.22 -0.6,1.62 -0.09,3.21 0.7,4.31 5.24,7.28 28.08,7.28 33.33,0 0.79,-1.09 1.32,-2.71 0.69,-4.34 -0.97,-2.53 -4.16,-3.78 -6.64,-4.4 -0.66,-0.17 -4.35,-0.92 -4.76,-0.79 0,0 -0.66,0.55 -0.69,0.71z"/>
  <path class="fil2" d="M17.02 8.06c-2.05,0.35 -3.78,2.14 -3.43,4.65 0.29,2.02 2.23,3.8 4.67,3.42 2.07,-0.33 3.72,-2.21 3.4,-4.66 -0.26,-1.98 -2.26,-3.81 -4.64,-3.41z"/>
 </g>
</svg>
