<?xml version="1.0" encoding="UTF-8"?>
<!DOCTYPE svg PUBLIC "-//W3C//DTD SVG 1.0//EN" "http://www.w3.org/TR/2001/REC-SVG-20010904/DTD/svg10.dtd">
<!-- Creator: CorelDRAW 2021 (64-Bit) -->
<svg xmlns="http://www.w3.org/2000/svg" xml:space="preserve" width="0.809409in" height="0.417146in" version="1.0" style="shape-rendering:geometricPrecision; text-rendering:geometricPrecision; image-rendering:optimizeQuality; fill-rule:evenodd; clip-rule:evenodd"
viewBox="0 0 86.52 44.59"
 xmlns:xlink="http://www.w3.org/1999/xlink"
 xmlns:xodm="http://www.corel.com/coreldraw/odm/2003">
 <defs>
  <style type="text/css">
   <![CDATA[
    .fil0 {fill:#006189;fill-rule:nonzero}
   ]]>
  </style>
 </defs>
 <g id="Layer_x0020_1">
  <metadata id="CorelCorpID_0Corel-Layer"/>
  <path class="fil0" d="M28.54 4.55l0 0 0 0c-1.89,0.21 -3.68,0.77 -5.37,1.68 0.24,-0.43 0.52,-1.01 0.84,-1.74 0.32,-0.73 0.56,-1.46 0.7,-2.2 0.14,-0.74 0.06,-1.32 -0.24,-1.78 -0.29,-0.45 -0.94,-0.6 -1.93,-0.48 -0.97,0.18 -2.13,0.8 -3.48,1.86 -1.35,1.05 -2.61,2.31 -3.8,3.79 -1.19,1.48 -2.02,2.95 -2.48,4.42 -0.46,1.47 -0.3,2.7 0.5,3.71 0.73,0.94 2.23,1.42 4.49,1.46 -3.93,1.62 -7.26,3.8 -10,6.52 -2.74,2.72 -4.78,5.57 -6.13,8.54 -0.57,1.25 -1,2.54 -1.29,3.86 -0.29,1.32 -0.4,2.6 -0.32,3.83 0.07,1.24 0.38,2.35 0.92,3.34 0.54,0.99 1.36,1.78 2.45,2.35 1.09,0.59 2.51,0.88 4.27,0.88 1.86,0 4.03,-0.4 6.48,-1.2 2.46,-0.8 4.89,-1.88 7.29,-3.25 2.4,-1.37 4.49,-2.94 6.28,-4.7 1.79,-1.77 2.99,-3.64 3.6,-5.61 0.39,-1.51 0.29,-2.71 -0.32,-3.62 -0.61,-0.9 -1.51,-1.58 -2.7,-2.04 -1.2,-0.46 -2.46,-0.76 -3.81,-0.91 -1.35,-0.15 -2.53,-0.22 -3.55,-0.22 -0.97,0.06 -1.65,0.22 -2.04,0.48 -0.38,0.25 -0.52,0.47 -0.39,0.64 0.12,0.17 0.47,0.17 1.04,-0.02 0.15,-0.05 0.3,-0.11 0.45,-0.18 0.21,-0.11 0.46,-0.21 0.76,-0.3 0.3,-0.09 0.72,-0.13 1.25,-0.11 0.93,0.01 1.95,0.1 3.05,0.27 1.11,0.17 2.14,0.46 3.09,0.88 0.95,0.42 1.66,1.04 2.13,1.84 0.48,0.8 0.53,1.85 0.19,3.16 -0.59,1.9 -1.74,3.72 -3.45,5.43 -1.72,1.72 -3.73,3.26 -6.04,4.61 -2.31,1.35 -4.65,2.41 -7.02,3.19 -2.37,0.78 -4.47,1.18 -6.3,1.18 -1.68,0 -3.03,-0.28 -4.05,-0.84 -1.03,-0.56 -1.79,-1.31 -2.28,-2.26 -0.5,-0.94 -0.78,-2 -0.83,-3.17 -0.05,-1.18 0.06,-2.39 0.34,-3.65 0.29,-1.25 0.7,-2.47 1.23,-3.65 1.41,-3.12 3.58,-6.08 6.52,-8.88 2.95,-2.79 6.54,-4.95 10.78,-6.46 0.1,-0.04 0.16,-0.1 0.17,-0.17 0.02,-0.08 0.01,-0.15 -0.03,-0.22 -0.04,-0.07 -0.11,-0.1 -0.22,-0.1 -1.53,0.12 -2.75,0.08 -3.66,-0.14 -0.91,-0.22 -1.57,-0.58 -1.99,-1.08 -0.72,-0.9 -0.85,-2.03 -0.38,-3.37 0.46,-1.34 1.26,-2.69 2.39,-4.05 1.13,-1.36 2.32,-2.53 3.59,-3.51 1.27,-0.97 2.35,-1.55 3.26,-1.72 0.85,-0.11 1.37,0.04 1.57,0.45 0.21,0.41 0.22,0.95 0.04,1.62 -0.18,0.66 -0.43,1.32 -0.76,1.97 -0.33,0.64 -0.6,1.15 -0.81,1.53 -0.03,0.05 -0.05,0.1 -0.08,0.13 -0.6,0.41 -0.97,0.74 -1.12,1.01 -0.15,0.26 -0.15,0.43 -0.02,0.51 0.14,0.08 0.34,0.06 0.6,-0.07 0.26,-0.13 0.5,-0.39 0.71,-0.78 0.64,-0.59 1.55,-1.1 2.74,-1.55 1.2,-0.45 2.21,-0.73 3.05,-0.84 0.1,-0.01 0.18,-0.04 0.24,-0.08 0.06,-0.04 0.08,-0.09 0.06,-0.13 -0.02,-0.04 -0.08,-0.06 -0.18,-0.04zm5.01 20.58l0 0 0 0c-0.12,0.26 -0.13,0.53 -0.01,0.8 0.11,0.27 0.27,0.54 0.48,0.8 0.21,0.27 0.36,0.55 0.46,0.82 -1.23,0.47 -2.01,0.87 -2.35,1.18 -0.34,0.32 -0.39,0.55 -0.16,0.69 0.23,0.14 0.59,0.18 1.07,0.13 0.48,-0.06 0.94,-0.22 1.36,-0.5 0.41,-0.28 0.64,-0.68 0.66,-1.2 1.32,-0.52 2.52,-1.35 3.61,-2.49 1.09,-1.14 1.88,-2.09 2.37,-2.84l0.18 -0.02c-0.28,0.61 -0.71,1.56 -1.27,2.84 -0.57,1.29 -1.11,2.68 -1.62,4.17 -0.52,1.49 -0.84,2.84 -0.98,4.07 -0.13,1.21 0.08,2.05 0.64,2.51 0.08,0.05 0.18,0.04 0.31,-0.01 0.12,-0.06 0.2,-0.13 0.26,-0.24 0.06,-0.1 0.04,-0.18 -0.03,-0.24 -0.48,-0.4 -0.63,-1.19 -0.46,-2.38 0.17,-1.18 0.5,-2.51 1,-3.99 0.5,-1.47 1.01,-2.83 1.53,-4.09 0.53,-1.25 0.92,-2.15 1.18,-2.68 1.86,-0.11 3.32,-0.1 4.36,0.02 0.16,0.03 0.27,0.06 0.32,0.11 0.06,0.04 0.1,0.1 0.12,0.15 0.03,0.05 0.06,0.11 0.11,0.16 0.05,0.06 0.12,0.12 0.22,0.2 0.15,0.1 0.29,0.11 0.43,0.04 0.14,-0.08 0.18,-0.2 0.14,-0.38 -0.04,-0.18 -0.25,-0.38 -0.64,-0.58 -0.99,-0.3 -2.6,-0.37 -4.83,-0.21 0.06,-0.12 0.13,-0.25 0.19,-0.37 0.42,-0.94 0.88,-1.8 1.39,-2.61 0.05,-0.09 0.06,-0.17 0.01,-0.24 -0.04,-0.08 -0.11,-0.12 -0.2,-0.13 -0.09,-0.01 -0.16,0.03 -0.22,0.11 -0.53,0.81 -1.34,1.92 -2.42,3.33 -0.12,0.01 -0.36,0.04 -0.73,0.08 -0.66,0.08 -1.53,0.18 -2.6,0.28 -1.08,0.1 -2.14,0.15 -3.21,0.15 -1.07,0 -1.92,-0.11 -2.56,-0.34 -0.63,-0.23 -0.83,-0.63 -0.61,-1.2 0.05,-0.09 0.08,-0.17 0.08,-0.24 0,-0.08 -0.02,-0.12 -0.06,-0.13 -0.04,-0.01 -0.08,0.03 -0.13,0.11 -0.37,0.72 -0.26,1.24 0.34,1.57 0.6,0.32 1.44,0.51 2.53,0.56 1.09,0.05 2.2,0.04 3.31,-0.04 1.11,-0.08 2,-0.15 2.66,-0.22 0.27,-0.03 0.47,-0.04 0.6,-0.06 -0.19,0.39 -0.58,0.93 -1.18,1.62 -0.6,0.69 -1.28,1.36 -2.04,1.99 -0.76,0.64 -1.5,1.06 -2.19,1.25 -0.08,-0.17 -0.17,-0.32 -0.28,-0.48 -0.15,-0.24 -0.28,-0.48 -0.4,-0.74 -0.11,-0.25 -0.18,-0.51 -0.2,-0.76 0.01,-0.08 -0.02,-0.17 -0.09,-0.25 -0.08,-0.08 -0.16,-0.13 -0.25,-0.15 -0.1,-0.02 -0.17,0.01 -0.22,0.08zm8.02 -3.3l0 0 0 0 -0.09 0.17 -0.04 0 0.13 -0.17zm-7.08 6.22l0 0 0 0c-0.1,0.24 -0.28,0.44 -0.54,0.61 -0.26,0.17 -0.53,0.29 -0.82,0.39 -0.29,0.1 -0.53,0.15 -0.74,0.16 -0.21,0.01 -0.33,-0.01 -0.36,-0.08 0.04,-0.11 0.67,-0.39 1.9,-0.86 0.17,-0.06 0.36,-0.13 0.56,-0.22zm8.74 -2.05l0 0 0 0c-0.08,0.24 -0.15,0.53 -0.2,0.88 -0.05,0.36 -0.03,0.68 0.05,0.98 0.08,0.3 0.28,0.48 0.6,0.56 0.6,0.04 1.28,-0.21 2.05,-0.74 0.77,-0.53 1.37,-1.01 1.79,-1.46l-0.15 0.5c-0.05,0.17 -0.1,0.32 -0.15,0.49 -0.15,0.36 -0.24,0.73 -0.26,1.09 0,0.15 0.04,0.28 0.11,0.39 0.06,0.11 0.15,0.18 0.24,0.22 0.09,0.04 0.17,0.01 0.25,-0.1 0.2,-0.32 0.45,-0.74 0.74,-1.25 0.34,-0.59 0.66,-1.12 0.97,-1.61 0.31,-0.49 0.52,-0.76 0.61,-0.8 0.01,0.01 0.01,0.1 -0.01,0.26 -0.02,0.17 -0.04,0.36 -0.06,0.6 -0.03,0.24 -0.06,0.49 -0.1,0.74 -0.03,0.25 -0.05,0.47 -0.08,0.66 -0.03,0.19 -0.04,0.32 -0.04,0.38 0,0.13 0.05,0.2 0.15,0.24 0.1,0.04 0.18,0.02 0.26,-0.05 0.17,-0.19 0.36,-0.43 0.56,-0.73 0.17,-0.24 0.34,-0.46 0.5,-0.66 0.16,-0.2 0.32,-0.35 0.46,-0.44 0,0.06 -0.01,0.14 -0.02,0.23 -0.05,0.27 -0.07,0.57 -0.06,0.88 0.01,0.32 0.11,0.53 0.31,0.64 0.25,0.07 0.72,0.04 1.4,-0.11 0.68,-0.15 1.37,-0.33 2.07,-0.55 0.7,-0.22 1.19,-0.39 1.48,-0.53 0.04,-0.03 0.06,-0.07 0.03,-0.14 -0.02,-0.06 -0.06,-0.1 -0.11,-0.08 -0.25,0.11 -0.71,0.25 -1.39,0.43 -0.68,0.17 -1.35,0.32 -2.02,0.43 -0.66,0.12 -1.09,0.15 -1.29,0.09 0,0 0,-0.04 0.01,-0.11 0.01,-0.06 0.02,-0.15 0.03,-0.27 0.03,-0.16 0.05,-0.32 0.08,-0.5 0.03,-0.17 0.03,-0.29 0.02,-0.36 -0.01,-0.25 -0.13,-0.36 -0.36,-0.34 -0.22,0.03 -0.46,0.15 -0.73,0.38 -0.26,0.24 -0.52,0.49 -0.76,0.78 0.01,-0.05 0.03,-0.11 0.06,-0.18 0.05,-0.22 0.1,-0.49 0.16,-0.8 0.06,-0.31 0.06,-0.59 0.02,-0.83 -0.04,-0.24 -0.18,-0.38 -0.4,-0.4 -0.15,0.01 -0.36,0.18 -0.64,0.5 -0.27,0.32 -0.57,0.7 -0.88,1.15 -0.32,0.45 -0.61,0.88 -0.88,1.3 0.04,-0.13 0.08,-0.3 0.13,-0.48 0.1,-0.32 0.2,-0.66 0.28,-1 0.09,-0.34 0.13,-0.61 0.11,-0.81 -0.01,-0.15 -0.07,-0.26 -0.18,-0.34 -0.11,-0.07 -0.21,-0.05 -0.31,0.08 -0.2,0.34 -0.53,0.73 -1.01,1.19 -0.47,0.46 -0.97,0.86 -1.5,1.2 -0.53,0.34 -0.98,0.48 -1.36,0.45 -0.15,-0.04 -0.23,-0.19 -0.24,-0.47 -0.01,-0.28 0.01,-0.57 0.06,-0.88 0.06,-0.31 0.11,-0.52 0.14,-0.62 0.03,-0.1 0,-0.18 -0.08,-0.22 -0.08,-0.05 -0.17,-0.07 -0.27,-0.05 -0.1,0.02 -0.17,0.08 -0.21,0.18zm0.6 -2.05l0 0 0 0c-0.06,0.17 -0.12,0.36 -0.18,0.58 -0.01,0.1 -0.03,0.18 -0.06,0.26 -0.04,0.1 -0.03,0.17 0.02,0.21 0.05,0.04 0.11,0.05 0.18,0.02 0.08,-0.03 0.13,-0.1 0.17,-0.19 0.05,-0.14 0.1,-0.27 0.17,-0.39 0.05,-0.09 0.1,-0.18 0.15,-0.3 0.03,-0.1 0.03,-0.18 -0.03,-0.24 -0.06,-0.06 -0.13,-0.1 -0.22,-0.1 -0.08,0 -0.15,0.05 -0.2,0.15zm14.86 1.75l0 0 0 0c-0.43,-0.25 -0.87,-0.24 -1.31,0.04 -0.45,0.27 -0.78,0.63 -1.02,1.08 -0.24,0.44 -0.25,0.8 -0.06,1.07 0.21,0.21 0.51,0.25 0.9,0.1 0.38,-0.14 0.76,-0.35 1.13,-0.62 0.37,-0.27 0.63,-0.5 0.79,-0.69 -0.07,0.31 -0.09,0.64 -0.04,0.97 0.04,0.34 0.24,0.55 0.59,0.62 0.5,0.03 1.16,-0.36 2,-1.15 0.83,-0.79 1.64,-1.65 2.42,-2.61 0.78,-0.95 1.35,-1.65 1.69,-2.11l0.19 0c-0.29,0.59 -0.71,1.54 -1.28,2.83 -0.57,1.29 -1.11,2.68 -1.62,4.17 -0.52,1.5 -0.84,2.84 -0.98,4.05 -0.13,1.21 0.08,2.05 0.64,2.51 0.09,0.04 0.19,0.04 0.31,-0.01 0.12,-0.06 0.2,-0.13 0.26,-0.22 0.06,-0.1 0.05,-0.18 -0.03,-0.25 -0.47,-0.39 -0.62,-1.19 -0.46,-2.37 0.17,-1.19 0.5,-2.52 1,-3.99 0.5,-1.48 1.01,-2.84 1.54,-4.09 0.53,-1.25 0.92,-2.14 1.18,-2.67 1.86,-0.13 3.31,-0.13 4.36,0 0.16,0.03 0.27,0.06 0.32,0.1 0.06,0.04 0.1,0.1 0.12,0.16 0.03,0.05 0.06,0.1 0.11,0.17 0.05,0.06 0.12,0.13 0.22,0.2 0.15,0.1 0.29,0.11 0.43,0.04 0.13,-0.07 0.18,-0.2 0.13,-0.38 -0.04,-0.18 -0.25,-0.38 -0.64,-0.6 -0.99,-0.3 -2.6,-0.36 -4.82,-0.18 0.06,-0.13 0.12,-0.25 0.18,-0.39 0.42,-0.92 0.89,-1.78 1.4,-2.59 0.04,-0.1 0.05,-0.18 0.01,-0.25 -0.04,-0.06 -0.11,-0.11 -0.2,-0.13 -0.08,-0.02 -0.16,0.01 -0.22,0.1 -0.53,0.82 -1.34,1.93 -2.42,3.33 -0.12,0.01 -0.36,0.04 -0.73,0.1 -0.66,0.08 -1.53,0.17 -2.6,0.27 -1.08,0.1 -2.14,0.15 -3.21,0.15 -1.07,-0.01 -1.92,-0.12 -2.55,-0.34 -0.64,-0.22 -0.84,-0.62 -0.62,-1.2 0.05,-0.1 0.08,-0.18 0.08,-0.26 0,-0.07 -0.02,-0.11 -0.06,-0.13 -0.04,-0.01 -0.08,0.03 -0.13,0.11 -0.37,0.73 -0.26,1.25 0.34,1.57 0.6,0.32 1.44,0.52 2.54,0.57 1.09,0.06 2.2,0.04 3.31,-0.03 1.11,-0.07 2,-0.15 2.65,-0.22 0.27,-0.03 0.47,-0.04 0.6,-0.06 -0.06,0.08 -0.14,0.17 -0.22,0.28 -0.39,0.51 -0.92,1.18 -1.58,2 -0.67,0.82 -1.34,1.55 -1.99,2.21 -0.66,0.66 -1.15,0.97 -1.48,0.96 -0.17,-0.05 -0.24,-0.24 -0.24,-0.57 0.01,-0.33 0.04,-0.67 0.11,-1.04 0.06,-0.36 0.13,-0.6 0.18,-0.73 0.02,-0.09 -0.01,-0.13 -0.1,-0.14 -0.09,-0.01 -0.19,0.02 -0.31,0.07 -0.12,0.06 -0.2,0.13 -0.25,0.22 -0.11,0.18 -0.32,0.45 -0.64,0.8 -0.32,0.34 -0.65,0.64 -1,0.89 -0.35,0.25 -0.62,0.35 -0.82,0.29 -0.1,-0.06 -0.1,-0.2 0,-0.39 0.1,-0.2 0.25,-0.41 0.46,-0.62 0.2,-0.22 0.41,-0.39 0.64,-0.51 0.22,-0.13 0.39,-0.15 0.53,-0.08 0.09,0.06 0.17,0.07 0.24,0.03 0.08,-0.04 0.12,-0.1 0.14,-0.18 0.02,-0.08 -0.01,-0.16 -0.1,-0.24zm7.6 -3.97l0 0 0 0 -0.09 0.17 -0.04 0 0.13 -0.17zm6.71 3.26l0 0 0 0c0.31,-0.5 0.47,-0.87 0.48,-1.12 0.01,-0.25 -0.08,-0.39 -0.25,-0.43 -0.17,-0.04 -0.36,0.01 -0.55,0.14 -0.19,0.13 -0.32,0.32 -0.39,0.59 -0.06,0.27 0.01,0.59 0.22,0.94 -0.41,0.49 -0.93,0.86 -1.57,1.11 -0.64,0.25 -1.26,0.29 -1.88,0.12 -0.15,-0.25 -0.4,-0.41 -0.76,-0.47 -0.1,-0.01 -0.17,0.02 -0.22,0.09 -0.05,0.06 -0.06,0.14 -0.04,0.22 0.03,0.08 0.09,0.13 0.18,0.16 0.31,0.07 0.48,0.25 0.52,0.52 0.04,0.27 -0.01,0.57 -0.16,0.9 -0.14,0.33 -0.32,0.6 -0.52,0.83 -0.2,0.22 -0.39,0.32 -0.57,0.3 -0.2,-0.1 -0.27,-0.39 -0.22,-0.87 0.05,-0.48 0.17,-0.97 0.37,-1.48 0.2,-0.51 0.41,-0.84 0.64,-0.99 0.09,-0.08 0.12,-0.15 0.1,-0.24 -0.03,-0.08 -0.08,-0.14 -0.15,-0.18 -0.08,-0.04 -0.15,-0.03 -0.24,0.04 -0.05,0.04 -0.1,0.08 -0.15,0.13 -0.09,0.03 -0.22,0.04 -0.38,0.06 -0.17,0.02 -0.32,0.01 -0.47,-0.04 -0.14,-0.04 -0.22,-0.13 -0.23,-0.27 0,-0.08 -0.03,-0.13 -0.08,-0.15 -0.06,-0.03 -0.11,-0.03 -0.16,0 -0.05,0.03 -0.08,0.08 -0.08,0.15 0.03,0.27 0.15,0.45 0.38,0.54 0.22,0.08 0.45,0.11 0.69,0.09 -0.29,0.22 -0.53,0.6 -0.73,1.14 -0.2,0.53 -0.26,1.04 -0.19,1.51 0.08,0.47 0.37,0.74 0.88,0.82 0.52,-0.01 0.96,-0.29 1.32,-0.84 0.36,-0.55 0.5,-1.09 0.43,-1.62 0.65,0.11 1.29,0.04 1.92,-0.22 0.62,-0.26 1.15,-0.63 1.57,-1.12 0.25,0.27 0.57,0.5 0.95,0.67 -0.19,0.26 -0.38,0.64 -0.59,1.16 -0.2,0.51 -0.3,0.99 -0.29,1.46 0,0.47 0.23,0.76 0.67,0.89 0.49,0.06 1.16,-0.08 2,-0.44 0.85,-0.36 1.7,-0.77 2.53,-1.24 0.83,-0.47 1.46,-0.85 1.86,-1.14 0.03,-0.04 0.04,-0.07 0.03,-0.1 -0.01,-0.03 -0.02,-0.06 -0.04,-0.08 -0.02,-0.03 -0.04,-0.04 -0.06,-0.04 -0.38,0.26 -0.98,0.6 -1.81,1.04 -0.83,0.43 -1.67,0.8 -2.51,1.11 -0.85,0.32 -1.48,0.45 -1.9,0.4 -0.12,0 -0.17,-0.11 -0.13,-0.35 0.04,-0.24 0.12,-0.52 0.25,-0.85 0.13,-0.33 0.27,-0.64 0.41,-0.92 0.14,-0.29 0.25,-0.48 0.32,-0.58 0.04,-0.05 0.04,-0.12 0.01,-0.22 -0.03,-0.1 -0.07,-0.18 -0.13,-0.27 -0.06,-0.09 -0.11,-0.15 -0.18,-0.17 -0.43,-0.16 -0.78,-0.38 -1.02,-0.65 -0.03,-0.03 -0.04,-0.05 -0.06,-0.08zm-0.18 -0.34l0 0 0 0c-0.04,-0.15 -0.04,-0.27 0.01,-0.38 0.04,-0.1 0.09,-0.17 0.14,-0.18 0.05,-0.02 0.07,0.01 0.06,0.1 0,0.09 -0.08,0.24 -0.21,0.46zm6.8 1.51l0 0 0 0c0,0.32 0.08,0.64 0.25,0.95 0.17,0.31 0.35,0.6 0.55,0.88 0.06,0.08 0.12,0.17 0.17,0.26 -1.21,0.69 -1.93,1.23 -2.16,1.62 -0.24,0.39 -0.19,0.64 0.15,0.74 0.34,0.11 0.76,0.08 1.29,-0.06 0.52,-0.15 0.95,-0.41 1.27,-0.8 0.32,-0.38 0.34,-0.86 0.05,-1.44 0.76,-0.39 1.62,-0.75 2.58,-1.07 0.97,-0.32 1.85,-0.48 2.66,-0.48 0.04,0 0.08,-0.02 0.09,-0.06 0.01,-0.03 0.01,-0.07 0,-0.11 -0.01,-0.04 -0.04,-0.06 -0.09,-0.08 -0.86,0 -1.78,0.15 -2.75,0.44 -0.98,0.29 -1.86,0.64 -2.66,1.06 -0.04,-0.05 -0.08,-0.1 -0.11,-0.15 -0.12,-0.2 -0.25,-0.41 -0.38,-0.62 -0.13,-0.22 -0.23,-0.44 -0.31,-0.66 0,-0.04 -0.01,-0.06 -0.02,-0.08 -0.03,-0.1 -0.03,-0.17 -0.03,-0.22 0.01,-0.05 0.04,-0.11 0.1,-0.2 0.1,-0.17 0.1,-0.28 0.01,-0.36 -0.09,-0.08 -0.21,-0.08 -0.36,-0.01 -0.15,0.06 -0.25,0.22 -0.3,0.45zm1.14 2.39l0 0 0 0c0.13,0.3 0.12,0.57 -0.04,0.82 -0.17,0.25 -0.41,0.46 -0.71,0.62 -0.31,0.16 -0.59,0.27 -0.85,0.32 -0.27,0.05 -0.43,0.03 -0.5,-0.08 -0.16,-0.2 0.54,-0.76 2.11,-1.68z"/>
 </g>
</svg>
