<?xml version="1.0" encoding="UTF-8"?>
<!DOCTYPE svg PUBLIC "-//W3C//DTD SVG 1.0//EN" "http://www.w3.org/TR/2001/REC-SVG-20010904/DTD/svg10.dtd">
<!-- Creator: CorelDRAW 2021 (64-Bit) -->
<svg xmlns="http://www.w3.org/2000/svg" xml:space="preserve" width="0.727815in" height="0.390252in" version="1.0" style="shape-rendering:geometricPrecision; text-rendering:geometricPrecision; image-rendering:optimizeQuality; fill-rule:evenodd; clip-rule:evenodd"
viewBox="0 0 148.64 79.7"
 xmlns:xlink="http://www.w3.org/1999/xlink"
 xmlns:xodm="http://www.corel.com/coreldraw/odm/2003">
 <defs>
  <style type="text/css">
   <![CDATA[
    .fil0 {fill:#006189;fill-rule:nonzero}
   ]]>
  </style>
 </defs>
 <g id="Layer_x0020_1">
  <metadata id="CorelCorpID_0Corel-Layer"/>
  <path class="fil0" d="M10.92 64.88l0 0 0 0c1.47,-0.2 3.09,-0.55 4.86,-1.03 0.19,-0.05 0.37,-0.09 0.55,-0.13 -0.65,0.85 -1.46,2.16 -2.45,3.94 -0.99,1.78 -1.8,3.63 -2.41,5.56 -0.62,1.93 -0.71,3.54 -0.25,4.81 0.46,1.27 1.82,1.82 4.1,1.63 2.39,-0.25 5.05,-1.16 7.97,-2.72 2.93,-1.56 5.54,-3.6 7.82,-6.08 2.28,-2.49 3.63,-5.28 4.05,-8.34 0.41,-3.07 -0.72,-6.23 -3.41,-9.5 -1.14,-1.28 -2.69,-2.67 -4.63,-4.16 -1.94,-1.49 -4.09,-3.08 -6.46,-4.75 -2.92,-2.05 -5.8,-4.17 -8.63,-6.4 -2.83,-2.21 -5.26,-4.48 -7.27,-6.8 -2.01,-2.33 -3.23,-4.63 -3.66,-6.95 -0.42,-2.3 0.31,-4.57 2.19,-6.8 2.74,-3.03 6.33,-5.82 10.78,-8.34 4.46,-2.53 9.29,-4.53 14.51,-5.99 5.21,-1.46 10.29,-2.1 15.23,-1.94 4.94,0.15 9.24,1.39 12.91,3.68 2.21,1.61 3.35,3.49 3.45,5.63 0.09,2.15 -0.48,4.36 -1.74,6.66 -1.25,2.28 -2.79,4.43 -4.63,6.44 -1.83,2 -3.59,3.68 -5.27,5.01 -0.46,0.34 -0.92,0.55 -1.36,0.62 -0.45,0.06 -0.91,0.07 -1.39,0.02 -0.65,-0.04 -1.33,0.02 -2.03,0.21 -0.92,0.32 -1.26,0.72 -1.02,1.18 0.25,0.46 0.87,0.71 1.88,0.74 1.01,0.04 2.21,-0.43 3.59,-1.4 1.79,-1.28 3.77,-2.98 5.94,-5.08 2.17,-2.1 4.01,-4.39 5.53,-6.86 1.52,-2.47 2.2,-4.92 2.06,-7.34 -0.15,-2.42 -1.65,-4.61 -4.5,-6.56 -3.76,-2.39 -8.17,-3.67 -13.23,-3.84 -5.05,-0.18 -10.23,0.48 -15.53,1.95 -5.3,1.47 -10.24,3.48 -14.79,6.06 -4.56,2.58 -8.23,5.42 -11.01,8.55 -2.07,2.41 -2.93,4.83 -2.58,7.28 0.37,2.45 1.54,4.87 3.54,7.28 2,2.4 4.43,4.74 7.3,7.02 2.87,2.29 5.79,4.48 8.75,6.56 2.34,1.68 4.49,3.28 6.46,4.81 1.96,1.53 3.54,2.96 4.7,4.29 2.43,2.96 3.42,5.83 2.96,8.63 -0.46,2.79 -1.78,5.31 -3.96,7.6 -2.18,2.27 -4.64,4.12 -7.41,5.54 -2.75,1.42 -5.22,2.27 -7.41,2.52 -2.04,0.14 -3.16,-0.41 -3.35,-1.65 -0.2,-1.25 0.12,-2.79 0.94,-4.62 0.84,-1.83 1.78,-3.56 2.83,-5.19 1.05,-1.62 1.81,-2.73 2.27,-3.33 0.92,-0.25 1.51,-0.55 1.75,-0.91 0.26,-0.37 0.28,-0.65 0.07,-0.86 -0.2,-0.22 -0.55,-0.26 -1.03,-0.13 -0.48,0.14 -1.01,0.58 -1.58,1.32 -0.84,0.29 -1.78,0.6 -2.83,0.93 -1.06,0.32 -2.03,0.54 -2.93,0.65 -0.18,0.02 -0.33,0.09 -0.42,0.19 -0.11,0.11 -0.15,0.2 -0.13,0.28 0.02,0.08 0.13,0.11 0.32,0.08zm35.89 -21.05l0 0 0 0c-0.07,0.14 -0.14,0.28 -0.2,0.41 -0.14,0.35 -0.28,0.68 -0.42,1 -0.07,0.19 -0.06,0.32 0.02,0.4 0.08,0.08 0.18,0.09 0.31,0.04 0.13,-0.06 0.23,-0.18 0.33,-0.36 0.12,-0.25 0.28,-0.54 0.52,-0.86 0.19,-0.28 0.33,-0.53 0.45,-0.76 0.07,-0.18 0.04,-0.28 -0.11,-0.32 -0.13,-0.04 -0.29,-0.01 -0.48,0.07 -0.18,0.07 -0.32,0.21 -0.41,0.39zm-1.96 4l0 0 0 0c-0.14,0.34 -0.29,0.83 -0.48,1.48 -0.19,0.65 -0.29,1.28 -0.34,1.93 -0.07,0.67 0.02,1.08 0.27,1.26 0.26,0.18 0.67,0.25 1.25,0.22 1.49,-0.02 3.22,-0.4 5.19,-1.12 1.96,-0.73 3.56,-1.38 4.8,-1.95 0.07,-0.07 0.11,-0.13 0.09,-0.2 -0.01,-0.07 -0.05,-0.13 -0.09,-0.18 -0.05,-0.05 -0.09,-0.06 -0.16,-0.04 -1.25,0.58 -2.93,1.18 -5.06,1.79 -2.12,0.62 -3.85,0.88 -5.17,0.76 -0.07,-0.23 -0.05,-0.6 0.06,-1.12 0.12,-0.52 0.27,-1.05 0.45,-1.59 0.19,-0.54 0.33,-0.94 0.42,-1.19 0.05,-0.16 0,-0.28 -0.14,-0.34 -0.14,-0.07 -0.32,-0.08 -0.53,-0.04 -0.22,0.05 -0.4,0.14 -0.54,0.31zm14.26 -0.07l0 0 0 0c-0.85,-0.22 -1.61,-0.16 -2.3,0.19 -0.69,0.36 -1.24,0.83 -1.62,1.41 -0.39,0.59 -0.56,1.13 -0.53,1.62 0.04,0.49 0.35,0.76 0.94,0.81 0.84,-0.02 1.74,-0.35 2.73,-0.99 0.99,-0.62 1.78,-1.24 2.38,-1.8 0,0.75 -0.05,1.75 -0.14,3 -2.39,0.96 -5.37,2.38 -8.95,4.23 -3.59,1.86 -7.03,3.92 -10.32,6.16 -3.29,2.26 -5.7,4.46 -7.22,6.62 -0.92,1.4 -1.15,2.46 -0.72,3.19 0.43,0.72 1.23,1.19 2.41,1.41 1.16,0.21 2.4,0.31 3.68,0.26 1.29,-0.05 2.34,-0.12 3.14,-0.21 4.99,-0.68 8.83,-2.28 11.54,-4.79 2.72,-2.5 4.62,-5.29 5.73,-8.37 1.09,-3.08 1.73,-5.84 1.89,-8.3 4.84,-1.86 8.71,-2.7 11.61,-2.55 0.07,-0.02 0.12,-0.06 0.14,-0.12 0.02,-0.06 0.02,-0.12 0,-0.19 -0.02,-0.07 -0.07,-0.11 -0.14,-0.11 -3.16,-0.16 -7.03,0.6 -11.61,2.27 0.02,-0.15 0.04,-0.47 0.04,-0.96 0,-0.48 0,-0.98 0,-1.47 0,-0.45 0.01,-0.76 0.04,-0.98 -0.02,-0.18 -0.08,-0.34 -0.18,-0.48 -0.09,-0.13 -0.21,-0.22 -0.34,-0.27 -0.14,-0.05 -0.27,0 -0.38,0.14 -0.55,0.64 -1.35,1.4 -2.4,2.29 -1.05,0.88 -1.98,1.41 -2.77,1.6 -0.37,0.02 -0.51,-0.12 -0.43,-0.43 0.08,-0.31 0.32,-0.67 0.69,-1.08 0.38,-0.41 0.82,-0.75 1.33,-1.02 0.51,-0.26 1.01,-0.33 1.52,-0.22 0.18,0.05 0.33,0.01 0.45,-0.09 0.12,-0.12 0.16,-0.25 0.14,-0.4 -0.02,-0.15 -0.13,-0.27 -0.32,-0.36zm-16.95 25.39l0 0 0 0c-0.81,0.12 -2.03,0.19 -3.67,0.19 -1.65,0.01 -3,-0.25 -4.07,-0.79 -1.07,-0.54 -1.14,-1.55 -0.22,-3.05 1.47,-2.07 3.86,-4.22 7.16,-6.44 3.32,-2.23 6.76,-4.27 10.34,-6.14 3.59,-1.86 6.53,-3.27 8.82,-4.23 -0.2,2.39 -0.85,5.06 -1.94,8 -1.09,2.94 -2.94,5.59 -5.53,7.96 -2.6,2.36 -6.23,3.87 -10.89,4.5zm31.45 -25.14l0 0 0 0c-0.09,0.43 -0.27,0.92 -0.53,1.46 -0.27,0.54 -0.54,1.06 -0.81,1.56 -0.12,0.26 -0.24,0.49 -0.34,0.69 -0.07,0.16 -0.02,0.26 0.13,0.29 0.16,0.04 0.35,0.01 0.58,-0.05 0.21,-0.07 0.38,-0.19 0.49,-0.35 0.31,-0.39 0.75,-0.91 1.35,-1.56 0.59,-0.66 1.24,-1.22 1.93,-1.72 0.68,-0.49 1.28,-0.72 1.79,-0.65 0,0 -0.07,0.18 -0.21,0.52 -0.18,0.46 -0.39,1.01 -0.64,1.66 -0.24,0.65 -0.38,1.12 -0.4,1.41 0.02,0.29 0.12,0.49 0.26,0.59 0.15,0.09 0.35,0.13 0.61,0.11 1.38,-0.09 3.08,-0.39 5.13,-0.87 2.05,-0.48 3.7,-0.96 4.96,-1.45 0.05,-0.02 0.07,-0.07 0.08,-0.13 0.01,-0.07 0,-0.14 -0.04,-0.2 -0.02,-0.05 -0.08,-0.08 -0.15,-0.08 -1.21,0.46 -2.83,0.87 -4.86,1.25 -2.02,0.36 -3.7,0.54 -5.06,0.54 0.11,-0.41 0.27,-0.84 0.48,-1.27 0.25,-0.53 0.43,-1.06 0.54,-1.59 0.12,-0.59 -0.07,-0.95 -0.58,-1.07 -0.72,-0.06 -1.46,0.15 -2.25,0.65 -0.78,0.49 -1.42,0.99 -1.93,1.49 0.16,-0.39 0.28,-0.73 0.34,-1.03 0.02,-0.15 -0.02,-0.26 -0.13,-0.31 -0.12,-0.05 -0.25,-0.05 -0.4,-0.02 -0.15,0.04 -0.27,0.08 -0.36,0.13zm42.47 -15.1l0 0 0 0c1.73,-2.43 2.59,-4.05 2.59,-4.86 0,-0.8 -0.55,-0.92 -1.66,-0.35 -1.09,0.55 -2.43,1.68 -3.99,3.35 -2.62,2.94 -5.2,6.5 -7.74,10.7 -2.54,4.19 -4.27,8.11 -5.19,11.76 -0.02,0.14 -0.01,0.31 0.04,0.48 0.05,0.19 0.11,0.37 0.19,0.54 0.08,0.16 0.16,0.29 0.26,0.37 0.09,0.06 0.16,0.05 0.2,-0.07 0.28,-0.51 0.78,-1.27 1.48,-2.28 0.72,-1.01 1.53,-1.96 2.43,-2.87 0.91,-0.91 1.79,-1.48 2.63,-1.71 0.12,0.05 0.15,0.18 0.12,0.39 -0.04,0.22 -0.11,0.49 -0.24,0.81 -0.13,0.33 -0.26,0.65 -0.4,0.96 -0.14,0.28 -0.25,0.53 -0.33,0.74 -0.08,0.22 -0.12,0.38 -0.12,0.47 0.02,0.27 0.16,0.48 0.41,0.63 0.26,0.15 0.51,0.22 0.76,0.22 1.24,-0.09 2.62,-0.39 4.15,-0.89 1.53,-0.51 2.82,-1.07 3.87,-1.69 0.05,-0.02 0.07,-0.07 0.07,-0.13 0,-0.07 -0.01,-0.14 -0.05,-0.19 -0.04,-0.06 -0.08,-0.08 -0.12,-0.06 -0.4,0.23 -1.07,0.53 -2.03,0.88 -0.96,0.35 -1.99,0.67 -3.07,0.94 -1.08,0.28 -2.01,0.42 -2.79,0.42 0.11,-0.45 0.28,-0.91 0.52,-1.39 0.27,-0.56 0.47,-1.13 0.58,-1.68 0.07,-0.62 -0.08,-0.98 -0.46,-1.06 -0.38,-0.07 -0.8,0 -1.26,0.23 -0.99,0.46 -2,1.18 -3.05,2.16 -1.05,0.99 -1.82,1.8 -2.33,2.45 0.36,-1.11 0.81,-2.25 1.34,-3.45 0.51,-0.58 1.02,-1.16 1.55,-1.75 4.09,-4.57 7.96,-9.27 11.61,-14.1zm-2.38 -1.27l0 0 0 0c1.4,-1.59 2.53,-2.66 3.4,-3.22 0.86,-0.56 1.22,-0.51 1.08,0.15 -0.14,0.67 -0.98,2.06 -2.52,4.17 -3.74,4.89 -7.67,9.64 -11.78,14.26 -0.09,0.09 -0.18,0.19 -0.27,0.31 2.66,-5.67 6.02,-10.9 10.09,-15.68zm3.28 16.12l0 0 0 0c-0.81,0.36 -1.39,0.93 -1.74,1.67 -0.37,0.75 -0.41,1.45 -0.18,2.08 0.25,0.65 0.86,0.98 1.85,1 1.69,-0.08 3.33,-0.67 4.89,-1.73 1.56,-1.07 2.88,-2.21 3.96,-3.4 0.41,0.39 0.91,0.72 1.48,1 -0.69,0.89 -1.39,2.06 -2.1,3.48 -0.72,1.42 -1.2,2.69 -1.45,3.82 -0.12,0.51 -0.11,0.94 0.01,1.31 0.13,0.38 0.47,0.53 1.02,0.48 1.15,-0.22 2.88,-1.02 5.19,-2.38 2.31,-1.35 4.45,-2.66 6.42,-3.93 0.94,-0.62 1.71,-1.11 2.28,-1.45 0.04,-0.02 0.07,-0.07 0.08,-0.15 0.01,-0.08 0,-0.15 -0.02,-0.21 -0.02,-0.06 -0.07,-0.08 -0.16,-0.08 -0.37,0.23 -0.85,0.53 -1.45,0.89 -1.29,0.81 -2.8,1.73 -4.54,2.76 -1.73,1.03 -3.34,1.93 -4.82,2.7 -1.48,0.76 -2.49,1.14 -3.05,1.12 -0.12,-0.34 0.05,-1.08 0.49,-2.22 0.46,-1.14 0.99,-2.27 1.59,-3.4 0.61,-1.12 1.09,-1.83 1.44,-2.13 0.12,-0.09 0.18,-0.22 0.2,-0.4 0.02,-0.18 0.02,-0.34 -0.01,-0.51 -0.04,-0.15 -0.11,-0.26 -0.22,-0.31 -0.78,-0.29 -1.41,-0.69 -1.89,-1.2 0.55,-0.99 0.82,-1.73 0.82,-2.21 0,-0.48 -0.15,-0.75 -0.46,-0.82 -0.32,-0.07 -0.65,0.02 -1,0.29 -0.36,0.26 -0.61,0.64 -0.74,1.12 -0.14,0.48 -0.04,1.03 0.31,1.65 -0.69,1.06 -1.88,2.18 -3.59,3.33 -1.69,1.16 -3.18,1.73 -4.45,1.71 -0.55,-0.07 -0.89,-0.29 -1.05,-0.67 -0.15,-0.38 -0.06,-0.8 0.26,-1.26 1.42,0.05 2.41,-0.07 2.94,-0.36 0.54,-0.28 0.76,-0.6 0.66,-0.96 -0.11,-0.35 -0.44,-0.61 -0.98,-0.79 -0.55,-0.18 -1.22,-0.12 -2,0.15zm8.78 -2.16l0 0 0 0c0,-0.14 0.02,-0.28 0.07,-0.43 0.05,-0.15 0.09,-0.27 0.15,-0.37 0.06,-0.09 0.09,-0.13 0.12,-0.13 0.02,0 0.01,0.07 -0.04,0.22 -0.05,0.14 -0.15,0.38 -0.31,0.71zm-8.44 3.23l0 0 0 0c0.09,-0.05 0.2,-0.09 0.31,-0.14 0.81,-0.29 1.21,-0.36 1.22,-0.22 0.01,0.15 -0.49,0.27 -1.53,0.37zm24.05 0.72l0 0 0 0c1.28,-0.2 1.92,-0.59 1.89,-1.15 -0.02,-0.55 -0.62,-0.88 -1.82,-0.98 -1.03,0.02 -1.83,0.33 -2.4,0.93 -0.56,0.6 -0.83,1.27 -0.82,2.03 0.01,0.75 0.37,1.38 1.05,1.86 0.83,0.51 1.88,0.67 3.14,0.48 1.26,-0.19 2.47,-0.58 3.62,-1.18 1.14,-0.59 2,-1.25 2.54,-1.96 0.05,-0.04 0.07,-0.09 0.06,-0.16 -0.01,-0.07 -0.04,-0.12 -0.07,-0.15 -0.04,-0.04 -0.07,-0.05 -0.12,-0.02 -0.55,0.67 -1.45,1.27 -2.69,1.81 -1.24,0.54 -2.46,0.86 -3.67,0.96 -1.2,0.11 -2.03,-0.14 -2.49,-0.74 -0.26,-0.46 -0.29,-1.01 -0.11,-1.66 0.75,0.02 1.39,0 1.89,-0.07zm0.69 -0.93l0 0 0 0c0.09,0.07 0.07,0.14 -0.06,0.19 -0.12,0.06 -0.31,0.11 -0.55,0.13 -0.23,0.02 -0.49,0.05 -0.75,0.07 -0.27,0.02 -0.48,0.02 -0.66,0.01 -0.16,-0.01 -0.26,-0.02 -0.26,-0.05 0.07,-0.09 0.26,-0.2 0.55,-0.32 0.31,-0.11 0.61,-0.18 0.95,-0.2 0.33,-0.02 0.59,0.04 0.78,0.16z"/>
 </g>
</svg>
