<svg
      xmlns="http://www.w3.org/2000/svg"
      class="w-full absolute"
      xml:space="preserve"
      version="1.0"
      style="shape-rendering:geometricPrecision; text-rendering:geometricPrecision; image-rendering:optimizeQuality; fill-rule:evenodd; clip-rule:evenodd; "
      viewBox="0 0 148.67 172.16"
      xmlns:xlink="http://www.w3.org/1999/xlink"
      xmlns:xodm="http://www.corel.com/coreldraw/odm/2003"
    >
      <defs>
        <style type="text/css">
          .str0 {
            stroke: #016189;
            stroke-width: 0.81;
            stroke-miterlimit: 2.61313;
          }
          .fil1 {
            fill: none;
          }
          .fil2 {
            fill: #fefefe;
          }
          .fil0 {
            fill: #016189;
          }
        </style>
      </defs>
      <g id="Layer_x0020_1">
        <metadata id="CorelCorpID_0Corel-Layer" />
        <path
          class="fil1 str0 path0"
          d="M71.44 0.4l61.81 0c8.25,0 15.01,5.56 15.01,12.35l0 146.65c0,6.79 -6.75,12.37 -15.01,12.35l-130.72 -0.29m69.72 -1.4l-69.94 0 0 -167.72 69.25 0m0 0l60.25 0c4.21,0 8.92,1.39 11.62,3.83 2.38,2.15 3.01,5.14 3.01,8.25l0 143.55c0,3.4 -1,6.98 -3.75,9.18 -2.64,2.11 -6.95,2.91 -10.88,2.91l-59.56 0m-71.86 -0.12l0 -169.54 71.04 0"
        />
      </g>
    </svg>