<?xml version="1.0" encoding="UTF-8"?>
<!DOCTYPE svg PUBLIC "-//W3C//DTD SVG 1.0//EN" "http://www.w3.org/TR/2001/REC-SVG-20010904/DTD/svg10.dtd">
<!-- Creator: CorelDRAW 2021 (64-Bit) -->
<svg xmlns="http://www.w3.org/2000/svg" xml:space="preserve" width="0.106244in" height="0.0805472in" version="1.0" style="shape-rendering:geometricPrecision; text-rendering:geometricPrecision; image-rendering:optimizeQuality; fill-rule:evenodd; clip-rule:evenodd"
viewBox="0 0 1.65 1.25"
 xmlns:xlink="http://www.w3.org/1999/xlink"
 xmlns:xodm="http://www.corel.com/coreldraw/odm/2003">
 <defs>
  <style type="text/css">
   <![CDATA[
    .fil0 {fill:#0E75BA}
   ]]>
  </style>
 </defs>
 <g id="Layer_x0020_1">
  <metadata id="CorelCorpID_0Corel-Layer"/>
  <path class="fil0" d="M0.19 0.65c0.17,-0 0.32,0.01 0.42,-0.16 0.01,-0.02 0.03,-0.05 0.03,-0.08 0.01,-0.06 0.01,-0.16 0.01,-0.22 0.04,-0.01 0.39,-0 0.47,-0 0.07,0 0.15,-0.01 0.22,0.02 0.03,0.01 0.06,0.03 0.07,0.05 0.02,0.02 0.03,0.04 0.04,0.07 0.03,0.07 0.01,0.36 0.01,0.45 0,0.15 -0,0.31 0,0.46l0.19 0c0.01,-0.17 0,-0.35 0,-0.52 0,-0.15 0.02,-0.36 -0.03,-0.48 -0.05,-0.11 -0.15,-0.21 -0.29,-0.23 -0.08,-0.02 -0.4,-0.01 -0.51,-0.01 -0.28,0 -0.24,-0.01 -0.39,0.13l-0.26 0.26c-0.04,0.05 -0.09,0.08 -0.13,0.13 -0.05,0.06 -0.04,0.13 -0.04,0.21 0,0.17 -0.01,0.35 0,0.52l0.19 -0 0 -0.6z"/>
  <path class="fil0" d="M0.37 0.87l0.91 0 0 -0.08 -0.91 0 0 0.08z"/>
  <path class="fil0" d="M0.83 1.14l0.45 -0 0 -0.08 -0.45 0 0 0.08z"/>
  <path class="fil0" d="M0.37 1.14l0.36 0 0 -0.08 -0.36 0 0 0.08z"/>
 </g>
</svg>
