<?xml version="1.0" encoding="UTF-8"?>
<!DOCTYPE svg PUBLIC "-//W3C//DTD SVG 1.0//EN" "http://www.w3.org/TR/2001/REC-SVG-20010904/DTD/svg10.dtd">
<!-- Creator: CorelDRAW 2021 (64-Bit) -->
<svg xmlns="http://www.w3.org/2000/svg" xml:space="preserve" width="0.129898in" height="0.0807992in" version="1.0" style="shape-rendering:geometricPrecision; text-rendering:geometricPrecision; image-rendering:optimizeQuality; fill-rule:evenodd; clip-rule:evenodd"
viewBox="0 0 2.26 1.4"
 xmlns:xlink="http://www.w3.org/1999/xlink"
 xmlns:xodm="http://www.corel.com/coreldraw/odm/2003">
 <defs>
  <style type="text/css">
   <![CDATA[
    .fil0 {fill:#0E75BA}
   ]]>
  </style>
 </defs>
 <g id="Layer_x0020_1">
  <metadata id="CorelCorpID_0Corel-Layer"/>
  <path class="fil0" d="M0.85 0.83c-0.06,0.01 -0.04,0.06 -0.05,0.11 -0,0.06 -0.07,0.07 -0.09,0.03 -0.02,-0.03 -0.01,-0.11 0,-0.14 0.02,-0.04 0.04,-0.06 0.08,-0.08 0.05,-0.03 0.36,-0.02 0.46,-0.02 0.09,0 0.2,-0.02 0.25,0.06 0.03,0.04 0.03,0.07 0.03,0.13 0,0.03 0.01,0.04 -0.01,0.06 -0.01,0.01 -0.04,0.02 -0.06,0.01 -0.04,-0.03 -0,-0.09 -0.03,-0.13 -0.02,-0.04 -0.07,-0.03 -0.12,-0.03 -0.08,0 -0.44,-0.01 -0.47,0zm-0.06 -0.58c-0.11,-0.03 -0.19,-0.05 -0.31,0 -0.14,0.06 -0.22,0.18 -0.25,0.32 -0,0.03 -0.01,0.02 -0.05,0.05 -0.19,0.14 -0.24,0.4 -0.11,0.59 0.05,0.07 0.11,0.13 0.21,0.16 0.1,0.03 0.24,0.02 0.36,0.02 0.13,0 0.25,-0 0.38,0l0.02 -0.19c-0.05,-0 -0.11,0.01 -0.12,-0.03 -0,-0.02 0.01,-0.04 0.02,-0.05l0.1 -0.13c0.1,-0.12 0.12,-0.05 0.18,0 0.02,0.01 0.02,0.02 0.04,0.04 0.02,0.03 0.09,0.11 0.09,0.14 -0.01,0.05 -0.07,0.03 -0.12,0.03l0.02 0.2c0.18,0 0.37,0 0.55,0 0.09,0 0.16,0 0.24,-0.03 0.07,-0.03 0.12,-0.07 0.15,-0.13 0.03,-0.05 0.05,-0.16 0.06,-0.22 0,-0.09 -0.02,-0.16 -0.06,-0.22 -0.04,-0.06 -0.08,-0.1 -0.14,-0.14 -0.08,-0.05 -0.13,-0.04 -0.23,-0.05 -0,-0.27 -0.11,-0.49 -0.37,-0.58 -0.13,-0.05 -0.27,-0.04 -0.4,0.01 -0.06,0.02 -0.11,0.05 -0.15,0.09 -0.09,0.07 -0.09,0.1 -0.12,0.12z"/>
 </g>
</svg>
