<?xml version="1.0" encoding="UTF-8"?>
<!DOCTYPE svg PUBLIC "-//W3C//DTD SVG 1.0//EN" "http://www.w3.org/TR/2001/REC-SVG-20010904/DTD/svg10.dtd">
<!-- Creator: CorelDRAW X7 -->
<svg xmlns="http://www.w3.org/2000/svg" xml:space="preserve" width="1.40212in" height="0.343984in" version="1.0" style="shape-rendering:geometricPrecision; text-rendering:geometricPrecision; image-rendering:optimizeQuality; fill-rule:evenodd; clip-rule:evenodd"
viewBox="0 0 381 94"
 xmlns:xlink="http://www.w3.org/1999/xlink">
 <defs>
  <style type="text/css">
   <![CDATA[
    .str0 {stroke:#FEFEFE;stroke-width:0.815447}
    .fil3 {fill:none}
    .fil1 {fill:#872F30}
    .fil0 {fill:#662B2B}
    .fil2 {fill:#24394B}
   ]]>
  </style>
   <mask id="id0">
  <linearGradient id="id1" gradientUnits="userSpaceOnUse" x1="75.9458" y1="17.4379" x2="154.473" y2="72.8819">
   <stop offset="0" style="stop-opacity:1; stop-color:white"/>
   <stop offset="1" style="stop-opacity:0; stop-color:white"/>
  </linearGradient>
    <rect style="fill:url(#id1)" x="-1" y="-1" width="232.305" height="92.2033"/>
   </mask>
   <mask id="id2">
  <linearGradient id="id3" gradientUnits="userSpaceOnUse" x1="254.378" y1="45.1599" x2="123.827" y2="45.1599">
   <stop offset="0" style="stop-opacity:1; stop-color:white"/>
   <stop offset="1" style="stop-opacity:0; stop-color:white"/>
  </linearGradient>
    <rect style="fill:url(#id3)" x="7" y="7" width="363.455" height="76.2368"/>
   </mask>
 </defs>
 <g id="Layer_x0020_1">
  <metadata id="CorelCorpID_0Corel-Layer"/>
  <path class="fil0" d="M93 3l288 0 0 0c0,50 -41,91 -90,91l-288 0 0 0c0,-50 41,-91 90,-91z"/>
  <path class="fil1" d="M90 0l288 0 0 0c0,50 -40,90 -90,90l-288 0 0 0c0,-49 41,-90 90,-90z"/>
  <path class="fil2" style="mask:url(#id0)" d="M90 0l140 0c0,50 -40,90 -90,90l-140 0c0,-49 41,-90 90,-90zm-90 90l0 0z"/>
  <path class="fil3 str0" style="mask:url(#id2)" d="M8 83l280 0c43,0 79,-33 82,-76l-280 0c-43,0 -78,34 -82,76z"/>
 </g>
</svg>
