<?xml version="1.0" encoding="UTF-8"?>
<!DOCTYPE svg PUBLIC "-//W3C//DTD SVG 1.0//EN" "http://www.w3.org/TR/2001/REC-SVG-20010904/DTD/svg10.dtd">
<!-- Creator: CorelDRAW X7 -->
<svg xmlns="http://www.w3.org/2000/svg" xml:space="preserve" width="1.39966in" height="0.343984in" version="1.0" style="shape-rendering:geometricPrecision; text-rendering:geometricPrecision; image-rendering:optimizeQuality; fill-rule:evenodd; clip-rule:evenodd"
viewBox="0 0 1147 282"
 xmlns:xlink="http://www.w3.org/1999/xlink">
 <defs>
  <style type="text/css">
   <![CDATA[
    .str0 {stroke:#FEFEFE;stroke-width:2.45831}
    .fil2 {fill:none}
    .fil3 {fill:#872F30}
    .fil1 {fill:#1B638B}
    .fil0 {fill:#24394B}
   ]]>
  </style>
   <mask id="id0">
  <linearGradient id="id1" gradientUnits="userSpaceOnUse" x1="766.87" y1="136.143" x2="373.302" y2="136.143">
   <stop offset="0" style="stop-opacity:1; stop-color:white"/>
   <stop offset="1" style="stop-opacity:0; stop-color:white"/>
  </linearGradient>
    <rect style="fill:url(#id1)" x="22" y="21" width="1096" height="230"/>
   </mask>
   <mask id="id2">
  <linearGradient id="id3" gradientUnits="userSpaceOnUse" x1="228.952" y1="52.5697" x2="465.685" y2="219.715">
   <stop offset="0" style="stop-opacity:1; stop-color:white"/>
   <stop offset="1" style="stop-opacity:0; stop-color:white"/>
  </linearGradient>
    <rect style="fill:url(#id3)" x="-3" y="-3" width="700" height="278"/>
   </mask>
 </defs>
 <g id="Layer_x0020_1">
  <metadata id="CorelCorpID_0Corel-Layer"/>
  <path class="fil0" d="M279 10l868 0 0 0c0,149 -123,272 -272,272l-868 0 0 0c0,-150 122,-272 272,-272z"/>
  <path class="fil1" d="M272 0l868 0 0 0c0,150 -122,272 -272,272l-868 0 0 0c0,-149 123,-272 272,-272z"/>
  <path class="fil2 str0" style="mask:url(#id0)" d="M23 250l845 0c130,0 237,-101 249,-228l-845 0c-130,0 -237,101 -249,228z"/>
  <path class="fil3" style="mask:url(#id2)" d="M272 0l423 0c0,150 -123,272 -273,272l-422 0c0,-149 123,-272 272,-272zm-272 272l0 0z"/>
 </g>
</svg>
