<?xml version="1.0" encoding="UTF-8"?>
<!DOCTYPE svg PUBLIC "-//W3C//DTD SVG 1.0//EN" "http://www.w3.org/TR/2001/REC-SVG-20010904/DTD/svg10.dtd">
<!-- Creator: CorelDRAW 2021 (64-Bit) -->
<svg xmlns="http://www.w3.org/2000/svg" xml:space="preserve" width="0.626819in" height="0.59463in" version="1.0" style="shape-rendering:geometricPrecision; text-rendering:geometricPrecision; image-rendering:optimizeQuality; fill-rule:evenodd; clip-rule:evenodd"
viewBox="0 0 9.31 8.84"
 xmlns:xlink="http://www.w3.org/1999/xlink"
 xmlns:xodm="http://www.corel.com/coreldraw/odm/2003">
 <defs>
  <style type="text/css">
   <![CDATA[
    .str0 {stroke:snow;stroke-width:0.21;stroke-miterlimit:2.61313}
    .fil0 {fill:#FEFEFE}
   ]]>
  </style>
 </defs>
 <g id="Layer_x0020_1">
  <metadata id="CorelCorpID_0Corel-Layer"/>
  <path class="fil0" d="M0.97 2c0.15,-0.08 0.71,-0.04 0.94,-0.04l5.93 0c0.2,0 0.63,-0.07 0.72,0.26 0.04,0.02 0.02,-0.02 0.05,0.06l0.01 5.22c0,0.08 0.01,0.14 0,0.18 -0,0.08 -0.09,0.25 -0.15,0.3 -0.02,0.01 -0.03,0.02 -0.05,0.04 -0.05,0.04 -0.1,0.06 -0.19,0.06l-7.21 -0.01c-0.04,-0.01 -0.02,-0 -0.04,-0.02 -0.21,-0.06 -0.26,-0.3 -0.26,-0.53l0 -4.82c0,-0.1 -0.01,-0.32 0.01,-0.41 0.02,-0.12 0.14,-0.29 0.26,-0.3zm-0.97 -1.46l-0 5.38c0,0.6 0.03,1.27 -0,1.86 -0,0.02 -0,0.04 0,0.06 0.04,0.46 0.52,0.94 0.91,0.97 0.46,0.04 3.4,0.01 3.73,0.01 0.37,0 3.58,0.03 3.78,-0.01 0.56,-0.11 0.87,-0.58 0.88,-1.19l-0 -2.64c0,-0.36 0.02,-2.35 -0,-2.65 -0.01,-0.11 -0.06,-0.22 -0.04,-0.33 -0.03,-0.02 -0.01,0.04 -0.05,-0.06 -0.01,-0.03 -0.01,-0.06 -0.01,-0.09 -0.04,0.02 -0.03,0.02 -0.01,-0.03 -0.06,-0.06 -0.1,-0.17 -0.16,-0.24 -0.04,-0.04 -0.06,-0.07 -0.09,-0.11 -0.04,-0.05 -0.05,-0.04 -0.1,-0.08l-0.24 -0.14c-0.39,-0.17 -1.29,-0.08 -1.74,-0.08l-2.18 0c-0.09,0 -0.64,0.03 -0.71,-0.03 -0.04,-0.08 -0.01,-0.29 -0.01,-0.4 0,-0.07 0,-0.16 -0.01,-0.23 -0.04,-0.28 -0.24,-0.5 -0.54,-0.54l-2.66 -0c-0.39,-0 -0.7,0.07 -0.76,0.54z"/>
  <path class="fil0 str0" d="M2.12 7.49c0.39,-0.01 1.28,-0.58 1.68,-0.85 0.86,-0.58 0.95,-1.35 1.46,-1.16 0.31,0.12 0.49,0.31 0.77,0.56 0.45,0.42 1.05,0.16 1.8,0.67 0.13,0.09 0.69,0.52 0.79,0.49 -0.61,-0.42 -0.99,-0.81 -1.66,-0.92 -0.35,-0.06 -0.59,-0.02 -0.91,-0.31 -0.28,-0.26 -0.45,-0.46 -0.78,-0.57 -0.4,-0.14 -0.47,0.17 -0.79,0.52 -0.62,0.69 -0.83,0.72 -1.52,1.16 -0.07,0.05 -0.84,0.4 -0.84,0.42l0 0z"/>
  <path class="fil0 str0" d="M0.7 7.65c0.19,0 0.97,-0.57 1.15,-0.74 0.36,-0.34 0.29,-0.6 0.51,-0.36 0.18,0.19 0.23,0.35 0.55,0.42 -0.07,-0.13 -0.21,-0.17 -0.3,-0.24 -0.12,-0.08 -0.15,-0.18 -0.24,-0.28 -0.21,-0.22 -0.19,0.05 -0.52,0.36 -0.19,0.18 -0.36,0.29 -0.56,0.43 -0.11,0.07 -0.52,0.28 -0.57,0.39z"/>
 </g>
</svg>
