<?xml version="1.0" encoding="UTF-8"?>
<!DOCTYPE svg PUBLIC "-//W3C//DTD SVG 1.0//EN" "http://www.w3.org/TR/2001/REC-SVG-20010904/DTD/svg10.dtd">
<!-- Creator: CorelDRAW 2021 (64-Bit) -->
<svg xmlns="http://www.w3.org/2000/svg" xml:space="preserve" width="0.347811in" height="0.369504in" version="1.0" style="shape-rendering:geometricPrecision; text-rendering:geometricPrecision; image-rendering:optimizeQuality; fill-rule:evenodd; clip-rule:evenodd"
viewBox="0 0 5.4 5.74"
 xmlns:xlink="http://www.w3.org/1999/xlink"
 xmlns:xodm="http://www.corel.com/coreldraw/odm/2003">
 <defs>
  <style type="text/css">
   <![CDATA[
    .fil0 {fill:#016189}
    .fil1 {fill:#2A76BF}
    .fil3 {fill:#82868C}
    .fil2 {fill:#841F3B}
    .fil5 {fill:#89ADD2}
    .fil4 {fill:#A5A9AF}
    .fil6 {fill:#C5DBF0}
   ]]>
  </style>
 </defs>
 <g id="Layer_x0020_1">
  <metadata id="CorelCorpID_0Corel-Layer"/>
  <g id="_2418379268576">
   <path class="fil0" d="M0.83 0.72l-0.02 0.01 -0.01 0.02c0,0.02 0.01,0.01 -0.01,0.01 0,0.02 0.01,0.01 -0.02,0.01 -0.03,0.01 -0.03,0.01 -0.07,0.01 -0.01,-0 -0.03,-0 -0.03,-0 -0.05,-0.01 -0,0 -0.02,-0.01 -0,-0 -0,-0.01 -0,-0.01l-0.01 -0.15c-0,-0.03 -0.01,-0.12 0.01,-0.14l0.01 -0.04 0.01 -0.03c-0.01,-0.03 -0.02,-0.02 0.01,-0.02 0.01,-0.01 0.06,-0.07 0.08,-0.08 0,-0.03 -0.01,-0.02 0.02,-0.01l0.02 -0.01 0.04 -0.01 0.02 -0.01 0.02 -0 0.03 -0.01 0.45 0c0.03,0.04 0.01,0.59 0.01,0.64 -0,0.22 -0,0.44 0,0.66 0,0.44 -0,0.88 -0,1.31 0,0.44 -0,0.87 -0,1.31 0,0.22 0,0.44 0,0.66l-0 0.61c-0.01,0.05 -0,0.02 -0.01,0.03l-0.44 0c-0.05,0 -0.02,0 -0.03,-0.01l-0.01 -0 -0.02 -0.01 -0.03 -0.01c-0.02,-0 -0.02,0.01 -0.02,-0.01 -0.05,-0.03 -0.09,-0.07 -0.1,-0.12 -0.02,-0.01 -0.01,0.02 -0.03,-0.03l-0 -0.04c-0.01,-0.02 -0,0.02 -0.01,-0.03 -0,-0.01 -0.01,-0.23 0.01,-0.25 0.02,-0.01 0.13,-0.01 0.13,-0.01l0.06 0.06 -0 0c0.07,0.02 0.1,0.02 0.18,-0.01l0 0c0,-0.02 -0,-0.01 0.02,-0.01 0.03,-0.02 0.06,-0.04 0.07,-0.09 -0,-0.03 -0.01,-0.02 0.01,-0.02l0 -0.01 -0 -0.1 0 -0.01c-0.02,0 -0.01,0 -0.01,-0.02l0 -0c-0.02,0 -0.01,0 -0.01,-0.02 -0.02,-0.03 -0.02,-0.04 -0.06,-0.05 -0.03,0 -0.02,0.01 -0.02,-0.02l-0 0c-0.03,0 -0.02,0.01 -0.02,-0.01l0 0 -0.03 -0.01 -0.06 -0c-0.01,0.02 0.02,0.01 -0.03,0.01l-0.01 -0c-0,0 -0,0 -0.01,0.01 -0,0 -0.01,0.01 -0.01,0.01 -0.02,0.01 -0,0 -0.03,0.01l0.01 0 -0.04 0.05c-0.02,0 -0.1,0.01 -0.11,0 -0.04,-0.01 -0.03,-0.01 -0.03,-0.08l0 -0.64c0.01,-0.02 0,-0.01 0.01,-0.02l0.12 0c0.02,0.01 0.02,0 0.03,0.02 0.03,0.02 0.01,0.01 0.03,0.03l-0 0c0.02,-0 0.02,-0.01 0.02,0.01 0.05,0.01 0.08,0.02 0.13,0.01 0.01,-0.02 -0.02,-0.01 0.03,-0.02l-0 0c0,-0 0.01,-0.01 0.01,-0.01l0.07 -0.06c0,-0 0,-0 0.01,-0.01l0.01 -0.03c-0,-0.03 -0.01,-0.02 0.01,-0.02l-0.01 -0.01 0 -0.08 -0 -0.03 -0.01 -0.02 0 -0.01c-0.02,0 -0.01,0 -0.01,-0.02 -0.02,-0.03 -0.02,-0.03 -0.05,-0.06l-0.02 -0.01 -0 0 -0.02 -0.01 -0.01 0 -0.03 -0.01 -0.06 -0 -0.03 0.01 -0 -0c0,0.02 0,0.01 -0.02,0.01 -0.11,0.04 -0,0.06 -0.2,0.06l-0 -0.75c0.13,-0 0.1,-0.02 0.18,0.04l0.01 0.01 0.01 0 0.02 0.01 0.01 -0 0.02 0.01 0.07 0 0.03 -0.01 0.01 -0c0,-0.02 -0,-0.01 0.02,-0.01l0 0c0,-0 0.01,-0 0.01,-0.01l0.09 -0.1 -0.01 -0.01 0 -0.09 -0 -0.02 -0.01 -0.02c-0.02,-0.05 -0.03,-0.06 -0.06,-0.08l-0.02 -0.01 -0.01 0c-0.02,0 -0.02,0.01 -0.02,-0.01l-0.01 -0 -0.03 -0.01 -0.06 0 -0.02 0.01 -0.02 -0 -0.02 0.01 -0.01 -0c0,0.02 0,0.01 -0.02,0.01 -0.07,0.06 -0.04,0.05 -0.17,0.04 -0.01,-0.02 -0.01,0.01 -0.02,-0.04l0 -0.71c0.13,-0.06 0.18,0.03 0.21,0.05l-0 0 0.02 0.01 0.03 0 0.09 -0 0.02 0 0.02 -0.01c0.04,-0.02 0.05,-0.03 0.07,-0.07 0,-0.02 -0.01,-0.02 0.01,-0.02l-0 -0.01 0.02 -0.02 -0 -0.02 -0 -0.08 0 -0.01c-0.02,0 -0.01,0 -0.01,-0.02l0 -0.01c-0.02,0 -0.01,0 -0.01,-0.02l-0.06 -0.06c-0.03,-0.01 -0.01,-0 -0.03,-0.01 -0,-0 -0.01,-0 -0.01,-0.01 -0,-0 -0,-0 -0.01,-0.01l-0.01 0.01 -0.11 -0.01 -0.02 0c0,0.02 0,0.01 -0.02,0.01l0 0c-0.02,0.02 0,0.01 -0.03,0.03 -0.02,0.01 -0.02,0.01 -0.03,0.02l-0.12 0c-0.03,-0.05 -0.01,-0.71 -0.01,-0.73 0.04,-0.02 0.09,-0.01 0.14,-0.01 0,0 0,0 0,0 0.03,0.03 0.02,0.05 0.03,0.03 0,-0 0,0.01 0.01,0.01l-0.01 0c0.04,0.01 0.02,0 0.05,0.02l0.02 -0 0.1 -0 0.02 0c0,-0.02 -0,-0.01 0.02,-0.01l0 0c0,-0.02 -0,-0.01 0.02,-0.01 0.03,-0.02 0.03,-0.02 0.05,-0.06 0,-0.02 -0.01,-0.02 0.01,-0.02l-0 -0.01 0.02 -0.02 0 -0.02 -0 -0.08 -0 -0.01c-0.02,0 -0.01,0 -0.01,-0.02l-0.01 -0.03c-0.02,0 -0.02,0.01 -0.01,-0.02l-0.01 -0.02c-0.02,0 -0.02,0.01 -0.01,-0.01 -0.02,0 -0.02,0.01 -0.01,-0.01l-0.02 -0.01 -0.02 -0.01 -0.03 -0.01 -0.14 0.01zm-0.02 -0.7l-0.01 -0c0,0.02 0,0.01 -0.02,0.01l-0.02 -0 -0.02 0.02 -0.01 -0.01 -0.02 0.02 -0 -0c0,0.02 0,0.01 -0.02,0.01l-0 -0c0,0.02 0,0.01 -0.02,0.01l-0.02 0.02 -0.02 0.02 -0.02 0.01 -0.02 0.01c0,0.02 0.01,0.01 -0.02,0.02 -0.01,0.02 -0.05,0.06 -0.07,0.08l-0.01 0.02c0,0.02 0.01,0.02 -0.01,0.02l-0 -0 -0.01 0.02c0,0.02 0.01,0.02 -0.01,0.02l-0 0c0,0.02 0.01,0.02 -0.01,0.02l0 0c0,0.02 0.01,0.02 -0.01,0.02l-0.01 0.04 -0.01 0.02 0 0.02c-0,0.01 -0,0.01 -0.01,0.03 -0.01,0.02 -0.01,0.02 -0.02,0.03l0.01 0.01 -0 0.28c-0.02,0.09 -0.24,-0.03 -0.34,0.08l-0.02 0.02c-0,-0 -0,0.01 -0.01,0.01l-0 0.01c-0,0.05 -0,0.08 0.03,0.11 0.01,0.01 0,0 0.02,0.02 0,0 0,0 0.01,0.01 0.07,0.06 0.27,-0.01 0.31,0.03 0.01,0.01 0.02,0.69 -0,0.73l-0.26 -0 -0.03 0.02 -0.01 -0 -0.03 0.02c-0.04,0.04 -0.05,0.11 -0.02,0.16 0.01,0.01 0.01,0.02 0.02,0.03 0,0 0,0.04 0.01,0.01 0,-0 0,0 0.01,0.01l-0 -0c0.1,0.03 0.23,-0 0.31,0.02l0 0.67c0,0.1 0,0.07 -0.02,0.08l-0.26 0c0,0.02 0,0.01 -0.02,0.01l-0 0 -0.02 0.01c-0,0 -0.01,0.01 -0.01,0.01l-0.02 0.02c-0,-0 -0.01,0.01 -0.01,0.01l0 0 -0 0.08 0.06 0.05 -0 0 0.02 0.02 0.27 -0c0.02,0.01 0.02,-0.01 0.02,0.08 -0,0.03 -0,0.06 -0,0.09 -0,0.17 0.01,0.42 -0,0.57 -0.19,0.05 -0.37,-0.08 -0.36,0.17l-0 0 0.07 0.07 0 -0 0.03 0.01 0.26 -0c0.03,0.05 0.01,0.71 0,0.73 -0.05,0.02 -0.17,0.01 -0.25,0.01 -0.03,0 -0.02,-0 -0.04,0.01 -0.06,0.04 -0.06,0.09 -0.06,0.15l-0 0 0.01 0.02c0.12,0.15 0.35,-0.05 0.35,0.13l-0 0.22c-0.01,0.07 0.02,0.11 0.03,0.17 0.02,0 0.01,-0 0.01,0.02l-0 0c0.02,0 0.01,-0 0.01,0.02l0.01 0.01c0,0 0.01,0 0.01,0.01 0.01,0.04 -0,-0.01 0.01,0.01 0.02,0.03 0.01,0.01 0.02,0.03 0.02,0.04 0.04,0.05 0.08,0.08 0.06,0.02 0.02,0 0.04,0.02l0.01 0.01 0.06 0.04 -0.01 -0c0.03,-0 0.02,-0.01 0.02,0.01l0.03 0.01 0.03 0.02 0.03 -0c0.03,-0 0.02,-0.01 0.02,0.01l0.03 -0c0.06,-0 0.02,-0 0.04,0.01l3.57 0 0.04 -0.01 0.03 -0 0.03 -0.01 0.04 -0.01c0,-0.02 -0,-0.01 0.02,-0.01l0.01 0.01c0.02,-0.02 -0,-0.01 0.03,-0.03 0.02,-0.01 0.03,-0.02 0.05,-0.03l0.01 -0.01 0.11 -0.11 0.01 -0.02c0,-0.02 -0,-0.02 0.01,-0.02l0 -0.01c-0,-0.02 -0.01,-0.02 0.01,-0.02l0.02 -0.05c-0,-0.02 -0.01,-0.02 0.01,-0.02l-0 -0.01 0.01 -0.02 0 -0.02 0.01 -0.02 -0 -0.03 0.01 -0.05 -0 -1.27c-0.02,0.01 0.01,-0 -0.02,0.02 -0,0 -0.03,0.01 -0.03,0.01l0.01 0c-0.02,0.02 0.02,0.01 -0.04,0.02l0.01 0 -0.06 0.05c-0.01,0.01 -0.02,0.01 -0.04,0.01l0 0c-0.02,0.02 0.02,0.01 -0.04,0.02 -0.05,0.03 -0.03,0.05 -0.03,0.12l-0 0.43c0,0.16 -0.02,0.42 0,0.57 0,0.06 0,0.02 -0.01,0.03l0 0.02c0,0.03 0.01,0.02 -0.01,0.02l0 0c0,0.03 0.01,0.02 -0.01,0.02l-0 0c-0,0.02 0.01,0.02 -0.01,0.02l-0 -0c-0.03,0.07 -0.03,0.06 -0.09,0.09l0.01 0c0,0.02 0.01,0.02 -0.02,0.01l-0.01 -0c0,0.02 0,0.01 -0.02,0.01l-0 0c0,0.02 0,0.01 -0.02,0.01l-0.02 -0 -0.03 0.02 -2.96 -0 0 -5.24 2.96 0 0.03 0.01 0.02 -0c0.02,-0 0.02,-0.01 0.02,0.01l0.01 -0 0.02 0.01 0 0c0.02,0 0.02,-0 0.02,0.01l0 0c0.05,0.02 0.06,0.02 0.08,0.07l0.02 0.04c0.02,0 0.01,-0 0.01,0.02l-0 0.01 0.02 0.02c0.03,0.4 -0.02,2.33 0.01,2.51 0.01,-0.01 0,-0.01 0.02,-0.02 0,-0 0.03,-0.01 0.03,-0.01l0.11 -0.08c0.01,-0.01 0,-0.01 0.02,-0.02l0.06 -0.04c0,-0 0.01,-0 0.01,-0.01l0 -2.3 -0.02 -0.05 0 -0.04 -0.01 -0.02 -0 -0.02 -0.01 -0.02 0 -0.01c-0.02,0 -0.01,0 -0.01,-0.02l-0 -0.01 -0.01 -0.02 0 -0.01c-0,-0 -0,-0.01 -0.01,-0.01l-0.01 -0.03 -0.01 -0.01c-0.02,0 -0.02,0 -0.01,-0.02l-0.02 -0.01c-0.02,0 -0.01,0.01 -0.01,-0.01 -0.02,0 -0.01,0.01 -0.01,-0.01 -0.02,0 -0.02,0.01 -0.01,-0.01 -0.02,0 -0.01,0.01 -0.01,-0.01 -0.02,0 -0.02,0.01 -0.01,-0.01 -0.02,0 -0.02,0.01 -0.01,-0.01 -0.02,0.01 -0.02,0.01 -0.02,-0.01 -0.02,0.01 -0.02,0.01 -0.02,-0.02 -0.02,-0.03 -0.02,-0.02 -0.05,-0.03l-0.02 -0.02 -0.03 -0.01c-0.03,0 -0.02,0.01 -0.02,-0.01l-0.01 0 -0.03 -0.02 -0.01 0.01c-0.05,0 -0.02,0 -0.03,-0.02l-0.02 0c-0.02,-0 -0.01,0 -0.03,-0.01 -0,-0 -0.01,-0 -0.01,-0.01 -0,-0 -0.01,-0 -0.01,-0.01l-3.57 -0c-0.02,0.01 0.01,-0 -0.02,0.01 -0.02,0.01 -0,0 -0.02,0z"/>
   <path class="fil1" d="M4.95 2.92c-0.01,0.03 -0,0.02 -0.03,0.03l-0.01 0.01c0,0.02 0,0.02 -0.02,0.01l-0.02 0.01 0 0c0,0.02 0,0.02 -0.02,0.01 0,0.02 0,0.01 -0.02,0.01l0 0c0,0.02 0.01,0.02 -0.02,0.01 0,0.02 0,0.01 -0.02,0.01l0 0c0,0.02 0.01,0.02 -0.02,0.01l-0.02 0.01 -0.01 -0c0,0.02 0,0.02 -0.02,0.01 0.01,0.02 0.01,0.01 -0.02,0.02 0,0.02 0,0.01 -0.01,0.01 0,0.03 0.01,0.02 -0.03,0.02l0.01 -0c0,0.02 0,0.02 -0.02,0.01 0.01,0.02 0.01,0.02 -0.02,0.01 0.01,0.02 0.01,0.02 -0.01,0.01 0.01,0.02 0.01,0.01 -0.02,0.02l0.01 0c0,0.03 0.01,0.02 -0.02,0.01 0,0.02 0.01,0.01 -0.02,0.01l-0.01 0.01c0,0.02 0.01,0.02 -0.02,0.02l-0.01 -0.01c0,0.03 0.01,0.02 -0.02,0.01 0.01,0.02 0.01,0.01 -0.02,0.02l-0.09 0.07c0,0.02 0.01,0.02 -0.02,0.01 0,0.02 0.01,0.01 -0.02,0.01l-0.02 0.01 0 0c0,0.02 0,0.02 -0.02,0.01 0,0.02 0,0.01 -0.02,0.01l0 0c0,0.02 0.01,0.02 -0.02,0.01l-0.02 0.01 0 0c0,0.02 0.01,0.02 -0.02,0.01l-0.02 0.01 -0.01 0.01c0,0.02 0.01,0.02 -0.02,0.01l-0.02 0.01 -0 -0.01c-0.02,0.02 0.02,0.02 -0.01,0.02l-0.02 0.01c0.01,0.02 0.01,0.02 -0.02,0.01 0.01,0.02 0.01,0.02 -0.02,0.02l-0.09 0.07 -0.07 0.05 0 0c-0.01,0.01 -0.01,0.01 -0.02,0.02 -0,0 -0.03,0.01 -0.03,0.01l0 0c-0.02,0.02 0.02,0.01 -0.04,0.02l0 0c-0.02,0.02 0,0.01 -0.02,0.02 -0,0 -0.02,0.01 -0.03,0.01l0 0c-0.02,0.02 0.02,0.01 -0.04,0.02l-0.03 0.02 -0.01 0.01c-0.05,0.05 0.05,-0.03 -0.01,0.01 -0.02,0.01 -0,0 -0.03,0.01l-0 -0.01c-0.02,0.02 -0,0.01 -0.03,0.03l-0.08 0.05c-0.01,0.02 -0.06,0.05 -0.09,0.07 -0.02,0.02 0.02,0.01 -0.03,0.02l0 0c-0.02,0.02 0.02,0.01 -0.04,0.02l-0.07 0.04c-0.05,0.06 -0.04,0.03 -0.14,0.11 -0.03,0.03 -0,0.01 -0.05,0.03l0 -0 -0.06 0.05c-0,0 -0.01,0 -0.01,0 -0.03,0.02 -0.01,0.01 -0.04,0.02 -0.02,0.01 -0.02,0.01 -0.04,0.02l-0.03 0.03c-0.01,0.02 -0,0.01 -0.02,0.02 -0.01,0 -0.02,0.01 -0.03,0.01 -0.03,0.03 -0.01,0.02 -0.04,0.02l-0.04 0.04c-0,0 -0.01,0.01 -0.01,0.01 -0,0 -0.01,0 -0.01,0l-0.02 0c0.06,0.05 0.07,0.01 0.12,0.07l0.02 0.06 0.03 0c0.02,0.01 0.01,0.01 0.03,0.01 0,0 0.01,0.01 0.01,0.01 0,-0 0.01,0 0.01,0.01 0.02,0.02 0.03,0.02 0.04,0.04 0.01,0.01 0.02,0.02 0.02,0.02 0.01,0.02 0,0.01 0,0.02 0.03,0.01 0.03,-0 0.02,0.03l0.01 0.01 0.03 0.05c0.04,0.15 0.03,0.04 0.05,0.13l-0 0.01c0.01,0.01 0.02,-0.03 0.02,0.04 0,0.05 -0.02,0.04 -0.02,0.04l0 0.02 0.01 0.02 0.09 -0.06c0.02,-0.02 -0.01,-0.01 0.04,-0.02l0.01 0 0.04 -0.03 0.15 -0.12 0.2 -0.14 0.01 -0.01c0.02,-0.02 -0.02,-0.01 0.04,-0.02l-0 -0c0.01,-0.01 0,-0.01 0.02,-0.02 0,-0 0.03,-0.01 0.03,-0.01l-0 -0c0.01,-0.02 -0.01,-0.01 0.04,-0.02l0.01 -0.01 0.01 -0.01c0,-0 0,-0 0.01,-0.01 0,-0 0.01,-0.01 0.01,-0.01l0.09 -0.06c0.07,-0.04 0.08,-0.07 0.15,-0.09 0.02,-0.02 0.01,-0 0.03,-0.03l0.07 -0.05 0.02 -0.01c0.02,-0.02 -0.02,-0.01 0.04,-0.02l0.03 -0.02c0,-0.02 -0.01,-0.02 0.02,-0.02l0.16 -0.12c0,-0.02 -0.01,-0.02 0.02,-0.02l0.02 -0.01c0.02,-0.02 -0.02,-0.01 0.04,-0.02l-0.01 -0c0.02,-0.02 -0.02,-0.01 0.04,-0.02l0.05 -0.03c0.02,-0.02 0,-0.01 0.02,-0.02 0.01,-0 0.02,-0.01 0.03,-0.01l-0 -0c0,-0 0.01,-0.01 0.01,-0.01l0.09 -0.06 0.17 -0.12c0.01,-0.01 0,-0.01 0.02,-0.02 0.01,-0.01 0.02,-0.01 0.03,-0.01l0.03 -0.03 0.05 -0.03 0.02 -0.01c0,-0.02 -0,-0.02 0.02,-0.01l0.02 -0.02c-0,-0.02 -0,-0.01 0.02,-0.01 -0,-0.02 -0.01,-0.01 0.02,-0.01 0,-0.02 -0.01,-0.01 0.02,-0.02 -0,-0.02 -0.01,-0.01 0.02,-0.01 -0,-0.02 -0.01,-0.01 0.01,-0.01 0,-0.03 -0.01,-0.01 0.02,-0.02l0.02 -0.02c0,-0.01 0.01,-0.02 0.01,-0.02l0 -0.05 0 -0.08c-0.05,-0.08 0.03,0.01 -0.08,-0.16 -0.02,0 -0.01,0.01 -0.01,-0.02l-0.01 -0.02 -0.02 -0.02c-0.02,0 -0.01,0.01 -0.01,-0.02l-0.01 -0.01c-0.02,0 -0.02,0 -0.01,-0.02 -0.02,0 -0.01,0 -0.01,-0.02l-0 0c-0.02,0 -0.02,0.01 -0.01,-0.02l-0.01 -0.02c-0.01,-0.01 -0.01,-0.02 -0.02,-0.03 -0.02,-0.02 -0.01,-0.01 -0.02,-0.02l-0.03 -0.01 -0.03 -0.01c-0.05,-0.01 -0.02,-0.01 -0.03,-0.02l-0.03 -0.01 -0.03 -0.01 -0.05 -0 -0.02 0.01z"/>
   <path class="fil0" d="M2.7 2.09l-0.01 -0c0,0.02 0,0.01 -0.02,0.01 -0.04,0.02 -0.01,-0 -0.03,0.03 0,0.03 0.01,0.02 -0.01,0.02l0 0c0,0.03 0.01,0.02 -0.01,0.02 0.01,0.18 0.12,0.15 0.29,0.15 0.19,-0 1.23,0.01 1.33,-0.01l0.02 -0.01c0.04,-0.02 0.05,-0.03 0.05,-0.07l0 -0.07 -0 -0.01c-0.03,0 -0.02,0.01 -0.01,-0.02l-0.01 -0.02c-0.02,0 -0.01,0 -0.01,-0.01l-0.01 -0.01c-0.02,0.01 -0.02,0.01 -0.02,-0.01l-0.01 0 -0.02 -0.02 -1.49 0 -0.03 0.01z"/>
   <path class="fil0" d="M2.7 1.15c-0.04,0.01 -0.04,0.01 -0.06,0.04 -0,0.02 0.01,0.02 -0.01,0.02l0 0c0,0.03 0.01,0.02 -0.01,0.02 0.01,0.19 0.14,0.15 0.33,0.15l0.95 -0c0.12,0 0.37,0.04 0.41,-0.06 -0,-0.03 -0.01,-0.02 0.01,-0.02l-0 -0.01 -0 -0.07 0 -0.01c-0.03,0 -0.02,0.01 -0.01,-0.02l-0 -0.02c-0.02,-0 -0.01,0 -0.01,-0.01l-0.02 -0.01c-0.03,0.01 -0.02,0.01 -0.02,-0.01l-0 0 -0.03 -0.02 -1.49 -0 -0.03 0.02z"/>
   <path class="fil0" d="M2.7 3l-0 -0c0,0.02 0,0.02 -0.02,0.01 -0.04,0.02 -0.01,-0 -0.03,0.03 0,0.03 0.01,0.02 -0.01,0.02 -0.02,0.04 -0.01,0.06 0,0.1l0.04 0.05c0,-0 0,0 0.01,0.01 0.11,0.03 0.59,0.01 0.74,0.01 0.13,-0 0.25,0 0.38,0 0.12,-0 0.26,0.03 0.31,-0.06l0.01 -0.02 0 -0.08c-0.01,-0.05 -0.03,-0.06 -0.07,-0.07l-0.03 -0.01 -1.29 0 -0.03 0.01z"/>
   <path class="fil2" d="M2.32 2.88c0,0.02 0.01,0.01 -0.01,0.01 0,0.02 0.01,0.02 -0.01,0.01 0,0.02 0.01,0.02 -0.01,0.01 0,0.02 0.01,0.02 -0.01,0.01 0,0.02 0.01,0.02 -0.01,0.01 0,0.02 0.01,0.02 -0.01,0.01 0,0.02 0.01,0.02 -0.01,0.01 0,0.02 0.01,0.02 -0.01,0.01 0,0.02 0.01,0.02 -0.01,0.01 0,0.02 0.01,0.01 -0.01,0.01 0,0.02 0.01,0.01 -0.01,0.01 0,0.02 0.01,0.01 -0.01,0.01 0,0.02 0.01,0.02 -0.01,0.01 0,0.02 0.01,0.01 -0.01,0.01 0,0.02 0.01,0.01 -0.01,0.01 0,0.02 0.01,0.01 -0.01,0.01 0,0.02 0.01,0.02 -0.01,0.01 0,0.02 0.01,0.01 -0.01,0.01 0,0.02 0.01,0.01 -0.01,0.01 -0.02,0.04 0.04,-0.01 -0.01,0.01 -0.02,0.01 -0.02,0.02 -0.01,-0.01 -0.02,0 -0.02,0.01 -0.01,-0.01 -0.02,0 -0.02,0.01 -0.01,-0.01 -0.02,0 -0.01,0.01 -0.01,-0.01 -0.02,0 -0.02,0.01 -0.01,-0.01 -0.02,0 -0.02,0.01 -0.01,-0.01 -0.02,0 -0.01,0.01 -0.01,-0.01 -0.02,0 -0.02,0.01 -0.01,-0.01 -0.02,0 -0.02,0.01 -0.01,-0.01 -0.02,0.01 -0.02,0.01 -0.01,-0.01 -0.02,0.01 -0.02,0.01 -0.01,-0.01 -0.02,0 -0.02,0.01 -0.01,-0.01 -0.02,0.01 -0.02,0.01 -0.02,-0.01l-0.02 -0.01 -0.06 -0 -0.02 0.01c0,0.02 0,0.01 -0.02,0.01 0,0.02 0.01,0.01 -0.01,0.01 0,0.02 0.01,0.02 -0.01,0.02 -0.01,0.05 0,0.01 -0.02,0.02l-0 0.05 0.01 0.02c0.05,0.06 0.2,0.24 0.28,0.26l0.06 0c0.07,-0.03 0.14,-0.11 0.19,-0.16 0.04,-0.04 0.15,-0.15 0.17,-0.18 0.02,-0.04 0.01,-0.03 0.01,-0.08l0 -0c-0.02,0 -0.02,0.01 -0.01,-0.02l-0.01 -0.02c-0.02,0 -0.01,0.01 -0.01,-0.01 -0.02,0 -0.02,0.01 -0.02,-0.01l-0.02 -0.01 -0.07 0 -0.02 0.01z"/>
   <path class="fil2" d="M2.32 1.96c0,0.02 0.01,0.01 -0.01,0.01 0,0.02 0.01,0.02 -0.01,0.01 0,0.02 0.01,0.02 -0.01,0.01 0,0.02 0.01,0.02 -0.01,0.01 0,0.02 0.01,0.02 -0.01,0.01 0,0.02 0.01,0.02 -0.01,0.01 0,0.02 0.01,0.01 -0.01,0.01 0,0.02 0.01,0.02 -0.01,0.01 0,0.02 0.01,0.01 -0.01,0.01 0,0.02 0.01,0.01 -0.01,0.01 0,0.02 0.01,0.01 -0.01,0.01 0,0.02 0.01,0.01 -0.01,0.01 0,0.02 0.01,0.01 -0.01,0.01 0,0.02 0.01,0.01 -0.01,0.01 0,0.02 0.01,0.01 -0.01,0.01 0,0.02 0.01,0.02 -0.01,0.01 0,0.02 0.01,0.02 -0.01,0.01 0,0.02 0.01,0.01 -0.01,0.01 0,0.02 0.01,0.01 -0.01,0.01 0,0.02 0,0.01 -0.01,0.01 -0,-0 -0.01,-0 -0.01,-0 -0,-0 -0,-0 -0.01,-0 -0.02,0 -0.02,0.01 -0.01,-0.01 -0.02,0 -0.02,0.01 -0.01,-0.01 -0.02,0 -0.02,0.01 -0.01,-0.01 -0.02,0 -0.02,0.01 -0.01,-0.01 -0.02,0 -0.01,0.01 -0.01,-0.01 -0.02,0 -0.01,0.01 -0.01,-0.01 -0.02,0 -0.02,0.01 -0.01,-0.01 -0.02,0 -0.02,0.01 -0.01,-0.01 -0.02,0 -0.02,0.01 -0.01,-0.01 -0.02,0 -0.02,0.01 -0.01,-0.01 -0.02,0 -0.02,0.01 -0.01,-0.01 -0.04,-0.02 0.02,0.02 -0.02,-0.01 -0.01,-0.01 -0.01,-0.01 -0.02,-0.02l-0.01 0.01 -0.05 0 -0.01 -0c0,0.02 0.01,0.02 -0.02,0.01l-0.02 0.01c0,0.02 0.01,0.01 -0.01,0.01 0.01,0.02 0.01,0.02 -0.01,0.02l0 0c0,0.02 0.01,0.02 -0.01,0.02l-0 0.05c0.02,0 0.01,-0 0.01,0.02 0.04,0.05 0.22,0.24 0.28,0.27l0.05 -0 0.01 0c0,-0.02 -0,-0.01 0.02,-0.01l0 0c0,-0.02 -0.01,-0.02 0.02,-0.01 0,-0.02 -0,-0.01 0.02,-0.01 -0,-0.02 -0,-0.01 0.01,-0.01 -0,-0.02 -0.01,-0.01 0.01,-0.01 -0,-0.02 -0.01,-0.02 0.01,-0.01 -0,-0.02 -0.01,-0.02 0.01,-0.01 -0,-0.02 -0.01,-0.02 0.01,-0.01 -0.01,-0.02 -0.01,-0.02 0.01,-0.01 -0.01,-0.02 -0.01,-0.02 0.01,-0.01 -0,-0.02 -0.01,-0.02 0.01,-0.01 -0.01,-0.02 -0.01,-0.02 0.01,-0.01 -0,-0.02 -0.01,-0.02 0.01,-0.01 -0,-0.02 -0.01,-0.02 0.01,-0.01 -0,-0.02 -0.01,-0.02 0.01,-0.01 -0,-0.02 -0.01,-0.02 0.01,-0.01 -0,-0.02 -0.01,-0.02 0.01,-0.01 -0,-0.02 -0.01,-0.02 0.01,-0.01 -0,-0.02 -0.01,-0.02 0.01,-0.01 -0,-0.02 -0.01,-0.01 0.01,-0.01 -0,-0.02 -0.01,-0.02 0.01,-0.01 -0,-0.02 -0.01,-0.01 0.01,-0.01 -0,-0.02 -0.01,-0.02 0.01,-0.01 -0,-0.02 -0.01,-0.01 0.01,-0.01 -0,-0.02 -0.01,-0.02 0.01,-0.01 -0,-0.02 -0.01,-0.01 0.01,-0.01 -0,-0.02 -0.01,-0.01 0.01,-0.01 -0,-0.02 -0.01,-0.01 0.01,-0.01l0.01 -0.02 0.01 -0.02 0 -0.06 -0.01 -0.02 -0.01 -0.02c-0.02,0 -0.01,0.01 -0.01,-0.01l-0.02 -0.01 -0.02 -0.01 -0.08 0 -0.02 0.02z"/>
   <path class="fil2" d="M2.31 1.03c0,0.02 0.01,0.01 -0.01,0.01 0,0.02 0.01,0.02 -0.01,0.01 0,0.02 0.01,0.02 -0.01,0.01 0,0.02 0.01,0.02 -0.01,0.01 0.01,0.02 0.01,0.02 -0.01,0.01 0,0.02 0.01,0.02 -0.01,0.01 0,0.02 0.01,0.02 -0.01,0.01 0,0.02 0.01,0.02 -0.01,0.01 0,0.02 0.01,0.02 -0.01,0.01 0,0.02 0.01,0.02 -0.01,0.01 0,0.02 0.01,0.01 -0.01,0.01 0,0.02 0.01,0.01 -0.01,0.01 0,0.02 0.01,0.01 -0.01,0.01 0,0.02 0.01,0.01 -0.01,0.01 0,0.02 0.01,0.01 -0.01,0.01 0,0.02 0.01,0.02 -0.01,0.01 0,0.02 0.01,0.02 -0.01,0.01 0,0.02 0.01,0.01 -0.01,0.01 0,0.02 0.01,0.02 -0.01,0.01 0,0.02 0.01,0.01 -0.01,0.01 -0.05,-0.01 0.01,0.03 -0.01,-0.01 -0.02,0 -0.02,0.01 -0.01,-0.01 -0.02,0 -0.01,0.01 -0.01,-0.01 -0.02,0 -0.02,0.01 -0.01,-0.01 -0.02,0 -0.02,0.01 -0.01,-0.01 -0.02,0 -0.02,0.01 -0.01,-0.01 -0.02,0 -0.01,0.01 -0.01,-0.01 -0.02,0 -0.01,0.01 -0.01,-0.01 -0.02,0 -0.02,0.01 -0.01,-0.01 -0.02,0 -0.02,0.01 -0.01,-0.01 -0.02,0 -0.02,0.01 -0.01,-0.01 -0.02,0 -0.02,0.01 -0.01,-0.01 -0.02,0 -0.02,0.01 -0.01,-0.01 -0.03,0.01 -0.02,0.01 -0.02,-0.01l-0.01 -0 -0.06 0 -0 -0c0,0.02 0.01,0.02 -0.02,0.01l-0.02 0.01c0,0.02 0.01,0.02 -0.01,0.01 0,0.02 0.01,0.02 -0.01,0.02l0 0c0,0.02 0.01,0.02 -0.01,0.02l0 0.05c0.02,0 0.01,-0 0.01,0.02 0.04,0.06 0.2,0.22 0.26,0.26 0.02,-0 0.02,-0.01 0.02,0.01l0.01 -0 0.04 -0 0.01 0c0,-0.02 -0,-0.02 0.02,-0.01l0.02 -0.02c-0,-0.02 -0,-0.01 0.02,-0.01 -0,-0.02 -0.01,-0.01 0.01,-0.01 -0,-0.02 -0.01,-0.01 0.01,-0.01 -0,-0.02 -0.01,-0.02 0.01,-0.01 -0,-0.02 -0.01,-0.02 0.01,-0.01 -0,-0.02 -0.01,-0.02 0.01,-0.01 -0.01,-0.02 -0.01,-0.02 0.01,-0.01 -0,-0.02 -0.01,-0.02 0.01,-0.01 -0,-0.02 -0.01,-0.02 0.01,-0.01 -0,-0.02 -0.01,-0.02 0.01,-0.01 -0,-0.02 -0.01,-0.02 0.01,-0.01 -0,-0.02 -0.01,-0.02 0.01,-0.01 -0,-0.02 -0.01,-0.02 0.01,-0.01 -0,-0.02 -0.01,-0.02 0.01,-0.01 -0,-0.02 -0.01,-0.02 0.01,-0.01 -0,-0.02 -0.01,-0.02 0.01,-0.01 -0,-0.02 -0.01,-0.02 0.01,-0.01 -0,-0.02 -0.01,-0.02 0.01,-0.01 -0,-0.02 -0.01,-0.01 0.01,-0.01 -0,-0.02 -0.01,-0.01 0.01,-0.01 -0,-0.02 -0.01,-0.02 0.01,-0.01 -0,-0.02 -0.01,-0.01 0.01,-0.01 -0,-0.02 -0.01,-0.01 0.01,-0.01 -0,-0.02 -0.01,-0.01 0.01,-0.01 -0,-0.02 -0.01,-0.01 0.01,-0.01 -0,-0.02 -0.01,-0.02 0.01,-0.01 -0,-0.02 -0.01,-0.02 0.01,-0.01l0.01 -0.02 -0 -0.06c-0.02,-0.04 -0.03,-0.05 -0.06,-0.07l-0.08 -0.01 -0.02 0.02z"/>
   <path class="fil1" d="M2.67 4.69l-0.02 0.04 -0.01 0.02 -0.02 0.02c-0.01,0.02 0,0 -0.01,0.03 -0,0 -0.01,0.01 -0.01,0.01 -0,-0 -0,0 -0.01,0.01l-0 -0 -0.01 0.02 -0 0.02 -0.01 0.02 -0.02 0.02c0.01,0.03 0.01,0.02 -0.01,0.02l-0.01 0.02c0,0.03 0.01,0.02 -0.02,0.02l-0.01 0.03c-0.01,0.05 -0,0.02 -0.02,0.03l0.01 0.01c0,0.03 0.01,0.02 -0.01,0.02l0 0 -0 0.06 0.01 0.02 0.02 0.01 0.06 -0 0.11 -0.01c0.02,-0.02 -0.03,-0 0.04,-0.02 0.02,-0.01 0.03,-0 0.05,-0.01l0.01 0c0,-0 0.01,-0.01 0.01,-0.01 0,0 0.01,-0 0.01,-0.01 0.02,-0.01 0.01,-0 0.03,-0.01l0.03 0.01c0.03,-0.02 -0.03,-0 0.04,-0.02 0.03,-0.01 0.02,-0 0.05,-0l0.02 -0.07 0 -0.02c-0.02,-0.01 -0.01,0.02 -0.02,-0.03l0 -0.01c-0.02,0 -0.01,0 -0.01,-0.02l0 -0c-0.02,0 -0.01,0 -0.01,-0.02l0 -0c-0.02,0 -0.01,0 -0.01,-0.02l0 0c-0.02,0 -0.02,0 -0.01,-0.02l-0.02 -0.02c-0.02,0 -0.01,0 -0.01,-0.02 -0.02,-0.01 -0.02,-0 -0.03,-0.03 -0.02,0 -0.01,0.01 -0.01,-0.01 -0.02,0 -0.02,0.01 -0.01,-0.01 -0.02,0 -0.02,0.01 -0.01,-0.01 -0.02,0.01 -0.02,0.01 -0.01,-0.01 -0.02,0 -0.02,0.01 -0.01,-0.01 -0.02,0.01 -0.02,0.01 -0.01,-0.01 -0.02,0.01 -0.02,0.01 -0.02,-0.01l0 0c-0.03,0 -0.02,0.01 -0.02,-0.01 -0.03,0.01 -0.02,0.02 -0.02,-0.01l-0.04 -0.01c-0.02,0.04 -0.01,0.01 -0.02,0.02z"/>
   <path class="fil3" d="M1.33 5.49c0.01,-0.02 0.01,0.01 0.01,-0.03l0 -0.61c-0,-0.22 -0,-0.44 -0,-0.66 -0,-0.44 0,-0.87 0,-1.31 -0,-0.44 0,-0.87 0,-1.31 -0,-0.22 -0,-0.44 -0,-0.66 0,-0.05 0.02,-0.6 -0.01,-0.64l-0 5.24z"/>
   <path class="fil4" d="M0.02 3.9c-0.01,-0.25 0.17,-0.13 0.36,-0.17 0.01,-0.15 0,-0.4 0,-0.57 0,-0.03 0,-0.06 0,-0.09 0,-0.09 0,-0.07 -0.02,-0.08l0 0.74c-0.04,-0 -0.24,0 -0.26,0.01 -0.01,0 -0.04,0.01 -0.05,0.02 -0.02,0.01 -0.02,0.02 -0.04,0.04 -0.03,0.04 -0.02,0.06 -0.02,0.09l0.01 0.02z"/>
   <path class="fil3" d="M0.38 1.76c0.03,-0.04 0.01,-0.72 0,-0.73 -0.04,-0.04 -0.24,0.02 -0.31,-0.03 -0,-0 -0,-0 -0.01,-0.01 -0.02,-0.01 -0.01,-0 -0.02,-0.02 -0.03,-0.03 -0.03,-0.06 -0.03,-0.11 -0.02,0.02 -0.02,0.03 -0.01,0.06 0,0.02 0.02,0.04 0.02,0.05 0.01,0.02 0.01,0.02 0.04,0.04 0.05,0.03 0.26,0.02 0.31,0.02l0 0.73z"/>
   <path class="fil5" d="M2.32 1.96c-0.02,-0.01 -0.02,-0.01 -0.01,0.01 -0.02,-0.01 -0.02,-0.01 -0.01,0.01 -0.02,-0 -0.02,-0.01 -0.01,0.01 -0.02,-0 -0.02,-0.01 -0.01,0.01 -0.02,-0 -0.02,-0.01 -0.01,0.01 -0.02,-0 -0.01,-0.01 -0.01,0.01 -0.02,-0 -0.02,-0.01 -0.01,0.01 -0.02,-0 -0.01,-0.01 -0.01,0.01 -0.02,-0 -0.02,-0.01 -0.01,0.01 -0.02,-0 -0.01,-0.01 -0.01,0.01 -0.02,-0 -0.01,-0.01 -0.01,0.01 -0.02,-0 -0.01,-0.01 -0.01,0.01 -0.02,-0 -0.01,-0.01 -0.01,0.01 -0.02,-0 -0.01,-0.01 -0.01,0.01 -0.02,-0 -0.02,-0.01 -0.01,0.01 -0.02,-0 -0.02,-0.01 -0.01,0.01 -0.02,-0 -0.01,-0.01 -0.01,0.01 -0.02,-0 -0.02,-0.01 -0.01,0.01 -0.02,-0 -0.01,-0.01 -0.01,0.01l-0.02 0c0,-0.02 0.01,-0.02 -0.01,-0.01 0,-0.02 0.01,-0.01 -0.01,-0.01 0,-0.02 0.01,-0.02 -0.01,-0.01 0,-0.02 0.01,-0.02 -0.01,-0.01 0,-0.02 0.01,-0.02 -0.01,-0.01 0,-0.02 0.01,-0.02 -0.01,-0.01 0,-0.02 0.01,-0.02 -0.01,-0.01 0,-0.02 0.01,-0.02 -0.01,-0.01 0,-0.02 0.01,-0.02 -0.01,-0.01 0.01,-0.02 0.01,-0.02 -0.01,-0.01 0,-0.02 0.01,-0.02 -0.01,-0.01 -0.01,-0.01 -0,-0.01 -0.02,-0.02 -0.02,-0.02 0.03,0.01 -0.02,-0.01 0.01,0.01 0.01,0.01 0.02,0.02 0.03,0.02 -0.02,-0.01 0.02,0.01 -0,0.02 -0.01,0.02 0.01,0.01 -0,0.02 -0.01,0.02 0.01,0.01 -0.01,0.02 -0.01,0.02 0.01,0.01 -0,0.02 -0.01,0.02 0.01,0.01 -0,0.02 -0.01,0.01 0.01,0.01 -0,0.02 -0.01,0.02 0.01,0.01 -0,0.02 -0.01,0.02 0.01,0.01 -0,0.02 -0.01,0.02 0.01,0.01 -0,0.02 -0.01,0.01 0.01,0.01 -0,0.02 -0.01,0.02 0.01,0.01 -0,0.02 -0.01,0.02 0.01,0.01 0,0 0.01,0 0.01,0 0,0 0.01,0 0.01,0 0.02,0 0.01,0.01 0.01,-0.01 0.02,0 0.01,0.01 0.01,-0.01 0.02,0 0.02,0.01 0.01,-0.01 0.02,0 0.01,0.01 0.01,-0.01 0.02,0 0.02,0.01 0.01,-0.01 0.02,0 0.01,0.01 0.01,-0.01 0.02,0 0.01,0.01 0.01,-0.01 0.02,0 0.01,0.01 0.01,-0.01 0.02,0 0.01,0.01 0.01,-0.01 0.02,0 0.01,0.01 0.01,-0.01 0.02,0 0.01,0.01 0.01,-0.01 0.02,0 0.02,0.01 0.01,-0.01 0.02,0 0.01,0.01 0.01,-0.01 0.02,0 0.01,0.01 0.01,-0.01 0.02,0 0.02,0.01 0.01,-0.01 0.02,0 0.02,0.01 0.01,-0.01 0.02,0 0.02,0.01 0.01,-0.01 0.02,0 0.02,0.01 0.01,-0.01 0.02,0 0.02,0.01 0.01,-0.01 0.02,0.01 0.02,0.01 0.01,-0.01l0.02 -0.02 0.08 -0 0.02 0.01 0.02 0.01c-0,0.02 -0.01,0.02 0.01,0.01l0.01 0.02 0.01 0.02 -0 0.06 -0.01 0.02 -0.01 0.02c-0.02,-0 -0.01,-0 -0.01,0.01 -0.02,-0 -0.02,-0.01 -0.01,0.01 -0.02,-0 -0.01,-0.01 -0.01,0.01 -0.02,-0 -0.02,-0.01 -0.01,0.01 -0.02,-0 -0.02,-0.01 -0.01,0.01 -0.02,-0 -0.01,-0.01 -0.01,0.01 -0.02,-0 -0.01,-0.01 -0.01,0.01 -0.02,-0 -0.01,-0.01 -0.01,0.01 -0.02,-0 -0.02,-0.01 -0.01,0.01 -0.02,-0 -0.02,-0.01 -0.01,0.01 -0.02,-0 -0.01,-0.01 -0.01,0.01 -0.02,-0 -0.02,-0.01 -0.01,0.01 -0.02,-0 -0.02,-0.01 -0.01,0.01 -0.02,-0 -0.02,-0.01 -0.01,0.01 -0.02,-0 -0.02,-0.01 -0.01,0.01 -0.02,-0 -0.02,-0.01 -0.01,0.01 -0.02,-0 -0.02,-0.01 -0.01,0.01 -0.02,-0 -0.02,-0.01 -0.01,0.01 -0.02,-0 -0.02,-0.01 -0.01,0.01 -0.02,-0.01 -0.02,-0.01 -0.01,0.01 -0.02,-0 -0.01,-0.01 -0.01,0.01 -0.02,-0 -0.02,-0.01 -0.01,0.01 -0.02,-0 -0.02,-0.01 -0.01,0.01 -0.02,-0 -0.02,-0.01 -0.01,0.01 -0.02,-0 -0.02,-0.01 -0.01,0.01 -0.02,-0 -0.02,-0.01 -0.02,0.01 -0.02,-0.01 -0.02,-0.01 -0.02,0.01l0.02 -0.01c0.02,0.01 0.02,0.01 0.02,-0.01 0.02,0 0.02,0.01 0.01,-0.01 0.02,0 0.02,0.01 0.01,-0.01 0.02,0 0.02,0.01 0.01,-0.01 0.02,0 0.02,0.01 0.01,-0.01 0.02,0 0.02,0.01 0.01,-0.01 0.02,0 0.02,0.01 0.01,-0.01 0.02,0.01 0.02,0.01 0.01,-0.01 0.02,0 0.02,0.01 0.01,-0.01 0.02,0 0.02,0.01 0.01,-0.01 0.02,0 0.02,0.01 0.01,-0.01 0.02,0 0.02,0.01 0.01,-0.01 0.02,0 0.02,0.01 0.01,-0.01 0.02,0 0.02,0.01 0.01,-0.01 0.02,0 0.02,0.01 0.01,-0.01 0.02,0 0.01,0.01 0.01,-0.01 0.02,0 0.01,0.01 0.01,-0.01 0.02,0 0.02,0.01 0.01,-0.01 0.02,0 0.01,0.01 0.01,-0.01 0.02,0 0.01,0.01 0.01,-0.01 0.02,0 0.02,0.01 0.01,-0.01 0.02,0 0.01,0.01 0.01,-0.01 0.02,0 0.01,0.01 0.01,-0.01 0.02,0 0.02,0.01 0.01,-0.01 0.02,0 0.02,0.01 0.01,-0.01 0.02,0 0.01,0.01 0.01,-0.01 0.02,0 0.01,0 0.01,-0.02 0.02,-0.01 0.02,0.01 0.01,-0.02 0.02,-0.02 0.03,-0.04 0,-0.06l-0.01 -0.02c0.01,-0.02 0.01,-0.02 -0.01,-0.02 0.01,-0.02 0.01,-0.02 -0.01,-0.01 0.01,-0.02 0.01,-0.01 -0.02,-0.01l-0.02 -0.01c-0.03,-0.02 -0.05,-0.02 -0.08,0 -0.04,0 -0.01,-0 -0.02,0.02z"/>
   <path class="fil4" d="M0.37 2.76c0.02,-0.01 0.02,0.02 0.02,-0.08l-0 -0.67c-0.08,-0.02 -0.21,0.01 -0.31,-0.02 0.02,0.02 -0.03,0 0.03,0.02 0.04,0.01 0.22,-0 0.27,-0l-0.01 0.75z"/>
   <path class="fil3" d="M0.03 4.88c-0.01,-0.06 -0.01,-0.11 0.06,-0.15 0.03,-0.02 0.01,-0.01 0.04,-0.01 0.08,-0.01 0.2,0.01 0.25,-0.01 0.01,-0.02 0.02,-0.68 -0,-0.73l0 0.73c-0.05,-0.01 -0.24,-0.01 -0.28,0l-0.04 0.02c-0.03,0.03 -0.08,0.12 -0.03,0.14z"/>
   <path class="fil3" d="M0.81 4.67l-0.18 0.04 0 -0.73c-0.01,0.01 -0.01,0 -0.01,0.02l-0 0.64c-0,0.06 -0.01,0.07 0.03,0.08 0.02,0 0.09,-0 0.11,-0l0.04 -0.05z"/>
   <path class="fil3" d="M0.64 2.76l-0 -0.75c0.18,-0 0.12,-0.01 0.16,0.02 0.03,0.02 0.02,0.01 0.04,0.03 -0.03,-0.02 -0.07,-0.11 -0.21,-0.05l-0 0.71c0,0.06 0,0.03 0.02,0.04z"/>
   <path class="fil3" d="M0.64 1.75l-0 -0.72c0.03,-0 0.07,-0 0.09,-0 0.05,0 0.04,0.02 0.08,0.04 -0,-0 -0.01,-0.01 -0.01,-0.01 -0.01,0.02 0,-0 -0.03,-0.03 -0,-0 -0,-0 -0,-0 -0.05,-0 -0.1,-0.01 -0.14,0.01 -0,0.02 -0.02,0.68 0.01,0.73z"/>
   <path class="fil5" d="M2.32 2.88c-0.02,-0.01 -0.02,-0.01 -0.01,0.01 -0.02,-0.01 -0.02,-0.01 -0.01,0.01 -0.02,-0 -0.02,-0.01 -0.01,0.01 -0.02,-0 -0.02,-0.01 -0.01,0.01 -0.02,-0 -0.02,-0.01 -0.01,0.01 -0.02,-0 -0.02,-0.01 -0.01,0.01 -0.02,-0 -0.01,-0.01 -0.01,0.01 -0.02,-0 -0.02,-0.01 -0.01,0.01 -0.02,-0 -0.02,-0.01 -0.01,0.01 -0.02,-0 -0.02,-0.01 -0.01,0.01 -0.02,-0 -0.02,-0.01 -0.01,0.01 -0.02,-0 -0.01,-0.01 -0.01,0.01 -0.02,-0 -0.01,-0.01 -0.01,0.01 -0.02,-0 -0.02,-0.01 -0.01,0.01 -0.02,-0 -0.02,-0.01 -0.01,0.01 -0.02,-0 -0.02,-0.01 -0.01,0.01 -0.02,-0 -0.01,-0.01 -0.01,0.01 -0.02,-0 -0.02,-0.01 -0.01,0.01 -0.02,-0 -0.02,-0.01 -0.01,0.01l-0.03 0c0,-0.02 0.01,-0.02 -0.01,-0.01 0,-0.02 0.01,-0.02 -0.01,-0.01 0.01,-0.02 0.01,-0.02 -0.01,-0.01 0,-0.02 0.01,-0.01 -0.01,-0.01 0,-0.02 0.01,-0.02 -0.01,-0.01 0,-0.02 0.01,-0.02 -0.01,-0.01 0,-0.02 0.01,-0.02 -0.01,-0.01 0.01,-0.02 0.01,-0.02 -0.01,-0.01 0.01,-0.02 0.01,-0.02 -0.01,-0.01 0.01,-0.02 0.01,-0.02 -0.01,-0.01 0.01,-0.02 0.01,-0.02 -0.01,-0.01 0,-0.02 0.01,-0.01 -0.02,-0.01 -0,-0.02 0.01,-0.01 -0.02,-0.01 -0.02,-0.01 -0.05,-0.03 -0.06,-0 -0.04,-0 -0.02,-0.01 -0.02,0.01 -0.02,-0.01 -0.02,-0.01 -0.02,0.01 -0.02,-0 -0.02,-0.01 -0.01,0.01 -0.02,-0 -0.01,-0 -0.01,0.02 -0.02,0 -0.01,-0.01 -0.02,0.02 0.02,-0.01 0.01,0.02 0.02,-0.02 0.02,0 0.01,0 0.01,-0.02 0.02,0 0.01,0.01 0.01,-0.01 0.02,0 0.02,0.01 0.02,-0.01l0.02 -0.01 0.06 0 0.02 0.01c-0,0.02 -0.01,0.01 0.02,0.01 -0,0.02 -0.01,0.02 0.01,0.01 -0.01,0.02 -0.01,0.02 0.01,0.01 -0.01,0.02 -0.01,0.02 0.01,0.01 -0.01,0.02 -0.01,0.02 0.01,0.01 -0.01,0.02 -0.01,0.02 0.01,0.01 -0,0.02 -0.01,0.02 0.01,0.01 -0,0.02 -0.01,0.02 0.01,0.01 -0,0.02 -0.01,0.01 0.01,0.01 -0,0.02 -0.01,0.02 0.01,0.01 -0.01,0.02 -0.01,0.02 0.01,0.01 -0,0.02 -0.01,0.02 0.01,0.01 -0,0.02 -0,0.01 0.01,0.01 0.05,-0.02 -0.01,0.03 0.01,-0.01 0.02,0 0.02,0.01 0.01,-0.01 0.02,0 0.02,0.01 0.01,-0.01 0.02,0.01 0.02,0.01 0.01,-0.01 0.02,0 0.01,0.01 0.01,-0.01 0.02,0 0.02,0.01 0.01,-0.01 0.02,0 0.01,0.01 0.01,-0.01 0.02,0 0.01,0.01 0.01,-0.01 0.02,0 0.01,0.01 0.01,-0.01 0.02,0 0.01,0.01 0.01,-0.01 0.02,0 0.02,0.01 0.01,-0.01 0.02,0 0.02,0.01 0.01,-0.01 0.02,0 0.01,0.01 0.01,-0.01 0.02,0 0.02,0.01 0.01,-0.01 0.02,0 0.02,0.01 0.01,-0.01 0.02,0 0.02,0.01 0.01,-0.01 0.02,0 0.02,0.01 0.01,-0.01 0.02,0 0.02,0.01 0.01,-0.01 0.02,0 0.02,0.01 0.01,-0.01 0.02,0 0.02,0.01 0.01,-0.01l0.02 -0.01 0.07 -0 0.02 0.01c-0,0.02 -0,0.01 0.02,0.01 -0,0.02 -0.01,0.02 0.01,0.01l0.01 0.02c-0.01,0.03 -0.01,0.02 0.01,0.02 -0,-0.02 0.01,-0.02 -0.01,-0.02 0.01,-0.02 0.01,-0.02 -0.01,-0.02 0.01,-0.02 0.01,-0.02 -0.01,-0.01 0,-0.02 0.01,-0.01 -0.02,-0.01l-0.02 -0.01c-0.03,-0.02 -0.05,-0.03 -0.07,0 -0.03,-0 -0.02,-0.01 -0.02,0.01z"/>
   <path class="fil3" d="M0.39 5.24l0 -0.22c-0,-0.17 -0.23,0.02 -0.35,-0.13l-0.01 -0.02c0.01,0.03 0.01,0.03 0.02,0.05 0.05,0.05 0.28,0.04 0.33,0.03 -0,0.08 -0.02,0.21 0.01,0.28z"/>
   <path class="fil3" d="M0.65 0.44l-0.01 0.04c-0.02,0.02 -0.01,0.1 -0.01,0.14l0.01 0.15c0,0 0,0 0,0.01 0.02,0.01 -0.02,0 0.02,0.01 0.01,0 0.03,0 0.03,0 0.04,0 0.05,0 0.07,-0.01 0.02,0 0.02,0.01 0.02,-0.01 0.02,0 0.02,0.01 0.01,-0.01l0.01 -0.02 0.02 -0.01 0.14 -0.01 0.03 0.01 0.02 0.01 0.02 0.01c-0,0.02 -0.01,0.01 0.01,0.01 -0,0.02 -0.01,0.01 0.01,0.01l0.01 0.02c-0.01,0.02 -0.01,0.02 0.01,0.02l-0.01 -0.02c0.01,-0.02 0.01,-0.02 -0.01,-0.02 0,-0.02 0.01,-0.02 -0.01,-0.01 0,-0.02 0.01,-0.02 -0.01,-0.01 0,-0.02 0,-0.01 -0.02,-0.01 -0.01,-0.02 0.01,-0.02 -0.02,-0.01 -0.02,-0.02 -0,-0.01 -0.03,-0.01 -0.05,-0.03 -0.1,-0.01 -0.14,0.01l-0.02 0.01 -0.01 0.02c-0.02,-0.01 -0.02,-0.01 -0.01,0.01 -0.02,-0 -0.02,-0.01 -0.02,0.01l-0.13 -0c0.01,-0.09 0.01,-0.21 0,-0.29l0.01 -0.04 0.01 -0.03c0.02,0 0.01,0 0.01,-0.02 -0.03,0 -0.02,-0.01 -0.01,0.02l-0.01 0.03z"/>
   <path class="fil3" d="M0.02 0.85c0,-0 0.01,-0.01 0.01,-0.01l0.02 -0.02c0.1,-0.1 0.32,0.02 0.34,-0.08l0 -0.28c-0.01,0.02 -0.01,0.02 -0.02,0.06l0 0.24c-0.13,-0.02 -0.25,-0.01 -0.35,0.04 -0.01,0.05 0.01,-0.02 -0.01,0.04z"/>
   <path class="fil3" d="M0.64 5.24l-0 -0.28 0.13 -0c0.02,0.03 0.02,0.03 0.06,0.05l-0.06 -0.06c-0,0 -0.12,-0.01 -0.13,0.01 -0.02,0.02 -0.01,0.24 -0.01,0.25 0.01,0.05 -0,0.01 0.01,0.03z"/>
   <path class="fil6" d="M2.88 4.37c-0.02,-0.01 -0.02,-0.01 -0.02,0.01 -0.02,0.02 -0.01,-0.04 -0.02,0.04l0.13 0 0.02 0 0.01 0.01c0,0.02 0,0.02 0.01,0.04 0.02,0.03 0.01,0.01 0.03,0.02l-0.02 -0.06 -0.02 -0c0,-0.02 0.01,-0.01 -0.01,-0.01l-0.02 -0c-0.04,-0.05 -0.1,0.03 -0.1,-0.04 0.02,0.01 0.02,0.01 0.02,-0.01 0,-0 0.02,-0.01 0.02,-0.01 0.03,-0.01 -0,-0 0.03,-0.01l0.04 -0.04 -0.08 0.04c-0.02,0.02 -0.01,0 -0.02,0.02z"/>
   <path class="fil4" d="M0.07 1.99c-0,-0 -0.01,-0.01 -0.01,-0.01 -0.01,0.02 -0.01,-0.01 -0.01,-0.01 -0.01,-0.01 -0.01,-0.01 -0.02,-0.03 -0.03,-0.04 -0.02,-0.12 0.02,-0.16l0.03 -0.02c-0.15,0.05 -0.05,0.19 -0.05,0.22 0.05,0.02 -0.02,-0.02 0.04,0.01z"/>
   <path class="fil5" d="M2.88 4.37c0,0.02 0.01,0.01 -0.02,0.01 0,0.07 0.07,-0.02 0.1,0.04l0.02 0c0.02,-0 0.01,-0.01 0.01,0.01l0.02 0c-0.04,-0.06 -0.06,-0.02 -0.12,-0.07l0.02 -0c0,-0 0.01,-0 0.01,-0 0,-0 0,-0 0.01,-0.01 -0.03,0.01 -0,-0 -0.03,0.01 -0,0 -0.02,0.01 -0.02,0.01z"/>
   <path class="fil5" d="M5.28 3.12l0.02 0.02 0.01 0.02c-0.01,0.02 -0.01,0.02 0.01,0.02 0.1,0.16 0.03,0.08 0.08,0.16 -0,-0.06 0.01,-0.06 -0.02,-0.1 -0.01,-0.01 -0.01,-0.02 -0.03,-0.03 -0.02,-0.02 -0.01,-0.01 -0.03,-0.02 0.01,-0.02 0.01,-0.02 -0.01,-0.02l-0.01 -0.02 -0.02 -0.02c0.01,-0.02 0.01,-0.02 -0.01,-0.02 -0,0.02 -0.01,0.02 0.01,0.02z"/>
   <path class="fil5" d="M3.97 4.48l0.27 -0.19c-0.07,0.02 -0.08,0.05 -0.15,0.09l-0.09 0.06c-0,0 -0.01,0.01 -0.01,0.01 -0,0 -0,0 -0.01,0.01l-0.01 0.01z"/>
   <path class="fil5" d="M5.37 3.49l-0.02 0.02c-0.03,0 -0.02,-0.01 -0.02,0.02 -0.02,-0 -0.02,-0.01 -0.01,0.01 -0.02,-0.01 -0.02,-0.01 -0.02,0.01 -0.03,0 -0.02,-0.01 -0.02,0.02 -0.02,-0.01 -0.02,-0.01 -0.02,0.01 -0.02,-0.01 -0.02,-0.01 -0.02,0.01l-0.02 0.02c-0.02,-0.01 -0.02,-0.01 -0.02,0.01l0.02 -0.01c0.03,-0.01 0.01,0 0.02,-0.02 0.02,0.01 0.02,0.01 0.02,-0.01 0.02,0.01 0.02,0.01 0.02,-0.01 0.04,-0.01 0.01,0 0.02,-0.02 0.02,0.01 0.02,0.01 0.02,-0.01 0.02,0.01 0.02,0.01 0.01,-0.01l0.02 -0.02 0.02 -0.02c0.02,-0 0.01,0.01 0.03,-0.01 0,-0.02 0,-0.01 -0,-0.04 -0.01,-0.04 -0.01,-0.02 -0.01,-0.03l-0 0.05c-0.01,0 -0.01,0.01 -0.01,0.02z"/>
   <path class="fil5" d="M3.29 4.83c-0.02,-0.09 -0.01,0.03 -0.05,-0.13l-0.03 -0.05c0.01,0.02 0.01,0.09 0.02,0.12l0.05 0.06z"/>
   <path class="fil5" d="M2.79 4.71c-0,0.02 -0.01,0.02 0.01,0.01 -0,0.02 -0.01,0.02 0.01,0.01 -0,0.02 -0.01,0.02 0.01,0.01 -0,0.02 -0.01,0.02 0.01,0.01 -0.01,0.02 -0.01,0.02 0.01,0.01 -0.01,0.02 -0.01,0.02 0.01,0.01 0.01,0.02 0.01,0.02 0.03,0.03 -0.01,0.02 -0.01,0.02 0.01,0.02l0.02 0.02c-0.01,0.03 -0.01,0.02 0.01,0.02l-0.01 -0.02 -0.02 -0.02c0.01,-0.02 0.01,-0.02 -0.01,-0.02 -0.02,-0.03 -0.02,-0.02 -0.03,-0.03 0,-0.02 0.01,-0.02 -0.01,-0.01 0.01,-0.02 0.01,-0.02 -0.01,-0.01 0.01,-0.02 0.01,-0.02 -0.01,-0.01 0,-0.02 0.01,-0.02 -0.01,-0.01 0,-0.02 0.01,-0.02 -0.01,-0.01 0,-0.02 0.01,-0.02 -0.01,-0.01 0,-0.02 0.01,-0.01 -0.02,-0.01 0,0.02 -0.01,0.02 0.02,0.01z"/>
   <path class="fil4" d="M1 5.01c-0.08,0.03 -0.11,0.02 -0.18,0.01l0.02 0.01c0.05,0.03 0.12,0.02 0.16,-0.02z"/>
   <path class="fil5" d="M3.23 4.14c0.05,-0.02 0.02,0 0.05,-0.03 0.1,-0.08 0.09,-0.05 0.14,-0.11l-0.1 0.06c-0.02,0.01 -0.03,0.02 -0.05,0.03 -0.04,0.03 -0.02,0.05 -0.04,0.03 -0,-0 -0,0 -0.01,0.01z"/>
   <path class="fil4" d="M4.69 5.63c0.07,-0.03 0.08,-0.04 0.11,-0.11l-0.11 0.11z"/>
   <path class="fil3" d="M4.71 0.13c-0,0.02 -0.01,0.01 0.02,0.01 -0,0.02 -0.01,0.01 0.01,0.01 -0,0.02 -0.01,0.01 0.01,0.01 -0,0.02 -0.01,0.02 0.01,0.01 -0,0.02 -0.01,0.01 0.01,0.01 -0,0.02 -0.01,0.02 0.01,0.01 -0.01,0.02 -0.01,0.02 0.01,0.01l0.02 0.01c-0,0.02 -0.01,0.02 0.01,0.02l-0.01 -0.02 -0.02 -0.01c0.01,-0.02 0.01,-0.02 -0.01,-0.01 0.01,-0.02 0.01,-0.02 -0.01,-0.01 0,-0.02 0.01,-0.01 -0.01,-0.01 0,-0.02 0.01,-0.02 -0.01,-0.01 0,-0.02 0.01,-0.01 -0.01,-0.01 0,-0.02 0.01,-0.01 -0.01,-0.01 0,-0.02 0.01,-0.02 -0.02,-0.01 0,-0.02 0.01,-0.01 -0.02,-0.02 0,0.03 -0.01,0.02 0.02,0.02z"/>
   <path class="fil6" d="M3.64 3.85l0.08 -0.05c0.02,-0.02 0.01,-0.01 0.03,-0.03 -0.04,0.01 -0.06,0.02 -0.09,0.05 -0.02,0.02 0,-0 -0.02,0.03z"/>
   <path class="fil4" d="M1.02 3.04c0.04,-0.01 0.04,-0.01 0.06,-0.04 0,-0 0.02,-0.02 0.02,-0.03 0.01,-0.01 0.01,-0.02 0.01,-0.04l-0.09 0.1c-0,0 -0.01,0 -0.01,0.01z"/>
   <path class="fil3" d="M0.08 2.97l-0.06 -0.05 0 -0.08c-0.01,0.01 -0.02,0 -0.02,0.05 -0,0.05 0.04,0.08 0.07,0.09z"/>
   <path class="fil5" d="M3.61 4.73c0.05,-0.02 0.07,-0.03 0.11,-0.07 0.02,-0.01 0.01,-0.01 0.03,-0.02l0.06 -0.05c0,-0 0,-0 0.01,-0.01l-0.2 0.14z"/>
   <path class="fil5" d="M3.09 4.23c0.02,-0.01 0.02,-0.01 0.04,-0.02 0.02,-0.01 0.01,-0 0.04,-0.02 0,-0 0.01,-0 0.01,-0l0.06 -0.05c-0.03,0.01 -0.01,0 -0.05,0.02l-0.09 0.06c-0,-0 -0.01,0 -0.01,0.01z"/>
   <path class="fil4" d="M4.52 5.44c0.06,-0.03 0.06,-0.02 0.09,-0.09l-0.09 0.09z"/>
   <path class="fil4" d="M1.11 4.88c0.01,-0.02 0,0.02 0.02,-0.03 0,-0.01 0,-0.01 0,-0.02 -0,-0.04 -0.01,-0.03 -0.02,-0.05l0 0.1z"/>
   <path class="fil3" d="M0.97 1.7c-0.01,-0.02 -0.01,-0.02 -0.04,-0.02 -0.01,-0 -0.03,-0 -0.04,0 -0.03,0.01 -0.02,0.01 -0.03,0.01l0.11 0.01z"/>
   <path class="fil5" d="M2.48 5.1c-0.01,0.02 -0.01,0.02 0.01,0.02 -0,0.02 -0.01,0.01 0.02,0.01 0.01,0.01 -0.02,0.01 0.03,0.01 0.06,0 0.01,0 0.03,-0.01l-0.06 0 -0.02 -0.01 -0.01 -0.02 0 -0.06c-0.01,0.01 -0.01,0.01 -0.01,0.03 -0,0.04 0.01,0.02 0.01,0.03z"/>
   <path class="fil3" d="M4.12 3.15l-0.01 0.02c0.02,0 0.02,0 0.01,-0.02 0.01,-0.01 0.02,0.01 0.02,-0.04 -0,-0.04 -0.01,-0.04 -0.02,-0.04l-0 0.08z"/>
   <path class="fil5" d="M2.94 5.06l0.04 -0.02c-0,-0.04 0.01,-0.02 -0.02,-0.05l-0.02 0.07z"/>
   <path class="fil5" d="M3.28 4.91c0,-0 0.02,0.01 0.02,-0.04 -0,-0.07 -0.01,-0.03 -0.02,-0.04l-0 0.08z"/>
   <path class="fil6" d="M4.66 3.12c-0.02,-0.01 -0.02,-0.01 -0.01,0.01 -0.02,-0.01 -0.02,-0.01 -0.02,0.02 0.02,-0 0.02,0 0.02,-0.02 0.02,0.01 0.02,0.01 0.01,-0.01 0.03,0.01 0.02,0.02 0.02,-0.01 0.02,0.01 0.02,0.02 0.02,-0.01 -0.03,-0 -0.03,-0.01 -0.02,0.01 -0.03,-0.01 -0.03,-0.02 -0.02,0.01z"/>
   <path class="fil6" d="M2.67 5.11c0.02,0 0.01,0.01 0.05,-0 0.04,-0.01 0.02,-0 0.04,-0.02 -0.03,0 -0.03,0 -0.05,0.01 -0.06,0.02 -0.01,0 -0.04,0.02z"/>
   <path class="fil3" d="M1 4.03c0.06,-0.02 0.06,-0.01 0.08,-0.07 -0,0 -0.01,0.01 -0.01,0.01l-0.07 0.06c-0,-0 -0.01,0 -0.01,0.01z"/>
   <path class="fil3" d="M0.97 1.09l-0.1 0c0.03,0.03 0.06,0.02 0.1,-0z"/>
   <path class="fil5" d="M2.67 4.69c0.02,-0.01 0.01,0.01 0.02,-0.02l0.04 0.01c-0.01,0.02 -0.01,0.01 0.02,0.01 -0,0.02 -0,0.01 0.02,0.01 0,-0.03 0.01,-0.02 -0.02,-0.01l-0.02 -0.01c-0.01,-0.02 0.03,-0.01 -0.03,-0.02 -0.01,0.01 -0.01,0.01 -0.02,0.02 -0.01,0.01 -0,0 -0.01,0.02z"/>
   <path class="fil6" d="M4.19 3.45c-0.02,-0.01 -0.02,-0.02 -0.02,0.01 -0.03,-0.01 -0.02,-0.01 -0.02,0.02 0.03,-0 0.03,0.01 0.02,-0.02 0.02,0.01 0.02,0.01 0.02,-0.01l0.02 -0.01c0.03,-0 -0,-0 0.01,-0.02 -0.02,0.01 -0.01,0 -0.03,0.01 -0,0 -0,0.01 -0.01,0.01 -0,-0 -0,0 -0,0.01z"/>
   <path class="fil5" d="M2.46 3.02c0.01,-0.01 0.02,-0.01 0.03,-0.04 0.01,-0.05 -0,-0.04 -0.02,-0.04 -0,0.05 0,0.04 -0.01,0.08z"/>
   <path class="fil3" d="M1.1 3.9c0.01,-0.01 0.02,0 0.02,-0.03 0.01,-0.04 -0.01,-0.04 -0.01,-0.05l-0 0.08z"/>
   <path class="fil5" d="M4.95 2.92c-0.01,0.01 -0.01,0.01 -0.02,0.02 -0,0 -0.01,0.01 -0.01,0.01 -0,-0 -0,0.01 -0.01,0.01 0.03,-0.02 0.02,-0 0.03,-0.03l0.02 -0.01 0.05 0 0.03 0.01c-0.01,-0.02 0.02,-0.02 -0.03,-0.01 -0.02,-0.02 0.03,-0.01 -0.03,-0.01 -0.05,-0.01 -0.02,-0 -0.03,0.01 -0.02,-0.01 -0.02,-0.01 -0.02,0.01z"/>
   <path class="fil3" d="M4.32 2.23c0.01,-0.01 0.02,0.02 0.02,-0.03 0,-0.05 -0.01,-0.04 -0.02,-0.04l-0 0.07z"/>
   <path class="fil4" d="M1.11 2.92c0.03,-0.02 0.02,-0.07 0,-0.09l-0 0.09z"/>
   <path class="fil3" d="M4.73 4.09c0.02,-0.01 0.03,-0.01 0.04,-0.01l0.06 -0.05c-0.05,0.02 -0.02,0.01 -0.06,0.03 -0.01,0.01 -0.02,0.01 -0.02,0.01 -0.03,0.02 -0.01,0 -0.02,0.02z"/>
   <path class="fil6" d="M2.85 5.08c0.02,-0 0.02,0 0.05,-0.01l0.04 -0.02c-0.03,-0 -0.02,-0.01 -0.05,0 -0.07,0.02 -0.01,-0 -0.04,0.02z"/>
   <path class="fil5" d="M2.11 3.36l-0.06 -0c0.01,0.02 -0.02,0.02 0.03,0.02 0.05,0 0.02,-0.01 0.03,-0.02z"/>
   <path class="fil4" d="M4.61 0.37c-0.02,-0.05 -0.03,-0.05 -0.08,-0.07l0.08 0.07z"/>
   <path class="fil5" d="M1.89 1.1c-0.01,-0.01 0.03,-0.02 -0.04,-0.01 -0.04,0 -0.01,-0 -0.02,0.02l0.06 -0z"/>
   <path class="fil3" d="M0.09 3.97l-0.07 -0.07c0.02,0.05 0.02,0.06 0.07,0.07z"/>
   <path class="fil4" d="M1.11 0.94c0,-0.01 0.02,-0.01 0.02,-0.04 -0,-0.04 -0.01,-0.04 -0.02,-0.04l0 0.08z"/>
   <path class="fil5" d="M1.79 1.13c-0.02,-0 -0.01,-0.01 -0.01,0.01 -0.02,-0 -0.01,-0.01 -0.01,0.02 0.02,0 0.02,0.01 0.01,-0.02 0.02,0 0.01,0.01 0.01,-0.01l0.02 -0.01c0.03,0.01 0.02,0.01 0.02,-0.01 -0.02,0 -0.02,-0.01 -0.02,0.01 -0.02,-0.01 -0.02,-0.01 -0.02,0.01z"/>
   <path class="fil4" d="M1.11 1.92c0.02,-0.03 0.03,-0.05 -0,-0.08l0 0.08z"/>
   <path class="fil5" d="M1.79 2.05c-0.02,-0.01 -0.02,-0.01 -0.01,0.01 -0.02,-0 -0.01,-0.01 -0.01,0.02 0.02,0 0.02,0.01 0.01,-0.02 0.02,0 0.01,0.01 0.01,-0.01l0.02 -0.01c0.02,0.01 0.02,0.01 0.02,-0.01 -0.02,0 -0.02,-0.01 -0.02,0.01 -0.02,-0.01 -0.02,-0.01 -0.02,0.01z"/>
   <path class="fil3" d="M0.96 2.07l-0.09 0c0.03,0.01 0.06,0.02 0.09,-0z"/>
   <path class="fil6" d="M4.52 3.22c0.03,-0 0.03,0.01 0.02,-0.02 0.03,0.01 0.02,0.01 0.02,-0.01 -0.03,-0.01 -0.03,-0.02 -0.02,0.01 -0.03,-0.01 -0.02,-0.01 -0.02,0.02z"/>
   <path class="fil3" d="M4.28 1.16l0.02 0.01c-0,0.02 -0.01,0.01 0.01,0.01l0 0.02c-0.01,0.03 -0.01,0.02 0.01,0.02 -0,-0.02 0.01,-0.02 -0.01,-0.02l-0 -0.02c0,-0.02 0.01,-0.01 -0.01,-0.01 0,-0.02 0,-0.01 -0.02,-0.01l-0.02 -0.01c0,0.03 -0.01,0.02 0.02,0.01z"/>
   <path class="fil3" d="M4.28 2.1l0.01 0.01c-0,0.02 -0.01,0.01 0.01,0.01l0.01 0.02c-0.01,0.03 -0.01,0.02 0.01,0.02 -0,-0.02 0.01,-0.02 -0.01,-0.02l-0.01 -0.02c0,-0.02 0.01,-0.01 -0.01,-0.01 0,-0.02 0,-0.01 -0.01,-0.01l-0.02 -0.01c0,0.02 -0.01,0.02 0.02,0.01z"/>
   <path class="fil5" d="M1.89 2.03c-0.01,-0.01 0.02,-0.02 -0.03,-0.01 -0.03,0 -0.01,-0 -0.02,0.02l0.05 -0z"/>
   <path class="fil6" d="M4.72 3.08c0.03,-0 0.03,0.01 0.02,-0.02 0.03,0.01 0.02,0.01 0.02,-0.01 -0.03,-0.01 -0.03,-0.02 -0.02,0.01 -0.03,-0.01 -0.02,-0.01 -0.02,0.02z"/>
   <path class="fil3" d="M4.32 1.3c0.01,-0.01 0.02,0.02 0.01,-0.04 -0,-0.05 0,-0.01 -0.01,-0.03l0 0.07z"/>
   <path class="fil4" d="M4.6 5.69c0.02,-0.01 0.03,-0.01 0.05,-0.02l0.03 -0.02c0,-0 0,-0.01 0.01,-0.01 -0.02,0.01 -0.03,0.01 -0.05,0.03 -0.03,0.02 -0.01,0 -0.03,0.03z"/>
   <path class="fil3" d="M0.02 2.83c0,-0 0.01,-0.01 0.01,-0.01l0.02 -0.02c0,-0 0.01,-0.01 0.01,-0.01l0.02 -0.01c-0.05,0.02 -0.04,0.01 -0.06,0.06z"/>
   <path class="fil4" d="M2.68 3.22c-0,-0 -0.01,-0.01 -0.01,-0.01l-0.04 -0.05c0.01,0.05 0.01,0.05 0.05,0.06z"/>
   <path class="fil5" d="M4.4 3.31c-0.02,-0.01 -0.02,-0.01 -0.02,0.01l0.02 -0.01c0.02,0 0.02,0.01 0.02,-0.01 0.02,0.01 0.02,0.01 0.02,-0.01 -0.02,0 -0.02,-0.01 -0.02,0.01 -0.02,-0 -0.02,-0.01 -0.02,0.01z"/>
   <path class="fil5" d="M4.8 3.89c0.04,-0.02 0.02,-0.01 0.06,-0.03 0.01,-0 0.02,-0.01 0.02,-0.01 0.02,-0.02 0,0 0.02,-0.02l-0.09 0.06c-0,0 -0,0 -0.01,0.01z"/>
   <path class="fil3" d="M0.76 1.75c0.02,-0.01 0.02,-0 0.03,-0.02 0.03,-0.02 0.01,-0.01 0.03,-0.03 -0.02,0.01 -0.03,0.01 -0.04,0.02 -0.03,0.02 -0.01,0.01 -0.02,0.03z"/>
   <path class="fil3" d="M0.38 0.47c0.01,-0.01 0.01,-0.01 0.02,-0.03 0.01,-0.02 0,-0.02 0.01,-0.03 -0.03,0.01 -0.02,0.02 -0.02,0.06z"/>
   <path class="fil3" d="M0.82 4.03c-0.02,-0.02 0,-0.01 -0.03,-0.03 -0.02,-0.01 -0.02,-0.01 -0.03,-0.02 0.01,0.02 -0.01,0.01 0.02,0.03 0.01,0.01 0.02,0.01 0.04,0.02z"/>
   <path class="fil5" d="M4.6 3.17c0.02,0 0.02,0.01 0.02,-0.01 0.03,0.01 0.02,0.01 0.02,-0.01 -0.02,0 -0.02,-0.01 -0.02,0.01 -0.02,-0.01 -0.02,-0.01 -0.02,0.01z"/>
   <path class="fil6" d="M3.2 4.64c0.01,-0.03 0.01,-0.02 -0.02,-0.03 -0.01,0.03 -0.02,0.03 0.02,0.03z"/>
   <path class="fil6" d="M4.71 3.08c-0.03,-0.01 -0.03,-0.01 -0.03,0.02 0.03,-0 0.03,0.01 0.03,-0.02z"/>
   <path class="fil5" d="M2.1 2.44l-0.05 0c0.01,0.01 0,0.01 0.03,0.01 0.04,0 0.01,0 0.02,-0.01z"/>
   <path class="fil5" d="M2.59 4.86c-0.02,0 -0.01,-0.01 -0.01,0.02l-0.02 0.02 -0.01 0.02c0.03,0 0.02,0.01 0.01,-0.02l0.02 -0.02 0.01 -0.02 0 -0.02 0.01 -0.02c-0.02,0 -0.02,-0 -0.01,0.02l-0 0.02z"/>
   <path class="fil5" d="M2.82 5.07c-0.02,0 -0.01,-0 -0.03,0.01 -0,0 -0.01,0.01 -0.01,0.01 -0,-0 -0.01,0 -0.01,0.01 0.02,-0 0.05,0 0.05,-0.02z"/>
   <path class="fil4" d="M0.63 0.09l-0.02 0.02 -0.02 0.01 -0.02 0.01c-0.02,-0.01 -0.02,-0.01 -0.02,0.02 0.02,-0 0.02,0 0.02,-0.02l0.02 -0.01 0.02 -0.01 0.02 -0.02 0.02 -0.02c0.02,0.01 0.02,0.02 0.02,-0.01l-0.02 0.01 -0.02 0.02z"/>
   <path class="fil5" d="M2.1 1.51l-0.04 0c0.01,0.01 0.02,0.03 0.04,-0z"/>
   <path class="fil3" d="M0.74 0.31c0.02,-0 0.02,0 0.02,-0.01 0.02,0.01 0.02,0.01 0.02,-0.01l-0.02 0.01c-0.03,-0.01 -0.02,-0.01 -0.02,0.01z"/>
   <path class="fil5" d="M3.75 3.77c0.03,-0.01 0.01,0 0.03,-0.01 0.06,-0.04 -0.04,0.04 0.01,-0.01l0.01 -0.01c-0.03,0.01 -0,-0 -0.03,0.02 -0.03,0.02 0,-0 -0.02,0.02z"/>
   <path class="fil5" d="M5.25 3.08c-0.01,0.02 -0.01,0.02 0.01,0.02l-0.01 -0.02c0.01,-0.02 0.01,-0.02 -0.01,-0.02 -0,0.02 -0.01,0.02 0.01,0.02z"/>
   <path class="fil5" d="M4.77 3.05l0.02 -0.01c0.02,0.01 0.02,0.01 0.02,-0.01 -0.02,0 -0.02,-0.01 -0.02,0.01 -0.02,-0.01 -0.02,-0.01 -0.02,0.01z"/>
   <path class="fil6" d="M2.48 5.01c0.02,-0.01 0.01,0.02 0.02,-0.03 -0.03,0.01 -0.02,-0.02 -0.02,0.03z"/>
   <path class="fil5" d="M4 3.6l0.07 -0.05c-0.03,0.01 -0.02,0 -0.05,0.02l-0.02 0.03z"/>
   <path class="fil4" d="M4.67 2.98c0,-0 0.02,-0.01 0.03,-0.01 0.02,-0.01 0.01,-0 0.02,-0.02 -0,0 -0.03,0.01 -0.03,0.01 -0.02,0.01 -0.01,0.01 -0.02,0.02z"/>
   <path class="fil5" d="M4.75 3.93c0,-0 0.03,-0.01 0.03,-0.01 0.02,-0.01 0.01,-0.01 0.02,-0.02 -0.01,0 -0.02,0.01 -0.03,0.01 -0.02,0.01 -0.01,0 -0.02,0.02z"/>
   <path class="fil6" d="M3.42 4.88c0.02,-0.01 0.03,0.02 0.02,-0.01 0.03,0.01 0.02,0.01 0.02,-0.02l-0.04 0.03z"/>
   <path class="fil5" d="M4.83 3c0.02,-0 0.02,0.01 0.02,-0.01 0.02,0.01 0.02,0.01 0.02,-0.01l-0.02 0.01c-0.02,-0.01 -0.02,-0.01 -0.02,0.01z"/>
   <path class="fil3" d="M0.49 5.53c-0.01,-0.03 0,-0 -0.02,-0.03 -0.02,-0.02 -0,0.02 -0.01,-0.01 -0,-0 -0.01,-0 -0.01,-0.01 0.01,0.03 -0,0 0.02,0.03 0.01,0.01 0.01,0.02 0.01,0.01 0,-0 0,0 0.01,0.01z"/>
   <path class="fil5" d="M2.54 4.93c-0.03,0 -0.02,-0.01 -0.02,0.02 0.02,0 0.02,0 0.02,-0.02z"/>
   <path class="fil5" d="M5.07 3.7c0.04,-0.02 0,0 0.03,-0.01 0.02,-0.01 0.01,-0.01 0.02,-0.02 -0.01,0 -0.02,0.01 -0.03,0.01 -0.02,0.01 -0.01,0.01 -0.02,0.02z"/>
   <path class="fil5" d="M3.95 3.63c0,-0 0.03,-0.01 0.03,-0.01 0.02,-0.01 0.01,-0.01 0.02,-0.02 -0.02,0.01 -0.01,0 -0.03,0.01 -0.02,0.01 -0.01,0.01 -0.02,0.02z"/>
   <path class="fil5" d="M4.8 3.03c0.02,-0 0.02,0.01 0.02,-0.01 0.02,0 0.02,0.01 0.02,-0.01l-0.02 0.01c-0.02,-0 -0.02,-0.01 -0.02,0.01z"/>
   <path class="fil4" d="M0.7 5.69c0,-0.02 0,-0.01 -0.02,-0.01 0,0.03 -0,0.02 0.02,0.01z"/>
   <path class="fil4" d="M4.85 3.99c0,-0 0.03,-0.01 0.03,-0.01 0.04,-0.02 0.01,-0 0.02,-0.02 -0.01,0 -0.03,0.01 -0.03,0.01 -0.03,0.01 -0,0 -0.02,0.02z"/>
   <path class="fil3" d="M4.53 0.03c-0.01,-0.02 0.02,-0.01 -0.03,-0.02 0.01,0.02 -0.02,0.02 0.03,0.02z"/>
   <path class="fil5" d="M4.35 3.35c0.02,-0 0.02,0.01 0.02,-0.01 0.02,0 0.02,0.01 0.02,-0.01l-0.02 0.01c-0.02,-0 -0.02,-0.01 -0.02,0.01z"/>
   <path class="fil5" d="M2.96 4.97c-0,-0.05 0,-0.02 -0.02,-0.03 0,0.05 -0,0.02 0.02,0.03z"/>
   <path class="fil5" d="M4.26 4.27c0.02,-0.01 0.03,-0.01 0.04,-0.02 0.01,-0.01 0.01,-0.02 0.02,-0.03l-0.07 0.05z"/>
   <path class="fil3" d="M4.48 0.02c-0.03,-0.02 -0,-0.01 -0.05,-0.02 0,0 0.01,0 0.01,0.01 0,0 0.01,0 0.01,0.01 0.03,0.01 0.01,0 0.03,0.01z"/>
   <path class="fil4" d="M4.44 4.15c-0.03,-0 -0.02,-0.01 -0.02,0.02 0.03,0 0.02,0.01 0.02,-0.02z"/>
   <path class="fil4" d="M0.86 0c-0.04,0 -0.02,-0.01 -0.05,0.02 0.02,-0 -0,0.01 0.02,-0 0.03,-0.01 0.01,-0 0.02,-0.01z"/>
   <path class="fil5" d="M5.11 2.95l0.03 0.01 0.03 0.01c-0.01,-0.02 0.01,-0.02 -0.03,-0.01l-0.03 -0.01 -0.03 -0.02c0.01,0.01 -0.02,0.01 0.03,0.02z"/>
   <path class="fil5" d="M3.87 3.69c0.01,-0 0.03,-0.01 0.03,-0.01 0.02,-0.01 0.01,-0 0.02,-0.02 -0.01,0 -0.03,0.01 -0.03,0.01 -0.02,0.01 -0.01,0.01 -0.02,0.02z"/>
   <path class="fil5" d="M2.93 4.89c0,-0.03 0.01,-0.02 -0.01,-0.02 -0,0.03 -0.01,0.02 0.01,0.02z"/>
   <path class="fil4" d="M0.89 4.63c-0.06,0 -0.02,-0 -0.03,0.01 0.06,-0 0.02,0 0.03,-0.01z"/>
   <path class="fil3" d="M1 4.66c0,-0.02 0,-0.01 -0.02,-0.01 0,0.02 -0,0.02 0.02,0.01z"/>
   <path class="fil5" d="M3.01 4.29c0.01,-0 0.02,-0.01 0.03,-0.01 0.02,-0.01 0.01,-0 0.02,-0.02 -0.01,0 -0.02,0.01 -0.03,0.01 -0.01,0.01 -0.01,0.01 -0.02,0.02z"/>
   <path class="fil4" d="M0.45 5.46c-0,-0.03 0.01,-0.02 -0.01,-0.02 -0,0.03 -0.01,0.02 0.01,0.02z"/>
   <path class="fil5" d="M2.49 5.02c-0.02,0 -0.02,-0 -0.01,0.02 0.02,0 0.02,0 0.01,-0.02z"/>
   <path class="fil3" d="M1.03 4.67c0,-0.02 0,-0.01 -0.02,-0.02 0,0.02 -0.01,0.02 0.02,0.02z"/>
   <path class="fil3" d="M4.32 1.31c-0.02,0 -0.02,-0.01 -0.01,0.02 0.02,0 0.01,0 0.01,-0.02z"/>
   <path class="fil5" d="M3.86 4.55c0,-0 0.03,-0.01 0.03,-0.01 0.02,-0.01 0.01,-0.01 0.02,-0.02 -0,0 -0.03,0.01 -0.03,0.01 -0.02,0.01 -0.01,0.01 -0.02,0.02z"/>
   <path class="fil5" d="M4.59 3.18c-0.03,0 -0.02,-0.01 -0.02,0.02 0.03,0 0.02,0.01 0.02,-0.02z"/>
   <path class="fil5" d="M2.95 4.94c0,-0.03 0.01,-0.02 -0.01,-0.02 -0,0.03 -0.01,0.02 0.01,0.02z"/>
   <path class="fil4" d="M0.43 5.44c0,-0.03 0.01,-0.02 -0.01,-0.02 -0,0.03 -0.01,0.02 0.01,0.02z"/>
   <path class="fil4" d="M1.11 4.77c0,-0.03 0.01,-0.02 -0.01,-0.02 -0,0.03 -0.01,0.02 0.01,0.02z"/>
   <path class="fil5" d="M4.63 4.01c0.04,-0.01 0.02,-0.01 0.04,-0.02 -0.06,0.02 -0.02,0 -0.04,0.02z"/>
   <path class="fil5" d="M2.94 4.91c0,-0.03 0.01,-0.02 -0.01,-0.02 -0,0.03 -0.01,0.02 0.01,0.02z"/>
   <path class="fil4" d="M1.01 1.08c-0.03,0 -0.02,-0.01 -0.02,0.01 0.03,0 0.02,0.01 0.02,-0.01z"/>
   <path class="fil3" d="M2.65 3.04c-0.02,0 -0.01,-0 -0.01,0.02 0.02,0 0.02,0 0.01,-0.02z"/>
   <path class="fil5" d="M4.23 3.43l0.02 -0.01c0.02,0.01 0.02,0.01 0.02,-0.01l-0.02 0.01c-0.02,-0.01 -0.02,-0.01 -0.02,0.01z"/>
   <path class="fil4" d="M4.64 0.43c0,-0.03 0.01,-0.02 -0.01,-0.02 -0,0.03 -0.01,0.02 0.01,0.02z"/>
   <path class="fil4" d="M2.63 1.22c-0.02,0 -0.01,-0 -0.01,0.02 0.02,0 0.01,0 0.01,-0.02z"/>
   <path class="fil3" d="M0.61 5.63c-0.02,-0.02 0.02,-0.01 -0.04,-0.02 0.01,0.02 -0,0.01 0.04,0.02z"/>
   <path class="fil3" d="M0.81 0.01c-0.03,-0 -0.02,-0.01 -0.02,0.01 0.03,0 0.02,0.01 0.02,-0.01z"/>
   <path class="fil3" d="M4.59 0.05c0,-0.02 0,-0.01 -0.02,-0.01 0,0.02 -0,0.01 0.02,0.01z"/>
   <path class="fil4" d="M2.63 2.15c-0.02,0 -0.01,-0 -0.01,0.02 0.02,0 0.01,0 0.01,-0.02z"/>
   <path class="fil3" d="M2.65 2.13c-0.02,0 -0.01,-0 -0.01,0.02 0.02,0 0.02,0.01 0.01,-0.02z"/>
   <path class="fil5" d="M4.28 3.4l0.02 -0.01c0.03,0.01 0.02,0.01 0.02,-0.01l-0.02 0.01c-0.02,-0.01 -0.02,-0.01 -0.02,0.01z"/>
   <path class="fil4" d="M0.7 0.05c-0.03,-0 -0.02,-0.01 -0.02,0.01 0.03,0 0.02,0.01 0.02,-0.01z"/>
   <path class="fil5" d="M3.38 4.9c0.04,-0.01 0.02,-0.01 0.04,-0.02 -0.05,0.01 -0.02,0 -0.04,0.02z"/>
   <path class="fil4" d="M1.03 1.72c-0,-0 -0.01,-0.01 -0.01,-0.01 -0,0 -0.01,-0.01 -0.01,-0.01 -0.02,-0.01 -0,-0 -0.03,-0.01 0,0 0.01,0 0.01,0.01 0,0 0.01,0.01 0.01,0.01 0.02,0.01 -0,0 0.03,0.01z"/>
   <path class="fil3" d="M2.7 2.99c-0.02,0 -0.02,-0.01 -0.02,0.01 0.02,0 0.02,0.01 0.02,-0.01z"/>
   <path class="fil3" d="M1.11 3.91c-0.02,0 -0.01,-0 -0.01,0.02 0.02,0 0.01,0 0.01,-0.02z"/>
   <path class="fil4" d="M0.85 1.09c-0.02,-0.02 -0.01,-0.01 -0.05,-0.02 0,0 0.01,0 0.01,0.01 0,0 0.01,0 0.01,0.01 0.02,0.01 0.01,0.01 0.03,0.01z"/>
   <path class="fil5" d="M4.62 4.02c-0.02,-0 -0.02,-0.01 -0.02,0.02 0.02,-0 0.02,0.01 0.02,-0.02z"/>
   <path class="fil4" d="M1.02 5c-0.02,-0 -0.02,-0.01 -0.02,0.01 0.02,0 0.02,0.01 0.02,-0.01z"/>
   <path class="fil5" d="M4.87 2.98l0.02 -0.01c0.02,0 0.02,0.01 0.02,-0.01l-0.02 0.01c-0.02,-0 -0.02,-0.01 -0.02,0.01z"/>
   <path class="fil4" d="M1.01 3.04c-0.02,0 -0.02,-0.01 -0.02,0.01 0.02,0 0.02,0.01 0.02,-0.01z"/>
   <path class="fil5" d="M4.32 3.37l0.02 -0.01c0.02,0.01 0.02,0.01 0.02,-0.01l-0.02 0.01c-0.02,-0.01 -0.02,-0.01 -0.02,0.01z"/>
   <path class="fil4" d="M1.03 1.07c-0.02,0 -0.02,-0.01 -0.02,0.01 0.02,0 0.02,0.01 0.02,-0.01z"/>
   <path class="fil5" d="M5.22 3.04c-0.01,0.02 -0.01,0.02 0.01,0.02l-0.01 -0.02c0.01,-0.02 0.01,-0.02 -0.01,-0.02l0.01 0.02z"/>
   <path class="fil5" d="M2.13 2.43c-0.02,-0 -0.02,-0.01 -0.02,0.01 0.02,-0 0.02,0.01 0.02,-0.01z"/>
   <path class="fil5" d="M1.77 1.16c-0.02,0 -0.01,-0 -0.01,0.02 0.02,0 0.01,0 0.01,-0.02z"/>
   <path class="fil5" d="M2.63 4.78l-0.02 0.04c0,-0 0.01,-0.01 0.01,-0.01 0,0 0.01,-0.01 0.01,-0.01 0.01,-0.02 0,-0 0.01,-0.03l0.02 -0.02 0.01 -0.02c-0.02,0 -0.01,-0 -0.01,0.02l-0.02 0.02z"/>
   <path class="fil3" d="M0.85 3.67c-0.02,0 -0.02,-0.01 -0.02,0.01 0.03,0 0.02,0.01 0.02,-0.01z"/>
   <path class="fil4" d="M0.8 4.67c0.03,-0.01 0.01,-0 0.03,-0.01 0,-0 0.01,-0 0.01,-0.01 0,-0 0,-0 0.01,-0.01 -0.02,0.01 -0.01,0 -0.03,0.01 -0,0 -0.01,0.01 -0.01,0.01 -0,-0 -0.01,0 -0.01,0.01z"/>
   <path class="fil4" d="M2.65 1.19c-0.02,0 -0.02,-0.01 -0.01,0.02 0.02,0 0.01,0 0.01,-0.02z"/>
   <path class="fil4" d="M0.45 0.28c0.02,0 0.01,0 0.01,-0.02l0.01 -0.02c-0.02,0 -0.02,-0 -0.01,0.02l-0.01 0.02z"/>
   <path class="fil4" d="M4.64 5.31c-0.02,0 -0.01,-0 -0.01,0.02 0.02,0 0.01,0 0.01,-0.02z"/>
   <path class="fil5" d="M1.77 1.25c0,-0.02 0.01,-0.02 -0.01,-0.02 -0,0.02 -0.01,0.02 0.01,0.02z"/>
   <path class="fil3" d="M4.82 4.02c0.06,-0.01 0.02,0 0.04,-0.02 -0,0 -0.01,0 -0.01,0l-0.03 0.02z"/>
   <path class="fil5" d="M1.77 2.08c-0.02,0 -0.01,-0 -0.01,0.02 0.02,0 0.01,0 0.01,-0.02z"/>
   <path class="fil5" d="M3.11 4.53c-0,-0 -0.01,-0.01 -0.01,-0.01 -0,0 -0.01,-0.01 -0.01,-0.01 -0.01,-0.01 -0.01,-0.01 -0.03,-0.01 0.02,0.03 0,0.01 0.04,0.03z"/>
   <path class="fil4" d="M0.84 4.04c0,-0.02 0,-0.01 -0.02,-0.01 0,0.02 -0,0.01 0.02,0.01z"/>
   <path class="fil3" d="M4.83 2.87l0.08 -0.07c-0,0 -0.01,0 -0.01,0.01l-0.06 0.04c-0.02,0.02 -0.01,0.01 -0.02,0.02z"/>
   <path class="fil4" d="M4.5 5.45c-0.02,-0 -0.02,-0.01 -0.02,0.01 0.02,0 0.02,0.01 0.02,-0.01z"/>
   <path class="fil3" d="M2.7 2.08c-0.02,0 -0.02,-0.01 -0.02,0.01 0.02,0 0.02,0.01 0.02,-0.01z"/>
   <path class="fil3" d="M4.53 5.44c-0.02,0 -0.02,-0 -0.02,0.01 0.02,0 0.02,0.01 0.02,-0.01z"/>
   <path class="fil4" d="M0.84 1.7c-0.02,-0 -0.02,-0.01 -0.02,0.01 0.02,0 0.02,0.01 0.02,-0.01z"/>
   <path class="fil4" d="M1.1 4.75c0,-0.02 0.01,-0.02 -0.01,-0.02 0,0.02 -0,0.02 0.01,0.02z"/>
   <path class="fil4" d="M0.44 0.31c-0.02,0 -0.01,-0 -0.01,0.02 0.02,0 0.01,0 0.01,-0.02z"/>
   <path class="fil5" d="M2.05 1.52c0,-0.02 0,-0.01 -0.02,-0.01 0,0.02 -0,0.01 0.02,0.01z"/>
   <path class="fil5" d="M1.77 2.17c0,-0.02 0.01,-0.02 -0.01,-0.02 -0,0.02 -0.01,0.02 0.01,0.02z"/>
   <path class="fil4" d="M1.1 3.77c0,-0.02 0.01,-0.02 -0.01,-0.02 0,0.02 -0.01,0.02 0.01,0.02z"/>
   <path class="fil4" d="M4.63 5.33c-0.02,0 -0.01,-0 -0.01,0.02 0.02,0 0.01,0 0.01,-0.02z"/>
   <path class="fil4" d="M4.85 0.29c-0.01,-0.06 -0,-0.02 -0.02,-0.04l0.01 0.03c0,0 0,0.01 0.01,0.01z"/>
   <path class="fil4" d="M0.79 5.45c0,-0.02 0,-0.01 -0.02,-0.01 0,0.02 -0,0.01 0.02,0.01z"/>
   <path class="fil4" d="M1.09 1.97c-0.02,0 -0.01,-0 -0.01,0.02 0.02,0 0.01,0 0.01,-0.02z"/>
   <path class="fil4" d="M0.47 0.24c0.02,0 0.01,0 0.01,-0.02l0.01 -0.02c-0.02,0 -0.02,-0 -0.01,0.02l-0.01 0.02z"/>
   <path class="fil4" d="M0.83 2.7c-0.02,-0 -0.02,-0.01 -0.02,0.01 0.02,-0 0.02,0 0.02,-0.01z"/>
   <path class="fil5" d="M3.52 3.94c0.05,-0.01 0.02,-0 0.03,-0.02l-0.03 0.02c-0,-0 -0,0 -0.01,0.01z"/>
   <path class="fil4" d="M1.09 0.99c-0.02,0 -0.01,-0 -0.01,0.02 0.02,0 0.01,0 0.01,-0.02z"/>
   <path class="fil4" d="M0.45 0.29c-0.02,0 -0.01,-0 -0.01,0.02 0.02,0 0.01,0 0.01,-0.02z"/>
   <path class="fil3" d="M3.28 4.96l0 0 0.01 -0.01 -0.01 -0.02 -0.01 0.02z"/>
   <path class="fil5" d="M4.67 3.99l0.04 -0.02c-0.06,0.02 -0.02,0 -0.04,0.02z"/>
   <path class="fil5" d="M3.48 3.97c0.06,-0.01 0.02,0 0.04,-0.02l-0.04 0.02z"/>
   <path class="fil4" d="M4.53 0.3c0,-0.02 0,-0.01 -0.02,-0.01 0,0.02 -0,0.01 0.02,0.01z"/>
   <path class="fil4" d="M0.67 5.32l-0.03 -0.03c0.02,0.05 0.01,0.02 0.03,0.03z"/>
   <path class="fil3" d="M4.65 5.27c0.02,-0.01 0.01,0.02 0.01,-0.03l-0.01 0.03z"/>
   <path class="fil5" d="M3.92 3.66c0.06,-0.02 0.02,-0 0.04,-0.02l-0.03 0.02c-0,-0 -0,0 -0.01,0.01z"/>
   <path class="fil4" d="M4.83 5.48c-0.02,0 -0.01,-0 -0.01,0.02 0.02,0 0.01,0 0.01,-0.02z"/>
   <path class="fil5" d="M3.83 3.72c0.06,-0.01 0.02,0 0.04,-0.02l-0.04 0.02z"/>
   <path class="fil3" d="M4.69 4.11c0.06,-0.02 0.02,0 0.04,-0.02l-0.04 0.02z"/>
   <path class="fil3" d="M0.87 5.74c-0.01,-0.01 0.02,-0.01 -0.04,-0.01l0.04 0.01z"/>
   <path class="fil5" d="M4.35 4.21l0.04 -0.02c-0.06,0.02 -0.02,0 -0.04,0.02z"/>
   <path class="fil4" d="M0.98 4.65c-0.01,-0.02 0.02,-0.01 -0.03,-0.01l0.03 0.01z"/>
   <path class="fil3" d="M0.89 5.49l-0.03 -0.01c0.01,0.02 -0.02,0.01 0.03,0.01z"/>
   <path class="fil4" d="M0.98 2.69c0,-0.02 0,-0.01 -0.03,-0.01l0.03 0.01z"/>
   <path class="fil4" d="M0.89 3.65c-0.05,0 -0.02,-0 -0.03,0.01l0.03 -0.01z"/>
   <path class="fil5" d="M3.83 4.58l0.04 -0.02c-0.06,0.02 -0.02,-0 -0.04,0.02z"/>
   <path class="fil3" d="M4.65 5.28l-0.01 0.02c0.02,0 0.01,0 0.01,-0.02z"/>
   <path class="fil3" d="M4.25 1.15c-0.01,-0.02 0.02,-0.01 -0.03,-0.02l0.03 0.02z"/>
   <path class="fil3" d="M1 4.03c-0.05,0.01 -0.02,-0 -0.03,0.02l0.03 -0.02z"/>
   <path class="fil3" d="M4.92 0.5c-0,-0.03 0.01,0 -0,-0.02 -0.01,-0.03 -0.01,-0.01 -0.01,-0.03l0.02 0.05z"/>
   <path class="fil5" d="M3.91 4.52l0.04 -0.02c-0.05,0.01 -0.02,0.01 -0.04,0.02z"/>
   <path class="fil3" d="M0.12 3.99l-0.03 -0.01c0.01,0.02 -0.02,0.01 0.03,0.01z"/>
   <path class="fil3" d="M4.9 5.29c0.01,-0.01 0,0 0.01,-0.03 0.01,-0.02 0,-0 0,-0.02l-0.01 0.05z"/>
   <path class="fil3" d="M0.11 2.76l-0.02 0.01c0.03,0 0.02,0.01 0.02,-0.01z"/>
   <path class="fil3" d="M0.12 1.75c-0.04,0 -0.02,-0 -0.03,0.02l0.03 -0.02z"/>
   <path class="fil3" d="M4.59 5.69c-0.03,-0 -0.02,-0.01 -0.02,0.01l0.02 -0.01z"/>
   <path class="fil3" d="M0.81 5.72c0,-0.02 0,-0.01 -0.02,-0.01l0.02 0.01z"/>
   <path class="fil4" d="M4.27 2.31l-0.02 0.01c0.03,0 0.02,0.01 0.02,-0.01z"/>
   <path class="fil4" d="M1.01 2.06l-0.02 0.01c0.03,0 0.02,0.01 0.02,-0.01z"/>
   <path class="fil4" d="M0.41 0.37c-0.02,0 -0.01,-0 -0.01,0.02l0.01 -0.02z"/>
   <path class="fil3" d="M4.05 3c-0.01,-0.02 0.02,-0.01 -0.03,-0.01l0.03 0.01z"/>
   <path class="fil3" d="M1.11 4.89c-0.02,0 -0.01,-0 -0.01,0.02l0.01 -0.02z"/>
   <path class="fil4" d="M1.01 3.68c0,-0.02 0,-0.01 -0.02,-0.01l0.02 0.01z"/>
   <path class="fil3" d="M1 2.7l-0.02 -0.01c0,0.02 -0,0.01 0.02,0.01z"/>
   <path class="fil5" d="M5.15 3.64c0,-0 0.03,-0.01 0.03,-0.01 0.02,-0.01 0.01,-0.01 0.02,-0.02l-0.05 0.03z"/>
   <path class="fil4" d="M1.03 3.69c0,-0.02 0,-0.01 -0.02,-0.01l0.02 0.01z"/>
   <path class="fil4" d="M0.84 5.47c0,-0.02 0,-0.01 -0.02,-0.01l0.02 0.01z"/>
   <path class="fil3" d="M1.11 0.85l-0.01 -0.02c-0,0.03 -0.01,0.02 0.01,0.02z"/>
   <path class="fil3" d="M1.11 1.83l-0.01 -0.02c-0,0.02 -0.01,0.02 0.01,0.02z"/>
   <path class="fil4" d="M0.84 0.26l-0.02 0.01c0.02,0 0.02,0.01 0.02,-0.01z"/>
   <path class="fil5" d="M1.77 3.1l-0.01 -0.02c-0,0.02 -0.01,0.02 0.01,0.02z"/>
   <path class="fil4" d="M0.85 2.07l-0.02 -0.01c0,0.02 -0,0.01 0.02,0.01z"/>
   <path class="fil3" d="M4.48 5.46l-0.02 0.01c0.02,0 0.02,0.01 0.02,-0.01z"/>
   <path class="fil4" d="M1.03 2.71c0,-0.02 0,-0.01 -0.02,-0.01l0.02 0.01z"/>
   <path class="fil3" d="M4.48 0.27c0,-0.02 0,-0.01 -0.02,-0.01l0.02 0.01z"/>
   <path class="fil3" d="M4.88 0.35l-0.01 -0.02c-0,0.02 -0.01,0.02 0.01,0.02z"/>
   <path class="fil3" d="M1.1 1.8l-0.01 -0.02c-0,0.02 -0.01,0.02 0.01,0.02z"/>
   <path class="fil3" d="M4.84 5.46c-0.02,0 -0.01,-0 -0.01,0.02l0.01 -0.02z"/>
   <path class="fil3" d="M4.88 5.39c-0.02,0 -0.01,-0 -0.01,0.02l0.01 -0.02z"/>
   <path class="fil4" d="M0.83 3.04l-0.01 -0.01c0,0.02 -0,0.01 0.01,0.01z"/>
   <path class="fil4" d="M0.85 3.05l-0.02 -0.01c0,0.02 -0,0.01 0.02,0.01z"/>
   <path class="fil4" d="M3.28 4.96l-0 -0 -0.02 0.03 0.02 -0.03z"/>
   <path class="fil4" d="M4.51 0.28l-0.02 -0.01 0.02 0.01z"/>
   <path class="fil4" d="M1.09 1.97l0.02 -0.02 -0.02 0.02z"/>
   <path class="fil3" d="M4.56 0.04l-0.03 -0.02 0.03 0.02z"/>
   <path class="fil3" d="M4.25 2.09l-0.02 -0.02 0.02 0.02z"/>
   <path class="fil4" d="M4.89 5.35l0.01 -0.02 -0.01 0.02z"/>
   <path class="fil4" d="M4.89 5.36l-0.01 0.02 0.01 -0.02z"/>
   <path class="fil4" d="M0.73 0.03l-0.02 0.02 0.02 -0.02z"/>
   <path class="fil4" d="M4.64 0.08l-0.02 -0.02 0.02 0.02z"/>
   <path class="fil3" d="M0.88 0.25l-0.03 0.01 0.03 -0.01z"/>
   <path class="fil4" d="M4.44 0.27l-0.03 -0.01 0.03 0.01z"/>
   <path class="fil3" d="M2.73 2.07l-0.03 0.01 0.03 -0.01z"/>
   <path class="fil3" d="M0.76 0.02l-0.02 0.02 0.02 -0.02z"/>
   <path class="fil4" d="M4.86 0.32l-0.01 -0.02 0.01 0.02z"/>
   <path class="fil4" d="M0.98 3.05l-0.03 0.01 0.03 -0.01z"/>
   <path class="fil4" d="M0.88 3.06l-0.02 -0.01 0.02 0.01z"/>
   <path class="fil4" d="M0.85 2.69l-0.02 0.01 0.02 -0.01z"/>
   <path class="fil4" d="M1.11 2.81l-0.01 -0.02 0.01 0.02z"/>
   <path class="fil4" d="M0.89 2.68l-0.02 0.01 0.02 -0.01z"/>
   <path class="fil3" d="M2.73 2.98l-0.03 0.01 0.03 -0.01z"/>
   <path class="fil4" d="M4.66 0.46l-0.02 -0.02 0.02 0.02z"/>
   <path class="fil4" d="M0.98 3.67l-0.03 -0.01 0.03 0.01z"/>
   <path class="fil3" d="M2.73 1.14l-0.03 0.02 0.03 -0.02z"/>
   <path class="fil3" d="M0.68 5.68l-0.06 -0.04 0.06 0.04z"/>
   <path class="fil4" d="M4.9 0.42l-0.01 -0.02 0.01 0.02z"/>
   <path class="fil4" d="M4.44 5.47l-0.03 0.02 0.03 -0.02z"/>
   <path class="fil4" d="M1.11 3.79l-0.01 -0.02 0.01 0.02z"/>
   <path class="fil4" d="M0.76 5.71l-0.03 -0.02 0.03 0.02z"/>
   <path class="fil4" d="M0.1 2.99l-0.02 -0.02 0.02 0.02z"/>
   <path class="fil4" d="M4.53 5.71l-0.03 0.01 0.03 -0.01z"/>
   <path class="fil3" d="M1.09 0.98l0.02 -0.02 -0.02 0.02z"/>
   <path class="fil4" d="M4.47 5.73l-0.04 0.01 0.04 -0.01z"/>
   <path class="fil4" d="M4.89 0.38l-0.01 -0.02 0.01 0.02z"/>
  </g>
 </g>
</svg>
