<?xml version="1.0" encoding="UTF-8"?>
<!DOCTYPE svg PUBLIC "-//W3C//DTD SVG 1.0//EN" "http://www.w3.org/TR/2001/REC-SVG-20010904/DTD/svg10.dtd">
<!-- Creator: CorelDRAW 2021 (64-Bit) -->
<svg xmlns="http://www.w3.org/2000/svg" xml:space="preserve" width="0.348256in" height="0.367929in" version="1.0" style="shape-rendering:geometricPrecision; text-rendering:geometricPrecision; image-rendering:optimizeQuality; fill-rule:evenodd; clip-rule:evenodd"
viewBox="0 0 5.71 6.04"
 xmlns:xlink="http://www.w3.org/1999/xlink"
 xmlns:xodm="http://www.corel.com/coreldraw/odm/2003">
 <defs>
  <style type="text/css">
   <![CDATA[
    .fil0 {fill:#016189;fill-rule:nonzero}
   ]]>
  </style>
 </defs>
 <g id="Layer_x0020_1">
  <metadata id="CorelCorpID_0Corel-Layer"/>
  <path class="fil0" d="M5.71 2.14c0,0.17 -0.01,0.35 -0.03,0.54 -0.02,0.18 -0.06,0.36 -0.11,0.53 -0.05,0.17 -0.11,0.33 -0.19,0.49 -0.08,0.15 -0.18,0.29 -0.29,0.4 -0.12,0.12 -0.25,0.21 -0.4,0.27 -0.15,0.07 -0.33,0.1 -0.52,0.1 -0.11,0 -0.2,-0.01 -0.29,-0.04 -0.09,-0.02 -0.17,-0.06 -0.24,-0.11 -0.07,-0.05 -0.13,-0.1 -0.17,-0.18 -0.05,-0.07 -0.08,-0.16 -0.1,-0.25 -0.1,0.1 -0.2,0.19 -0.3,0.26 -0.1,0.07 -0.19,0.13 -0.28,0.18 -0.09,0.05 -0.18,0.08 -0.27,0.1 -0.09,0.02 -0.18,0.03 -0.26,0.03 -0.11,0 -0.21,-0.01 -0.29,-0.03 -0.09,-0.02 -0.16,-0.05 -0.23,-0.1 -0.07,-0.04 -0.12,-0.09 -0.17,-0.16 -0.05,-0.06 -0.09,-0.13 -0.12,-0.21 -0.03,-0.08 -0.05,-0.16 -0.07,-0.25 -0.01,-0.09 -0.02,-0.19 -0.02,-0.3 0,-0.11 0.01,-0.24 0.03,-0.38 0.02,-0.14 0.05,-0.29 0.09,-0.44 0.04,-0.15 0.1,-0.3 0.17,-0.44 0.07,-0.15 0.16,-0.28 0.27,-0.39 0.11,-0.11 0.23,-0.21 0.38,-0.28 0.15,-0.07 0.32,-0.11 0.51,-0.11 0.08,0 0.16,0.01 0.24,0.03 0.08,0.02 0.15,0.05 0.22,0.09 0.07,0.04 0.14,0.09 0.2,0.15 0.06,0.06 0.13,0.14 0.2,0.22l0.07 -0.34c0.01,-0.04 0.03,-0.06 0.07,-0.08 0.04,-0.02 0.1,-0.03 0.2,-0.03 0.05,0 0.09,0 0.12,0.01 0.03,0.01 0.06,0.01 0.07,0.02 0.02,0.01 0.03,0.02 0.04,0.03 0.01,0.01 0.01,0.03 0,0.05l-0.34 1.77c-0.04,0.22 -0.03,0.39 0.03,0.5 0.06,0.11 0.18,0.16 0.35,0.16 0.11,0 0.2,-0.03 0.29,-0.08 0.08,-0.05 0.16,-0.12 0.22,-0.21 0.06,-0.09 0.12,-0.19 0.16,-0.31 0.04,-0.12 0.08,-0.24 0.11,-0.38 0.03,-0.13 0.05,-0.27 0.06,-0.41 0.01,-0.14 0.02,-0.27 0.02,-0.4 0,-0.22 -0.03,-0.44 -0.09,-0.64 -0.06,-0.2 -0.16,-0.38 -0.31,-0.53 -0.15,-0.15 -0.34,-0.27 -0.59,-0.37 -0.25,-0.09 -0.55,-0.14 -0.92,-0.14 -0.3,0 -0.57,0.03 -0.81,0.1 -0.24,0.07 -0.44,0.16 -0.62,0.27 -0.18,0.11 -0.33,0.25 -0.46,0.39 -0.13,0.15 -0.24,0.31 -0.32,0.48 -0.09,0.17 -0.16,0.34 -0.21,0.52 -0.05,0.18 -0.09,0.34 -0.12,0.51 -0.03,0.16 -0.05,0.32 -0.06,0.46 -0.01,0.14 -0.01,0.27 -0.01,0.37 0,0.29 0.03,0.55 0.1,0.78 0.07,0.24 0.18,0.44 0.34,0.61 0.16,0.17 0.38,0.31 0.65,0.4 0.27,0.1 0.61,0.14 1.03,0.14 0.19,0 0.36,-0.01 0.51,-0.03 0.15,-0.02 0.28,-0.04 0.39,-0.07 0.11,-0.02 0.2,-0.05 0.27,-0.07 0.07,-0.02 0.12,-0.03 0.14,-0.03 0.01,0 0.03,0 0.04,0.01 0.01,0.01 0.02,0.02 0.03,0.04 0.01,0.02 0.01,0.04 0.01,0.07 0,0.03 0,0.07 0,0.11 0,0.04 0,0.07 -0,0.09 -0,0.02 -0.01,0.04 -0.01,0.06 -0.01,0.02 -0.01,0.04 -0.02,0.05 -0.01,0.02 -0.02,0.03 -0.04,0.04 -0.01,0.01 -0.06,0.03 -0.13,0.06 -0.07,0.02 -0.17,0.05 -0.3,0.08 -0.12,0.02 -0.27,0.05 -0.44,0.06 -0.17,0.02 -0.35,0.03 -0.55,0.03 -0.48,0 -0.88,-0.06 -1.22,-0.17 -0.33,-0.11 -0.6,-0.27 -0.81,-0.49 -0.21,-0.21 -0.36,-0.46 -0.45,-0.76 -0.09,-0.3 -0.14,-0.63 -0.14,-0.99 0,-0.13 0.01,-0.29 0.02,-0.46 0.01,-0.17 0.04,-0.36 0.08,-0.55 0.04,-0.2 0.09,-0.4 0.17,-0.6 0.07,-0.2 0.17,-0.4 0.28,-0.6 0.11,-0.19 0.25,-0.38 0.41,-0.55 0.16,-0.17 0.36,-0.32 0.58,-0.45 0.22,-0.13 0.47,-0.23 0.76,-0.31 0.29,-0.07 0.61,-0.11 0.97,-0.11 0.42,0 0.78,0.05 1.09,0.15 0.31,0.1 0.56,0.24 0.76,0.43 0.2,0.18 0.35,0.41 0.45,0.68 0.1,0.27 0.15,0.56 0.15,0.89zm-2.23 0.25c-0.1,-0.17 -0.2,-0.29 -0.3,-0.38 -0.1,-0.09 -0.22,-0.13 -0.35,-0.13 -0.11,0 -0.21,0.03 -0.29,0.08 -0.09,0.05 -0.16,0.12 -0.23,0.2 -0.06,0.08 -0.12,0.18 -0.16,0.28 -0.05,0.1 -0.08,0.21 -0.11,0.32 -0.03,0.11 -0.05,0.22 -0.06,0.32 -0.01,0.11 -0.02,0.2 -0.02,0.28 0,0.19 0.03,0.34 0.1,0.44 0.07,0.1 0.18,0.15 0.34,0.15 0.06,0 0.13,-0.01 0.19,-0.03 0.06,-0.02 0.13,-0.06 0.2,-0.1 0.07,-0.05 0.15,-0.1 0.23,-0.18 0.08,-0.07 0.17,-0.16 0.27,-0.26l0.18 -1z"/>
 </g>
</svg>
