<?xml version="1.0" encoding="UTF-8"?>
<!DOCTYPE svg PUBLIC "-//W3C//DTD SVG 1.0//EN" "http://www.w3.org/TR/2001/REC-SVG-20010904/DTD/svg10.dtd">
<!-- Creator: CorelDRAW 2021 (64-Bit) -->
<svg xmlns="http://www.w3.org/2000/svg" xml:space="preserve" width="3.50094in" height="3.10795in" version="1.0" style="shape-rendering:geometricPrecision; text-rendering:geometricPrecision; image-rendering:optimizeQuality; fill-rule:evenodd; clip-rule:evenodd"
viewBox="0 0 2163.45 1920.59"
 xmlns:xlink="http://www.w3.org/1999/xlink"
 xmlns:xodm="http://www.corel.com/coreldraw/odm/2003">
 <defs>
  <style type="text/css">
   <![CDATA[
    .str2 {stroke:#832E3E;stroke-width:17.17;stroke-miterlimit:2.61313}
    .str1 {stroke:#016189;stroke-width:17.17;stroke-miterlimit:2.61313}
    .str3 {stroke:#016189;stroke-width:12.88;stroke-miterlimit:2.61313}
    .str0 {stroke:#016189;stroke-width:4.29;stroke-miterlimit:2.61313}
    .fil0 {fill:none}
   ]]>
  </style>
 </defs>
 <g id="Layer_x0020_1">
  <metadata id="CorelCorpID_0Corel-Layer"/>
  <rect class="fil0 str0" x="136.97" y="269.05" width="1932.22" height="1595.16"/>
  <rect class="fil0 str0" x="2.14" y="190.72" width="2159.16" height="1727.73"/>
  <rect class="fil0 str1" x="99.92" y="301.3" width="1947.31" height="1562.91"/>
  <path class="fil0 str2" d="M1744.35 434.84c-45.85,10.99 -73.71,-73.14 -62.2,-187.91 11.5,-114.76 57.99,-216.7 103.85,-227.69 45.86,-10.99 73.71,73.14 62.2,187.9"/>
  <path class="fil0 str2" d="M1005.88 428.31c-45.86,10.99 -73.71,-73.14 -62.2,-187.91 11.5,-114.76 58,-216.7 103.85,-227.69 45.86,-10.99 73.71,73.14 62.2,187.91"/>
  <path class="fil0 str2" d="M348.8 425.14c-45.86,10.99 -73.71,-73.14 -62.2,-187.91 11.5,-114.76 58,-216.7 103.85,-227.69 45.86,-10.99 73.71,73.14 62.2,187.91"/>
  <path class="fil0 str3" d="M337.66 381.43c20.14,-16.38 41.46,-6.77 47.61,21.47 6.15,28.24 -5.2,64.41 -25.34,80.79 -20.14,16.38 -41.46,6.77 -47.6,-21.47"/>
  <path class="fil0 str3" d="M984.36 366.06c20.14,-16.38 41.46,-6.77 47.61,21.47 6.15,28.24 -5.2,64.41 -25.34,80.79 -20.14,16.38 -41.45,6.77 -47.6,-21.47"/>
  <path class="fil0 str3" d="M1729.92 380.06c20.14,-16.38 41.46,-6.77 47.6,21.47 6.15,28.24 -5.19,64.41 -25.34,80.79 -20.14,16.38 -41.46,6.77 -47.6,-21.47"/>
 </g>
</svg>
