<?xml version="1.0" encoding="UTF-8"?>
<!DOCTYPE svg PUBLIC "-//W3C//DTD SVG 1.0//EN" "http://www.w3.org/TR/2001/REC-SVG-20010904/DTD/svg10.dtd">
<!-- Creator: CorelDRAW 2021 (64-Bit) -->
<svg xmlns="http://www.w3.org/2000/svg" xml:space="preserve" width="0.257346in" height="0.167091in" version="1.0" style="shape-rendering:geometricPrecision; text-rendering:geometricPrecision; image-rendering:optimizeQuality; fill-rule:evenodd; clip-rule:evenodd"
viewBox="0 0 3.87 2.51"
 xmlns:xlink="http://www.w3.org/1999/xlink"
 xmlns:xodm="http://www.corel.com/coreldraw/odm/2003">
 <defs>
  <style type="text/css">
   <![CDATA[
    .fil0 {fill:#016189}
   ]]>
  </style>
 </defs>
 <g id="Layer_x0020_1">
  <metadata id="CorelCorpID_0Corel-Layer"/>
  <path class="fil0" d="M1.72 2.34c0.07,0 0.02,-0 0.04,0.02 -0,0.03 0,0 -0.03,0.01 -0.09,0.03 -0.15,0.01 -0.17,-0.08l0.16 0.05zm-0.54 -0.05c0.08,-0.01 0.21,-0.04 0.28,-0.03 -0.08,0.16 -0.19,0.14 -0.28,0.03zm0.89 -0.83l0 -0.15c0.03,-0.02 0.02,-0.01 0.04,-0.02 0.03,-0.03 0.41,-0.27 0.46,-0.29 0.14,0.12 0.29,0.52 0.64,0.66 -0,0.23 -0.04,0.5 -0.14,0.67 -0.26,-0.08 -0.23,-0.15 -0.39,-0.08 -0.16,0.06 -0.25,0.12 -0.44,0.08 -0.12,-0.02 -0.83,-0.21 -0.87,-0.21 -0.14,0.02 -0.38,0.07 -0.47,-0.03 -0.06,-0.06 -0.09,-0.25 0.24,-0.25 0.41,-0 0.07,0.06 0.47,-0.06 0.15,-0.04 0.29,-0.06 0.45,-0.09l0 -0.24zm-0.52 0.23c-0.03,0.03 -0.09,0.04 -0.14,0.05 0.04,-0.03 0.05,-0.04 0.1,-0.07 0.04,-0.02 0.07,-0.04 0.11,-0.07l0.33 -0.2 0 0.19 -0.39 0.1zm0.22 -0.47c-0.01,0.02 -0.42,0.28 -0.46,0.29l-0.04 0.04c-0.01,0.01 -0.02,0.01 -0.03,0.01 0.02,-0.08 0.04,-0.06 0.04,-0.07 0,-0.01 0.01,-0 0.01,-0.01 0.02,-0.04 0.04,-0.08 0.06,-0.13 0.03,-0.07 0.02,-0.06 0.08,-0.1 0.11,-0.07 0.17,-0.14 0.21,-0.16l0.14 0.07 0.04 0.03 -0.05 0.02zm-0.69 -0.2c0.01,-0.02 0.07,-0.09 0.09,-0.11l0.28 -0.31c0.15,0.01 0.37,0.05 0.53,0.07 0.27,0.04 0.39,0.01 0.45,0.14 -0.06,0.02 -0.15,0.09 -0.2,0.12 -0.31,0.2 -0.24,0.2 -0.4,0.1 -0.06,-0.03 -0.15,-0.09 -0.2,-0.12 -0.06,0.05 -0.12,0.11 -0.19,0.17 -0.03,0.03 -0.07,0.06 -0.1,0.08 -0.18,0.13 -0.1,0.45 -0.44,0.44l0.19 -0.59zm1.18 -0.42l-0.05 -0.01c-0.21,-0.02 -0.41,-0.06 -0.62,-0.08 -0.05,-0.01 -0.11,-0.02 -0.16,-0.02 -0.06,-0 -0.08,0.02 -0.11,0.06 -0.05,0.06 -0.1,0.13 -0.16,0.18 -0.18,0.2 -0.21,0.19 -0.28,0.42l-0.17 0.52 -0 0.03c0.01,0 0.02,0.02 0.02,0.03l0.11 0.02 0.06 0.01 -0.06 0.03c-0.06,0.01 -0.07,0.04 -0.11,0.09 -0.04,0.05 -0.29,0.19 -0.35,0.23 -0.13,0.08 -0.31,0.33 -0.39,0.38 -0,0.03 -0.01,0.02 0.02,0.02 0.28,-0.1 0.5,-0.16 0.73,-0.35 0.03,0.03 0.06,0.06 0.11,0.09 0.05,0.03 0.12,0.04 0.15,0.06 0.05,0.03 0.14,0.29 0.38,0.21 0.09,-0.03 0.05,-0.06 0.14,-0.01 0.13,0.07 0.23,0.02 0.31,-0.05 0.05,-0.04 0.06,-0.02 0.14,-0 0.05,0.01 0.11,0.03 0.17,0.04 0.23,0.05 0.26,0.05 0.51,-0.04 0.06,-0.02 0.09,-0.05 0.16,-0.03 0.09,0.03 0.21,0.09 0.31,0.11 0.15,-0.16 0.23,-0.62 0.19,-0.91 -0.07,-0.04 -0.14,-0.05 -0.21,-0.1 -0.08,-0.06 -0.38,-0.47 -0.43,-0.55 0.04,-0.04 0.8,-0.5 0.88,-0.56 0.08,-0.05 0.22,-0.15 0.3,-0.18l0 -0.12c-0.02,-0.02 0,0 -0.02,-0.02 -0.06,-0.05 -0.09,-0.08 -0.14,-0.05 -0.17,0.11 -1.11,0.72 -1.19,0.74 -0.08,-0.14 -0.13,-0.15 -0.25,-0.16z"/>
 </g>
</svg>
