<?xml version="1.0" encoding="UTF-8"?>
<!DOCTYPE svg PUBLIC "-//W3C//DTD SVG 1.0//EN" "http://www.w3.org/TR/2001/REC-SVG-20010904/DTD/svg10.dtd">
<!-- Creator: CorelDRAW 2021 (64-Bit) -->
<svg xmlns="http://www.w3.org/2000/svg" xml:space="preserve" width="0.24237in" height="0.353323in" version="1.0" style="shape-rendering:geometricPrecision; text-rendering:geometricPrecision; image-rendering:optimizeQuality; fill-rule:evenodd; clip-rule:evenodd"
viewBox="0 0 2.62 3.82"
 xmlns:xlink="http://www.w3.org/1999/xlink"
 xmlns:xodm="http://www.corel.com/coreldraw/odm/2003">
 <defs>
  <style type="text/css">
   <![CDATA[
    .str0 {stroke:#016189;stroke-width:0.03;stroke-miterlimit:2.61313}
    .fil0 {fill:#016189}
   ]]>
  </style>
 </defs>
 <g id="Layer_x0020_1">
  <metadata id="CorelCorpID_0Corel-Layer"/>
  <path class="fil0 str0" d="M0.36 3.81l0.12 -0.04c0.08,-0.08 0.83,-0.39 1.04,-0.48 0.21,-0.09 0.16,-0.07 0.24,-0.22l0.53 -1.01c0.01,-0.01 0.01,-0.02 0.02,-0.03 0.02,-0.03 -0,-0.01 0.03,-0.03 0.03,-0.15 0.35,-0.56 0.24,-0.66 -0.16,-0.07 -0.22,0.13 -0.27,0.23 -0.06,0.12 -0.12,0.23 -0.18,0.34l-0.58 1.1c-0.06,0.09 -0.42,0.23 -0.54,0.28 -0.2,0.09 -0.39,0.17 -0.58,0.26 -0.08,-0.34 -0.13,-0.71 -0.2,-1.05 -0.03,-0.14 -0.02,-0.13 0.03,-0.22l0.77 -1.51c0.05,-0.11 0.23,-0.52 0.35,-0.54 0.08,0.01 0.56,0.28 0.67,0.33 0.28,0.14 0.25,0.1 -0.03,0.62l-0.54 1.03c-0.06,0.1 -0.35,0.17 -0.47,0.2 -0.15,-0.54 -0.19,-0.31 0.12,-0.9 0.07,-0.13 0.13,-0.24 0.2,-0.38 0.04,-0.09 0.21,-0.31 0.11,-0.41 -0.12,-0.06 -0.16,0.05 -0.2,0.12 -0.04,0.08 -0.08,0.14 -0.12,0.22 -0.08,0.16 -0.46,0.81 -0.44,0.94 0.02,0.09 0.07,0.24 0.1,0.34 0.12,0.39 0.08,0.33 0.61,0.15 0.26,-0.09 0.18,-0.01 0.38,-0.39l0.22 -0.41c0.03,-0.04 0.01,-0.02 0.04,-0.05 0.01,-0.08 0.22,-0.48 0.28,-0.53 0.02,-0.14 0.16,-0.22 0.15,-0.41 -0.02,-0.23 -0.2,-0.28 -0.32,-0.34l-0.59 -0.31c-0.13,-0.07 -0.08,-0.03 -0.22,-0.05l-0.07 0.02c-0.09,0.08 -0.12,0.07 -0.17,0.18l-0.1 0.22c-0.08,0.15 -0.15,0.28 -0.22,0.42l-0.67 1.27c-0.13,0.24 -0.11,0.17 -0.05,0.52l0.17 0.9c0.03,0.16 0.01,0.19 0.13,0.26z"/>
 </g>
</svg>
