<?xml version="1.0" encoding="UTF-8"?>
<!DOCTYPE svg PUBLIC "-//W3C//DTD SVG 1.0//EN" "http://www.w3.org/TR/2001/REC-SVG-20010904/DTD/svg10.dtd">
<!-- Creator: CorelDRAW 2021 (64-Bit) -->
<svg xmlns="http://www.w3.org/2000/svg" xml:space="preserve" width="0.788654in" height="0.621543in" version="1.0" style="shape-rendering:geometricPrecision; text-rendering:geometricPrecision; image-rendering:optimizeQuality; fill-rule:evenodd; clip-rule:evenodd"
viewBox="0 0 108.28 85.34"
 xmlns:xlink="http://www.w3.org/1999/xlink"
 xmlns:xodm="http://www.corel.com/coreldraw/odm/2003">
 <defs>
  <style type="text/css">
   <![CDATA[
    .fil1 {fill:#283955}
    .fil0 {fill:#EEEEEE}
   ]]>
  </style>
 </defs>
 <g id="Layer_x0020_1">
  <metadata id="CorelCorpID_0Corel-Layer"/>
  <path class="fil0" d="M16.34 74.9c0.39,-0.25 0.14,-0.17 0.77,-0.31 0.46,-0.1 0.75,-0.11 1.22,-0.12 9.35,-0.21 21.5,0.08 31.25,0.05 3.3,-0.01 3.68,-0.49 4.21,0.7 -1.1,0.91 -17.36,0.45 -18.7,0.44 -1.38,-0.01 -17.25,0.46 -18.39,-0.35l-0.36 -0.41zm0.02 -7.08c0.37,-0.59 0.89,-0.73 1.65,-0.78 4.35,-0.3 25.29,0.04 31.57,0.02 0.72,-0 1.6,-0.05 2.29,-0.04 2,0.05 1.77,0.38 1.9,0.8 -0.41,0.32 0.22,0.1 -0.71,0.32l-32.14 0.07c-1.34,-0.01 -3.42,0.34 -4.57,-0.39zm37.43 -7.41c-1.35,0.77 -6.88,0.74 -7.96,-0.03 0.58,-1.25 3.56,-0.78 6.36,-0.78 1.9,0 1.36,-0.09 1.59,0.81zm-19.68 0c-0.34,0.23 0.64,0.02 -0.67,0.29l-12.83 0.07c-2.31,0.02 -3.43,0.37 -4.33,-0.51 0.88,-1.31 10.17,-0.67 13.66,-0.68l3.7 0.09c1.02,0.53 0.28,-0.24 0.46,0.74zm-17.78 -7.73c0.31,-0.34 -0.31,-0.54 2,-0.53l16.78 -0.02c1.44,0.22 0.6,0.07 1.01,0.55 -0.74,1.11 -1.5,0.6 -4.57,0.59 -1.72,-0 -3.42,0.02 -5.13,0.03 -1.7,0.01 -3.41,0.01 -5.11,-0.02l-3.92 -0.01c-1.78,-0.31 -0.41,-0.16 -1.06,-0.6zm-0.02 -7.41c0.31,-0.46 -0.15,-0.62 2.02,-0.61l13.87 0.02c1.51,0 3.85,-0.3 4.61,0.59 -0.9,1.04 -8.36,0.57 -10.05,0.55 -1.82,-0.02 -3.63,-0.01 -5.45,0.02l-3.93 0.04c-1.83,-0.29 -0.51,0.2 -1.07,-0.61zm38.32 -29.41l-12.96 -0.11 -1.36 -1.82c-2.94,1.22 0.79,1.96 -6.12,1.82l-24.96 0.02c-0.13,10.22 -0.04,20.54 -0.04,30.78 0,9.89 -0.42,20.86 0.04,30.61 0.27,5.76 4.93,5.12 10.1,5.14 5.15,0.01 10.35,-0.03 15.49,0.02 10.34,0.11 20.72,0.01 31.07,0.01 -1.66,-3.03 -1.66,-3.36 -1.62,-7.44 0.03,-3.01 -0.01,-6.01 -0.01,-9.02 -0,-5.76 0.28,-12.2 -0.02,-17.87 -2.69,2.51 -1.72,1.84 -6.59,1.91 -2.73,0.04 -6.05,-0.06 -8.71,0.22 0.65,0.4 1.21,0.59 1.99,0.89 1.31,0.51 1.23,0.29 1.55,1.45 -1.45,0.42 -4.77,-1.58 -6.59,-2.05 0.36,1.75 1.17,2.85 0.94,4.35 -1.44,-0.62 -1.12,-0.93 -1.56,-2.53 -0.08,0.06 -0.18,0.06 -0.22,0.19 -0.03,0.13 -0.16,0.14 -0.2,0.2 -1.34,1.62 -3.16,10.22 -5.26,8.81 -0.75,-0.5 -0.66,-2.28 -0.47,-3.15 0.21,-0.99 0.77,-2.19 1.08,-3.06 0.75,-2.05 2.08,-4 2.65,-5.77l-2.55 0.05c0.38,-1.62 0.39,-1.03 2.55,-1.27 -1.42,-2.83 -4.12,-3.37 -3.05,-4.41 0.61,-0.68 1.15,0.45 1.79,1.07 0.93,0.9 1.15,1.1 1.83,1.87l-0.48 -8.4 -25.24 0.03c-1.21,-0.1 -1.1,-0.23 -1.37,-0.54 0.68,-0.93 1.29,-0.63 2.66,-0.61l23.82 -0.04 -0.35 -4.53c1.06,-0.88 0.94,-0.45 1.43,-1.72l-21.33 -0.05c-1.77,0.02 -5.42,0.64 -6.28,-0.63 1.88,-1.25 16.86,-0.52 20.43,-0.52 2.52,-0 7.69,1 9.42,-0.85 1.36,-1.47 3.69,-4.55 4.89,-5.37 -8.36,-0.72 -24.23,0.38 -33.02,-0.03 -1.83,-0.09 -1.12,0.28 -1.66,-0.79 0.88,-0.56 0.05,-0.27 1.36,-0.41l27.38 0.01c10.05,0.02 4.52,1.51 15.05,-6.79l4.19 -3.05c0,-2.37 0.4,-5.02 -0.68,-7.01 -0.26,-0.48 -0.39,-0.73 -0.83,-1.11l-1.2 -0.74c-3.21,-1.56 -6.7,0.38 -7.04,4.03 -0.19,2.06 -0.16,6.15 0.05,8.2z"/>
  <path class="fil1" d="M67.24 54.13c3.34,0.02 2.34,1.65 4.88,2.72 2.99,-1.4 1.42,-2.67 4.85,-2.68 0.02,5.52 0.03,11.03 0.03,16.54 0,5.19 0.86,11.74 -4.87,11.56 -6.27,-0.2 -4.85,-7.19 -4.85,-11.56 -0,-5.52 -0.01,-11.04 -0.03,-16.58zm-12.62 -38.27c-0.21,-2.04 -0.24,-6.14 -0.05,-8.2 0.34,-3.65 3.83,-5.59 7.04,-4.03l1.2 0.74c0.43,0.38 0.56,0.62 0.83,1.11 1.08,1.99 0.68,4.64 0.68,7.01l-4.19 3.05c-10.52,8.3 -5,6.81 -15.05,6.79l-27.38 -0.01c-1.31,0.14 -0.48,-0.15 -1.36,0.41 0.54,1.07 -0.17,0.71 1.66,0.79 8.79,0.41 24.66,-0.69 33.02,0.03 -1.21,0.82 -3.53,3.9 -4.89,5.37 -1.72,1.85 -6.89,0.85 -9.42,0.85 -3.56,0 -18.54,-0.74 -20.43,0.52 0.86,1.27 4.5,0.65 6.28,0.63l21.33 0.05c-0.49,1.27 -0.37,0.84 -1.43,1.72l0.35 4.53 -23.82 0.04c-1.37,-0.02 -1.98,-0.32 -2.66,0.61 0.27,0.3 0.16,0.44 1.37,0.54l25.24 -0.03 0.48 8.4c-0.68,-0.76 -0.91,-0.97 -1.83,-1.87 -0.64,-0.62 -1.18,-1.75 -1.79,-1.07 -1.08,1.04 1.63,1.58 3.05,4.41 -2.16,0.24 -2.17,-0.35 -2.55,1.27l2.55 -0.05c-0.57,1.77 -1.9,3.73 -2.65,5.77 -0.32,0.87 -0.87,2.07 -1.08,3.06 -0.19,0.88 -0.28,2.65 0.47,3.15 2.09,1.41 3.91,-7.2 5.26,-8.81 0.04,-0.05 0.17,-0.07 0.2,-0.2 0.03,-0.13 0.14,-0.13 0.22,-0.19 0.44,1.6 0.12,1.91 1.56,2.53 0.23,-1.5 -0.58,-2.6 -0.94,-4.35 1.83,0.47 5.15,2.47 6.59,2.05 -0.32,-1.16 -0.24,-0.94 -1.55,-1.45 -0.78,-0.3 -1.34,-0.49 -1.99,-0.89 2.66,-0.29 5.97,-0.18 8.71,-0.22 4.87,-0.07 3.91,0.6 6.59,-1.91 0.31,5.67 0.02,12.12 0.02,17.87 0,3.01 0.04,6.01 0.01,9.02 -0.04,4.07 -0.03,4.4 1.62,7.44 -10.35,0 -20.73,0.1 -31.07,-0.01 -5.14,-0.05 -10.34,-0.01 -15.49,-0.02 -5.17,-0.01 -9.83,0.63 -10.1,-5.14 -0.46,-9.75 -0.04,-20.72 -0.04,-30.61 -0,-10.24 -0.09,-20.56 0.04,-30.78l24.96 -0.02c6.91,0.14 3.18,-0.6 6.12,-1.82l1.36 1.82 12.96 0.11zm-8.42 28.02c-0.64,-8.03 -2.03,-9.4 1.42,-12.43 0.65,-0.57 0.07,0.02 0.69,-0.62l1.61 -1.96c0.83,-0.99 1.57,-1.76 2.48,-2.68 0.28,-0.29 0.38,-0.37 0.65,-0.66l10.21 -8.74c0.51,-0.35 0.88,-0.7 1.49,-1.09l1.68 -0.94c1.9,-1.14 5.07,-1.65 7.71,-2.24l8.3 -1.99c2.36,-0.56 5.16,-1.71 7.57,0.29 -0.89,1.65 -2.13,3.26 -2.95,5.02 3.25,-0.46 6.76,-1.55 8.61,-1.83 1.59,-0.24 5.42,1.41 6.88,2.45 0.7,0.5 0.33,0.13 0.83,0.8l-6.41 7.79c-4.48,5.91 -3.3,4.86 -8.42,6.08 -16.23,3.88 -4.81,3.65 -24.96,3.87l4.28 3.22c0.66,0.59 0.71,0.65 1.11,1.34 -2.83,1.65 -6.04,6.21 -7.43,7.07 -1.41,0.86 -11.08,0.53 -13.63,0.53 1.87,-3.64 5.76,-7.75 8.09,-10.27l0.77 -0.84c1.76,-1.94 6.39,-5.81 8.93,-7.51l7.76 -4.13c5.75,-2.46 7.45,-1.99 11.55,-2.68 1.23,-0.21 0.8,0.39 0.89,-0.62 -0.14,-0.57 -0.49,-0.65 -1.84,-0.68 -11.56,-0.24 -25.49,8.72 -32.68,17.31 -0.65,0.78 -1.15,1.19 -1.88,1.97 -1.05,1.12 -2.09,2.99 -3.3,4.16zm-43.36 -30.97c0,-11.85 0.8,-9.83 20.65,-9.82 4.63,0 27.11,-0.58 29.74,0.2 -1.79,1.17 -1.59,6.86 -1.59,9.57l-8.88 -0.05c-0.43,-0.89 -2.06,-2.82 -2.85,-3.45 -1.29,1.33 -2.2,2.41 -2.75,3.52l-34.32 0.02zm-2.85 2.86l6.25 -0 0.08 21.78c0.03,7.4 -0.02,14.81 -0.02,22.22 0,4.66 -0.75,17.85 0.87,21.17 2.79,5.69 11.11,4.24 17.92,4.24 14.7,0 29.41,0.01 44.11,0.03 5.31,0.01 9.28,-0.9 10.38,-5.99 0.89,-4.12 -0.65,-23.08 0.41,-27.71 -1.48,-0.34 -3.45,-0.44 -5,-0.21 -2.22,0.33 -0.87,1.3 -3.38,1.83 -1.4,-1.7 -1.35,-1.83 -4.25,-1.83 -0.26,-1.44 -0.12,-2.94 -0.13,-4.42 -0.01,-2.39 -0.04,-2.35 2.45,-4.31l3.87 -3.19 -0.65 -0.99c-0.48,-0.59 -0.22,0.06 -0.65,-0.66 6.62,-0.04 11.44,-2.54 17.38,-3.9 7.12,-1.63 4.22,-0.76 8.61,-5.82l10.02 -12.07c-2.3,-1.25 -4.68,-2.27 -7.01,-3.34 -4.63,-2.1 -2.86,-1.77 -8.09,-1.01l1.42 -2.58c-2.06,-0.7 -4.3,-1.34 -6.44,-1.99 -2.54,-0.77 -4.54,0.17 -7.08,0.84 -4.58,1.22 -9.23,2.1 -13.85,3.26 -0.14,-4.34 0.02,-6.6 -2.6,-8.91 -2.7,-2.38 -5.42,-1.96 -9.57,-1.98 -7.83,-0.03 -15.68,-0 -23.52,0 -29.8,0 -31.55,-3.37 -31.55,15.55z"/>
  <path class="fil0" d="M46.21 43.89c1.21,-1.17 2.25,-3.04 3.3,-4.16 0.73,-0.78 1.23,-1.19 1.88,-1.97 7.19,-8.59 21.12,-17.55 32.68,-17.31 1.35,0.03 1.7,0.11 1.84,0.68 -0.09,1.01 0.34,0.41 -0.89,0.62 -4.09,0.69 -5.8,0.21 -11.55,2.68l-7.76 4.13c-2.53,1.7 -7.16,5.57 -8.93,7.51l-0.77 0.84c-2.33,2.52 -6.22,6.63 -8.09,10.27 2.54,-0 12.22,0.33 13.63,-0.53 1.4,-0.86 4.6,-5.42 7.43,-7.07 -0.39,-0.69 -0.44,-0.75 -1.11,-1.34l-4.28 -3.22c20.14,-0.22 8.72,0.01 24.96,-3.87 5.12,-1.22 3.94,-0.17 8.42,-6.08l6.41 -7.79c-0.5,-0.68 -0.13,-0.3 -0.83,-0.8 -1.46,-1.04 -5.29,-2.69 -6.88,-2.45 -1.86,0.28 -5.36,1.37 -8.61,1.83 0.82,-1.76 2.05,-3.37 2.95,-5.02 -2.41,-2.01 -5.21,-0.85 -7.57,-0.29l-8.3 1.99c-2.65,0.58 -5.81,1.09 -7.71,2.24l-1.68 0.94c-0.61,0.39 -0.98,0.74 -1.49,1.09l-10.21 8.74c-0.28,0.29 -0.37,0.38 -0.65,0.66 -0.91,0.92 -1.65,1.69 -2.48,2.68l-1.61 1.96c-0.63,0.63 -0.04,0.04 -0.69,0.62 -3.45,3.02 -2.06,4.4 -1.42,12.43z"/>
  <path class="fil0" d="M2.85 12.92l34.32 -0.02c0.55,-1.12 1.47,-2.2 2.75,-3.52 0.79,0.63 2.42,2.57 2.85,3.45l8.88 0.05c0,-2.72 -0.2,-8.41 1.59,-9.57 -2.63,-0.78 -25.11,-0.2 -29.74,-0.2 -19.85,-0.02 -20.65,-2.03 -20.65,9.82z"/>
  <path class="fil0" d="M67.24 54.13c0.02,5.54 0.03,11.06 0.03,16.58 0,4.37 -1.41,11.36 4.85,11.56 5.74,0.18 4.88,-6.37 4.87,-11.56 -0,-5.5 -0.01,-11.01 -0.03,-16.54 -3.42,0.01 -1.85,1.28 -4.85,2.68 -2.54,-1.07 -1.54,-2.7 -4.88,-2.72z"/>
  <path class="fil1" d="M17.11 74.59c-0.63,0.14 -0.38,0.06 -0.77,0.31l0.36 0.41c1.14,0.81 17,0.34 18.39,0.35 1.34,0.01 17.6,0.47 18.7,-0.44 -0.53,-1.2 -0.91,-0.71 -4.21,-0.7 -9.75,0.03 -21.9,-0.26 -31.25,-0.05 -0.47,0.01 -0.77,0.02 -1.22,0.12z"/>
  <path class="fil1" d="M18.01 67.03c-0.76,0.05 -1.29,0.2 -1.65,0.78 1.14,0.72 3.23,0.38 4.57,0.39l32.14 -0.07c0.93,-0.21 0.3,0 0.71,-0.32 -0.14,-0.42 0.09,-0.75 -1.9,-0.8 -0.7,-0.02 -1.57,0.03 -2.29,0.04 -6.28,0.02 -27.22,-0.32 -31.57,-0.02z"/>
  <path class="fil1" d="M18.32 44.66c-2.17,-0.01 -1.71,0.16 -2.02,0.61 0.55,0.81 -0.77,0.31 1.07,0.61l3.93 -0.04c1.82,-0.03 3.63,-0.03 5.45,-0.02 1.69,0.02 9.16,0.49 10.05,-0.55 -0.76,-0.89 -3.1,-0.59 -4.61,-0.59l-13.87 -0.02z"/>
  <path class="fil1" d="M18.33 52.15c-2.32,-0.01 -1.69,0.19 -2,0.53 0.65,0.44 -0.72,0.29 1.06,0.6l3.92 0.01c1.7,0.02 3.41,0.03 5.11,0.02 1.71,-0.01 3.41,-0.03 5.13,-0.03 3.07,0 3.83,0.51 4.57,-0.59 -0.41,-0.49 0.43,-0.33 -1.01,-0.55l-16.78 0.02z"/>
  <path class="fil1" d="M33.44 60.7c1.31,-0.27 0.33,-0.05 0.67,-0.29 -0.19,-0.98 0.55,-0.21 -0.46,-0.74l-3.7 -0.09c-3.49,0.01 -12.78,-0.64 -13.66,0.68 0.9,0.88 2.02,0.54 4.33,0.51l12.83 -0.07z"/>
  <path class="fil1" d="M45.83 60.38c1.08,0.77 6.6,0.8 7.96,0.03 -0.24,-0.9 0.31,-0.81 -1.59,-0.81 -2.8,-0 -5.79,-0.47 -6.36,0.78z"/>
 </g>
</svg>
