<?xml version="1.0" encoding="UTF-8"?>
<!DOCTYPE svg PUBLIC "-//W3C//DTD SVG 1.0//EN" "http://www.w3.org/TR/2001/REC-SVG-20010904/DTD/svg10.dtd">
<!-- Creator: CorelDRAW 2021 (64-Bit) -->
<svg xmlns="http://www.w3.org/2000/svg" xml:space="preserve" width="0.294276in" height="0.372563in" version="1.0" style="shape-rendering:geometricPrecision; text-rendering:geometricPrecision; image-rendering:optimizeQuality; fill-rule:evenodd; clip-rule:evenodd"
viewBox="0 0 4.54 5.74"
 xmlns:xlink="http://www.w3.org/1999/xlink"
 xmlns:xodm="http://www.corel.com/coreldraw/odm/2003">
 <defs>
  <style type="text/css">
   <![CDATA[
    .fil3 {fill:#FEFEFE}
    .fil0 {fill:#016189}
    .fil2 {fill:#841F3B}
    .fil1 {fill:#FCFCFC}
   ]]>
  </style>
 </defs>
 <g id="Layer_x0020_1">
  <metadata id="CorelCorpID_0Corel-Layer"/>
  <g id="_2418491333568">
   <path class="fil0" d="M4.42 3.04c-0.15,0.02 -0.11,0.18 -0.11,0.31l0 1.27c-1.22,0 -2.47,0.01 -3.68,-0 -0.2,-0 -0.26,0.03 -0.4,0.11 -0.01,-0.06 -0.01,-0.39 0,-0.43l0.65 -0.66c0.24,-0.24 0.67,-0.66 0.87,-0.88 0.05,0.02 0.15,0.15 0.2,0.19 -0,0.13 -0.02,0.12 0.01,0.26 -0.11,0 -0.23,-0.02 -0.26,0.07 -0.02,0.05 -0.01,0.26 -0.01,0.33 0,0.39 -0.05,0.45 0.21,0.45l1.67 -0c0.1,0 0.23,0.02 0.26,-0.07 0.01,-0.04 0.01,-0.58 0.01,-0.66 -0.01,-0.13 -0.1,-0.12 -0.22,-0.12l-1 -0c0.03,-0.05 0.43,-0.44 0.51,-0.52 0.07,-0.07 0.19,-0.16 0.22,-0.3 0.04,-0.23 -0.14,-0.41 -0.34,-0.41 -0.17,0 -0.04,0.1 -0.43,-0.29l-0.63 -0.64c-0.01,-0.02 0.08,-0.39 -0.26,-0.46 -0.17,-0.03 -0.26,0.05 -0.36,0.14 -0.11,0.11 -0.71,0.69 -0.75,0.77 -0.07,0.14 -0.04,0.29 0.05,0.39 0.15,0.18 0.35,0.09 0.38,0.11l0.19 0.19c-0.04,0.08 -0.82,0.81 -0.98,0.99 -0.02,-0.12 -0,-0.32 -0,-0.45l-0 -1.32c0,-0.29 -0.01,-0.61 0,-0.89 0.01,-0.14 0.08,-0.23 0.16,-0.28 0.11,-0.07 0.25,-0.05 0.39,-0.05 1.18,0.01 2.36,-0 3.53,-0l-0 1.62c-0,0.21 -0.04,0.4 0.11,0.41 0.11,0 0.11,-0.08 0.11,-0.19l0 -1.87c0,-0.12 0,-0.18 -0.11,-0.19l-2.52 0 -0.02 0 -0.02 0 -0.02 0 -0.02 0 -0.02 0 -0.02 0 -0.02 0 -0.02 0 -0.02 0 -0.02 0 -0.02 0 -0.02 0 -0.02 0 -0.02 0 -0.02 0 -0.02 0 -0.02 0 -0.02 0 -0.02 0 -0.02 0 -0.02 0 -0.02 0 -0.02 0 -0.02 0 -0.02 0 -0.02 0 -0.02 0 -0.02 0 -0.02 0 -0.02 0 -0.02 0 -0.02 0 -0.02 0 -0.02 0 -0.02 0 -0.02 0 -0.02 0 -0.02 0 -0.02 0 -0.02 0 -0.02 0 -0.02 0 -0.02 0 -0.02 0 -0.02 0 -0.02 0 -0.02 0 -0.02 0 -0.02 0 -0.02 0 -0.02 0 -0.02 0 -0.02 0 -0.02 0 -0.02 0 -0.02 0 -0.02 0 -0.02 0 -0.02 0 -0.02 0 -0.02 0 -0.02 0 -0.02 0 -0.02 0 -0.13 0c-0.05,0 -0.09,0.01 -0.15,0.03 -0.09,0.03 -0.14,0.06 -0.2,0.12 -0.01,0.01 -0.01,0.01 -0.02,0.02 -0.01,0.01 -0.01,0.02 -0.02,0.02 -0.05,0.05 -0.06,0.07 -0.09,0.14 -0.04,0.09 -0.05,0.14 -0.05,0.27l0 4.36c0,0.26 -0.02,0.37 0.09,0.54 0.07,0.11 0.21,0.22 0.37,0.24 0.01,0 0.04,0 0.1,0l3.66 0 0.18 0c0.16,-0 0.14,-0.05 0.14,-0.31l0 -2.19c0,-0.12 0.01,-0.2 -0.11,-0.2z"/>
   <path class="fil1" d="M4.31 5.52l-0 -0.67 -3.31 -0c-0.12,0 -0.44,-0.01 -0.53,0.01 -0.31,0.09 -0.32,0.54 -0.01,0.64 0.11,0.04 1.47,0.02 1.64,0.02 0.74,0 1.47,0 2.21,0z"/>
   <path class="fil2" d="M1.2 1.88l0.9 0.9 0.63 -0.62c-0.03,-0.05 -0.37,-0.38 -0.45,-0.46 -0.07,-0.07 -0.41,-0.42 -0.46,-0.45l-0.63 0.63z"/>
   <path class="fil3" d="M1.93 3.85l1.71 -0 -0 -0.4 -1.71 -0 -0 0.4z"/>
   <path class="fil2" d="M0.23 3.57l0 0.41 1.03 -1.03 -0.22 -0.23c-0.05,0.02 -0.6,0.59 -0.72,0.71 -0.04,0.04 -0.09,0.06 -0.09,0.13z"/>
   <path class="fil2" d="M1.61 0.84c-0.08,0.03 -0.2,0.17 -0.26,0.23l-0.49 0.49c-0.18,0.18 -0.01,0.28 0.08,0.24 0.05,-0.02 0.62,-0.6 0.74,-0.72 0.17,-0.17 0.01,-0.27 -0.08,-0.24z"/>
   <path class="fil2" d="M3.01 2.23c-0.07,0.02 -0.2,0.18 -0.26,0.23l-0.49 0.49c-0.19,0.19 -0.01,0.27 0.07,0.25 0.05,-0.02 0.21,-0.19 0.25,-0.23 0.09,-0.08 0.16,-0.16 0.25,-0.25 0.08,-0.08 0.16,-0.16 0.24,-0.24 0.18,-0.18 0.01,-0.27 -0.06,-0.25z"/>
   <path class="fil2" d="M2.86 0.66c-0.11,0.04 -0.1,0.18 -0.01,0.21 0.06,0.02 1.04,0.01 1.06,0 0.09,-0.03 0.09,-0.18 0,-0.21 -0.05,-0.02 -1.02,-0.01 -1.06,0z"/>
   <path class="fil2" d="M3.36 1.15c-0.06,0.02 -0.1,0.08 -0.08,0.15 0.02,0.07 0.08,0.08 0.16,0.07 0.09,-0 0.41,0.01 0.47,-0 0.06,-0.01 0.1,-0.08 0.08,-0.15 -0.02,-0.06 -0.08,-0.08 -0.16,-0.07 -0.09,0 -0.41,-0.01 -0.47,0z"/>
   <path class="fil2" d="M1.19 2.57l0.22 0.22c0.04,-0.02 0.17,-0.15 0.19,-0.19l-0.22 -0.22c-0.04,0.02 -0.17,0.15 -0.19,0.19z"/>
   <path class="fil2" d="M4.42 2.76c0.16,-0 0.15,-0.22 0,-0.22 -0.14,0.02 -0.16,0.2 0,0.22z"/>
  </g>
 </g>
</svg>
