<?xml version="1.0" encoding="UTF-8"?>
<!DOCTYPE svg PUBLIC "-//W3C//DTD SVG 1.0//EN" "http://www.w3.org/TR/2001/REC-SVG-20010904/DTD/svg10.dtd">
<!-- Creator: CorelDRAW 2021 (64-Bit) -->
<svg xmlns="http://www.w3.org/2000/svg" xml:space="preserve" width="0.382224in" height="0.382224in" version="1.0" style="shape-rendering:geometricPrecision; text-rendering:geometricPrecision; image-rendering:optimizeQuality; fill-rule:evenodd; clip-rule:evenodd"
viewBox="0 0 8.65 8.65"
 xmlns:xlink="http://www.w3.org/1999/xlink"
 xmlns:xodm="http://www.corel.com/coreldraw/odm/2003">
 <defs>
  <style type="text/css">
   <![CDATA[
    .fil0 {fill:#016189}
    .fil2 {fill:#FAFDFA}
    .fil1 {fill:#FCFCFE}
   ]]>
  </style>
 </defs>
 <g id="Layer_x0020_1">
  <metadata id="CorelCorpID_0Corel-Layer"/>
  <g id="_2418482178464">
   <circle class="fil0" cx="4.33" cy="4.33" r="4.33"/>
   <path class="fil1" d="M0.11 5.28l0.13 0.23 1.32 0.02c0.12,0.2 0.02,1.42 0.04,1.78 0.1,0.06 0.2,0.14 0.3,0.23 0.75,0.41 1.57,0.74 2.67,0.67 0.5,-0.03 0.95,-0.13 1.37,-0.3 0.33,-0.13 0.95,-0.39 1.05,-0.64l0.03 -1.73 1.34 -0.01c0.1,-0.12 0.06,-0.06 0.07,-0.23 -0.71,0.05 -1.5,0 -2.19,-0.06 -0.58,-0.06 -1.42,-0.2 -2.01,-0.18 -1.32,0.03 -2.74,0.4 -4.13,0.24z"/>
   <path class="fil2" d="M2.64 3.26c0.67,-0.28 1.01,0.78 0.36,1.02 -0.63,0.23 -1.12,-0.7 -0.36,-1.02zm-0.89 0.77c0.11,0.49 0.66,0.95 1.32,0.79 0.49,-0.11 0.95,-0.65 0.79,-1.31 -0.31,-1.34 -2.45,-0.94 -2.12,0.52z"/>
   <path class="fil2" d="M5.81 3.23c0.68,-0.18 0.94,0.88 0.26,1.05 -0.7,0.18 -1.01,-0.86 -0.26,-1.05zm1.18 0.74c0.15,-0.64 -0.32,-1.16 -0.82,-1.28 -0.65,-0.15 -1.19,0.3 -1.3,0.82 -0.3,1.41 1.79,1.9 2.13,0.46z"/>
  </g>
 </g>
</svg>
