<?xml version="1.0" encoding="UTF-8"?>
<!DOCTYPE svg PUBLIC "-//W3C//DTD SVG 1.0//EN" "http://www.w3.org/TR/2001/REC-SVG-20010904/DTD/svg10.dtd">
<!-- Creator: CorelDRAW 2021 (64-Bit) -->
<svg xmlns="http://www.w3.org/2000/svg" xml:space="preserve" width="1.56809in" height="0.674035in" version="1.0" style="shape-rendering:geometricPrecision; text-rendering:geometricPrecision; image-rendering:optimizeQuality; fill-rule:evenodd; clip-rule:evenodd"
viewBox="0 0 976.48 419.74"
 xmlns:xlink="http://www.w3.org/1999/xlink"
 xmlns:xodm="http://www.corel.com/coreldraw/odm/2003">
 <defs>
  <style type="text/css">
   <![CDATA[
    .str2 {stroke:#016189;stroke-width:8.65;stroke-miterlimit:2.61313}
    .str1 {stroke:#841F3B;stroke-width:8.65;stroke-miterlimit:2.61313}
    .str0 {stroke:#016189;stroke-width:8.65;stroke-miterlimit:2.61313;stroke-dasharray:8.649451 25.948353}
    .fil0 {fill:none}
   ]]>
  </style>
 </defs>
 <g id="Layer_x0020_1">
  <metadata id="CorelCorpID_0Corel-Layer"/>
  <path class="fil0 str0" d="M3.77 248.09c27.47,-48.9 79.84,-81.94 139.92,-81.94 75.16,0 138.24,51.7 155.63,121.46"/>
  <path class="fil0 str0" d="M386.54 327.92c-8.07,-80.27 26.28,-162.45 97.02,-212.11 88.48,-62.11 205.47,-53.38 283.6,14.4"/>
  <path class="fil0 str1" d="M795.55 1.33l41.92 129.88 136.48 -0.26 -110.56 80 42.42 129.71 -110.26 -80.43 -110.26 80.43 42.42 -129.71 -110.56 -80 136.47 0.26 41.92 -129.88z"/>
  <path class="fil0 str2" d="M338.35 268.82l18.21 56.42 59.29 -0.11 -48.03 34.76 18.43 56.36 -47.9 -34.94 -47.9 34.94 18.43 -56.36 -48.04 -34.76 59.29 0.11 18.21 -56.42z"/>
 </g>
</svg>
