<?xml version="1.0" encoding="UTF-8"?>
<!DOCTYPE svg PUBLIC "-//W3C//DTD SVG 1.0//EN" "http://www.w3.org/TR/2001/REC-SVG-20010904/DTD/svg10.dtd">
<!-- Creator: CorelDRAW 2021 (64-Bit) -->
<svg xmlns="http://www.w3.org/2000/svg" xml:space="preserve" width="0.376929in" height="0.237508in" version="1.0" style="shape-rendering:geometricPrecision; text-rendering:geometricPrecision; image-rendering:optimizeQuality; fill-rule:evenodd; clip-rule:evenodd"
viewBox="0 0 6.34 4"
 xmlns:xlink="http://www.w3.org/1999/xlink"
 xmlns:xodm="http://www.corel.com/coreldraw/odm/2003">
 <defs>
  <style type="text/css">
   <![CDATA[
    .fil0 {fill:#016189;fill-rule:nonzero}
   ]]>
  </style>
 </defs>
 <g id="Layer_x0020_1">
  <metadata id="CorelCorpID_0Corel-Layer"/>
  <path id="download_x0020__x0028_1_x0029_.svg" class="fil0" d="M6.28 0.36c-0.04,-0.02 -0.09,-0.03 -0.13,-0l-1.46 0.79 0 -0.48c-0,-0.37 -0.3,-0.67 -0.67,-0.67l-3.35 0c-0.37,0 -0.67,0.3 -0.67,0.67l0 2.65c0,0.37 0.3,0.67 0.67,0.67l3.35 0c0.37,-0 0.67,-0.3 0.67,-0.67l0 -0.47 1.46 0.79c0.04,0.02 0.09,0.02 0.13,-0 0.04,-0.02 0.07,-0.07 0.07,-0.12l0 -3.06c0,-0.05 -0.03,-0.09 -0.07,-0.12l0 0zm-1.86 2.97c-0,0.22 -0.18,0.4 -0.4,0.4l-3.34 0c-0.22,-0 -0.4,-0.18 -0.4,-0.4l0 -2.65c0,-0.22 0.18,-0.4 0.4,-0.4l3.35 0c0.22,0 0.4,0.18 0.4,0.4l-0 2.65zm1.65 -0.02l-1.39 -0.76 0 -1.1 1.39 -0.76 0 2.61zm0 0z"/>
 </g>
</svg>
